<svg width="27" height="27" viewBox="0 0 27 27" fill="none" xmlns="http://www.w3.org/2000/svg">
<path d="M5.68264 16.1338H10.1843L11.3274 21.0822H13.8659L10.1546 5H5.71127L2 21.0822H4.53975L5.68264 16.1338ZM8.18532 7.47418L9.61292 13.6596H6.25184L7.67944 7.47418H8.18532Z" fill="#242423"/>
<path d="M23.7632 11.1855V12.8928C22.8564 11.8549 21.5377 11.1855 20.0519 11.1855C17.3191 11.1855 15.1035 13.4012 15.1035 16.1339C15.1035 18.8666 17.3191 21.0823 20.0519 21.0823C21.5377 21.0823 22.8564 20.413 23.7632 19.375V21.0823H25.0002V11.1855H23.7632ZM20.0519 18.6081C18.6862 18.6081 17.5777 17.4996 17.5777 16.1339C17.5777 14.7682 18.6862 13.6597 20.0519 13.6597C21.4163 13.6597 22.5261 14.7682 22.5261 16.1339C22.5261 17.4996 21.4163 18.6081 20.0519 18.6081Z" fill="#242423"/>
</svg>
