<svg width="27" height="27" viewBox="0 0 27 27" fill="none" xmlns="http://www.w3.org/2000/svg">
<path d="M23.53 8.48154C23.5543 8.06804 23.2388 7.71312 22.8253 7.68879C22.4118 7.66447 22.0569 7.97996 22.0325 8.39346L23.53 8.48154ZM22.0777 20.3986L21.3289 20.3546L21.3289 20.3546L22.0777 20.3986ZM4.92235 20.3986L4.17364 20.4427L4.17364 20.4427L4.92235 20.3986ZM4.96746 8.39346C4.94313 7.97996 4.58821 7.66447 4.17471 7.68879C3.76121 7.71312 3.44572 8.06804 3.47004 8.48154L4.96746 8.39346ZM11.2497 11.9062C10.8355 11.9062 10.4997 12.242 10.4997 12.6562C10.4997 13.0705 10.8355 13.4062 11.2497 13.4062V11.9062ZM15.7497 13.4062C16.1639 13.4062 16.4997 13.0705 16.4997 12.6562C16.4997 12.242 16.1639 11.9062 15.7497 11.9062V13.4062ZM3.79688 4.96875H23.2031V3.46875H3.79688V4.96875ZM23.7188 5.48438V7.17188H25.2188V5.48438H23.7188ZM23.2031 7.6875H3.79687V9.1875H23.2031V7.6875ZM3.28125 7.17188V5.48438H1.78125V7.17188H3.28125ZM3.79687 7.6875C3.5121 7.6875 3.28125 7.45665 3.28125 7.17188H1.78125C1.78125 8.28507 2.68368 9.1875 3.79687 9.1875V7.6875ZM23.7188 7.17188C23.7188 7.45665 23.4879 7.6875 23.2031 7.6875V9.1875C24.3163 9.1875 25.2188 8.28507 25.2188 7.17188H23.7188ZM23.2031 4.96875C23.4879 4.96875 23.7188 5.1996 23.7188 5.48438H25.2188C25.2188 4.37118 24.3163 3.46875 23.2031 3.46875V4.96875ZM3.79688 3.46875C2.68368 3.46875 1.78125 4.37118 1.78125 5.48438H3.28125C3.28125 5.1996 3.5121 4.96875 3.79688 4.96875V3.46875ZM22.0325 8.39346L21.3289 20.3546L22.8264 20.4427L23.53 8.48154L22.0325 8.39346ZM19.5508 22.0312H7.44923V23.5312H19.5508V22.0312ZM5.67105 20.3546L4.96746 8.39346L3.47004 8.48154L4.17364 20.4427L5.67105 20.3546ZM7.44923 22.0312C6.5061 22.0312 5.72643 21.2961 5.67105 20.3546L4.17364 20.4427C4.27566 22.177 5.71189 23.5312 7.44923 23.5312V22.0312ZM21.3289 20.3546C21.2736 21.2961 20.4939 22.0312 19.5508 22.0312V23.5312C21.2881 23.5312 22.7243 22.177 22.8264 20.4427L21.3289 20.3546ZM11.2497 13.4062H15.7497V11.9062H11.2497V13.4062Z" fill="#242423"/>
</svg>
