<svg width="27" height="26" viewBox="0 0 27 26" fill="none" xmlns="http://www.w3.org/2000/svg">
<path d="M23.5299 8.17073C23.5551 7.75729 23.2404 7.40165 22.827 7.3764C22.4135 7.35114 22.0579 7.66583 22.0326 8.07927L23.5299 8.17073ZM22.0777 19.6431L21.329 19.5974L21.329 19.5974L22.0777 19.6431ZM4.92235 19.6431L4.17374 19.6889L4.17374 19.6889L4.92235 19.6431ZM4.96735 8.07927C4.9421 7.66583 4.58646 7.35114 4.17302 7.3764C3.75958 7.40165 3.44489 7.75729 3.47015 8.17073L4.96735 8.07927ZM11.489 12.0535C11.1906 11.7662 10.7158 11.7752 10.4285 12.0735C10.1412 12.3719 10.1502 12.8467 10.4485 13.134L11.489 12.0535ZM15.511 18.009C15.8094 18.2963 16.2842 18.2873 16.5715 17.989C16.8588 17.6906 16.8498 17.2158 16.5515 16.9285L15.511 18.009ZM16.5515 13.134C16.8498 12.8467 16.8588 12.3719 16.5715 12.0735C16.2842 11.7752 15.8094 11.7662 15.511 12.0535L16.5515 13.134ZM10.4485 16.9285C10.1502 17.2158 10.1412 17.6906 10.4285 17.989C10.7158 18.2873 11.1906 18.2963 11.489 18.009L10.4485 16.9285ZM3.79688 4.8125H23.2031V3.3125H3.79688V4.8125ZM23.7188 5.28125V6.90625H25.2188V5.28125H23.7188ZM23.2031 7.375H3.79687V8.875H23.2031V7.375ZM3.28125 6.90625V5.28125H1.78125V6.90625H3.28125ZM3.79687 7.375C3.48517 7.375 3.28125 7.13871 3.28125 6.90625H1.78125C1.78125 8.01999 2.71061 8.875 3.79687 8.875V7.375ZM23.7188 6.90625C23.7188 7.13871 23.5148 7.375 23.2031 7.375V8.875C24.2894 8.875 25.2188 8.01999 25.2188 6.90625H23.7188ZM23.2031 4.8125C23.5148 4.8125 23.7188 5.04879 23.7188 5.28125H25.2188C25.2188 4.16751 24.2894 3.3125 23.2031 3.3125V4.8125ZM3.79688 3.3125C2.71061 3.3125 1.78125 4.16751 1.78125 5.28125H3.28125C3.28125 5.04879 3.48517 4.8125 3.79688 4.8125V3.3125ZM22.0326 8.07927L21.329 19.5974L22.8263 19.6889L23.5299 8.17073L22.0326 8.07927ZM19.5508 21.1875H7.44923V22.6875H19.5508V21.1875ZM5.67095 19.5974L4.96735 8.07927L3.47015 8.17073L4.17374 19.6889L5.67095 19.5974ZM7.44923 21.1875C6.48094 21.1875 5.72401 20.4661 5.67095 19.5974L4.17374 19.6889C4.27808 21.397 5.73705 22.6875 7.44923 22.6875V21.1875ZM21.329 19.5974C21.276 20.4661 20.5191 21.1875 19.5508 21.1875V22.6875C21.263 22.6875 22.7219 21.397 22.8263 19.6889L21.329 19.5974ZM10.4485 13.134L12.9798 15.5715L14.0202 14.491L11.489 12.0535L10.4485 13.134ZM12.9798 15.5715L15.511 18.009L16.5515 16.9285L14.0202 14.491L12.9798 15.5715ZM15.511 12.0535L12.9798 14.491L14.0202 15.5715L16.5515 13.134L15.511 12.0535ZM12.9798 14.491L10.4485 16.9285L11.489 18.009L14.0202 15.5715L12.9798 14.491Z" fill="#242423"/>
</svg>
