<svg width="27" height="26" viewBox="0 0 27 26" fill="none" xmlns="http://www.w3.org/2000/svg">
<path d="M4.125 17.875C4.125 17.4608 3.78921 17.125 3.375 17.125C2.96079 17.125 2.625 17.4608 2.625 17.875H4.125ZM24.375 17.875C24.375 17.4608 24.0392 17.125 23.625 17.125C23.2108 17.125 22.875 17.4608 22.875 17.875H24.375ZM19.0827 13.5402C19.3811 13.2529 19.3901 12.7781 19.1027 12.4798C18.8154 12.1814 18.3406 12.1724 18.0423 12.4598L19.0827 13.5402ZM13.5 17.875L12.9798 18.4152C13.2702 18.6949 13.7298 18.6949 14.0202 18.4152L13.5 17.875ZM8.95773 12.4598C8.65936 12.1724 8.18458 12.1814 7.89726 12.4798C7.60994 12.7781 7.6189 13.2529 7.91727 13.5402L8.95773 12.4598ZM14.25 3.25C14.25 2.83579 13.9142 2.5 13.5 2.5C13.0858 2.5 12.75 2.83579 12.75 3.25H14.25ZM21.0938 22H5.90625V23.5H21.0938V22ZM4.125 20.3125V17.875H2.625V20.3125H4.125ZM22.875 17.875V20.3125H24.375V17.875H22.875ZM5.90625 22C4.89556 22 4.125 21.2181 4.125 20.3125H2.625C2.625 22.0993 4.121 23.5 5.90625 23.5V22ZM21.0938 23.5C22.879 23.5 24.375 22.0993 24.375 20.3125H22.875C22.875 21.2181 22.1044 22 21.0938 22V23.5ZM18.0423 12.4598L12.9798 17.3348L14.0202 18.4152L19.0827 13.5402L18.0423 12.4598ZM14.0202 17.3348L8.95773 12.4598L7.91727 13.5402L12.9798 18.4152L14.0202 17.3348ZM12.75 3.25V17.875H14.25V3.25H12.75Z" fill="#242423"/>
</svg>
