<svg width="27" height="27" viewBox="0 0 27 27" fill="none" xmlns="http://www.w3.org/2000/svg">
<path d="M10.125 10.0312C10.5392 10.0312 10.875 9.69546 10.875 9.28125C10.875 8.86704 10.5392 8.53125 10.125 8.53125V10.0312ZM16.875 8.53125C16.4608 8.53125 16.125 8.86704 16.125 9.28125C16.125 9.69546 16.4608 10.0312 16.875 10.0312V8.53125ZM10.6553 12.9697C10.3624 12.6768 9.88756 12.6768 9.59467 12.9697C9.30178 13.2626 9.30178 13.7374 9.59467 14.0303L10.6553 12.9697ZM13.5 16.875L12.9697 17.4053C13.1103 17.546 13.3011 17.625 13.5 17.625C13.6989 17.625 13.8897 17.546 14.0303 17.4053L13.5 16.875ZM17.4053 14.0303C17.6982 13.7374 17.6982 13.2626 17.4053 12.9697C17.1124 12.6768 16.6376 12.6768 16.3447 12.9697L17.4053 14.0303ZM14.25 2.53125C14.25 2.11704 13.9142 1.78125 13.5 1.78125C13.0858 1.78125 12.75 2.11704 12.75 2.53125L14.25 2.53125ZM20.3438 11.8125V21.9375H21.8438V11.8125H20.3438ZM18.5625 23.7188H8.4375V25.2188H18.5625V23.7188ZM6.65625 21.9375V11.8125H5.15625V21.9375H6.65625ZM8.4375 10.0312H10.125V8.53125H8.4375V10.0312ZM16.875 10.0312H18.5625V8.53125H16.875V10.0312ZM8.4375 23.7188C7.45374 23.7188 6.65625 22.9213 6.65625 21.9375H5.15625C5.15625 23.7497 6.62532 25.2188 8.4375 25.2188V23.7188ZM20.3438 21.9375C20.3438 22.9213 19.5463 23.7188 18.5625 23.7188V25.2188C20.3747 25.2188 21.8438 23.7497 21.8438 21.9375H20.3438ZM21.8438 11.8125C21.8438 10.0003 20.3747 8.53125 18.5625 8.53125V10.0312C19.5463 10.0312 20.3438 10.8287 20.3438 11.8125H21.8438ZM6.65625 11.8125C6.65625 10.8287 7.45374 10.0312 8.4375 10.0312V8.53125C6.62532 8.53125 5.15625 10.0003 5.15625 11.8125H6.65625ZM9.59467 14.0303L12.9697 17.4053L14.0303 16.3447L10.6553 12.9697L9.59467 14.0303ZM14.0303 17.4053L17.4053 14.0303L16.3447 12.9697L12.9697 16.3447L14.0303 17.4053ZM14.25 16.875L14.25 2.53125L12.75 2.53125L12.75 16.875L14.25 16.875Z" fill="#242423"/>
</svg>
