<svg width="27" height="26" viewBox="0 0 27 26" fill="none" xmlns="http://www.w3.org/2000/svg">
<path d="M4.54227 10.8348C4.2439 11.1221 4.23494 11.5969 4.52226 11.8952C4.80958 12.1936 5.28436 12.2026 5.58273 11.9152L4.54227 10.8348ZM13.5 3.25L14.0202 2.70976C13.7298 2.43008 13.2702 2.43008 12.9798 2.70976L13.5 3.25ZM21.4173 11.9152C21.7156 12.2026 22.1904 12.1936 22.4777 11.8952C22.7651 11.5969 22.7561 11.1221 22.4577 10.8348L21.4173 11.9152ZM12.75 22.75C12.75 23.1642 13.0858 23.5 13.5 23.5C13.9142 23.5 14.25 23.1642 14.25 22.75H12.75ZM5.58273 11.9152L14.0202 3.79024L12.9798 2.70976L4.54227 10.8348L5.58273 11.9152ZM12.9798 3.79024L21.4173 11.9152L22.4577 10.8348L14.0202 2.70976L12.9798 3.79024ZM14.25 22.75V3.25H12.75V22.75H14.25Z" fill="#242423"/>
</svg>
