<svg width="27" height="26" viewBox="0 0 27 26" fill="none" xmlns="http://www.w3.org/2000/svg">
<path d="M10.125 9.6875C10.5392 9.6875 10.875 9.35171 10.875 8.9375C10.875 8.52329 10.5392 8.1875 10.125 8.1875V9.6875ZM16.875 8.1875C16.4608 8.1875 16.125 8.52329 16.125 8.9375C16.125 9.35171 16.4608 9.6875 16.875 9.6875V8.1875ZM16.3548 6.22774C16.6531 6.51506 17.1279 6.5061 17.4152 6.20773C17.7026 5.90937 17.6936 5.43458 17.3952 5.14726L16.3548 6.22774ZM13.5 2.4375L14.0202 1.89726C13.7298 1.61758 13.2702 1.61758 12.9798 1.89726L13.5 2.4375ZM9.60477 5.14726C9.3064 5.43457 9.29744 5.90936 9.58476 6.20773C9.87208 6.5061 10.3469 6.51506 10.6452 6.22774L9.60477 5.14726ZM12.75 16.25C12.75 16.6642 13.0858 17 13.5 17C13.9142 17 14.25 16.6642 14.25 16.25L12.75 16.25ZM20.3438 11.375V21.125H21.8438V11.375H20.3438ZM18.5625 22.8125H8.4375V24.3125H18.5625V22.8125ZM6.65625 21.125V11.375H5.15625V21.125H6.65625ZM8.4375 9.6875H10.125V8.1875H8.4375V9.6875ZM16.875 9.6875H18.5625V8.1875H16.875V9.6875ZM8.4375 22.8125C7.42681 22.8125 6.65625 22.0306 6.65625 21.125H5.15625C5.15625 22.9118 6.65225 24.3125 8.4375 24.3125V22.8125ZM20.3438 21.125C20.3438 22.0306 19.5732 22.8125 18.5625 22.8125V24.3125C20.3478 24.3125 21.8438 22.9118 21.8438 21.125H20.3438ZM21.8438 11.375C21.8438 9.58817 20.3478 8.1875 18.5625 8.1875V9.6875C19.5732 9.6875 20.3438 10.4694 20.3438 11.375H21.8438ZM6.65625 11.375C6.65625 10.4694 7.42681 9.6875 8.4375 9.6875V8.1875C6.65225 8.1875 5.15625 9.58817 5.15625 11.375H6.65625ZM17.3952 5.14726L14.0202 1.89726L12.9798 2.97774L16.3548 6.22774L17.3952 5.14726ZM12.9798 1.89726L9.60477 5.14726L10.6452 6.22774L14.0202 2.97774L12.9798 1.89726ZM12.75 2.4375L12.75 16.25L14.25 16.25L14.25 2.4375L12.75 2.4375Z" fill="#242423"/>
</svg>
