<svg width="27" height="27" viewBox="0 0 27 27" fill="none" xmlns="http://www.w3.org/2000/svg">
<path d="M22.4678 15.7178C22.7607 15.4249 22.7607 14.9501 22.4678 14.6572C22.1749 14.3643 21.7001 14.3643 21.4072 14.6572L22.4678 15.7178ZM13.5 23.625L12.9697 24.1553C13.2626 24.4482 13.7374 24.4482 14.0303 24.1553L13.5 23.625ZM5.59283 14.6572C5.29994 14.3643 4.82506 14.3643 4.53217 14.6572C4.23928 14.9501 4.23928 15.4249 4.53217 15.7178L5.59283 14.6572ZM14.25 3.375C14.25 2.96079 13.9142 2.625 13.5 2.625C13.0858 2.625 12.75 2.96079 12.75 3.375L14.25 3.375ZM21.4072 14.6572L12.9697 23.0947L14.0303 24.1553L22.4678 15.7178L21.4072 14.6572ZM14.0303 23.0947L5.59283 14.6572L4.53217 15.7178L12.9697 24.1553L14.0303 23.0947ZM12.75 3.375L12.75 23.625L14.25 23.625L14.25 3.375L12.75 3.375Z" fill="#242423"/>
</svg>
