<svg width="27" height="27" viewBox="0 0 27 27" fill="none" xmlns="http://www.w3.org/2000/svg">
<path d="M8.4375 9.1875C8.85171 9.1875 9.1875 8.85171 9.1875 8.4375C9.1875 8.02329 8.85171 7.6875 8.4375 7.6875V9.1875ZM15.1875 7.6875C14.7733 7.6875 14.4375 8.02329 14.4375 8.4375C14.4375 8.85171 14.7733 9.1875 15.1875 9.1875V7.6875ZM8.96783 12.1259C8.67494 11.833 8.20006 11.833 7.90717 12.1259C7.61428 12.4188 7.61428 12.8937 7.90717 13.1866L8.96783 12.1259ZM11.8125 16.0312L11.2822 16.5616C11.4228 16.7022 11.6136 16.7812 11.8125 16.7812C12.0114 16.7813 12.2022 16.7022 12.3428 16.5616L11.8125 16.0312ZM15.7178 13.1866C16.0107 12.8937 16.0107 12.4188 15.7178 12.1259C15.4249 11.833 14.9501 11.833 14.6572 12.1259L15.7178 13.1866ZM12.5625 1.6875C12.5625 1.27329 12.2267 0.9375 11.8125 0.9375C11.3983 0.9375 11.0625 1.27329 11.0625 1.6875L12.5625 1.6875ZM18.5625 11.0625C18.1483 11.0625 17.8125 11.3983 17.8125 11.8125C17.8125 12.2267 18.1483 12.5625 18.5625 12.5625V11.0625ZM9.1875 21.9375C9.1875 21.5233 8.85171 21.1875 8.4375 21.1875C8.02329 21.1875 7.6875 21.5233 7.6875 21.9375H9.1875ZM17.8125 10.9688V19.4062H19.3125V10.9688H17.8125ZM16.0312 21.1875H7.59375V22.6875H16.0312V21.1875ZM5.8125 19.4062V10.9688H4.3125V19.4062H5.8125ZM7.59375 9.1875H8.4375V7.6875H7.59375V9.1875ZM15.1875 9.1875H16.0312V7.6875H15.1875V9.1875ZM7.59375 21.1875C6.60999 21.1875 5.8125 20.39 5.8125 19.4062H4.3125C4.3125 21.2184 5.78157 22.6875 7.59375 22.6875V21.1875ZM17.8125 19.4062C17.8125 20.39 17.015 21.1875 16.0312 21.1875V22.6875C17.8434 22.6875 19.3125 21.2184 19.3125 19.4062H17.8125ZM19.3125 10.9688C19.3125 9.15657 17.8434 7.6875 16.0312 7.6875V9.1875C17.015 9.1875 17.8125 9.98499 17.8125 10.9688H19.3125ZM5.8125 10.9688C5.8125 9.98499 6.60999 9.1875 7.59375 9.1875V7.6875C5.78157 7.6875 4.3125 9.15657 4.3125 10.9688H5.8125ZM7.90717 13.1866L11.2822 16.5616L12.3428 15.5009L8.96783 12.1259L7.90717 13.1866ZM12.3428 16.5616L15.7178 13.1866L14.6572 12.1259L11.2822 15.5009L12.3428 16.5616ZM12.5625 16.0313L12.5625 1.6875L11.0625 1.6875L11.0625 16.0312L12.5625 16.0313ZM21.1875 14.3438V22.7812H22.6875V14.3438H21.1875ZM19.4062 24.5625H10.9688V26.0625H19.4062V24.5625ZM18.5625 12.5625H19.4062V11.0625H18.5625V12.5625ZM9.1875 22.7812V21.9375H7.6875V22.7812H9.1875ZM10.9688 24.5625C9.98499 24.5625 9.1875 23.765 9.1875 22.7812H7.6875C7.6875 24.5934 9.15657 26.0625 10.9688 26.0625V24.5625ZM21.1875 22.7812C21.1875 23.765 20.39 24.5625 19.4062 24.5625V26.0625C21.2184 26.0625 22.6875 24.5934 22.6875 22.7812H21.1875ZM22.6875 14.3438C22.6875 12.5316 21.2184 11.0625 19.4062 11.0625V12.5625C20.39 12.5625 21.1875 13.36 21.1875 14.3438H22.6875Z" fill="#242423"/>
</svg>
