<svg width="27" height="27" viewBox="0 0 27 27" fill="none" xmlns="http://www.w3.org/2000/svg">
<path d="M11.2822 22.4678C11.5751 22.7607 12.0499 22.7607 12.3428 22.4678C12.6357 22.1749 12.6357 21.7001 12.3428 21.4072L11.2822 22.4678ZM3.375 13.5L2.84467 12.9697C2.55178 13.2626 2.55178 13.7374 2.84467 14.0303L3.375 13.5ZM12.3428 5.59283C12.6357 5.29994 12.6357 4.82506 12.3428 4.53217C12.0499 4.23928 11.5751 4.23928 11.2822 4.53217L12.3428 5.59283ZM23.625 14.25C24.0392 14.25 24.375 13.9142 24.375 13.5C24.375 13.0858 24.0392 12.75 23.625 12.75V14.25ZM12.3428 21.4072L3.90533 12.9697L2.84467 14.0303L11.2822 22.4678L12.3428 21.4072ZM3.90533 14.0303L12.3428 5.59283L11.2822 4.53217L2.84467 12.9697L3.90533 14.0303ZM23.625 12.75H3.375V14.25H23.625V12.75Z" fill="#242423"/>
</svg>
