<svg width="27" height="27" viewBox="0 0 27 27" fill="none" xmlns="http://www.w3.org/2000/svg">
<path d="M5.0625 11.8125V11.0625C4.64829 11.0625 4.3125 11.3983 4.3125 11.8125H5.0625ZM20.25 11.8125H21C21 11.3983 20.6642 11.0625 20.25 11.0625V11.8125ZM20.25 16.875V17.625C20.6642 17.625 21 17.2892 21 16.875H20.25ZM5.0625 16.875H4.3125C4.3125 17.2892 4.64829 17.625 5.0625 17.625V16.875ZM23.625 11.0625C23.2108 11.0625 22.875 11.3983 22.875 11.8125C22.875 12.2267 23.2108 12.5625 23.625 12.5625V11.0625ZM23.625 16.125C23.2108 16.125 22.875 16.4608 22.875 16.875C22.875 17.2892 23.2108 17.625 23.625 17.625V16.125ZM5.0625 12.5625H20.25V11.0625H5.0625V12.5625ZM19.5 11.8125V16.875H21V11.8125H19.5ZM20.25 16.125H5.0625V17.625H20.25V16.125ZM5.8125 16.875V11.8125H4.3125V16.875H5.8125ZM4.21875 9.1875H21.0938V7.6875H4.21875V9.1875ZM22.875 10.9688V17.7188H24.375V10.9688H22.875ZM21.0938 19.5H4.21875V21H21.0938V19.5ZM2.4375 17.7188V10.9688H0.9375V17.7188H2.4375ZM4.21875 19.5C3.23499 19.5 2.4375 18.7025 2.4375 17.7188H0.9375C0.9375 19.5309 2.40657 21 4.21875 21V19.5ZM22.875 17.7188C22.875 18.7025 22.0775 19.5 21.0938 19.5V21C22.9059 21 24.375 19.5309 24.375 17.7188H22.875ZM21.0938 9.1875C22.0775 9.1875 22.875 9.98499 22.875 10.9688H24.375C24.375 9.15657 22.9059 7.6875 21.0938 7.6875V9.1875ZM4.21875 7.6875C2.40657 7.6875 0.9375 9.15657 0.9375 10.9688H2.4375C2.4375 9.98499 3.23499 9.1875 4.21875 9.1875V7.6875ZM23.625 12.5625H24.0469V11.0625H23.625V12.5625ZM24.5625 13.0781V15.6094H26.0625V13.0781H24.5625ZM24.0469 16.125H23.625V17.625H24.0469V16.125ZM24.5625 15.6094C24.5625 15.8941 24.3316 16.125 24.0469 16.125V17.625C25.1601 17.625 26.0625 16.7226 26.0625 15.6094H24.5625ZM24.0469 12.5625C24.3316 12.5625 24.5625 12.7934 24.5625 13.0781H26.0625C26.0625 11.9649 25.1601 11.0625 24.0469 11.0625V12.5625Z" fill="#242423"/>
</svg>
