<svg width="27" height="27" viewBox="0 0 27 27" fill="none" xmlns="http://www.w3.org/2000/svg">
<path fill-rule="evenodd" clip-rule="evenodd" d="M6.81818 1C4.70945 1 3 2.71179 3 4.8234V22.0287C3 24.1403 4.70945 25.8521 6.81818 25.8521H16.8409C20.7948 25.8521 24 22.6425 24 18.6832C24 15.5298 21.9669 12.852 19.1416 11.8929C19.8017 10.8075 20.1818 9.53267 20.1818 8.16909C20.1818 4.2098 16.9766 1.00022 13.0227 1.00022L6.81818 1ZM13.0227 11.5143C14.8679 11.5143 16.3636 10.0165 16.3636 8.16887C16.3636 6.32118 14.8679 4.8234 13.0227 4.8234H6.81818V11.5143H13.0227ZM6.81818 15.3377V22.0287H16.8409C18.6861 22.0287 20.1818 20.5309 20.1818 18.6832C20.1818 16.8355 18.6861 15.3377 16.8409 15.3377H6.81818Z" fill="#242423"/>
</svg>
