<svg width="27" height="27" viewBox="0 0 27 27" fill="none" xmlns="http://www.w3.org/2000/svg">
<path d="M7.59375 3.375V5.90625M19.4062 3.375V5.90625M3.375 21.0938V8.4375C3.375 7.03953 4.50828 5.90625 5.90625 5.90625H21.0938C22.4917 5.90625 23.625 7.03953 23.625 8.4375V21.0938M3.375 21.0938C3.375 22.4917 4.50828 23.625 5.90625 23.625H21.0938C22.4917 23.625 23.625 22.4917 23.625 21.0938M3.375 21.0938V12.6562C3.375 11.2583 4.50828 10.125 5.90625 10.125H21.0938C22.4917 10.125 23.625 11.2583 23.625 12.6562V21.0938M13.5 14.3438H13.5084V14.3522H13.5V14.3438ZM13.5 16.875H13.5084V16.8834H13.5V16.875ZM13.5 19.4062H13.5084V19.4147H13.5V19.4062ZM10.9688 16.875H10.9772V16.8834H10.9688V16.875ZM10.9688 19.4062H10.9772V19.4147H10.9688V19.4062ZM8.4375 16.875H8.44594V16.8834H8.4375V16.875ZM8.4375 19.4062H8.44594V19.4147H8.4375V19.4062ZM16.0312 14.3438H16.0397V14.3522H16.0312V14.3438ZM16.0312 16.875H16.0397V16.8834H16.0312V16.875ZM16.0312 19.4062H16.0397V19.4147H16.0312V19.4062ZM18.5625 14.3438H18.5709V14.3522H18.5625V14.3438ZM18.5625 16.875H18.5709V16.8834H18.5625V16.875Z" stroke="#242423" stroke-width="1.5" stroke-linecap="round" stroke-linejoin="round"/>
</svg>
