<svg width="27" height="26" viewBox="0 0 27 26" fill="none" xmlns="http://www.w3.org/2000/svg">
<path d="M7.68025 6.68947C7.27403 7.31633 6.59393 7.72847 5.83425 7.83244C5.40737 7.89085 4.9821 7.95408 4.55849 8.02205C3.37401 8.21212 2.53125 9.21551 2.53125 10.3719V19.5C2.53125 20.8462 3.66453 21.9375 5.0625 21.9375H21.9375C23.3355 21.9375 24.4688 20.8462 24.4688 19.5V10.3719C24.4688 9.21552 23.626 8.21213 22.4415 8.02206C22.0179 7.95409 21.5926 7.89086 21.1657 7.83244C20.4061 7.72848 19.726 7.31634 19.3198 6.68948L18.3959 5.2638C17.9701 4.60673 17.2456 4.17991 16.4424 4.13838C15.4683 4.08801 14.4872 4.0625 13.5 4.0625C12.5128 4.0625 11.5317 4.08801 10.5576 4.13838C9.75443 4.17991 9.0299 4.60673 8.60411 5.2638L7.68025 6.68947Z" stroke="#242423" stroke-width="1.5" stroke-linecap="round" stroke-linejoin="round"/>
<path d="M18.5625 13.8125C18.5625 16.5049 16.2959 18.6875 13.5 18.6875C10.7041 18.6875 8.4375 16.5049 8.4375 13.8125C8.4375 11.1201 10.7041 8.9375 13.5 8.9375C16.2959 8.9375 18.5625 11.1201 18.5625 13.8125Z" stroke="#242423" stroke-width="1.5" stroke-linecap="round" stroke-linejoin="round"/>
<path d="M21.0938 11.375H21.1022V11.3831H21.0938V11.375Z" stroke="#242423" stroke-width="1.5" stroke-linecap="round" stroke-linejoin="round"/>
</svg>
