<svg width="27" height="27" viewBox="0 0 27 27" fill="none" xmlns="http://www.w3.org/2000/svg">
<path d="M6.75 7.73778L6.99993 8.44491L6.75 7.73778ZM21.9375 11.1128L21.6876 11.8199L21.9375 11.1128ZM5.0625 11.1128L5.31243 11.8199L5.0625 11.1128ZM5.90625 11.7188H21.0938V10.2188H5.90625V11.7188ZM22.875 13.5V20.25H24.375V13.5H22.875ZM21.0938 22.0312H5.90625V23.5312H21.0938V22.0312ZM4.125 20.25V13.5H2.625V20.25H4.125ZM5.90625 22.0312C4.92249 22.0312 4.125 21.2338 4.125 20.25H2.625C2.625 22.0622 4.09407 23.5312 5.90625 23.5312V22.0312ZM22.875 20.25C22.875 21.2338 22.0775 22.0312 21.0938 22.0312V23.5312C22.9059 23.5312 24.375 22.0622 24.375 20.25H22.875ZM7.59375 8.34375H19.4062V6.84375H7.59375V8.34375ZM9.28125 4.96875H17.7188V3.46875H9.28125V4.96875ZM17.7188 4.96875C18.7025 4.96875 19.5 5.76624 19.5 6.75H21C21 4.93782 19.5309 3.46875 17.7188 3.46875V4.96875ZM9.28125 3.46875C7.46907 3.46875 6 4.93782 6 6.75H7.5C7.5 5.76624 8.29749 4.96875 9.28125 4.96875V3.46875ZM6 6.75V7.73778H7.5V6.75H6ZM7.59375 6.84375C7.21158 6.84375 6.84313 6.9094 6.50007 7.03065L6.99993 8.44491C7.18468 8.37961 7.38422 8.34375 7.59375 8.34375V6.84375ZM6.50007 7.03065C5.22665 7.48074 4.3125 8.69515 4.3125 10.125H5.8125C5.8125 9.3506 6.30709 8.6898 6.99993 8.44491L6.50007 7.03065ZM19.5 6.75V7.73778H21V6.75H19.5ZM19.4062 8.34375C19.6158 8.34375 19.8153 8.37961 20.0001 8.44491L20.4999 7.03065C20.1569 6.9094 19.7884 6.84375 19.4062 6.84375V8.34375ZM20.0001 8.44491C20.6929 8.6898 21.1875 9.3506 21.1875 10.125H22.6875C22.6875 8.69515 21.7734 7.48074 20.4999 7.03065L20.0001 8.44491ZM21.1875 10.125V11.1128H22.6875V10.125H21.1875ZM21.0938 11.7188C21.3033 11.7188 21.5028 11.7546 21.6876 11.8199L22.1874 10.4057C21.8444 10.2844 21.4759 10.2188 21.0938 10.2188V11.7188ZM21.6876 11.8199C22.3804 12.0648 22.875 12.7256 22.875 13.5H24.375C24.375 12.0702 23.4609 10.8557 22.1874 10.4057L21.6876 11.8199ZM4.3125 10.125V11.1128H5.8125V10.125H4.3125ZM5.90625 10.2188C5.52408 10.2188 5.15563 10.2844 4.81257 10.4057L5.31243 11.8199C5.49718 11.7546 5.69672 11.7188 5.90625 11.7188V10.2188ZM4.81257 10.4057C3.53915 10.8557 2.625 12.0702 2.625 13.5H4.125C4.125 12.7256 4.61959 12.0648 5.31243 11.8199L4.81257 10.4057Z" fill="#242423"/>
</svg>
