<svg width="27" height="26" viewBox="0 0 27 26" fill="none" xmlns="http://www.w3.org/2000/svg">
<path d="M3.375 14.2188C3.375 13.5457 3.94164 13 4.64062 13H7.17188C7.87086 13 8.4375 13.5457 8.4375 14.2188V21.5312C8.4375 22.2043 7.87086 22.75 7.17188 22.75H4.64062C3.94164 22.75 3.375 22.2043 3.375 21.5312V14.2188Z" stroke="#242423" stroke-width="1.5" stroke-linecap="round" stroke-linejoin="round"/>
<path d="M10.9688 9.34375C10.9688 8.67065 11.5354 8.125 12.2344 8.125H14.7656C15.4646 8.125 16.0312 8.67065 16.0312 9.34375V21.5312C16.0312 22.2043 15.4646 22.75 14.7656 22.75H12.2344C11.5354 22.75 10.9688 22.2043 10.9688 21.5312V9.34375Z" stroke="#242423" stroke-width="1.5" stroke-linecap="round" stroke-linejoin="round"/>
<path d="M18.5625 4.46875C18.5625 3.79565 19.1291 3.25 19.8281 3.25H22.3594C23.0584 3.25 23.625 3.79565 23.625 4.46875V21.5312C23.625 22.2043 23.0584 22.75 22.3594 22.75H19.8281C19.1291 22.75 18.5625 22.2043 18.5625 21.5312V4.46875Z" stroke="#242423" stroke-width="1.5" stroke-linecap="round" stroke-linejoin="round"/>
</svg>
