<svg width="27" height="26" viewBox="0 0 27 26" fill="none" xmlns="http://www.w3.org/2000/svg">
<path d="M22.4577 9.47774C22.7561 9.19043 22.7651 8.71564 22.4777 8.41727C22.1904 8.1189 21.7156 8.10995 21.4173 8.39726L22.4577 9.47774ZM13.5 17.0625L12.9798 17.6027C13.2702 17.8824 13.7298 17.8824 14.0202 17.6027L13.5 17.0625ZM5.58273 8.39726C5.28436 8.10995 4.80958 8.1189 4.52226 8.41727C4.23494 8.71564 4.2439 9.19043 4.54227 9.47774L5.58273 8.39726ZM21.4173 8.39726L12.9798 16.5223L14.0202 17.6027L22.4577 9.47774L21.4173 8.39726ZM14.0202 16.5223L5.58273 8.39726L4.54227 9.47774L12.9798 17.6027L14.0202 16.5223Z" fill="#242423"/>
</svg>
