<svg width="27" height="27" viewBox="0 0 27 27" fill="none" xmlns="http://www.w3.org/2000/svg">
<path d="M17.1884 22.4678C17.4813 22.7607 17.9562 22.7607 18.2491 22.4678C18.542 22.1749 18.542 21.7001 18.2491 21.4072L17.1884 22.4678ZM9.28125 13.5L8.75092 12.9697C8.45803 13.2626 8.45803 13.7374 8.75092 14.0303L9.28125 13.5ZM18.2491 5.59283C18.542 5.29994 18.542 4.82506 18.2491 4.53217C17.9562 4.23928 17.4813 4.23928 17.1884 4.53217L18.2491 5.59283ZM18.2491 21.4072L9.81158 12.9697L8.75092 14.0303L17.1884 22.4678L18.2491 21.4072ZM9.81158 14.0303L18.2491 5.59283L17.1884 4.53217L8.75092 12.9697L9.81158 14.0303Z" fill="#242423"/>
</svg>
