<svg width="27" height="26" viewBox="0 0 27 26" fill="none" xmlns="http://www.w3.org/2000/svg">
<path d="M4.54227 16.5223C4.2439 16.8096 4.23494 17.2844 4.52226 17.5827C4.80958 17.8811 5.28436 17.8901 5.58273 17.6027L4.54227 16.5223ZM13.5 8.9375L14.0202 8.39726C13.7298 8.11758 13.2702 8.11758 12.9798 8.39726L13.5 8.9375ZM21.4173 17.6027C21.7156 17.8901 22.1904 17.8811 22.4777 17.5827C22.7651 17.2844 22.7561 16.8096 22.4577 16.5223L21.4173 17.6027ZM5.58273 17.6027L14.0202 9.47774L12.9798 8.39726L4.54227 16.5223L5.58273 17.6027ZM12.9798 9.47774L21.4173 17.6027L22.4577 16.5223L14.0202 8.39726L12.9798 9.47774Z" fill="#242423"/>
</svg>
