<svg width="27" height="27" viewBox="0 0 27 27" fill="none" xmlns="http://www.w3.org/2000/svg">
<path d="M9.81158 4.53217C9.51869 4.23928 9.04381 4.23928 8.75092 4.53217C8.45803 4.82506 8.45803 5.29994 8.75092 5.59283L9.81158 4.53217ZM17.7187 13.5L18.2491 14.0303C18.542 13.7374 18.542 13.2626 18.2491 12.9697L17.7187 13.5ZM8.75092 21.4072C8.45803 21.7001 8.45803 22.1749 8.75092 22.4678C9.04381 22.7607 9.51869 22.7607 9.81158 22.4678L8.75092 21.4072ZM8.75092 5.59283L17.1884 14.0303L18.2491 12.9697L9.81158 4.53217L8.75092 5.59283ZM17.1884 12.9697L8.75092 21.4072L9.81158 22.4678L18.2491 14.0303L17.1884 12.9697Z" fill="#242423"/>
</svg>
