<svg width="27" height="26" viewBox="0 0 27 26" fill="none" xmlns="http://www.w3.org/2000/svg">
<path d="M14.25 6.5C14.25 6.08579 13.9142 5.75 13.5 5.75C13.0858 5.75 12.75 6.08579 12.75 6.5H14.25ZM13.5 13H12.75C12.75 13.4142 13.0858 13.75 13.5 13.75V13ZM18.5625 13.75C18.9767 13.75 19.3125 13.4142 19.3125 13C19.3125 12.5858 18.9767 12.25 18.5625 12.25V13.75ZM22.875 13C22.875 17.9441 18.7046 22 13.5 22V23.5C19.4792 23.5 24.375 18.8254 24.375 13H22.875ZM13.5 22C8.2954 22 4.125 17.9441 4.125 13H2.625C2.625 18.8254 7.52083 23.5 13.5 23.5V22ZM4.125 13C4.125 8.05586 8.2954 4 13.5 4V2.5C7.52083 2.5 2.625 7.17458 2.625 13H4.125ZM13.5 4C18.7046 4 22.875 8.05586 22.875 13H24.375C24.375 7.17458 19.4792 2.5 13.5 2.5V4ZM12.75 6.5V13H14.25V6.5H12.75ZM18.5625 12.25H13.5V13.75H18.5625V12.25Z" fill="#242423"/>
</svg>
