<svg width="27" height="27" viewBox="0 0 27 27" fill="none" xmlns="http://www.w3.org/2000/svg">
<path d="M21.7481 13.7737L21.0404 13.5255C20.9058 13.9092 21.1015 14.3304 21.4817 14.4748L21.7481 13.7737ZM17.5204 9.44521L16.7956 9.63817C16.8486 9.8371 16.981 10.0055 17.1618 10.1039C17.3426 10.2024 17.5559 10.2221 17.7518 10.1586L17.5204 9.44521ZM6.00795 12.0658L6.2427 12.7782C6.59968 12.6605 6.81445 12.2968 6.74506 11.9274L6.00795 12.0658ZM14.25 10.9688C14.25 10.5545 13.9142 10.2188 13.5 10.2188C13.0858 10.2188 12.75 10.5545 12.75 10.9688H14.25ZM13.5 18.5625L12.9697 19.0928C13.2626 19.3857 13.7374 19.3857 14.0303 19.0928L13.5 18.5625ZM10.6553 14.6572C10.3624 14.3643 9.88756 14.3643 9.59467 14.6572C9.30178 14.9501 9.30178 15.4249 9.59467 15.7178L10.6553 14.6572ZM17.4053 15.7178C17.6982 15.4249 17.6982 14.9501 17.4053 14.6572C17.1124 14.3643 16.6376 14.3643 16.3447 14.6572L17.4053 15.7178ZM7.59375 21.1875C5.21202 21.1875 3.28125 19.2567 3.28125 16.875H1.78125C1.78125 20.0852 4.38359 22.6875 7.59375 22.6875V21.1875ZM20.25 21.1875H7.59375V22.6875H20.25V21.1875ZM23.7188 17.7188C23.7188 19.6345 22.1657 21.1875 20.25 21.1875V22.6875C22.9942 22.6875 25.2188 20.4629 25.2188 17.7188H23.7188ZM21.4817 14.4748C22.7906 14.9721 23.7188 16.238 23.7188 17.7188H25.2188C25.2188 15.5948 23.8864 13.7839 22.0145 13.0726L21.4817 14.4748ZM21.1875 12.6562C21.1875 12.9622 21.1355 13.2544 21.0404 13.5255L22.4558 14.022C22.6061 13.5936 22.6875 13.1336 22.6875 12.6562H21.1875ZM18.5625 10.0312C20.0122 10.0312 21.1875 11.2065 21.1875 12.6562H22.6875C22.6875 10.3781 20.8407 8.53125 18.5625 8.53125V10.0312ZM17.7518 10.1586C18.0061 10.0761 18.2783 10.0312 18.5625 10.0312V8.53125C18.1193 8.53125 17.691 8.60141 17.289 8.7318L17.7518 10.1586ZM11.8125 5.8125C14.1993 5.8125 16.209 7.43484 16.7956 9.63817L18.2451 9.25226C17.488 6.40852 14.896 4.3125 11.8125 4.3125V5.8125ZM6.65625 10.9688C6.65625 8.12103 8.96478 5.8125 11.8125 5.8125V4.3125C8.13635 4.3125 5.15625 7.2926 5.15625 10.9688H6.65625ZM6.74506 11.9274C6.68682 11.6173 6.65625 11.2969 6.65625 10.9688H5.15625C5.15625 11.3903 5.19553 11.8034 5.27084 12.2043L6.74506 11.9274ZM3.28125 16.875C3.28125 14.9662 4.52182 13.3453 6.2427 12.7782L5.7732 11.3535C3.45567 12.1173 1.78125 14.2996 1.78125 16.875H3.28125ZM12.75 10.9688V18.5625H14.25V10.9688H12.75ZM9.59467 15.7178L12.9697 19.0928L14.0303 18.0322L10.6553 14.6572L9.59467 15.7178ZM14.0303 19.0928L17.4053 15.7178L16.3447 14.6572L12.9697 18.0322L14.0303 19.0928Z" fill="#242423"/>
</svg>
