<svg width="27" height="26" viewBox="0 0 27 26" fill="none" xmlns="http://www.w3.org/2000/svg">
<path d="M21.7481 13.2636L21.0434 13.0069C20.9018 13.3957 21.1018 13.8257 21.4904 13.9679L21.7481 13.2636ZM17.5204 9.09539L16.7975 9.29525C16.8516 9.4911 16.9829 9.6566 17.1614 9.75387C17.3398 9.85115 17.55 9.87187 17.744 9.81129L17.5204 9.09539ZM6.00795 11.619L6.23482 12.3338C6.59798 12.2186 6.81703 11.8493 6.74408 11.4754L6.00795 11.619ZM12.75 17.875C12.75 18.2892 13.0858 18.625 13.5 18.625C13.9142 18.625 14.25 18.2892 14.25 17.875L12.75 17.875ZM13.5 10.5625L14.0202 10.0223C13.7298 9.74258 13.2702 9.74258 12.9798 10.0223L13.5 10.5625ZM16.3548 14.3527C16.6531 14.6401 17.1279 14.6311 17.4152 14.3327C17.7026 14.0344 17.6936 13.5596 17.3952 13.2723L16.3548 14.3527ZM9.60477 13.2723C9.3064 13.5596 9.29744 14.0344 9.58476 14.3327C9.87208 14.6311 10.3469 14.6401 10.6452 14.3527L9.60477 13.2723ZM7.59375 20.375C5.18509 20.375 3.28125 18.5017 3.28125 16.25H1.78125C1.78125 19.383 4.41053 21.875 7.59375 21.875V20.375ZM20.25 20.375H7.59375V21.875H20.25V20.375ZM23.7188 17.0625C23.7188 18.8655 22.1927 20.375 20.25 20.375V21.875C22.9672 21.875 25.2188 19.7468 25.2188 17.0625H23.7188ZM21.4904 13.9679C22.8085 14.4502 23.7188 15.6659 23.7188 17.0625H25.2188C25.2188 14.9879 23.8685 13.2408 22.0058 12.5593L21.4904 13.9679ZM21.1875 12.1875C21.1875 12.4755 21.1367 12.7509 21.0434 13.0069L22.4528 13.5203C22.6049 13.1027 22.6875 12.6538 22.6875 12.1875H21.1875ZM18.5625 9.6875C20.0392 9.6875 21.1875 10.8332 21.1875 12.1875H22.6875C22.6875 9.95193 20.8137 8.1875 18.5625 8.1875V9.6875ZM17.744 9.81129C18.0004 9.7312 18.2753 9.6875 18.5625 9.6875V8.1875C18.1223 8.1875 17.6968 8.25459 17.2968 8.37949L17.744 9.81129ZM11.8125 5.625C14.2188 5.625 16.2178 7.1983 16.7975 9.29525L18.2433 8.89554C17.4793 6.13233 14.8764 4.125 11.8125 4.125V5.625ZM6.65625 10.5625C6.65625 7.86202 8.93785 5.625 11.8125 5.625V4.125C8.16329 4.125 5.15625 6.98074 5.15625 10.5625H6.65625ZM6.74408 11.4754C6.68647 11.1801 6.65625 10.875 6.65625 10.5625H5.15625C5.15625 10.972 5.19588 11.3732 5.27183 11.7626L6.74408 11.4754ZM3.28125 16.25C3.28125 14.4427 4.50273 12.8835 6.23482 12.3338L5.78109 10.9041C3.47476 11.636 1.78125 13.7393 1.78125 16.25H3.28125ZM14.25 17.875L14.25 10.5625L12.75 10.5625L12.75 17.875L14.25 17.875ZM17.3952 13.2723L14.0202 10.0223L12.9798 11.1027L16.3548 14.3527L17.3952 13.2723ZM12.9798 10.0223L9.60477 13.2723L10.6452 14.3527L14.0202 11.1027L12.9798 10.0223Z" fill="#242423"/>
</svg>
