<svg width="27" height="26" viewBox="0 0 27 26" fill="none" xmlns="http://www.w3.org/2000/svg">
<path d="M19.9265 6.77226C19.6281 6.48494 19.1533 6.4939 18.866 6.79227C18.5787 7.09063 18.5877 7.56542 18.886 7.85274L19.9265 6.77226ZM25.3125 13L25.8327 13.5402C25.9795 13.3989 26.0625 13.2038 26.0625 13C26.0625 12.7962 25.9795 12.6011 25.8327 12.4598L25.3125 13ZM18.886 18.1473C18.5877 18.4346 18.5787 18.9094 18.866 19.2077C19.1533 19.5061 19.6281 19.5151 19.9265 19.2277L18.886 18.1473ZM7.07352 19.2277C7.37188 19.5151 7.84667 19.5061 8.13399 19.2077C8.42131 18.9094 8.41235 18.4346 8.11398 18.1473L7.07352 19.2277ZM1.6875 13L1.16727 12.4598C1.02045 12.6011 0.9375 12.7962 0.9375 13C0.9375 13.2038 1.02045 13.3989 1.16727 13.5402L1.6875 13ZM8.11398 7.85274C8.41235 7.56542 8.42131 7.09064 8.13399 6.79227C7.84667 6.4939 7.37189 6.48494 7.07352 6.77226L8.11398 7.85274ZM16.7529 4.26687C16.8657 3.86834 16.6342 3.45376 16.2356 3.34088C15.8371 3.22801 15.4225 3.45959 15.3096 3.85813L16.7529 4.26687ZM10.2471 21.7331C10.1343 22.1317 10.3658 22.5462 10.7644 22.6591C11.1629 22.772 11.5775 22.5404 11.6904 22.1419L10.2471 21.7331ZM18.886 7.85274L24.7923 13.5402L25.8327 12.4598L19.9265 6.77226L18.886 7.85274ZM24.7923 12.4598L18.886 18.1473L19.9265 19.2277L25.8327 13.5402L24.7923 12.4598ZM8.11398 18.1473L2.20773 12.4598L1.16727 13.5402L7.07352 19.2277L8.11398 18.1473ZM2.20773 13.5402L8.11398 7.85274L7.07352 6.77226L1.16727 12.4598L2.20773 13.5402ZM15.3096 3.85813L10.2471 21.7331L11.6904 22.1419L16.7529 4.26687L15.3096 3.85813Z" fill="#242423"/>
</svg>
