<svg width="26" height="26" viewBox="0 0 26 26" fill="none" xmlns="http://www.w3.org/2000/svg">
<path d="M10.3921 4.26839C10.49 3.68072 10.9985 3.25 11.5942 3.25H14.4044C15.0001 3.25 15.5086 3.68072 15.6065 4.26839L15.8378 5.65619C15.9054 6.06141 16.1762 6.39894 16.5356 6.59789C16.6159 6.64237 16.6954 6.68832 16.7738 6.7357C17.126 6.94833 17.5542 7.01444 17.9394 6.87013L19.2577 6.37626C19.8156 6.16725 20.4429 6.39222 20.7407 6.90817L22.1458 9.34181C22.4437 9.85777 22.3249 10.5135 21.8649 10.8921L20.7769 11.7878C20.46 12.0487 20.3029 12.4515 20.3105 12.8619C20.3114 12.9078 20.3118 12.9539 20.3118 13C20.3118 13.0461 20.3114 13.0922 20.3105 13.1381C20.3029 13.5485 20.46 13.9513 20.7769 14.2122L21.8649 15.1079C22.3249 15.4865 22.4437 16.1422 22.1458 16.6582L20.7407 19.0918C20.4429 19.6078 19.8156 19.8327 19.2577 19.6237L17.9394 19.1299C17.5543 18.9856 17.126 19.0517 16.7739 19.2643C16.6954 19.3117 16.6159 19.3576 16.5356 19.4021C16.1762 19.6011 15.9054 19.9386 15.8378 20.3438L15.6065 21.7316C15.5086 22.3193 15.0001 22.75 14.4044 22.75H11.5942C10.9985 22.75 10.49 22.3193 10.3921 21.7316L10.1608 20.3438C10.0932 19.9386 9.82243 19.6011 9.46302 19.4021C9.38266 19.3576 9.30323 19.3117 9.22476 19.2643C8.87264 19.0517 8.44437 18.9856 8.05917 19.1299L6.7409 19.6237C6.18299 19.8328 5.55575 19.6078 5.25787 19.0918L3.8528 16.6582C3.55492 16.1422 3.67371 15.4865 4.13367 15.1079L5.22172 14.2122C5.5386 13.9513 5.69568 13.5485 5.68808 13.1381C5.68723 13.0922 5.6868 13.0461 5.6868 13C5.6868 12.9539 5.68723 12.9078 5.68808 12.8619C5.69568 12.4515 5.5386 12.0487 5.22172 11.7878L4.13367 10.8921C3.67371 10.5135 3.55492 9.85778 3.8528 9.34183L5.25787 6.90819C5.55575 6.39223 6.18299 6.16726 6.7409 6.37627L8.05916 6.87014C8.44435 7.01445 8.87263 6.94834 9.22475 6.73571C9.30322 6.68833 9.38266 6.64237 9.46302 6.59789C9.82243 6.39894 10.0932 6.06141 10.1608 5.65619L10.3921 4.26839Z" stroke="#242423" stroke-width="1.5" stroke-linecap="round" stroke-linejoin="round"/>
<path d="M16.2491 12.9999C16.2491 14.7948 14.794 16.2499 12.9991 16.2499C11.2041 16.2499 9.74905 14.7948 9.74905 12.9999C9.74905 11.205 11.2041 9.74991 12.9991 9.74991C14.794 9.74991 16.2491 11.205 16.2491 12.9999Z" stroke="#242423" stroke-width="1.5" stroke-linecap="round" stroke-linejoin="round"/>
</svg>
