<svg width="26" height="27" viewBox="0 0 26 27" fill="none" xmlns="http://www.w3.org/2000/svg">
<path d="M20.375 16.0312C20.375 16.4455 20.7108 16.7812 21.125 16.7812C21.5392 16.7812 21.875 16.4455 21.875 16.0312H20.375ZM8.9375 1.78125C8.52329 1.78125 8.1875 2.11704 8.1875 2.53125C8.1875 2.94546 8.52329 3.28125 8.9375 3.28125V1.78125ZM13.75 12.6562C13.75 12.242 13.4142 11.9062 13 11.9062C12.5858 11.9062 12.25 12.242 12.25 12.6562H13.75ZM12.25 19.4062C12.25 19.8205 12.5858 20.1562 13 20.1562C13.4142 20.1562 13.75 19.8205 13.75 19.4062H12.25ZM16.25 16.7812C16.6642 16.7812 17 16.4455 17 16.0312C17 15.617 16.6642 15.2812 16.25 15.2812V16.7812ZM9.75 15.2812C9.33579 15.2812 9 15.617 9 16.0312C9 16.4455 9.33579 16.7812 9.75 16.7812V15.2812ZM19.9062 23.7188H6.09375V25.2188H19.9062V23.7188ZM5.625 23.2031V3.79687H4.125V23.2031H5.625ZM6.09375 3.28125H11.375V1.78125H6.09375V3.28125ZM20.375 12.6562V23.2031H21.875V12.6562H20.375ZM11.375 3.28125C16.3191 3.28125 20.375 7.45165 20.375 12.6562H21.875C21.875 6.67708 17.2004 1.78125 11.375 1.78125V3.28125ZM6.09375 23.7188C5.86129 23.7188 5.625 23.5148 5.625 23.2031H4.125C4.125 24.2894 4.98001 25.2188 6.09375 25.2188V23.7188ZM19.9062 25.2188C21.02 25.2188 21.875 24.2894 21.875 23.2031H20.375C20.375 23.5148 20.1387 23.7188 19.9062 23.7188V25.2188ZM5.625 3.79687C5.625 3.48517 5.86129 3.28125 6.09375 3.28125V1.78125C4.98001 1.78125 4.125 2.71061 4.125 3.79687H5.625ZM21.875 16.0312V13.0781H20.375V16.0312H21.875ZM17.4688 8.53125H15.8438V10.0312H17.4688V8.53125ZM15.375 8.01562V6.32812H13.875V8.01562H15.375ZM10.9688 1.78125H8.9375V3.28125H10.9688V1.78125ZM15.375 6.32812C15.375 3.84389 13.4287 1.78125 10.9688 1.78125V3.28125C12.5474 3.28125 13.875 4.61845 13.875 6.32812H15.375ZM21.875 13.0781C21.875 10.5939 19.9287 8.53125 17.4688 8.53125V10.0312C19.0474 10.0312 20.375 11.3685 20.375 13.0781H21.875ZM15.8438 8.53125C15.6113 8.53125 15.375 8.32733 15.375 8.01562H13.875C13.875 9.10189 14.73 10.0312 15.8438 10.0312V8.53125ZM12.25 12.6562V19.4062H13.75V12.6562H12.25ZM16.25 15.2812H9.75V16.7812H16.25V15.2812Z" fill="#242423"/>
</svg>
