<svg width="26" height="26" viewBox="0 0 26 26" fill="none" xmlns="http://www.w3.org/2000/svg">
<path d="M6.125 4.1875C6.53921 4.1875 6.875 3.85171 6.875 3.4375C6.875 3.02329 6.53921 2.6875 6.125 2.6875V4.1875ZM20 22.2362C20 21.822 19.6642 21.4862 19.25 21.4862C18.8358 21.4862 18.5 21.822 18.5 22.2362H20ZM18.0312 23.8125H4.21875V25.3125H18.0312V23.8125ZM3.75 23.3438V4.65625H2.25V23.3438H3.75ZM4.21875 4.1875H6.125V2.6875H4.21875V4.1875ZM4.21875 23.8125C3.95987 23.8125 3.75 23.6026 3.75 23.3438H2.25C2.25 24.4311 3.13144 25.3125 4.21875 25.3125V23.8125ZM18.0312 25.3125C19.1186 25.3125 20 24.4311 20 23.3438H18.5C18.5 23.6026 18.2901 23.8125 18.0312 23.8125V25.3125ZM3.75 4.65625C3.75 4.39737 3.95987 4.1875 4.21875 4.1875V2.6875C3.13144 2.6875 2.25 3.56894 2.25 4.65625H3.75ZM20 23.3438V22.2362H18.5V23.3438H20Z" fill="#242423"/>
<path d="M21.625 14C21.625 14.4142 21.9608 14.75 22.375 14.75C22.7892 14.75 23.125 14.4142 23.125 14H21.625ZM10.1875 0.25C9.77329 0.25 9.4375 0.585786 9.4375 1C9.4375 1.41421 9.77329 1.75 10.1875 1.75V0.25ZM21.1562 21.375H7.34375V22.875H21.1562V21.375ZM6.875 20.9062V2.21875H5.375V20.9062H6.875ZM7.34375 1.75H12.625V0.25H7.34375V1.75ZM21.625 10.75V20.9062H23.125V10.75H21.625ZM12.625 1.75C17.5956 1.75 21.625 5.77944 21.625 10.75H23.125C23.125 4.95101 18.424 0.25 12.625 0.25V1.75ZM7.34375 21.375C7.08487 21.375 6.875 21.1651 6.875 20.9062H5.375C5.375 21.9936 6.25644 22.875 7.34375 22.875V21.375ZM21.1562 22.875C22.2436 22.875 23.125 21.9936 23.125 20.9062H21.625C21.625 21.1651 21.4151 21.375 21.1562 21.375V22.875ZM6.875 2.21875C6.875 1.95987 7.08487 1.75 7.34375 1.75V0.25C6.25644 0.25 5.375 1.13144 5.375 2.21875H6.875ZM23.125 14V11.1562H21.625V14H23.125ZM18.7188 6.75H17.0938V8.25H18.7188V6.75ZM16.625 6.28125V4.65625H15.125V6.28125H16.625ZM12.2188 0.25H10.1875V1.75H12.2188V0.25ZM16.625 4.65625C16.625 2.22275 14.6523 0.25 12.2188 0.25V1.75C13.8238 1.75 15.125 3.05117 15.125 4.65625H16.625ZM23.125 11.1562C23.125 8.72275 21.1523 6.75 18.7188 6.75V8.25C20.3238 8.25 21.625 9.55117 21.625 11.1562H23.125ZM17.0938 6.75C16.8349 6.75 16.625 6.54013 16.625 6.28125H15.125C15.125 7.36856 16.0064 8.25 17.0938 8.25V6.75Z" fill="#242423"/>
</svg>
