<svg width="26" height="26" viewBox="0 0 26 26" fill="none" xmlns="http://www.w3.org/2000/svg">
<path d="M6.5625 13C6.5625 13.0345 6.53452 13.0625 6.5 13.0625V14.5625C7.36294 14.5625 8.0625 13.8629 8.0625 13H6.5625ZM6.5 13.0625C6.46548 13.0625 6.4375 13.0345 6.4375 13H4.9375C4.9375 13.8629 5.63706 14.5625 6.5 14.5625V13.0625ZM6.4375 13C6.4375 12.9655 6.46548 12.9375 6.5 12.9375V11.4375C5.63706 11.4375 4.9375 12.1371 4.9375 13H6.4375ZM6.5 12.9375C6.53452 12.9375 6.5625 12.9655 6.5625 13H8.0625C8.0625 12.1371 7.36294 11.4375 6.5 11.4375V12.9375ZM13.0625 13C13.0625 13.0345 13.0345 13.0625 13 13.0625V14.5625C13.8629 14.5625 14.5625 13.8629 14.5625 13H13.0625ZM13 13.0625C12.9655 13.0625 12.9375 13.0345 12.9375 13H11.4375C11.4375 13.8629 12.1371 14.5625 13 14.5625V13.0625ZM12.9375 13C12.9375 12.9655 12.9655 12.9375 13 12.9375V11.4375C12.1371 11.4375 11.4375 12.1371 11.4375 13H12.9375ZM13 12.9375C13.0345 12.9375 13.0625 12.9655 13.0625 13H14.5625C14.5625 12.1371 13.8629 11.4375 13 11.4375V12.9375ZM19.5625 13C19.5625 13.0345 19.5345 13.0625 19.5 13.0625V14.5625C20.3629 14.5625 21.0625 13.8629 21.0625 13H19.5625ZM19.5 13.0625C19.4655 13.0625 19.4375 13.0345 19.4375 13H17.9375C17.9375 13.8629 18.6371 14.5625 19.5 14.5625V13.0625ZM19.4375 13C19.4375 12.9655 19.4655 12.9375 19.5 12.9375V11.4375C18.6371 11.4375 17.9375 12.1371 17.9375 13H19.4375ZM19.5 12.9375C19.5345 12.9375 19.5625 12.9655 19.5625 13H21.0625C21.0625 12.1371 20.3629 11.4375 19.5 11.4375V12.9375Z" fill="#242423"/>
</svg>
