<svg width="26" height="27" viewBox="0 0 26 27" fill="none" xmlns="http://www.w3.org/2000/svg">
<path d="M13 6.84375C12.992 6.84375 12.9803 6.84157 12.9657 6.82639C12.9506 6.81071 12.9375 6.78521 12.9375 6.75L11.4375 6.75C11.4375 7.60327 12.1106 8.34375 13 8.34375L13 6.84375ZM12.9375 6.75C12.9375 6.71479 12.9506 6.68929 12.9657 6.67361C12.9803 6.65843 12.992 6.65625 13 6.65625L13 5.15625C12.1106 5.15625 11.4375 5.89673 11.4375 6.75L12.9375 6.75ZM13 6.65625C13.008 6.65625 13.0197 6.65843 13.0343 6.67361C13.0494 6.68929 13.0625 6.71479 13.0625 6.75L14.5625 6.75C14.5625 5.89673 13.8894 5.15625 13 5.15625L13 6.65625ZM13.0625 6.75C13.0625 6.78521 13.0494 6.81071 13.0343 6.82639C13.0197 6.84157 13.008 6.84375 13 6.84375L13 8.34375C13.8894 8.34375 14.5625 7.60327 14.5625 6.75L13.0625 6.75ZM13 13.5938C12.992 13.5937 12.9803 13.5916 12.9657 13.5764C12.9506 13.5607 12.9375 13.5352 12.9375 13.5L11.4375 13.5C11.4375 14.3533 12.1106 15.0937 13 15.0938L13 13.5938ZM12.9375 13.5C12.9375 13.4648 12.9506 13.4393 12.9657 13.4236C12.9803 13.4084 12.992 13.4062 13 13.4062L13 11.9062C12.1106 11.9062 11.4375 12.6467 11.4375 13.5L12.9375 13.5ZM13 13.4062C13.008 13.4063 13.0197 13.4084 13.0343 13.4236C13.0494 13.4393 13.0625 13.4648 13.0625 13.5L14.5625 13.5C14.5625 12.6467 13.8894 11.9063 13 11.9062L13 13.4062ZM13.0625 13.5C13.0625 13.5352 13.0494 13.5607 13.0343 13.5764C13.0197 13.5916 13.008 13.5938 13 13.5938L13 15.0938C13.8894 15.0938 14.5625 14.3533 14.5625 13.5L13.0625 13.5ZM13 20.3438C12.992 20.3437 12.9803 20.3416 12.9657 20.3264C12.9506 20.3107 12.9375 20.2852 12.9375 20.25L11.4375 20.25C11.4375 21.1033 12.1106 21.8437 13 21.8438L13 20.3438ZM12.9375 20.25C12.9375 20.2148 12.9506 20.1893 12.9657 20.1736C12.9803 20.1584 12.992 20.1562 13 20.1562L13 18.6562C12.1106 18.6562 11.4375 19.3967 11.4375 20.25L12.9375 20.25ZM13 20.1562C13.008 20.1563 13.0197 20.1584 13.0343 20.1736C13.0494 20.1893 13.0625 20.2148 13.0625 20.25L14.5625 20.25C14.5625 19.3967 13.8894 18.6563 13 18.6562L13 20.1562ZM13.0625 20.25C13.0625 20.2852 13.0494 20.3107 13.0343 20.3264C13.0197 20.3416 13.008 20.3438 13 20.3438L13 21.8438C13.8894 21.8438 14.5625 21.1033 14.5625 20.25L13.0625 20.25Z" fill="#242423"/>
</svg>
