<svg width="26" height="27" viewBox="0 0 26 27" fill="none" xmlns="http://www.w3.org/2000/svg">
<path d="M2.9216 18.1414L2.26599 17.7772L2.26599 17.7772L2.9216 18.1414ZM23.0786 18.1414L23.7343 17.7772L23.7343 17.7772L23.0786 18.1414ZM10.8888 3.80051L11.5444 4.16474L11.5444 4.16474L10.8888 3.80051ZM15.1114 3.80051L15.7671 3.43627L15.1114 3.80051ZM13.7501 10.1251C13.7501 9.7109 13.4143 9.37512 13.0001 9.37512C12.5859 9.37512 12.2501 9.7109 12.2501 10.1251H13.7501ZM12.2501 14.3439C12.2501 14.7581 12.5859 15.0939 13.0001 15.0939C13.4143 15.0939 13.7501 14.7581 13.7501 14.3439H12.2501ZM13.0001 17.7189V16.9689C12.5859 16.9689 12.2501 17.3047 12.2501 17.7189H13.0001ZM13.0082 17.7189H13.7582C13.7582 17.3047 13.4225 16.9689 13.0082 16.9689V17.7189ZM13.0082 17.7273V18.4773C13.4225 18.4773 13.7582 18.1415 13.7582 17.7273H13.0082ZM13.0001 17.7273H12.2501C12.2501 18.1415 12.5859 18.4773 13.0001 18.4773V17.7273ZM2.26599 17.7772C1.07418 19.9225 2.5375 22.6876 5.03293 22.6876V21.1876C3.77628 21.1876 2.89403 19.7354 3.57722 18.5057L2.26599 17.7772ZM22.423 18.5057C23.1062 19.7354 22.224 21.1876 20.9673 21.1876V22.6876C23.4627 22.6876 24.9261 19.9225 23.7343 17.7772L22.423 18.5057ZM11.5444 4.16474C12.1967 2.99066 13.8036 2.99066 14.4558 4.16474L15.7671 3.43627C14.5433 1.23348 11.4569 1.23348 10.2332 3.43628L11.5444 4.16474ZM12.2501 10.1251V14.3439H13.7501V10.1251H12.2501ZM13.0001 18.4689H13.0082V16.9689H13.0001V18.4689ZM12.2582 17.7189V17.7273H13.7582V17.7189H12.2582ZM13.0082 16.9773H13.0001V18.4773H13.0082V16.9773ZM13.7501 17.7273V17.7189H12.2501V17.7273H13.7501ZM3.57722 18.5057L11.5444 4.16474L10.2332 3.43628L2.26599 17.7772L3.57722 18.5057ZM14.4558 4.16474L22.423 18.5057L23.7343 17.7772L15.7671 3.43627L14.4558 4.16474ZM20.9673 21.1876H5.03293V22.6876H20.9673V21.1876Z" fill="#242423"/>
</svg>
