<svg width="26" height="26" viewBox="0 0 26 26" fill="none" xmlns="http://www.w3.org/2000/svg">
<path d="M2.20462 13.3493C2.12978 13.1247 2.12971 12.8816 2.20442 12.657C3.70848 8.13553 7.97363 4.875 13.0003 4.875C18.0247 4.875 22.2882 8.1325 23.7941 12.6507C23.869 12.8753 23.869 13.1184 23.7943 13.343C22.2903 17.8645 18.0251 21.125 12.9984 21.125C7.97407 21.125 3.71055 17.8675 2.20462 13.3493Z" stroke="#242423" stroke-width="1.5" stroke-linecap="round" stroke-linejoin="round"/>
<path d="M16.2494 13C16.2494 14.7949 14.7944 16.25 12.9994 16.25C11.2045 16.25 9.74944 14.7949 9.74944 13C9.74944 11.2051 11.2045 9.75 12.9994 9.75C14.7944 9.75 16.2494 11.2051 16.2494 13Z" stroke="#242423" stroke-width="1.5" stroke-linecap="round" stroke-linejoin="round"/>
</svg>
