<svg width="27" height="26" viewBox="0 0 27 26" fill="none" xmlns="http://www.w3.org/2000/svg">
<path d="M11.8125 6.5L22.7812 6.5M11.8125 6.5C11.8125 7.39746 11.057 8.125 10.125 8.125C9.19302 8.125 8.4375 7.39746 8.4375 6.5M11.8125 6.5C11.8125 5.60254 11.057 4.875 10.125 4.875C9.19302 4.875 8.4375 5.60254 8.4375 6.5M4.21875 6.5H8.4375M11.8125 19.5H22.7812M11.8125 19.5C11.8125 20.3975 11.057 21.125 10.125 21.125C9.19302 21.125 8.4375 20.3975 8.4375 19.5M11.8125 19.5C11.8125 18.6025 11.057 17.875 10.125 17.875C9.19302 17.875 8.4375 18.6025 8.4375 19.5M4.21875 19.5L8.4375 19.5M18.5625 13L22.7812 13M18.5625 13C18.5625 13.8975 17.807 14.625 16.875 14.625C15.943 14.625 15.1875 13.8975 15.1875 13M18.5625 13C18.5625 12.1025 17.807 11.375 16.875 11.375C15.943 11.375 15.1875 12.1025 15.1875 13M4.21875 13H15.1875" stroke="#242423" stroke-width="1.5" stroke-linecap="round" stroke-linejoin="round"/>
</svg>
