<svg width="26" height="25" viewBox="0 0 26 25" fill="none" xmlns="http://www.w3.org/2000/svg">
<path d="M10.6736 19.8786C10.6736 19.2852 10.9187 18.7161 11.3549 18.2967C11.7914 17.8773 12.3832 17.6416 13.0001 17.6416L12.9432 12.47H9.93027C9.93027 12.47 8.02267 12.3024 7.09132 11.64C5.98017 10.8496 5.32644 10.02 5.32644 8.69195V7.35866C4.70952 7.35866 4.11775 7.12298 3.68158 6.70355C3.24511 6.28412 3 5.71514 3 5.12171C3 4.52853 3.2451 3.95953 3.68157 3.54013C4.11778 3.12045 4.70953 2.88477 5.32644 2.88477C5.94362 2.88477 6.53539 3.12044 6.97156 3.54012C7.40777 3.95955 7.65288 4.52854 7.65288 5.12171C7.65288 5.71515 7.40777 6.28415 6.97156 6.70355C6.53535 7.12295 5.94361 7.35866 5.32644 7.35866V8.69195C5.32644 10.02 5.98017 10.8496 7.09132 11.64C8.02267 12.3024 9.93027 12.47 9.93027 12.47H12.9432H16.0707C16.0707 12.47 18.0743 12.3443 19.0284 11.64C20.0923 10.8546 20.6736 10.0314 20.6736 8.74258V7.35904C20.0564 7.35904 19.4646 7.12337 19.0284 6.70394C18.5923 6.28451 18.3471 5.71552 18.3471 5.1221C18.3471 4.52891 18.5922 3.95991 19.0284 3.54051C19.4646 3.12083 20.0564 2.88515 20.6736 2.88515C21.2905 2.88515 21.8822 3.12083 22.3184 3.54052C22.7549 3.95994 23 4.52893 23 5.1221C23 5.71554 22.7549 6.28454 22.3184 6.70394C21.8822 7.12337 21.2905 7.35904 20.6736 7.35904V8.74258C20.6736 10.0314 20.0923 10.8546 19.0284 11.64C18.0743 12.3443 16.0707 12.47 16.0707 12.47H12.9432L13.0001 17.6416C13.617 17.6416 14.2088 17.8773 14.6452 18.2967C15.0814 18.7162 15.3265 19.2852 15.3265 19.8786C15.3265 20.4718 15.0814 21.0408 14.6452 21.4602C14.2087 21.8798 13.617 22.1155 13.0001 22.1155C12.3832 22.1155 11.7914 21.8799 11.3549 21.4602C10.9187 21.0407 10.6736 20.4718 10.6736 19.8786Z" fill="#242423"/>
<path d="M11.3549 18.2967L11.3722 18.3134M11.3549 18.2967C10.9187 18.7161 10.6736 19.2851 10.6736 19.8786C10.6736 20.4718 10.9187 21.0407 11.3549 21.4602C11.7914 21.8799 12.3832 22.1155 13.0001 22.1155C13.617 22.1155 14.2087 21.8798 14.6452 21.4602C15.0814 21.0408 15.3265 20.4718 15.3265 19.8786C15.3265 19.2852 15.0814 18.7162 14.6452 18.2967M11.3549 18.2967C11.7914 17.8773 12.3832 17.6416 13.0001 17.6416M14.6452 18.2967L14.6297 18.3117M14.6452 18.2967C14.2088 17.8773 13.617 17.6416 13.0001 17.6416M13.0001 17.6416L12.9432 12.47M20.6736 7.35904C20.0564 7.35904 19.4646 7.12337 19.0284 6.70394C18.5923 6.28451 18.3471 5.71552 18.3471 5.1221C18.3471 4.52891 18.5922 3.95991 19.0284 3.54051C19.4646 3.12083 20.0564 2.88515 20.6736 2.88515C21.2905 2.88515 21.8822 3.12083 22.3184 3.54052C22.7549 3.95994 23 4.52893 23 5.1221C23 5.71554 22.7549 6.28454 22.3184 6.70394C21.8822 7.12337 21.2905 7.35904 20.6736 7.35904ZM20.6736 7.35904C20.6736 7.35904 20.6736 8.20112 20.6736 8.74258C20.6736 10.0314 20.0923 10.8546 19.0284 11.64C18.0743 12.3443 16.0707 12.47 16.0707 12.47H12.9432M5.32644 7.35866C4.70952 7.35866 4.11775 7.12298 3.68158 6.70355C3.24511 6.28412 3 5.71514 3 5.12171C3 4.52853 3.2451 3.95953 3.68157 3.54013C4.11778 3.12045 4.70953 2.88477 5.32644 2.88477C5.94362 2.88477 6.53539 3.12044 6.97156 3.54012C7.40777 3.95955 7.65288 4.52854 7.65288 5.12171C7.65288 5.71515 7.40777 6.28415 6.97156 6.70355C6.53535 7.12295 5.94361 7.35866 5.32644 7.35866ZM5.32644 7.35866C5.32644 7.35866 5.32644 8.15368 5.32644 8.69195C5.32644 10.02 5.98017 10.8496 7.09132 11.64C8.02267 12.3024 9.93027 12.47 9.93027 12.47H12.9432" stroke="#242423" stroke-width="1.5" stroke-linecap="round" stroke-linejoin="round"/>
</svg>
