<svg width="26" height="26" viewBox="0 0 26 26" fill="none" xmlns="http://www.w3.org/2000/svg">
<path d="M11.3549 19.0285L11.3722 19.0457M11.3549 19.0285C10.9187 19.4646 10.6736 20.0564 10.6736 20.6736C10.6736 21.2905 10.9187 21.8822 11.3549 22.3184C11.7914 22.7549 12.3832 23 13.0001 23C13.617 23 14.2087 22.7549 14.6452 22.3184C15.0814 21.8823 15.3265 21.2905 15.3265 20.6736C15.3265 20.0564 15.0814 19.4647 14.6452 19.0285M11.3549 19.0285C11.7914 18.5923 12.3832 18.3472 13.0001 18.3472M14.6452 19.0285L14.6297 19.044M14.6452 19.0285C14.2088 18.5923 13.617 18.3472 13.0001 18.3472M13.0001 18.3472L12.9432 12.9687M20.6736 7.65325C20.0564 7.65325 19.4646 7.40815 19.0284 6.97194C18.5923 6.53573 18.3471 5.94399 18.3471 5.32682C18.3471 4.70991 18.5922 4.11815 19.0284 3.68197C19.4646 3.24551 20.0564 3.0004 20.6736 3.0004C21.2905 3.0004 21.8822 3.24551 22.3184 3.68198C22.7549 4.11819 23 4.70993 23 5.32682C23 5.944 22.7549 6.53577 22.3184 6.97194C21.8822 7.40814 21.2905 7.65325 20.6736 7.65325ZM20.6736 7.65325C20.6736 7.65325 20.6736 8.52901 20.6736 9.09213C20.6736 10.4325 20.0923 11.2886 19.0284 12.1054C18.0743 12.838 16.0707 12.9687 16.0707 12.9687H12.9432M5.32644 7.65285C4.70952 7.65285 4.11775 7.40774 3.68158 6.97154C3.24511 6.53533 3 5.94359 3 5.32642C3 4.70951 3.2451 4.11775 3.68157 3.68158C4.11778 3.24511 4.70953 3 5.32644 3C5.94362 3 6.53539 3.2451 6.97156 3.68157C7.40777 4.11778 7.65288 4.70952 7.65288 5.32642C7.65288 5.9436 7.40777 6.53536 6.97156 6.97154C6.53535 7.40771 5.94361 7.65285 5.32644 7.65285ZM5.32644 7.65285C5.32644 7.65285 5.32644 8.47968 5.32644 9.03947C5.32644 10.4206 5.98017 11.2835 7.09132 12.1054C8.02267 12.7944 9.93027 12.9687 9.93027 12.9687H12.9432" stroke="#242423" stroke-width="1.5" stroke-linecap="round" stroke-linejoin="round"/>
</svg>
