<svg width="26" height="27" viewBox="0 0 26 27" fill="none" xmlns="http://www.w3.org/2000/svg">
<path d="M10.5625 23.625H9.8125C9.8125 23.887 9.94919 24.13 10.1731 24.266C10.397 24.402 10.6756 24.4113 10.9081 24.2906L10.5625 23.625ZM4.24335 4.1374L4.37343 4.87603L4.24335 4.1374ZM14.0901 21.7934L14.4357 22.459L14.4357 22.459L14.0901 21.7934ZM16.1514 14.4461L16.6917 14.9663L16.6917 14.9663L16.1514 14.4461ZM22.0361 8.33514L21.4958 7.8149L21.4958 7.8149L22.0361 8.33514ZM21.7566 4.13737L21.6266 4.87601L21.7566 4.13737ZM21.8867 3.39874C18.9972 2.8899 16.0282 2.625 13.0001 2.625V4.125C15.9405 4.125 18.8225 4.38221 21.6266 4.87601L21.8867 3.39874ZM23.5 6.54527V5.37077H22V6.54527H23.5ZM16.6917 14.9663L22.5763 8.85537L21.4958 7.8149L15.6112 13.9259L16.6917 14.9663ZM16.1875 19.5294V16.236H14.6875V19.5294H16.1875ZM10.9081 24.2906L14.4357 22.459L13.7445 21.1277L10.2169 22.9594L10.9081 24.2906ZM9.8125 16.236V23.625H11.3125V16.236H9.8125ZM3.42369 8.85537L9.30833 14.9663L10.3888 13.9259L4.50417 7.8149L3.42369 8.85537ZM2.5 5.3708V6.54527H4V5.3708H2.5ZM13.0001 2.625C9.97194 2.625 7.00284 2.88991 4.11328 3.39877L4.37343 4.87603C7.17755 4.38222 10.0596 4.125 13.0001 4.125V2.625ZM4 5.3708C4 5.09744 4.18284 4.9096 4.37343 4.87603L4.11328 3.39877C3.14933 3.56852 2.5 4.4281 2.5 5.3708H4ZM4.50417 7.8149C4.1844 7.48284 4 7.02663 4 6.54527H2.5C2.5 7.40657 2.82921 8.23803 3.42369 8.85537L4.50417 7.8149ZM11.3125 16.236C11.3125 15.3747 10.9833 14.5432 10.3888 13.9259L9.30833 14.9663C9.6281 15.2984 9.8125 15.7546 9.8125 16.236H11.3125ZM14.6875 19.5294C14.6875 20.2189 14.3124 20.8329 13.7445 21.1277L14.4357 22.459C15.5193 21.8963 16.1875 20.7574 16.1875 19.5294H14.6875ZM15.6112 13.9259C15.0167 14.5432 14.6875 15.3747 14.6875 16.236H16.1875C16.1875 15.7546 16.3719 15.2984 16.6917 14.9663L15.6112 13.9259ZM22 6.54527C22 7.02663 21.8156 7.48284 21.4958 7.8149L22.5763 8.85537C23.1708 8.23803 23.5 7.40657 23.5 6.54527H22ZM21.6266 4.87601C21.8172 4.90957 22 5.09741 22 5.37077H23.5C23.5 4.42807 22.8507 3.56849 21.8867 3.39874L21.6266 4.87601Z" fill="#242423"/>
</svg>
