<svg width="26" height="27" viewBox="0 0 26 27" fill="none" xmlns="http://www.w3.org/2000/svg">
<path d="M13 23.625C17.542 23.625 21.3585 20.3999 22.442 16.0346M13 23.625C8.45804 23.625 4.64145 20.3999 3.55799 16.0346M13 23.625C15.6924 23.625 17.875 19.0919 17.875 13.5C17.875 7.90812 15.6924 3.375 13 3.375M13 23.625C10.3076 23.625 8.125 19.0919 8.125 13.5C8.125 7.90812 10.3076 3.375 13 3.375M13 3.375C16.6456 3.375 19.8239 5.45281 21.4967 8.53026M13 3.375C9.35438 3.375 6.17608 5.45281 4.50334 8.53026M21.4967 8.53026C19.218 10.5754 16.2481 11.8125 13 11.8125C9.75186 11.8125 6.78196 10.5754 4.50334 8.53026M21.4967 8.53026C22.2946 9.99836 22.75 11.694 22.75 13.5C22.75 14.3752 22.6431 15.2245 22.442 16.0346M22.442 16.0346C19.6445 17.6453 16.4254 18.5625 13 18.5625C9.57461 18.5625 6.35551 17.6453 3.55799 16.0346M3.55799 16.0346C3.35694 15.2245 3.25 14.3752 3.25 13.5C3.25 11.694 3.70535 9.99836 4.50334 8.53026" stroke="#242423" stroke-width="1.5" stroke-linecap="round" stroke-linejoin="round"/>
</svg>
