<svg width="27" height="27" viewBox="0 0 27 27" fill="none" xmlns="http://www.w3.org/2000/svg">
<path d="M23.6399 23.5132C23.7392 23.5132 23.822 23.5505 23.8882 23.625C23.9627 23.6912 24 23.774 24 23.8733C24 23.981 23.9627 24.0679 23.8882 24.1341C23.822 24.2003 23.7392 24.2334 23.6399 24.2334H18.9834C18.8758 24.2334 18.7806 24.2045 18.6978 24.1465C18.6233 24.0803 18.5861 23.9851 18.5861 23.8609C18.5861 23.7699 18.6192 23.6829 18.6854 23.6002L21.5538 20.4338C22.0091 19.9371 22.3485 19.4818 22.572 19.0679C22.8038 18.6457 22.9197 18.269 22.9197 17.9379C22.9197 17.3916 22.7541 16.9528 22.423 16.6217C22.0919 16.2906 21.6449 16.125 21.082 16.125C20.8253 16.125 20.5687 16.1788 20.3121 16.2864C20.0637 16.394 19.8402 16.5348 19.6416 16.7086C19.4512 16.8825 19.3022 17.0811 19.1945 17.3046C19.1449 17.3874 19.0911 17.4454 19.0331 17.4785C18.9834 17.5116 18.9255 17.5281 18.8593 17.5281C18.7599 17.5281 18.673 17.4992 18.5985 17.4412C18.524 17.375 18.4868 17.2964 18.4868 17.2053C18.4868 17.1474 18.4992 17.0894 18.524 17.0315C18.5571 16.9735 18.6026 16.9073 18.6606 16.8328C18.8096 16.5762 19.0166 16.3402 19.2815 16.125C19.5464 15.9098 19.8402 15.7401 20.1631 15.6159C20.4942 15.4834 20.8171 15.4172 21.1316 15.4172C21.6614 15.4172 22.1167 15.5207 22.4975 15.7276C22.8866 15.9263 23.1846 16.2119 23.3916 16.5844C23.6068 16.9487 23.7144 17.3833 23.7144 17.8882C23.7144 18.3187 23.5778 18.7906 23.3046 19.3038C23.0397 19.8088 22.6424 20.3551 22.1126 20.9429L19.6912 23.6623L19.5671 23.5132H23.6399Z" fill="#242423"/>
<path d="M4.76073 3C4.95091 3 5.11732 3.07391 5.25996 3.22174C5.41845 3.36956 5.49769 3.55023 5.49769 3.76376V19.4824C5.48184 19.6959 5.39467 19.8766 5.23619 20.0244C5.09355 20.1722 4.92714 20.2461 4.73696 20.2461C4.51508 20.2461 4.33282 20.1722 4.19018 20.0244C4.06339 19.8766 4 19.6959 4 19.4824V3.76376C4 3.55023 4.07132 3.36956 4.21396 3.22174C4.35659 3.07391 4.53885 3 4.76073 3ZM15.9102 3C16.1321 3 16.3064 3.07391 16.4332 3.22174C16.5758 3.36956 16.6472 3.55023 16.6472 3.76376V19.4824C16.6313 19.6959 16.5521 19.8766 16.4094 20.0244C16.2826 20.1722 16.1083 20.2461 15.8864 20.2461C15.6804 20.2461 15.5061 20.1722 15.3634 20.0244C15.2208 19.8766 15.1495 19.6959 15.1495 19.4824V3.76376C15.1495 3.55023 15.2208 3.36956 15.3634 3.22174C15.5219 3.07391 15.7042 3 15.9102 3ZM4.64187 10.7115H15.934L15.9102 12.1405H4.54678L4.64187 10.7115Z" fill="#242423"/>
</svg>
