<svg width="27" height="27" viewBox="0 0 27 27" fill="none" xmlns="http://www.w3.org/2000/svg">
<path d="M23.6353 26C23.529 26 23.4416 25.96 23.3732 25.8801C23.3048 25.8001 23.2707 25.7069 23.2707 25.6003V17.5793L23.396 17.7126L21.8803 18.8984C21.8196 18.9517 21.755 18.9783 21.6866 18.9783C21.5954 18.9783 21.5119 18.9339 21.4359 18.8451C21.3675 18.7563 21.3333 18.6586 21.3333 18.552C21.3333 18.4099 21.3941 18.2988 21.5157 18.2189L23.4188 16.7399C23.4644 16.7044 23.51 16.6822 23.5556 16.6733C23.6087 16.6644 23.6543 16.6644 23.6923 16.6733C23.7911 16.6822 23.867 16.7266 23.9202 16.8066C23.9734 16.8776 24 16.9665 24 17.073V25.6003C24 25.7069 23.9658 25.8001 23.8974 25.8801C23.8291 25.96 23.7417 26 23.6353 26Z" fill="#242423"/>
<path d="M4.88221 2C5.10276 2 5.29574 2.08571 5.46115 2.25714C5.64495 2.42857 5.73684 2.6381 5.73684 2.88571V21.1143C5.71846 21.3619 5.61738 21.5714 5.43358 21.7429C5.26817 21.9143 5.07519 22 4.85464 22C4.59733 22 4.38596 21.9143 4.22055 21.7429C4.07352 21.5714 4 21.3619 4 21.1143V2.88571C4 2.6381 4.08271 2.42857 4.24812 2.25714C4.41353 2.08571 4.6249 2 4.88221 2ZM17.812 2C18.0693 2 18.2715 2.08571 18.4185 2.25714C18.584 2.42857 18.6667 2.6381 18.6667 2.88571V21.1143C18.6483 21.3619 18.5564 21.5714 18.391 21.7429C18.2439 21.9143 18.0418 22 17.7845 22C17.5455 22 17.3434 21.9143 17.1779 21.7429C17.0125 21.5714 16.9298 21.3619 16.9298 21.1143V2.88571C16.9298 2.6381 17.0125 2.42857 17.1779 2.25714C17.3617 2.08571 17.5731 2 17.812 2ZM4.74436 10.9429H17.8396L17.812 12.6H4.63409L4.74436 10.9429Z" fill="#242423"/>
</svg>
