<svg width="27" height="27" viewBox="0 0 27 27" fill="none" xmlns="http://www.w3.org/2000/svg">
<path d="M4.77175 3C4.96469 3 5.13351 3.07498 5.27821 3.22495C5.439 3.37491 5.51939 3.55821 5.51939 3.77482V19.7212C5.50331 19.9378 5.41488 20.1211 5.2541 20.271C5.10939 20.421 4.94057 20.496 4.74763 20.496C4.52254 20.496 4.33764 20.421 4.19294 20.271C4.06431 20.1211 4 19.9378 4 19.7212V3.77482C4 3.55821 4.07235 3.37491 4.21706 3.22495C4.36176 3.07498 4.54666 3 4.77175 3ZM16.0827 3C16.3078 3 16.4847 3.07498 16.6133 3.22495C16.758 3.37491 16.8304 3.55821 16.8304 3.77482V19.7212C16.8143 19.9378 16.7339 20.1211 16.5892 20.271C16.4606 20.421 16.2837 20.496 16.0586 20.496C15.8496 20.496 15.6728 20.421 15.528 20.271C15.3833 20.1211 15.311 19.9378 15.311 19.7212V3.77482C15.311 3.55821 15.3833 3.37491 15.528 3.22495C15.6888 3.07498 15.8737 3 16.0827 3ZM4.65117 10.8232H16.1069L16.0827 12.2729H4.5547L4.65117 10.8232Z" fill="#242423"/>
<path d="M19.2131 23.0546C19.2551 23.0546 19.2971 23.063 19.3391 23.0798C19.3895 23.0966 19.4482 23.1344 19.5154 23.1932C19.6918 23.3779 19.9017 23.5207 20.1453 23.6215C20.3888 23.7138 20.666 23.76 20.9767 23.76C21.3882 23.76 21.7619 23.6676 22.0978 23.4829C22.4422 23.2981 22.7151 23.042 22.9166 22.7145C23.1182 22.3785 23.219 21.9964 23.219 21.5681C23.219 21.081 23.1098 20.6905 22.8915 20.3966C22.6815 20.0943 22.4086 19.8717 22.0726 19.729C21.7451 19.5778 21.4092 19.5022 21.0649 19.5022C20.9725 19.5022 20.8801 19.5106 20.7877 19.5274C20.7038 19.5358 20.624 19.5484 20.5484 19.5652C20.4728 19.582 20.414 19.5904 20.372 19.5904C20.2629 19.5904 20.1789 19.5568 20.1201 19.4896C20.0613 19.414 20.0319 19.3216 20.0319 19.2125C20.0319 19.1537 20.0445 19.1033 20.0697 19.0613C20.0949 19.0109 20.1285 18.9563 20.1705 18.8975L22.7277 16.1136L22.8789 16.3151H19.0619C18.9612 16.3151 18.873 16.2815 18.7974 16.2144C18.7302 16.1388 18.6966 16.0506 18.6966 15.9498C18.6966 15.849 18.7302 15.7651 18.7974 15.6979C18.873 15.6307 18.9612 15.5971 19.0619 15.5971H23.2946C23.4373 15.5971 23.5381 15.6433 23.5969 15.7357C23.6557 15.8197 23.6851 15.9036 23.6851 15.9876C23.6851 16.038 23.6725 16.0884 23.6473 16.1388C23.6221 16.1808 23.5885 16.227 23.5465 16.2773L20.9893 19.0613L20.7122 18.8975C20.7374 18.8723 20.8213 18.8472 20.9641 18.822C21.1153 18.7884 21.2328 18.7716 21.3168 18.7716C21.7787 18.7716 22.2112 18.8807 22.6143 19.0991C23.0258 19.3174 23.3575 19.6324 23.6095 20.0439C23.8698 20.447 24 20.9467 24 21.5429C24 22.1308 23.8614 22.6473 23.5843 23.0924C23.3072 23.5291 22.9334 23.8692 22.4632 24.1127C21.9929 24.3563 21.4722 24.4781 20.9011 24.4781C20.5568 24.4781 20.2167 24.4193 19.8807 24.3017C19.5448 24.1841 19.2509 24.0078 18.999 23.7726C18.9402 23.7222 18.8982 23.6718 18.873 23.6215C18.8478 23.5711 18.8352 23.5207 18.8352 23.4703C18.8352 23.3695 18.8688 23.2771 18.936 23.1932C19.0115 23.1008 19.1039 23.0546 19.2131 23.0546Z" fill="#242423"/>
</svg>
