<svg width="27" height="26" viewBox="0 0 27 26" fill="none" xmlns="http://www.w3.org/2000/svg">
<path d="M2.01102 12.4598C1.71265 12.7471 1.70369 13.2219 1.99101 13.5203C2.27833 13.8187 2.75311 13.8276 3.05148 13.5403L2.01102 12.4598ZM12.6051 3.29935L13.1253 3.83959L13.1253 3.83959L12.6051 3.29935ZM14.3949 3.29935L14.9152 2.75911L14.9152 2.75911L14.3949 3.29935ZM23.9485 13.5403C24.2469 13.8276 24.7217 13.8187 25.009 13.5203C25.2963 13.2219 25.2873 12.7471 24.989 12.4598L23.9485 13.5403ZM5.8125 10.5626C5.8125 10.1483 5.47671 9.81256 5.0625 9.81256C4.64829 9.81256 4.3125 10.1483 4.3125 10.5626H5.8125ZM22.6875 10.5626C22.6875 10.1483 22.3517 9.81256 21.9375 9.81256C21.5233 9.81256 21.1875 10.1483 21.1875 10.5626H22.6875ZM10.9688 22.7501V23.5001C11.383 23.5001 11.7188 23.1643 11.7188 22.7501H10.9688ZM16.0312 22.7501H15.2812C15.2812 23.1643 15.617 23.5001 16.0312 23.5001V22.7501ZM9.28125 22.0001C8.86704 22.0001 8.53125 22.3358 8.53125 22.7501C8.53125 23.1643 8.86704 23.5001 9.28125 23.5001V22.0001ZM18.5625 23.5001C18.9767 23.5001 19.3125 23.1643 19.3125 22.7501C19.3125 22.3358 18.9767 22.0001 18.5625 22.0001V23.5001ZM3.05148 13.5403L13.1253 3.83959L12.0848 2.75911L2.01102 12.4598L3.05148 13.5403ZM13.8747 3.83959L23.9485 13.5403L24.989 12.4598L14.9152 2.75911L13.8747 3.83959ZM13.1253 3.83959C13.3291 3.64332 13.6709 3.64331 13.8747 3.83959L14.9152 2.75911C14.1305 2.00347 12.8695 2.00348 12.0848 2.75911L13.1253 3.83959ZM4.3125 10.5626V21.5313H5.8125V10.5626H4.3125ZM22.6875 21.5313V10.5626H21.1875V21.5313H22.6875ZM6.32812 23.5001H10.9688V22.0001H6.32812V23.5001ZM16.0312 23.5001H20.6719V22.0001H16.0312V23.5001ZM11.7188 22.7501V17.4688H10.2188V22.7501H11.7188ZM12.2344 17.0001H14.7656V15.5001H12.2344V17.0001ZM15.2812 17.4688V22.7501H16.7812V17.4688H15.2812ZM14.7656 17.0001C15.0773 17.0001 15.2812 17.2364 15.2812 17.4688H16.7812C16.7812 16.3551 15.8519 15.5001 14.7656 15.5001V17.0001ZM21.1875 21.5313C21.1875 21.7638 20.9836 22.0001 20.6719 22.0001V23.5001C21.7581 23.5001 22.6875 22.645 22.6875 21.5313H21.1875ZM11.7188 17.4688C11.7188 17.2364 11.9227 17.0001 12.2344 17.0001V15.5001C11.1481 15.5001 10.2188 16.3551 10.2188 17.4688H11.7188ZM4.3125 21.5313C4.3125 22.645 5.24186 23.5001 6.32812 23.5001V22.0001C6.01642 22.0001 5.8125 21.7638 5.8125 21.5313H4.3125ZM9.28125 23.5001H18.5625V22.0001H9.28125V23.5001Z" fill="#242423"/>
</svg>
