<svg width="27" height="27" viewBox="0 0 27 27" fill="none" xmlns="http://www.w3.org/2000/svg">
<path d="M8.85938 16.0312L10.2252 18.2166C10.6877 18.9566 11.4989 19.4062 12.3717 19.4062H14.6283C15.5011 19.4062 16.3122 18.9566 16.7748 18.2166L18.1406 16.0312M2.71081 10.125H7.92657C8.7729 10.125 9.56323 10.548 10.0327 11.2522L10.2173 11.5291C10.6868 12.2333 11.4771 12.6562 12.3234 12.6562H14.6766C15.5229 12.6562 16.3132 12.2333 16.7827 11.5291L16.9673 11.2522C17.4368 10.548 18.2271 10.125 19.0734 10.125H24.2892M2.71081 10.125C2.5931 10.4206 2.53125 10.7382 2.53125 11.0614V13.5C2.53125 14.898 3.66453 16.0312 5.0625 16.0312H21.9375C23.3355 16.0312 24.4688 14.898 24.4688 13.5V11.0614C24.4688 10.7382 24.4069 10.4206 24.2892 10.125M2.71081 10.125C2.81316 9.86795 2.95774 9.62742 3.14063 9.41405L6.83609 5.10268C7.31698 4.54164 8.01903 4.21875 8.75796 4.21875H18.242C18.981 4.21875 19.683 4.54164 20.1639 5.10268L23.8594 9.41405C24.0423 9.62742 24.1868 9.86795 24.2892 10.125M5.0625 22.7812H21.9375C23.3355 22.7812 24.4688 21.648 24.4688 20.25V17.2969C24.4688 16.5979 23.9021 16.0312 23.2031 16.0312H3.79688C3.09789 16.0312 2.53125 16.5979 2.53125 17.2969V20.25C2.53125 21.648 3.66453 22.7812 5.0625 22.7812Z" stroke="#242423" stroke-width="1.5" stroke-linecap="round" stroke-linejoin="round"/>
</svg>
