<svg width="27" height="27" viewBox="0 0 27 27" fill="none" xmlns="http://www.w3.org/2000/svg">
<path d="M11.6938 7.59361C11.3157 7.76272 11.1462 8.20634 11.3154 8.58446C11.4845 8.96257 11.9281 9.13201 12.3062 8.96289L11.6938 7.59361ZM12.1383 8.2164L12.4445 8.90104L12.4445 8.90104L12.1383 8.2164ZM15.6817 10.759L16.404 10.9609L16.404 10.9609L15.6817 10.759ZM13.3183 19.2153L12.596 19.0135L12.596 19.0135L13.3183 19.2153ZM16.8617 21.7579L17.1679 22.4426L17.1679 22.4426L16.8617 21.7579ZM17.3062 22.3807C17.6843 22.2116 17.8538 21.768 17.6846 21.3898C17.5155 21.0117 17.0719 20.8423 16.6938 21.0114L17.3062 22.3807ZM12.3062 8.96289L12.4445 8.90104L11.8321 7.53175L11.6938 7.59361L12.3062 8.96289ZM14.9594 10.5571L12.596 19.0135L14.0406 19.4172L16.404 10.9609L14.9594 10.5571ZM17.1679 22.4426L17.3062 22.3807L16.6938 21.0114L16.5555 21.0733L17.1679 22.4426ZM12.596 19.0135C12.2374 20.2967 12.8221 21.4513 13.7421 22.1115C14.6571 22.768 15.9543 22.9854 17.1679 22.4426L16.5555 21.0733C15.8588 21.3849 15.1252 21.2577 14.6166 20.8928C14.113 20.5314 13.8812 19.9875 14.0406 19.4172L12.596 19.0135ZM12.4445 8.90104C13.1412 8.58942 13.8748 8.71659 14.3834 9.08155C14.887 9.44292 15.1188 9.98678 14.9594 10.5571L16.404 10.9609C16.7626 9.67765 16.1779 8.523 15.2579 7.86284C14.3429 7.20628 13.0457 6.98893 11.8321 7.53176L12.4445 8.90104Z" fill="#242423"/>
<path d="M14.525 3.02246C15.0773 3.02246 15.525 2.57475 15.525 2.02246C15.525 1.47018 15.0773 1.02246 14.525 1.02246V3.02246ZM14.5 1.02246C13.9477 1.02246 13.5 1.47018 13.5 2.02246C13.5 2.57475 13.9477 3.02246 14.5 3.02246V1.02246ZM14.525 1.02246H14.5V3.02246H14.525V1.02246Z" fill="#242423"/>
</svg>
