<svg width="27" height="27" viewBox="0 0 27 27" fill="none" xmlns="http://www.w3.org/2000/svg">
<path d="M13.5 9.28125V8.53125C13.0858 8.53125 12.75 8.86704 12.75 9.28125H13.5ZM13.5084 9.28125H14.2584C14.2584 8.86704 13.9227 8.53125 13.5084 8.53125V9.28125ZM13.5084 9.28969V10.0397C13.9227 10.0397 14.2584 9.7039 14.2584 9.28969H13.5084ZM13.5 9.28969H12.75C12.75 9.7039 13.0858 10.0397 13.5 10.0397V9.28969ZM12.3208 11.9854C11.9504 12.1707 11.8002 12.6212 11.9854 12.9917C12.1707 13.3621 12.6212 13.5123 12.9917 13.3271L12.3208 11.9854ZM12.7029 12.6329L13.0383 13.3037L13.0383 13.3037L12.7029 12.6329ZM13.8988 13.5922L14.6264 13.7741L14.6264 13.7741L13.8988 13.5922ZM13.1012 16.7828L12.3736 16.6009L12.3736 16.6009L13.1012 16.7828ZM14.2971 17.7421L14.6325 18.4129L14.6325 18.4129L14.2971 17.7421ZM14.6792 18.3896C15.0496 18.2043 15.1998 17.7538 15.0146 17.3833C14.8293 17.0129 14.3788 16.8627 14.0083 17.0479L14.6792 18.3896ZM22.875 13.5C22.875 18.6777 18.6777 22.875 13.5 22.875V24.375C19.5061 24.375 24.375 19.5061 24.375 13.5H22.875ZM13.5 22.875C8.32233 22.875 4.125 18.6777 4.125 13.5H2.625C2.625 19.5061 7.4939 24.375 13.5 24.375V22.875ZM4.125 13.5C4.125 8.32233 8.32233 4.125 13.5 4.125V2.625C7.4939 2.625 2.625 7.4939 2.625 13.5H4.125ZM13.5 4.125C18.6777 4.125 22.875 8.32233 22.875 13.5H24.375C24.375 7.4939 19.5061 2.625 13.5 2.625V4.125ZM13.5 10.0312H13.5084V8.53125H13.5V10.0312ZM12.7584 9.28125V9.28969H14.2584V9.28125H12.7584ZM13.5084 8.53969H13.5V10.0397H13.5084V8.53969ZM14.25 9.28969V9.28125H12.75V9.28969H14.25ZM12.9917 13.3271L13.0383 13.3037L12.3675 11.9621L12.3208 11.9854L12.9917 13.3271ZM13.1712 13.4103L12.3736 16.6009L13.8288 16.9647L14.6264 13.7741L13.1712 13.4103ZM14.6325 18.4129L14.6792 18.3896L14.0083 17.0479L13.9617 17.0713L14.6325 18.4129ZM12.3736 16.6009C12.0433 17.9218 13.4146 19.0218 14.6325 18.4129L13.9617 17.0713C13.9358 17.0842 13.92 17.0841 13.9099 17.0827C13.8963 17.081 13.8784 17.0745 13.8611 17.0605C13.8437 17.0466 13.8335 17.0306 13.8288 17.0177C13.8253 17.0081 13.8218 16.9928 13.8288 16.9647L12.3736 16.6009ZM13.0383 13.3037C13.0642 13.2908 13.08 13.2909 13.0901 13.2923C13.1037 13.294 13.1216 13.3005 13.1389 13.3145C13.1563 13.3284 13.1665 13.3444 13.1712 13.3573C13.1747 13.3669 13.1782 13.3822 13.1712 13.4103L14.6264 13.7741C14.9567 12.4532 13.5854 11.3532 12.3675 11.9621L13.0383 13.3037Z" fill="#242423"/>
</svg>
