<svg width="27" height="27" viewBox="0 0 27 27" fill="none" xmlns="http://www.w3.org/2000/svg">
<path d="M15.2502 8.00003C15.2502 7.58582 14.9145 7.25002 14.5003 7.25C14.086 7.24998 13.7502 7.58576 13.7502 7.99997L15.2502 8.00003ZM17.9307 22.7468C18.3432 22.7851 18.7085 22.4817 18.7468 22.0693C18.7851 21.6568 18.4817 21.2915 18.0693 21.2532L17.9307 22.7468ZM11.3889 21.2583C10.9793 21.3196 10.6969 21.7014 10.7583 22.1111C10.8196 22.5207 11.2014 22.8031 11.6111 22.7417L11.3889 21.2583ZM14.5 13.5001L13.75 13.5001L14.5 13.5001ZM14.5 13.5001L13.75 13.5L14.5 13.5001ZM13.75 13.5001C13.75 13.501 13.75 16.8521 13.7501 19L15.2501 19C15.25 16.8528 15.25 13.5002 15.25 13.5001L13.75 13.5001ZM13.7844 19.2242C14.1901 20.5191 14.6753 21.4087 15.4145 21.9682C16.1504 22.5252 17.0228 22.6626 17.9307 22.7468L18.0693 21.2532C17.1769 21.1704 16.689 21.0516 16.3198 20.7722C15.954 20.4953 15.5894 19.9683 15.2158 18.7758L13.7844 19.2242ZM13.7502 7.99997L13.75 13.5L15.25 13.5001L15.2502 8.00003L13.7502 7.99997ZM13.7661 18.8459C13.551 19.8704 13.3105 20.3643 13.0169 20.6526C12.7323 20.9322 12.2907 21.1232 11.3889 21.2583L11.6111 22.7417C12.6002 22.5936 13.4364 22.3432 14.068 21.7227C14.6907 21.1111 15.0047 20.2466 15.2341 19.1541L13.7661 18.8459ZM15.25 13.5001L15.25 13.5001L13.75 13.5L13.75 13.5001L15.25 13.5001Z" fill="#242423"/>
<path d="M14.525 3.02246C15.0773 3.02246 15.525 2.57475 15.525 2.02246C15.525 1.47018 15.0773 1.02246 14.525 1.02246V3.02246ZM14.5 1.02246C13.9477 1.02246 13.5 1.47018 13.5 2.02246C13.5 2.57475 13.9477 3.02246 14.5 3.02246V1.02246ZM14.525 1.02246H14.5V3.02246H14.525V1.02246Z" fill="#242423"/>
<path d="M15.2502 8.00003C15.2502 7.58582 14.9145 7.25002 14.5003 7.25C14.086 7.24998 13.7502 7.58576 13.7502 7.99997L15.2502 8.00003ZM17.9307 22.7468C18.3432 22.7851 18.7085 22.4817 18.7468 22.0693C18.7851 21.6568 18.4817 21.2915 18.0693 21.2532L17.9307 22.7468ZM11.3889 21.2583C10.9793 21.3196 10.6969 21.7014 10.7583 22.1111C10.8196 22.5207 11.2014 22.8031 11.6111 22.7417L11.3889 21.2583ZM14.5 13.5001L13.75 13.5001L14.5 13.5001ZM14.5 13.5001L13.75 13.5L14.5 13.5001ZM13.75 13.5001C13.75 13.501 13.75 16.8521 13.7501 19L15.2501 19C15.25 16.8528 15.25 13.5002 15.25 13.5001L13.75 13.5001ZM13.7844 19.2242C14.1901 20.5191 14.6753 21.4087 15.4145 21.9682C16.1504 22.5252 17.0228 22.6626 17.9307 22.7468L18.0693 21.2532C17.1769 21.1704 16.689 21.0516 16.3198 20.7722C15.954 20.4953 15.5894 19.9683 15.2158 18.7758L13.7844 19.2242ZM13.7502 7.99997L13.75 13.5L15.25 13.5001L15.2502 8.00003L13.7502 7.99997ZM13.7661 18.8459C13.551 19.8704 13.3105 20.3643 13.0169 20.6526C12.7323 20.9322 12.2907 21.1232 11.3889 21.2583L11.6111 22.7417C12.6002 22.5936 13.4364 22.3432 14.068 21.7227C14.6907 21.1111 15.0047 20.2466 15.2341 19.1541L13.7661 18.8459ZM15.25 13.5001L15.25 13.5001L13.75 13.5L13.75 13.5001L15.25 13.5001Z" fill="#242423"/>
<path d="M14.525 3.02246C15.0773 3.02246 15.525 2.57475 15.525 2.02246C15.525 1.47018 15.0773 1.02246 14.525 1.02246V3.02246ZM14.5 1.02246C13.9477 1.02246 13.5 1.47018 13.5 2.02246C13.5 2.57475 13.9477 3.02246 14.5 3.02246V1.02246ZM14.525 1.02246H14.5V3.02246H14.525V1.02246Z" fill="#242423"/>
</svg>
