<svg width="27" height="26" viewBox="0 0 27 26" fill="none" xmlns="http://www.w3.org/2000/svg">
<path d="M14.839 9.41246C15.3442 9.64482 15.8176 9.96246 16.236 10.3654C18.213 12.2692 18.213 15.3558 16.236 17.2596L11.1735 22.1346C9.19645 24.0385 5.99105 24.0385 4.01402 22.1346C2.03699 20.2308 2.03699 17.1442 4.01402 15.2404L5.99061 13.337M21.0094 12.663L22.986 10.7596C24.963 8.85584 24.963 5.76916 22.986 3.86535C21.0089 1.96155 17.8036 1.96155 15.8265 3.86535L10.764 8.74036C8.78699 10.6442 8.78699 13.7308 10.764 15.6346C11.1824 16.0375 11.6558 16.3552 12.161 16.5875" stroke="#242423" stroke-width="1.5" stroke-linecap="round" stroke-linejoin="round"/>
</svg>
