<svg width="27" height="27" viewBox="0 0 27 27" fill="none" xmlns="http://www.w3.org/2000/svg">
<path d="M9.28125 6.84375C8.86704 6.84375 8.53125 7.17954 8.53125 7.59375C8.53125 8.00796 8.86704 8.34375 9.28125 8.34375V6.84375ZM22.7812 8.34375C23.1955 8.34375 23.5312 8.00796 23.5312 7.59375C23.5312 7.17954 23.1955 6.84375 22.7812 6.84375V8.34375ZM9.28125 12.75C8.86704 12.75 8.53125 13.0858 8.53125 13.5C8.53125 13.9142 8.86704 14.25 9.28125 14.25V12.75ZM22.7812 14.25C23.1955 14.25 23.5312 13.9142 23.5312 13.5C23.5312 13.0858 23.1955 12.75 22.7812 12.75V14.25ZM9.28125 18.6562C8.86704 18.6562 8.53125 18.992 8.53125 19.4062C8.53125 19.8205 8.86704 20.1562 9.28125 20.1562V18.6562ZM22.7812 20.1562C23.1955 20.1562 23.5312 19.8205 23.5312 19.4062C23.5312 18.992 23.1955 18.6562 22.7812 18.6562V20.1562ZM4.21875 7.59375V6.84375C3.80454 6.84375 3.46875 7.17954 3.46875 7.59375H4.21875ZM4.22719 7.59375H4.97719C4.97719 7.17954 4.6414 6.84375 4.22719 6.84375V7.59375ZM4.22719 7.60219V8.35219C4.6414 8.35219 4.97719 8.0164 4.97719 7.60219H4.22719ZM4.21875 7.60219H3.46875C3.46875 8.0164 3.80454 8.35219 4.21875 8.35219V7.60219ZM4.21875 13.5V12.75C3.80454 12.75 3.46875 13.0858 3.46875 13.5H4.21875ZM4.22719 13.5H4.97719C4.97719 13.0858 4.6414 12.75 4.22719 12.75V13.5ZM4.22719 13.5084V14.2584C4.6414 14.2584 4.97719 13.9227 4.97719 13.5084H4.22719ZM4.21875 13.5084H3.46875C3.46875 13.9227 3.80454 14.2584 4.21875 14.2584V13.5084ZM4.21875 19.4062V18.6562C3.80454 18.6562 3.46875 18.992 3.46875 19.4062H4.21875ZM4.22719 19.4062H4.97719C4.97719 18.992 4.6414 18.6562 4.22719 18.6562V19.4062ZM4.22719 19.4147V20.1647C4.6414 20.1647 4.97719 19.8289 4.97719 19.4147H4.22719ZM4.21875 19.4147H3.46875C3.46875 19.8289 3.80454 20.1647 4.21875 20.1647V19.4147ZM9.28125 8.34375H22.7812V6.84375H9.28125V8.34375ZM9.28125 14.25H22.7812V12.75H9.28125V14.25ZM9.28125 20.1562H22.7812V18.6562H9.28125V20.1562ZM4.21875 8.34375H4.22719V6.84375H4.21875V8.34375ZM3.47719 7.59375V7.60219H4.97719V7.59375H3.47719ZM4.22719 6.85219H4.21875V8.35219H4.22719V6.85219ZM4.96875 7.60219V7.59375H3.46875V7.60219H4.96875ZM3.89062 7.59375C3.89062 7.41253 4.03753 7.26562 4.21875 7.26562V8.76562C4.86596 8.76562 5.39062 8.24096 5.39062 7.59375H3.89062ZM4.21875 7.26562C4.39997 7.26562 4.54688 7.41253 4.54688 7.59375H3.04688C3.04688 8.24096 3.57154 8.76562 4.21875 8.76562V7.26562ZM4.54688 7.59375C4.54688 7.77497 4.39997 7.92188 4.21875 7.92188V6.42188C3.57154 6.42188 3.04688 6.94654 3.04688 7.59375H4.54688ZM4.21875 7.92188C4.03753 7.92188 3.89062 7.77497 3.89062 7.59375H5.39062C5.39062 6.94654 4.86596 6.42188 4.21875 6.42188V7.92188ZM4.21875 14.25H4.22719V12.75H4.21875V14.25ZM3.47719 13.5V13.5084H4.97719V13.5H3.47719ZM4.22719 12.7584H4.21875V14.2584H4.22719V12.7584ZM4.96875 13.5084V13.5H3.46875V13.5084H4.96875ZM3.89062 13.5C3.89062 13.3188 4.03753 13.1719 4.21875 13.1719V14.6719C4.86596 14.6719 5.39062 14.1472 5.39062 13.5H3.89062ZM4.21875 13.1719C4.39997 13.1719 4.54688 13.3188 4.54688 13.5H3.04688C3.04688 14.1472 3.57154 14.6719 4.21875 14.6719V13.1719ZM4.54688 13.5C4.54688 13.6812 4.39997 13.8281 4.21875 13.8281V12.3281C3.57154 12.3281 3.04688 12.8528 3.04688 13.5H4.54688ZM4.21875 13.8281C4.03753 13.8281 3.89062 13.6812 3.89062 13.5H5.39062C5.39062 12.8528 4.86596 12.3281 4.21875 12.3281V13.8281ZM4.21875 20.1562H4.22719V18.6562H4.21875V20.1562ZM3.47719 19.4062V19.4147H4.97719V19.4062H3.47719ZM4.22719 18.6647H4.21875V20.1647H4.22719V18.6647ZM4.96875 19.4147V19.4062H3.46875V19.4147H4.96875ZM3.89062 19.4062C3.89062 19.225 4.03753 19.0781 4.21875 19.0781V20.5781C4.86596 20.5781 5.39062 20.0535 5.39062 19.4062H3.89062ZM4.21875 19.0781C4.39997 19.0781 4.54688 19.225 4.54688 19.4062H3.04688C3.04688 20.0535 3.57154 20.5781 4.21875 20.5781V19.0781ZM4.54688 19.4062C4.54688 19.5875 4.39997 19.7344 4.21875 19.7344V18.2344C3.57154 18.2344 3.04688 18.759 3.04688 19.4062H4.54688ZM4.21875 19.7344C4.03753 19.7344 3.89062 19.5875 3.89062 19.4062H5.39062C5.39062 18.759 4.86596 18.2344 4.21875 18.2344V19.7344Z" fill="#242423"/>
</svg>
