<svg width="27" height="27" viewBox="0 0 27 27" fill="none" xmlns="http://www.w3.org/2000/svg">
<path d="M23.0947 24.1553C23.3876 24.4482 23.8624 24.4482 24.1553 24.1553C24.4482 23.8624 24.4482 23.3876 24.1553 23.0947L23.0947 24.1553ZM11.8125 19.5C7.56681 19.5 4.125 16.0582 4.125 11.8125H2.625C2.625 16.8866 6.73838 21 11.8125 21V19.5ZM4.125 11.8125C4.125 7.56681 7.56681 4.125 11.8125 4.125V2.625C6.73838 2.625 2.625 6.73838 2.625 11.8125H4.125ZM11.8125 4.125C16.0582 4.125 19.5 7.56681 19.5 11.8125H21C21 6.73838 16.8866 2.625 11.8125 2.625V4.125ZM24.1553 23.0947L18.309 17.2484L17.2484 18.309L23.0947 24.1553L24.1553 23.0947ZM19.5 11.8125C19.5 13.9356 18.6404 15.8564 17.2484 17.2484L18.309 18.309C19.9708 16.6473 21 14.3494 21 11.8125H19.5ZM17.2484 17.2484C15.8564 18.6404 13.9356 19.5 11.8125 19.5V21C14.3494 21 16.6473 19.9708 18.309 18.309L17.2484 17.2484Z" fill="#242423"/>
</svg>
