<svg width="26" height="27" viewBox="0 0 26 27" fill="none" xmlns="http://www.w3.org/2000/svg">
<path d="M5.68523 15.2813C5.27102 15.2825 4.93625 15.6193 4.9375 16.0335C4.93876 16.4477 5.27556 16.7825 5.68977 16.7812L5.68523 15.2813ZM16.0023 16.75C16.4165 16.7487 16.7513 16.4119 16.75 15.9977C16.7487 15.5835 16.4119 15.2487 15.9977 15.25L16.0023 16.75ZM5.6875 17.8125C5.27329 17.8125 4.9375 18.1483 4.9375 18.5625C4.9375 18.9767 5.27329 19.3125 5.6875 19.3125V17.8125ZM8.9375 19.3125C9.35171 19.3125 9.6875 18.9767 9.6875 18.5625C9.6875 18.1483 9.35171 17.8125 8.9375 17.8125V19.3125ZM5.6875 8.75C5.27329 8.75 4.9375 9.08579 4.9375 9.5C4.9375 9.91421 5.27329 10.25 5.6875 10.25V8.75ZM12.1875 10.25C12.6017 10.25 12.9375 9.91421 12.9375 9.5C12.9375 9.08579 12.6017 8.75 12.1875 8.75V10.25ZM4.875 5.8125H21.125V4.3125H4.875V5.8125ZM22.8125 7.59375V19.4062H24.3125V7.59375H22.8125ZM21.125 21.1875H4.875V22.6875H21.125V21.1875ZM3.1875 19.4062V7.59375H1.6875V19.4062H3.1875ZM4.875 21.1875C3.96945 21.1875 3.1875 20.4169 3.1875 19.4062H1.6875C1.6875 21.1915 3.08817 22.6875 4.875 22.6875V21.1875ZM22.8125 19.4062C22.8125 20.4169 22.0306 21.1875 21.125 21.1875V22.6875C22.9118 22.6875 24.3125 21.1915 24.3125 19.4062H22.8125ZM21.125 5.8125C22.0306 5.8125 22.8125 6.58306 22.8125 7.59375H24.3125C24.3125 5.8085 22.9118 4.3125 21.125 4.3125V5.8125ZM4.875 4.3125C3.08817 4.3125 1.6875 5.8085 1.6875 7.59375H3.1875C3.1875 6.58306 3.96945 5.8125 4.875 5.8125V4.3125ZM5.68977 16.7812L16.0023 16.75L15.9977 15.25L5.68523 15.2813L5.68977 16.7812ZM5.6875 19.3125H8.9375V17.8125H5.6875V19.3125ZM5.6875 10.25H12.1875V8.75H5.6875V10.25Z" fill="#242423"/>
</svg>
