<svg width="27" height="27" viewBox="0 0 27 27" fill="none" xmlns="http://www.w3.org/2000/svg">
<path d="M12.9158 3.93618C13.132 3.41646 13.8682 3.41646 14.0844 3.93618L16.4761 9.68657C16.5673 9.90567 16.7733 10.0554 17.0098 10.0743L23.2179 10.572C23.779 10.617 24.0065 11.3172 23.579 11.6834L18.8491 15.735C18.6689 15.8894 18.5902 16.1316 18.6453 16.3625L20.0903 22.4205C20.2209 22.968 19.6253 23.4007 19.1449 23.1073L13.83 19.861C13.6275 19.7373 13.3728 19.7373 13.1703 19.861L7.85532 23.1073C7.37495 23.4007 6.77932 22.968 6.90992 22.4205L8.35497 16.3625C8.41003 16.1316 8.33133 15.8894 8.15111 15.735L3.42125 11.6834C2.99376 11.3172 3.22127 10.617 3.78236 10.572L9.99038 10.0743C10.2269 10.0554 10.433 9.90567 10.5241 9.68657L12.9158 3.93618Z" stroke="#242423" stroke-width="1.5" stroke-linecap="round" stroke-linejoin="round"/>
</svg>
