<svg width="27" height="26" viewBox="0 0 27 26" fill="none" xmlns="http://www.w3.org/2000/svg">
<path d="M17.3323 9.77993C17.3489 9.36605 17.0267 9.01713 16.6129 9.0006C16.199 8.98407 15.8501 9.30618 15.8335 9.72007L17.3323 9.77993ZM15.4441 19.4701C15.4276 19.884 15.7497 20.2329 16.1636 20.2494C16.5775 20.2659 16.9264 19.9438 16.9429 19.5299L15.4441 19.4701ZM10.0571 19.5299C10.0736 19.9438 10.4225 20.2659 10.8364 20.2494C11.2503 20.2329 11.5724 19.884 11.5559 19.4701L10.0571 19.5299ZM11.1665 9.72007C11.1499 9.30618 10.801 8.98407 10.3871 9.0006C9.97325 9.01713 9.65113 9.36605 9.66767 9.77993L11.1665 9.72007ZM21.6311 6.27312L21.739 5.53092L21.739 5.53092L21.6311 6.27312ZM22.6578 7.19243C23.0664 7.26058 23.4529 6.98462 23.521 6.57605C23.5892 6.16748 23.3132 5.78102 22.9047 5.71287L22.6578 7.19243ZM20.4298 21.3119L19.6822 21.2522L19.6822 21.2522L20.4298 21.3119ZM4.09535 5.71287C3.68678 5.78102 3.41082 6.16748 3.47897 6.57605C3.54712 6.98462 3.93358 7.26058 4.34215 7.19243L4.09535 5.71287ZM6.57022 21.3119L5.8226 21.3717L5.8226 21.3717L6.57022 21.3119ZM15.3682 2.46623L15.3913 1.71659L15.3682 2.46623ZM11.6318 2.46623L11.6549 3.21588L11.6318 2.46623ZM17.7188 5.84385L17.6631 6.59178L17.7188 5.84385ZM9.28125 5.84385L9.33691 6.59178L9.28125 5.84385ZM15.8335 9.72007L15.4441 19.4701L16.9429 19.5299L17.3323 9.77993L15.8335 9.72007ZM11.5559 19.4701L11.1665 9.72007L9.66767 9.77993L10.0571 19.5299L11.5559 19.4701ZM17.906 22.8125H9.09402V24.3125H17.906V22.8125ZM21.5232 7.01531C21.9027 7.07051 22.281 7.12956 22.6578 7.19243L22.9047 5.71287C22.5175 5.64829 22.1289 5.58762 21.739 5.53092L21.5232 7.01531ZM20.8835 6.2134L19.6822 21.2522L21.1774 21.3717L22.3787 6.33284L20.8835 6.2134ZM4.34215 7.19243C4.71903 7.12956 5.09727 7.07051 5.47683 7.01531L5.26096 5.53092C4.87107 5.58762 4.48251 5.64829 4.09535 5.71287L4.34215 7.19243ZM7.31784 21.2522L6.11651 6.2134L4.62128 6.33284L5.8226 21.3717L7.31784 21.2522ZM9.09402 22.8125C8.13862 22.8125 7.38629 22.1091 7.31784 21.2522L5.8226 21.3717C5.95705 23.0547 7.40408 24.3125 9.09402 24.3125V22.8125ZM17.906 24.3125C19.5959 24.3125 21.043 23.0547 21.1774 21.3717L19.6822 21.2522C19.6137 22.1091 18.8614 22.8125 17.906 22.8125V24.3125ZM13.5 3.1875C14.1174 3.1875 14.7325 3.19701 15.3451 3.21588L15.3913 1.71659C14.7633 1.69725 14.1328 1.6875 13.5 1.6875V3.1875ZM11.6549 3.21588C12.2675 3.19701 12.8826 3.1875 13.5 3.1875V1.6875C12.8672 1.6875 12.2367 1.69725 11.6087 1.71659L11.6549 3.21588ZM11.6087 1.71659C9.88342 1.76974 8.53125 3.16272 8.53125 4.85137H10.0312C10.0312 3.98473 10.7281 3.24443 11.6549 3.21588L11.6087 1.71659ZM15.3451 3.21588C16.2719 3.24443 16.9688 3.98473 16.9688 4.85137H18.4688C18.4688 3.16272 17.1166 1.76974 15.3913 1.71659L15.3451 3.21588ZM16.9688 4.85137V5.84385H18.4688V4.85137H16.9688ZM13.5 6.4375C14.9011 6.4375 16.2895 6.48957 17.6631 6.59178L17.7744 5.09592C16.3638 4.99095 14.9383 4.9375 13.5 4.9375V6.4375ZM17.6631 6.59178C18.9635 6.68855 20.2508 6.83027 21.5232 7.01531L21.739 5.53092C20.432 5.34084 19.1099 5.19529 17.7744 5.09592L17.6631 6.59178ZM8.53125 4.85137V5.84385H10.0312V4.85137H8.53125ZM5.47683 7.01531C6.74923 6.83027 8.03648 6.68855 9.33691 6.59178L9.22559 5.09592C7.89013 5.19529 6.56801 5.34084 5.26096 5.53092L5.47683 7.01531ZM9.33691 6.59178C10.7105 6.48957 12.0989 6.4375 13.5 6.4375V4.9375C12.0617 4.9375 10.6362 4.99095 9.22559 5.09592L9.33691 6.59178Z" fill="#242423"/>
</svg>
