<svg width="27" height="26" viewBox="0 0 27 26" fill="none" xmlns="http://www.w3.org/2000/svg">
<path d="M6.65625 6.99996C6.65623 6.58574 6.32042 6.24998 5.90621 6.25C5.49199 6.25002 5.15623 6.58583 5.15625 7.00004L6.65625 6.99996ZM21.8439 7C21.8439 6.58579 21.5081 6.25 21.0939 6.25C20.6797 6.25 20.3439 6.58579 20.3439 7H21.8439ZM16.3549 6.22774C16.6533 6.51506 17.1281 6.5061 17.4154 6.20773C17.7027 5.90937 17.6938 5.43458 17.3954 5.14726L16.3549 6.22774ZM13.5002 2.4375L14.0204 1.89726C13.73 1.61758 13.2704 1.61758 12.9799 1.89726L13.5002 2.4375ZM9.60494 5.14726C9.30657 5.43457 9.29762 5.90936 9.58493 6.20773C9.87225 6.5061 10.347 6.51506 10.6454 6.22774L9.60494 5.14726ZM12.7502 16.25C12.7502 16.6642 13.086 17 13.5002 17C13.9144 17 14.2502 16.6642 14.2502 16.25H12.7502ZM10.1252 19.25C9.71096 19.25 9.37517 19.5858 9.37517 20C9.37517 20.4142 9.71096 20.75 10.1252 20.75V19.25ZM16.8752 20.75C17.2894 20.75 17.6252 20.4142 17.6252 20C17.6252 19.5858 17.2894 19.25 16.8752 19.25V20.75ZM20.3439 11.375V21.125H21.8439V11.375H20.3439ZM18.5627 22.8125H8.43767V24.3125H18.5627V22.8125ZM6.65642 21.125V11.375H5.15642V21.125H6.65642ZM8.43767 22.8125C7.42698 22.8125 6.65642 22.0306 6.65642 21.125H5.15642C5.15642 22.9118 6.65242 24.3125 8.43767 24.3125V22.8125ZM20.3439 21.125C20.3439 22.0306 19.5734 22.8125 18.5627 22.8125V24.3125C20.3479 24.3125 21.8439 22.9118 21.8439 21.125H20.3439ZM21.8439 11.375C21.8439 11.3724 21.8439 11.3697 21.8439 11.3671C21.8439 11.3645 21.8439 11.3618 21.8439 11.3591C21.8439 11.3565 21.8439 11.3538 21.8439 11.3512C21.8439 11.3485 21.8439 11.3458 21.8439 11.3431C21.8439 11.3405 21.8439 11.3378 21.8439 11.3351C21.8439 11.3324 21.8439 11.3297 21.8439 11.327C21.8439 11.3243 21.8439 11.3216 21.8439 11.3189C21.8439 11.3161 21.8439 11.3134 21.8439 11.3107C21.8439 11.308 21.8439 11.3052 21.8439 11.3025C21.8439 11.2997 21.8439 11.297 21.8439 11.2942C21.8439 11.2915 21.8439 11.2887 21.8439 11.286C21.8439 11.2832 21.8439 11.2804 21.8439 11.2776C21.8439 11.2749 21.8439 11.2721 21.8439 11.2693C21.8439 11.2665 21.8439 11.2637 21.8439 11.2609C21.8439 11.2581 21.8439 11.2553 21.8439 11.2525C21.8439 11.2497 21.8439 11.2468 21.8439 11.244C21.8439 11.2412 21.8439 11.2384 21.8439 11.2355C21.8439 11.2327 21.8439 11.2298 21.8439 11.227C21.8439 11.2241 21.8439 11.2213 21.8439 11.2184C21.8439 11.2156 21.8439 11.2127 21.8439 11.2098C21.8439 11.2069 21.8439 11.2041 21.8439 11.2012C21.8439 11.1983 21.8439 11.1954 21.8439 11.1925C21.8439 11.1896 21.8439 11.1867 21.8439 11.1838C21.8439 11.1809 21.8439 11.178 21.8439 11.1751C21.8439 11.1722 21.8439 11.1692 21.8439 11.1663C21.8439 11.1634 21.8439 11.1605 21.8439 11.1575C21.8439 11.1546 21.8439 11.1516 21.8439 11.1487C21.8439 11.1457 21.8439 11.1428 21.8439 11.1398C21.8439 11.1369 21.8439 11.1339 21.8439 11.1309C21.8439 11.1279 21.8439 11.125 21.8439 11.122C21.8439 11.119 21.8439 11.116 21.8439 11.113C21.8439 11.11 21.8439 11.107 21.8439 11.104C21.8439 11.101 21.8439 11.098 21.8439 11.095C21.8439 11.092 21.8439 11.089 21.8439 11.0859C21.8439 11.0829 21.8439 11.0799 21.8439 11.0768C21.8439 11.0738 21.8439 11.0708 21.8439 11.0677C21.8439 11.0647 21.8439 11.0616 21.8439 11.0586C21.8439 11.0555 21.8439 11.0524 21.8439 11.0494C21.8439 11.0463 21.8439 11.0432 21.8439 11.0402C21.8439 11.0371 21.8439 11.034 21.8439 11.0309C21.8439 11.0278 21.8439 11.0247 21.8439 11.0216C21.8439 11.0186 21.8439 11.0154 21.8439 11.0123C21.8439 11.0092 21.8439 11.0061 21.8439 11.003C21.8439 10.9999 21.8439 10.9968 21.8439 10.9936C21.8439 10.9905 21.8439 10.9874 21.8439 10.9843C21.8439 10.9811 21.8439 10.978 21.8439 10.9748C21.8439 10.9717 21.8439 10.9685 21.8439 10.9654C21.8439 10.9622 21.8439 10.9591 21.8439 10.9559C21.8439 10.9527 21.8439 10.9496 21.8439 10.9464C21.8439 10.9432 21.8439 10.94 21.8439 10.9369C21.8439 10.9337 21.8439 10.9305 21.8439 10.9273C21.8439 10.9241 21.8439 10.9209 21.8439 10.9177C21.8439 10.9145 21.8439 10.9113 21.8439 10.9081C21.8439 10.9049 21.8439 10.9017 21.8439 10.8984C21.8439 10.8952 21.8439 10.892 21.8439 10.8888C21.8439 10.8855 21.8439 10.8823 21.8439 10.8791C21.8439 10.8758 21.8439 10.8726 21.8439 10.8693C21.8439 10.8661 21.8439 10.8628 21.8439 10.8596C21.8439 10.8563 21.8439 10.8531 21.8439 10.8498C21.8439 10.8465 21.8439 10.8433 21.8439 10.84C21.8439 10.8367 21.8439 10.8334 21.8439 10.8302C21.8439 10.8269 21.8439 10.8236 21.8439 10.8203C21.8439 10.817 21.8439 10.8137 21.8439 10.8104C21.8439 10.8071 21.8439 10.8038 21.8439 10.8005C21.8439 10.7972 21.8439 10.7939 21.8439 10.7906C21.8439 10.7873 21.8439 10.7839 21.8439 10.7806C21.8439 10.7773 21.8439 10.774 21.8439 10.7706C21.8439 10.7673 21.8439 10.764 21.8439 10.7606C21.8439 10.7573 21.8439 10.7539 21.8439 10.7506C21.8439 10.7472 21.8439 10.7439 21.8439 10.7405C21.8439 10.7372 21.8439 10.7338 21.8439 10.7305C21.8439 10.7271 21.8439 10.7237 21.8439 10.7204C21.8439 10.717 21.8439 10.7136 21.8439 10.7102C21.8439 10.7068 21.8439 10.7035 21.8439 10.7001C21.8439 10.6967 21.8439 10.6933 21.8439 10.6899C21.8439 10.6865 21.8439 10.6831 21.8439 10.6797C21.8439 10.6763 21.8439 10.6729 21.8439 10.6695C21.8439 10.6661 21.8439 10.6627 21.8439 10.6593C21.8439 10.6558 21.8439 10.6524 21.8439 10.649C21.8439 10.6456 21.8439 10.6421 21.8439 10.6387C21.8439 10.6353 21.8439 10.6318 21.8439 10.6284C21.8439 10.625 21.8439 10.6215 21.8439 10.6181C21.8439 10.6146 21.8439 10.6112 21.8439 10.6077C21.8439 10.6043 21.8439 10.6008 21.8439 10.5974C21.8439 10.5939 21.8439 10.5904 21.8439 10.587C21.8439 10.5835 21.8439 10.58 21.8439 10.5766C21.8439 10.5731 21.8439 10.5696 21.8439 10.5661C21.8439 10.5626 21.8439 10.5592 21.8439 10.5557C21.8439 10.5522 21.8439 10.5487 21.8439 10.5452C21.8439 10.5417 21.8439 10.5382 21.8439 10.5347C21.8439 10.5312 21.8439 10.5277 21.8439 10.5242C21.8439 10.5207 21.8439 10.5172 21.8439 10.5137C21.8439 10.5102 21.8439 10.5066 21.8439 10.5031C21.8439 10.4996 21.8439 10.4961 21.8439 10.4926C21.8439 10.489 21.8439 10.4855 21.8439 10.482C21.8439 10.4784 21.8439 10.4749 21.8439 10.4714C21.8439 10.4678 21.8439 10.4643 21.8439 10.4607C21.8439 10.4572 21.8439 10.4536 21.8439 10.4501C21.8439 10.4465 21.8439 10.443 21.8439 10.4394C21.8439 10.4359 21.8439 10.4323 21.8439 10.4288C21.8439 10.4252 21.8439 10.4216 21.8439 10.4181C21.8439 10.4145 21.8439 10.4109 21.8439 10.4074C21.8439 10.4038 21.8439 10.4002 21.8439 10.3966C21.8439 10.393 21.8439 10.3895 21.8439 10.3859C21.8439 10.3823 21.8439 10.3787 21.8439 10.3751C21.8439 10.3715 21.8439 10.3679 21.8439 10.3643C21.8439 10.3607 21.8439 10.3571 21.8439 10.3535C21.8439 10.3499 21.8439 10.3463 21.8439 10.3427C21.8439 10.3391 21.8439 10.3355 21.8439 10.3319C21.8439 10.3283 21.8439 10.3247 21.8439 10.3211C21.8439 10.3174 21.8439 10.3138 21.8439 10.3102C21.8439 10.3066 21.8439 10.303 21.8439 10.2993C21.8439 10.2957 21.8439 10.2921 21.8439 10.2884C21.8439 10.2848 21.8439 10.2812 21.8439 10.2775C21.8439 10.2739 21.8439 10.2703 21.8439 10.2666C21.8439 10.263 21.8439 10.2593 21.8439 10.2557C21.8439 10.252 21.8439 10.2484 21.8439 10.2447C21.8439 10.2411 21.8439 10.2374 21.8439 10.2338C21.8439 10.2301 21.8439 10.2265 21.8439 10.2228C21.8439 10.2192 21.8439 10.2155 21.8439 10.2118C21.8439 10.2082 21.8439 10.2045 21.8439 10.2008C21.8439 10.1972 21.8439 10.1935 21.8439 10.1898C21.8439 10.1861 21.8439 10.1825 21.8439 10.1788C21.8439 10.1751 21.8439 10.1714 21.8439 10.1678C21.8439 10.1641 21.8439 10.1604 21.8439 10.1567C21.8439 10.153 21.8439 10.1493 21.8439 10.1456C21.8439 10.142 21.8439 10.1383 21.8439 10.1346C21.8439 10.1309 21.8439 10.1272 21.8439 10.1235C21.8439 10.1198 21.8439 10.1161 21.8439 10.1124C21.8439 10.1087 21.8439 10.105 21.8439 10.1013C21.8439 10.0976 21.8439 10.0939 21.8439 10.0902C21.8439 10.0864 21.8439 10.0827 21.8439 10.079C21.8439 10.0753 21.8439 10.0716 21.8439 10.0679C21.8439 10.0642 21.8439 10.0604 21.8439 10.0567C21.8439 10.053 21.8439 10.0493 21.8439 10.0456C21.8439 10.0418 21.8439 10.0381 21.8439 10.0344C21.8439 10.0307 21.8439 10.0269 21.8439 10.0232C21.8439 10.0195 21.8439 10.0158 21.8439 10.012C21.8439 10.0083 21.8439 10.0046 21.8439 10.0008C21.8439 9.99708 21.8439 9.99334 21.8439 9.98961C21.8439 9.98587 21.8439 9.98213 21.8439 9.97839C21.8439 9.97464 21.8439 9.9709 21.8439 9.96716C21.8439 9.96341 21.8439 9.95967 21.8439 9.95592C21.8439 9.95217 21.8439 9.94842 21.8439 9.94467C21.8439 9.94092 21.8439 9.93717 21.8439 9.93342C21.8439 9.92967 21.8439 9.92591 21.8439 9.92216C21.8439 9.9184 21.8439 9.91465 21.8439 9.91089C21.8439 9.90713 21.8439 9.90337 21.8439 9.89961C21.8439 9.89585 21.8439 9.89209 21.8439 9.88833C21.8439 9.88456 21.8439 9.8808 21.8439 9.87703C21.8439 9.87327 21.8439 9.8695 21.8439 9.86574C21.8439 9.86197 21.8439 9.8582 21.8439 9.85443C21.8439 9.85066 21.8439 9.84689 21.8439 9.84312C21.8439 9.83935 21.8439 9.83557 21.8439 9.8318C21.8439 9.82803 21.8439 9.82425 21.8439 9.82048C21.8439 9.8167 21.8439 9.81292 21.8439 9.80915C21.8439 9.80537 21.8439 9.80159 21.8439 9.79781C21.8439 9.79403 21.8439 9.79025 21.8439 9.78647C21.8439 9.78269 21.8439 9.77891 21.8439 9.77512C21.8439 9.77134 21.8439 9.76756 21.8439 9.76377C21.8439 9.75999 21.8439 9.7562 21.8439 9.75242C21.8439 9.74863 21.8439 9.74484 21.8439 9.74105C21.8439 9.73727 21.8439 9.73348 21.8439 9.72969C21.8439 9.7259 21.8439 9.72211 21.8439 9.71832C21.8439 9.71453 21.8439 9.71074 21.8439 9.70695C21.8439 9.70315 21.8439 9.69936 21.8439 9.69557C21.8439 9.69178 21.8439 9.68798 21.8439 9.68419C21.8439 9.68039 21.8439 9.6766 21.8439 9.6728C21.8439 9.66901 21.8439 9.66521 21.8439 9.66142C21.8439 9.65762 21.8439 9.65382 21.8439 9.65003C21.8439 9.64623 21.8439 9.64243 21.8439 9.63863C21.8439 9.63484 21.8439 9.63104 21.8439 9.62724C21.8439 9.62344 21.8439 9.61964 21.8439 9.61584C21.8439 9.61204 21.8439 9.60824 21.8439 9.60444C21.8439 9.60064 21.8439 9.59684 21.8439 9.59304C21.8439 9.58924 21.8439 9.58544 21.8439 9.58164C21.8439 9.57784 21.8439 9.57403 21.8439 9.57023C21.8439 9.56643 21.8439 9.56263 21.8439 9.55883C21.8439 9.55502 21.8439 9.55122 21.8439 9.54742C21.8439 9.54362 21.8439 9.53981 21.8439 9.53601C21.8439 9.53221 21.8439 9.52841 21.8439 9.5246C21.8439 9.5208 21.8439 9.517 21.8439 9.5132C21.8439 9.50939 21.8439 9.50559 21.8439 9.50179C21.8439 9.49798 21.8439 9.49418 21.8439 9.49038C21.8439 9.48657 21.8439 9.48277 21.8439 9.47897C21.8439 9.47517 21.8439 9.47136 21.8439 9.46756C21.8439 9.46376 21.8439 9.45996 21.8439 9.45615C21.8439 9.45235 21.8439 9.44855 21.8439 9.44475C21.8439 9.44094 21.8439 9.43714 21.8439 9.43334C21.8439 9.42954 21.8439 9.42574 21.8439 9.42194C21.8439 9.41814 21.8439 9.41434 21.8439 9.41053C21.8439 9.40673 21.8439 9.40293 21.8439 9.39913C21.8439 9.39533 21.8439 9.39153 21.8439 9.38773C21.8439 9.38393 21.8439 9.38014 21.8439 9.37634C21.8439 9.37254 21.8439 9.36874 21.8439 9.36494C21.8439 9.36115 21.8439 9.35735 21.8439 9.35355C21.8439 9.34975 21.8439 9.34596 21.8439 9.34216C21.8439 9.33837 21.8439 9.33457 21.8439 9.33078C21.8439 9.32698 21.8439 9.32319 21.8439 9.31939C21.8439 9.3156 21.8439 9.31181 21.8439 9.30801C21.8439 9.30422 21.8439 9.30043 21.8439 9.29664C21.8439 9.29285 21.8439 9.28905 21.8439 9.28526C21.8439 9.28147 21.8439 9.27768 21.8439 9.2739C21.8439 9.27011 21.8439 9.26632 21.8439 9.26253C21.8439 9.25874 21.8439 9.25496 21.8439 9.25117C21.8439 9.24739 21.8439 9.2436 21.8439 9.23982C21.8439 9.23603 21.8439 9.23225 21.8439 9.22847C21.8439 9.22469 21.8439 9.2209 21.8439 9.21712C21.8439 9.21334 21.8439 9.20956 21.8439 9.20578C21.8439 9.202 21.8439 9.19823 21.8439 9.19445C21.8439 9.19067 21.8439 9.1869 21.8439 9.18312C21.8439 9.17935 21.8439 9.17557 21.8439 9.1718C21.8439 9.16803 21.8439 9.16425 21.8439 9.16048C21.8439 9.15671 21.8439 9.15294 21.8439 9.14917C21.8439 9.1454 21.8439 9.14164 21.8439 9.13787C21.8439 9.1341 21.8439 9.13034 21.8439 9.12657C21.8439 9.12281 21.8439 9.11904 21.8439 9.11528C21.8439 9.11152 21.8439 9.10776 21.8439 9.104C21.8439 9.10024 21.8439 9.09648 21.8439 9.09273C21.8439 9.08897 21.8439 9.08521 21.8439 9.08146C21.8439 9.0777 21.8439 9.07395 21.8439 9.0702C21.8439 9.06645 21.8439 9.0627 21.8439 9.05895C21.8439 9.0552 21.8439 9.05145 21.8439 9.0477C21.8439 9.04396 21.8439 9.04021 21.8439 9.03647C21.8439 9.03272 21.8439 9.02898 21.8439 9.02524C21.8439 9.0215 21.8439 9.01776 21.8439 9.01402C21.8439 9.01029 21.8439 9.00655 21.8439 9.00282C21.8439 8.99908 21.8439 8.99535 21.8439 8.99162C21.8439 8.98789 21.8439 8.98416 21.8439 8.98043C21.8439 8.9767 21.8439 8.97297 21.8439 8.96925C21.8439 8.96552 21.8439 8.9618 21.8439 8.95808C21.8439 8.95436 21.8439 8.95064 21.8439 8.94692C21.8439 8.9432 21.8439 8.93948 21.8439 8.93577C21.8439 8.93205 21.8439 8.92834 21.8439 8.92463C21.8439 8.92092 21.8439 8.91721 21.8439 8.9135C21.8439 8.9098 21.8439 8.90609 21.8439 8.90239C21.8439 8.89868 21.8439 8.89498 21.8439 8.89128C21.8439 8.88758 21.8439 8.88388 21.8439 8.88019C21.8439 8.87649 21.8439 8.8728 21.8439 8.8691C21.8439 8.86541 21.8439 8.86172 21.8439 8.85803C21.8439 8.85434 21.8439 8.85066 21.8439 8.84697C21.8439 8.84329 21.8439 8.83961 21.8439 8.83593C21.8439 8.83225 21.8439 8.82857 21.8439 8.82489C21.8439 8.82122 21.8439 8.81754 21.8439 8.81387C21.8439 8.8102 21.8439 8.80653 21.8439 8.80286C21.8439 8.79919 21.8439 8.79553 21.8439 8.79187C21.8439 8.7882 21.8439 8.78454 21.8439 8.78088C21.8439 8.77723 21.8439 8.77357 21.8439 8.76992C21.8439 8.76626 21.8439 8.76261 21.8439 8.75896C21.8439 8.75531 21.8439 8.75166 21.8439 8.74802C21.8439 8.74437 21.8439 8.74073 21.8439 8.73709C21.8439 8.73345 21.8439 8.72982 21.8439 8.72618C21.8439 8.72254 21.8439 8.71891 21.8439 8.71528C21.8439 8.71165 21.8439 8.70802 21.8439 8.7044C21.8439 8.70077 21.8439 8.69715 21.8439 8.69353C21.8439 8.68991 21.8439 8.68629 21.8439 8.68268C21.8439 8.67906 21.8439 8.67545 21.8439 8.67184C21.8439 8.66823 21.8439 8.66462 21.8439 8.66102C21.8439 8.65741 21.8439 8.65381 21.8439 8.65021C21.8439 8.64661 21.8439 8.64301 21.8439 8.63942C21.8439 8.63583 21.8439 8.63224 21.8439 8.62865C21.8439 8.62506 21.8439 8.62147 21.8439 8.61789C21.8439 8.61431 21.8439 8.61073 21.8439 8.60715C21.8439 8.60357 21.8439 8.6 21.8439 8.59643C21.8439 8.59285 21.8439 8.58928 21.8439 8.58572C21.8439 8.58215 21.8439 8.57859 21.8439 8.57503C21.8439 8.57147 21.8439 8.56791 21.8439 8.56436C21.8439 8.5608 21.8439 8.55725 21.8439 8.5537C21.8439 8.55015 21.8439 8.54661 21.8439 8.54307C21.8439 8.53952 21.8439 8.53598 21.8439 8.53245C21.8439 8.52891 21.8439 8.52538 21.8439 8.52185C21.8439 8.51832 21.8439 8.51479 21.8439 8.51127C21.8439 8.50774 21.8439 8.50422 21.8439 8.5007C21.8439 8.49719 21.8439 8.49367 21.8439 8.49016C21.8439 8.48665 21.8439 8.48314 21.8439 8.47964C21.8439 8.47613 21.8439 8.47263 21.8439 8.46913C21.8439 8.46563 21.8439 8.46214 21.8439 8.45865C21.8439 8.45515 21.8439 8.45167 21.8439 8.44818C21.8439 8.44469 21.8439 8.44121 21.8439 8.43773C21.8439 8.43426 21.8439 8.43078 21.8439 8.42731C21.8439 8.42384 21.8439 8.42037 21.8439 8.4169C21.8439 8.41344 21.8439 8.40998 21.8439 8.40652C21.8439 8.40306 21.8439 8.39961 21.8439 8.39616C21.8439 8.39271 21.8439 8.38926 21.8439 8.38582C21.8439 8.38237 21.8439 8.37893 21.8439 8.37549C21.8439 8.37206 21.8439 8.36862 21.8439 8.3652C21.8439 8.36177 21.8439 8.35834 21.8439 8.35492C21.8439 8.3515 21.8439 8.34808 21.8439 8.34466C21.8439 8.34125 21.8439 8.33784 21.8439 8.33443C21.8439 8.33102 21.8439 8.32762 21.8439 8.32422C21.8439 8.32082 21.8439 8.31742 21.8439 8.31403C21.8439 8.31064 21.8439 8.30725 21.8439 8.30386C21.8439 8.30048 21.8439 8.2971 21.8439 8.29372C21.8439 8.29034 21.8439 8.28697 21.8439 8.2836C21.8439 8.28023 21.8439 8.27687 21.8439 8.2735C21.8439 8.27014 21.8439 8.26679 21.8439 8.26343C21.8439 8.26008 21.8439 8.25673 21.8439 8.25338C21.8439 8.25004 21.8439 8.2467 21.8439 8.24336C21.8439 8.24002 21.8439 8.23669 21.8439 8.23336C21.8439 8.23003 21.8439 8.2267 21.8439 8.22338C21.8439 8.22006 21.8439 8.21674 21.8439 8.21343C21.8439 8.21012 21.8439 8.20681 21.8439 8.2035C21.8439 8.2002 21.8439 8.1969 21.8439 8.1936C21.8439 8.19031 21.8439 8.18701 21.8439 8.18373C21.8439 8.18044 21.8439 8.17716 21.8439 8.17388C21.8439 8.1706 21.8439 8.16732 21.8439 8.16405C21.8439 8.16078 21.8439 8.15751 21.8439 8.15425C21.8439 8.15099 21.8439 8.14773 21.8439 8.14448C21.8439 8.14123 21.8439 8.13798 21.8439 8.13473C21.8439 8.13149 21.8439 8.12825 21.8439 8.12501C21.8439 8.12178 21.8439 8.11855 21.8439 8.11532C21.8439 8.11209 21.8439 8.10887 21.8439 8.10565C21.8439 8.10244 21.8439 8.09922 21.8439 8.09602C21.8439 8.09281 21.8439 8.0896 21.8439 8.0864C21.8439 8.08321 21.8439 8.08001 21.8439 8.07682C21.8439 8.07363 21.8439 8.07045 21.8439 8.06727C21.8439 8.06408 21.8439 8.06091 21.8439 8.05774C21.8439 8.05457 21.8439 8.0514 21.8439 8.04824C21.8439 8.04508 21.8439 8.04192 21.8439 8.03877C21.8439 8.03561 21.8439 8.03247 21.8439 8.02932C21.8439 8.02618 21.8439 8.02304 21.8439 8.01991C21.8439 8.01678 21.8439 8.01365 21.8439 8.01053C21.8439 8.0074 21.8439 8.00428 21.8439 8.00117C21.8439 7.99806 21.8439 7.99495 21.8439 7.99184C21.8439 7.98874 21.8439 7.98564 21.8439 7.98255C21.8439 7.97945 21.8439 7.97637 21.8439 7.97328C21.8439 7.9702 21.8439 7.96712 21.8439 7.96405C21.8439 7.96097 21.8439 7.9579 21.8439 7.95484C21.8439 7.95178 21.8439 7.94872 21.8439 7.94567C21.8439 7.94261 21.8439 7.93957 21.8439 7.93652C21.8439 7.93348 21.8439 7.93044 21.8439 7.92741C21.8439 7.92438 21.8439 7.92135 21.8439 7.91833C21.8439 7.91531 21.8439 7.91229 21.8439 7.90928C21.8439 7.90626 21.8439 7.90326 21.8439 7.90026C21.8439 7.89726 21.8439 7.89426 21.8439 7.89127C21.8439 7.88828 21.8439 7.88529 21.8439 7.88232C21.8439 7.87934 21.8439 7.87636 21.8439 7.87339C21.8439 7.87042 21.8439 7.86746 21.8439 7.8645C21.8439 7.86154 21.8439 7.85859 21.8439 7.85564C21.8439 7.8527 21.8439 7.84976 21.8439 7.84682C21.8439 7.84388 21.8439 7.84095 21.8439 7.83803C21.8439 7.8351 21.8439 7.83218 21.8439 7.82927C21.8439 7.82636 21.8439 7.82345 21.8439 7.82055C21.8439 7.81764 21.8439 7.81475 21.8439 7.81185C21.8439 7.80896 21.8439 7.80608 21.8439 7.8032C21.8439 7.80032 21.8439 7.79744 21.8439 7.79457C21.8439 7.79171 21.8439 7.78884 21.8439 7.78598C21.8439 7.78313 21.8439 7.78028 21.8439 7.77743C21.8439 7.77459 21.8439 7.77175 21.8439 7.76891C21.8439 7.76608 21.8439 7.76325 21.8439 7.76043C21.8439 7.75761 21.8439 7.75479 21.8439 7.75198C21.8439 7.74917 21.8439 7.74636 21.8439 7.74356C21.8439 7.74077 21.8439 7.73797 21.8439 7.73519C21.8439 7.7324 21.8439 7.72962 21.8439 7.72684C21.8439 7.72407 21.8439 7.7213 21.8439 7.71854C21.8439 7.71578 21.8439 7.71302 21.8439 7.71027C21.8439 7.70752 21.8439 7.70477 21.8439 7.70203C21.8439 7.6993 21.8439 7.69656 21.8439 7.69384C21.8439 7.69111 21.8439 7.68839 21.8439 7.68568C21.8439 7.68296 21.8439 7.68026 21.8439 7.67756C21.8439 7.67485 21.8439 7.67216 21.8439 7.66947C21.8439 7.66678 21.8439 7.6641 21.8439 7.66142C21.8439 7.65875 21.8439 7.65608 21.8439 7.65341C21.8439 7.65075 21.8439 7.64809 21.8439 7.64544C21.8439 7.64279 21.8439 7.64014 21.8439 7.63751C21.8439 7.63487 21.8439 7.63223 21.8439 7.62961C21.8439 7.62698 21.8439 7.62436 21.8439 7.62175C21.8439 7.61914 21.8439 7.61653 21.8439 7.61393C21.8439 7.61133 21.8439 7.60874 21.8439 7.60615C21.8439 7.60357 21.8439 7.60099 21.8439 7.59841C21.8439 7.59584 21.8439 7.59327 21.8439 7.59071C21.8439 7.58815 21.8439 7.5856 21.8439 7.58305C21.8439 7.5805 21.8439 7.57796 21.8439 7.57543C21.8439 7.5729 21.8439 7.57037 21.8439 7.56785C21.8439 7.56533 21.8439 7.56282 21.8439 7.56031C21.8439 7.5578 21.8439 7.5553 21.8439 7.55281C21.8439 7.55031 21.8439 7.54783 21.8439 7.54535C21.8439 7.54287 21.8439 7.54039 21.8439 7.53793C21.8439 7.53546 21.8439 7.533 21.8439 7.53055C21.8439 7.5281 21.8439 7.52565 21.8439 7.52321C21.8439 7.52078 21.8439 7.51834 21.8439 7.51592C21.8439 7.51349 21.8439 7.51108 21.8439 7.50867C21.8439 7.50626 21.8439 7.50385 21.8439 7.50145C21.8439 7.49906 21.8439 7.49667 21.8439 7.49429C21.8439 7.4919 21.8439 7.48953 21.8439 7.48716C21.8439 7.48479 21.8439 7.48243 21.8439 7.48007C21.8439 7.47772 21.8439 7.47537 21.8439 7.47303C21.8439 7.47069 21.8439 7.46836 21.8439 7.46603C21.8439 7.46371 21.8439 7.46139 21.8439 7.45908C21.8439 7.45677 21.8439 7.45446 21.8439 7.45217C21.8439 7.44987 21.8439 7.44758 21.8439 7.4453C21.8439 7.44302 21.8439 7.44074 21.8439 7.43847C21.8439 7.43621 21.8439 7.43395 21.8439 7.43169C21.8439 7.42944 21.8439 7.4272 21.8439 7.42496C21.8439 7.42272 21.8439 7.42049 21.8439 7.41827C21.8439 7.41604 21.8439 7.41383 21.8439 7.41162C21.8439 7.40941 21.8439 7.40721 21.8439 7.40502C21.8439 7.40282 21.8439 7.40064 21.8439 7.39846C21.8439 7.39628 21.8439 7.39411 21.8439 7.39195C21.8439 7.38979 21.8439 7.38763 21.8439 7.38548C21.8439 7.38333 21.8439 7.38119 21.8439 7.37906C21.8439 7.37693 21.8439 7.3748 21.8439 7.37269C21.8439 7.37057 21.8439 7.36846 21.8439 7.36636C21.8439 7.36426 21.8439 7.36216 21.8439 7.36008C21.8439 7.35799 21.8439 7.35591 21.8439 7.35384C21.8439 7.35177 21.8439 7.34971 21.8439 7.34765C21.8439 7.3456 21.8439 7.34355 21.8439 7.34151C21.8439 7.33947 21.8439 7.33744 21.8439 7.33542C21.8439 7.33339 21.8439 7.33138 21.8439 7.32937C21.8439 7.32736 21.8439 7.32536 21.8439 7.32337C21.8439 7.32138 21.8439 7.3194 21.8439 7.31742C21.8439 7.31544 21.8439 7.31348 21.8439 7.31152C21.8439 7.30956 21.8439 7.30761 21.8439 7.30566C21.8439 7.30372 21.8439 7.30178 21.8439 7.29985C21.8439 7.29793 21.8439 7.29601 21.8439 7.2941C21.8439 7.29219 21.8439 7.29028 21.8439 7.28839C21.8439 7.28649 21.8439 7.28461 21.8439 7.28273C21.8439 7.28085 21.8439 7.27898 21.8439 7.27712C21.8439 7.27526 21.8439 7.2734 21.8439 7.27156C21.8439 7.26971 21.8439 7.26787 21.8439 7.26604C21.8439 7.26422 21.8439 7.2624 21.8439 7.26058C21.8439 7.25877 21.8439 7.25697 21.8439 7.25517C21.8439 7.25338 21.8439 7.25159 21.8439 7.24981C21.8439 7.24803 21.8439 7.24626 21.8439 7.2445C21.8439 7.24274 21.8439 7.24099 21.8439 7.23924C21.8439 7.2375 21.8439 7.23576 21.8439 7.23403C21.8439 7.2323 21.8439 7.23059 21.8439 7.22888C21.8439 7.22716 21.8439 7.22546 21.8439 7.22377C21.8439 7.22208 21.8439 7.22039 21.8439 7.21871C21.8439 7.21704 21.8439 7.21537 21.8439 7.21371C21.8439 7.21205 21.8439 7.2104 21.8439 7.20876C21.8439 7.20712 21.8439 7.20549 21.8439 7.20386C21.8439 7.20224 21.8439 7.20062 21.8439 7.19902C21.8439 7.19741 21.8439 7.19581 21.8439 7.19423C21.8439 7.19264 21.8439 7.19106 21.8439 7.18949C21.8439 7.18791 21.8439 7.18635 21.8439 7.1848C21.8439 7.18324 21.8439 7.1817 21.8439 7.18016C21.8439 7.17863 21.8439 7.1771 21.8439 7.17558C21.8439 7.17407 21.8439 7.17256 21.8439 7.17106C21.8439 7.16956 21.8439 7.16807 21.8439 7.16659C21.8439 7.1651 21.8439 7.16363 21.8439 7.16217C21.8439 7.1607 21.8439 7.15925 21.8439 7.1578C21.8439 7.15636 21.8439 7.15492 21.8439 7.15349C21.8439 7.15207 21.8439 7.15065 21.8439 7.14924C21.8439 7.14783 21.8439 7.14643 21.8439 7.14504C21.8439 7.14365 21.8439 7.14227 21.8439 7.1409C21.8439 7.13952 21.8439 7.13816 21.8439 7.13681C21.8439 7.13545 21.8439 7.13411 21.8439 7.13277C21.8439 7.13144 21.8439 7.13011 21.8439 7.1288C21.8439 7.12748 21.8439 7.12617 21.8439 7.12487C21.8439 7.12358 21.8439 7.12229 21.8439 7.12101C21.8439 7.11973 21.8439 7.11846 21.8439 7.1172C21.8439 7.11594 21.8439 7.11469 21.8439 7.11345C21.8439 7.11221 21.8439 7.11098 21.8439 7.10975C21.8439 7.10853 21.8439 7.10732 21.8439 7.10612C21.8439 7.10491 21.8439 7.10372 21.8439 7.10254C21.8439 7.10135 21.8439 7.10018 21.8439 7.09901C21.8439 7.09785 21.8439 7.09669 21.8439 7.09555C21.8439 7.0944 21.8439 7.09327 21.8439 7.09214C21.8439 7.09101 21.8439 7.0899 21.8439 7.08879C21.8439 7.08768 21.8439 7.08659 21.8439 7.0855C21.8439 7.08441 21.8439 7.08333 21.8439 7.08227C21.8439 7.0812 21.8439 7.08014 21.8439 7.07909C21.8439 7.07805 21.8439 7.07701 21.8439 7.07598C21.8439 7.07495 21.8439 7.07393 21.8439 7.07292C21.8439 7.07192 21.8439 7.07092 21.8439 7.06993C21.8439 7.06894 21.8439 7.06796 21.8439 7.06699C21.8439 7.06602 21.8439 7.06506 21.8439 7.06412C21.8439 7.06317 21.8439 7.06223 21.8439 7.0613C21.8439 7.06037 21.8439 7.05945 21.8439 7.05854C21.8439 7.05763 21.8439 7.05674 21.8439 7.05585C21.8439 7.05496 21.8439 7.05408 21.8439 7.05321C21.8439 7.05234 21.8439 7.05149 21.8439 7.05064C21.8439 7.04979 21.8439 7.04895 21.8439 7.04813C21.8439 7.0473 21.8439 7.04648 21.8439 7.04567C21.8439 7.04487 21.8439 7.04407 21.8439 7.04328C21.8439 7.0425 21.8439 7.04172 21.8439 7.04096C21.8439 7.04019 21.8439 7.03943 21.8439 7.03869C21.8439 7.03794 21.8439 7.03721 21.8439 7.03649C21.8439 7.03576 21.8439 7.03505 21.8439 7.03434C21.8439 7.03364 21.8439 7.03295 21.8439 7.03226C21.8439 7.03158 21.8439 7.03091 21.8439 7.03025C21.8439 7.02959 21.8439 7.02893 21.8439 7.02829C21.8439 7.02765 21.8439 7.02702 21.8439 7.0264C21.8439 7.02578 21.8439 7.02518 21.8439 7.02458C21.8439 7.02398 21.8439 7.02339 21.8439 7.02281C21.8439 7.02224 21.8439 7.02167 21.8439 7.02112C21.8439 7.02056 21.8439 7.02001 21.8439 7.01948C21.8439 7.01895 21.8439 7.01842 21.8439 7.01791C21.8439 7.0174 21.8439 7.01689 21.8439 7.0164C21.8439 7.01591 21.8439 7.01543 21.8439 7.01496C21.8439 7.01449 21.8439 7.01403 21.8439 7.01358C21.8439 7.01314 21.8439 7.0127 21.8439 7.01227C21.8439 7.01185 21.8439 7.01143 21.8439 7.01103C21.8439 7.01062 21.8439 7.01023 21.8439 7.00984C21.8439 7.00946 21.8439 7.00909 21.8439 7.00873C21.8439 7.00837 21.8439 7.00802 21.8439 7.00768C21.8439 7.00734 21.8439 7.00701 21.8439 7.0067C21.8439 7.00638 21.8439 7.00608 21.8439 7.00578C21.8439 7.00549 21.8439 7.0052 21.8439 7.00493C21.8439 7.00466 21.8439 7.0044 21.8439 7.00415C21.8439 7.0039 21.8439 7.00366 21.8439 7.00343C21.8439 7.0032 21.8439 7.00299 21.8439 7.00278C21.8439 7.00258 21.8439 7.00238 21.8439 7.0022C21.8439 7.00202 21.8439 7.00185 21.8439 7.00169C21.8439 7.00153 21.8439 7.00138 21.8439 7.00124C21.8439 7.0011 21.8439 7.00098 21.8439 7.00086C21.8439 7.00075 21.8439 7.00064 21.8439 7.00055C21.8439 7.00046 21.8439 7.00038 21.8439 7.00031C21.8439 7.00024 21.8439 7.00018 21.8439 7.00014C21.8439 7.00009 21.8439 7.00006 21.8439 7.00003C21.8439 7.00001 21.8439 7 21.0939 7C20.3439 7 20.3439 7.00001 20.3439 7.00003C20.3439 7.00006 20.3439 7.00009 20.3439 7.00014C20.3439 7.00018 20.3439 7.00024 20.3439 7.00031C20.3439 7.00038 20.3439 7.00046 20.3439 7.00055C20.3439 7.00064 20.3439 7.00075 20.3439 7.00086C20.3439 7.00098 20.3439 7.0011 20.3439 7.00124C20.3439 7.00138 20.3439 7.00153 20.3439 7.00169C20.3439 7.00185 20.3439 7.00202 20.3439 7.0022C20.3439 7.00238 20.3439 7.00258 20.3439 7.00278C20.3439 7.00299 20.3439 7.0032 20.3439 7.00343C20.3439 7.00366 20.3439 7.0039 20.3439 7.00415C20.3439 7.0044 20.3439 7.00466 20.3439 7.00493C20.3439 7.0052 20.3439 7.00549 20.3439 7.00578C20.3439 7.00608 20.3439 7.00638 20.3439 7.0067C20.3439 7.00701 20.3439 7.00734 20.3439 7.00768C20.3439 7.00802 20.3439 7.00837 20.3439 7.00873C20.3439 7.00909 20.3439 7.00946 20.3439 7.00984C20.3439 7.01023 20.3439 7.01062 20.3439 7.01103C20.3439 7.01143 20.3439 7.01185 20.3439 7.01227C20.3439 7.0127 20.3439 7.01314 20.3439 7.01358C20.3439 7.01403 20.3439 7.01449 20.3439 7.01496C20.3439 7.01543 20.3439 7.01591 20.3439 7.0164C20.3439 7.01689 20.3439 7.0174 20.3439 7.01791C20.3439 7.01842 20.3439 7.01895 20.3439 7.01948C20.3439 7.02001 20.3439 7.02056 20.3439 7.02112C20.3439 7.02167 20.3439 7.02224 20.3439 7.02281C20.3439 7.02339 20.3439 7.02398 20.3439 7.02458C20.3439 7.02518 20.3439 7.02578 20.3439 7.0264C20.3439 7.02702 20.3439 7.02765 20.3439 7.02829C20.3439 7.02893 20.3439 7.02959 20.3439 7.03025C20.3439 7.03091 20.3439 7.03158 20.3439 7.03226C20.3439 7.03295 20.3439 7.03364 20.3439 7.03434C20.3439 7.03505 20.3439 7.03576 20.3439 7.03649C20.3439 7.03721 20.3439 7.03794 20.3439 7.03869C20.3439 7.03943 20.3439 7.04019 20.3439 7.04096C20.3439 7.04172 20.3439 7.0425 20.3439 7.04328C20.3439 7.04407 20.3439 7.04487 20.3439 7.04567C20.3439 7.04648 20.3439 7.0473 20.3439 7.04813C20.3439 7.04895 20.3439 7.04979 20.3439 7.05064C20.3439 7.05149 20.3439 7.05234 20.3439 7.05321C20.3439 7.05408 20.3439 7.05496 20.3439 7.05585C20.3439 7.05674 20.3439 7.05763 20.3439 7.05854C20.3439 7.05945 20.3439 7.06037 20.3439 7.0613C20.3439 7.06223 20.3439 7.06317 20.3439 7.06412C20.3439 7.06506 20.3439 7.06602 20.3439 7.06699C20.3439 7.06796 20.3439 7.06894 20.3439 7.06993C20.3439 7.07092 20.3439 7.07192 20.3439 7.07292C20.3439 7.07393 20.3439 7.07495 20.3439 7.07598C20.3439 7.07701 20.3439 7.07805 20.3439 7.07909C20.3439 7.08014 20.3439 7.0812 20.3439 7.08227C20.3439 7.08333 20.3439 7.08441 20.3439 7.0855C20.3439 7.08659 20.3439 7.08768 20.3439 7.08879C20.3439 7.0899 20.3439 7.09101 20.3439 7.09214C20.3439 7.09327 20.3439 7.0944 20.3439 7.09555C20.3439 7.09669 20.3439 7.09785 20.3439 7.09901C20.3439 7.10018 20.3439 7.10135 20.3439 7.10254C20.3439 7.10372 20.3439 7.10491 20.3439 7.10612C20.3439 7.10732 20.3439 7.10853 20.3439 7.10975C20.3439 7.11098 20.3439 7.11221 20.3439 7.11345C20.3439 7.11469 20.3439 7.11594 20.3439 7.1172C20.3439 7.11846 20.3439 7.11973 20.3439 7.12101C20.3439 7.12229 20.3439 7.12358 20.3439 7.12487C20.3439 7.12617 20.3439 7.12748 20.3439 7.1288C20.3439 7.13011 20.3439 7.13144 20.3439 7.13277C20.3439 7.13411 20.3439 7.13545 20.3439 7.13681C20.3439 7.13816 20.3439 7.13952 20.3439 7.1409C20.3439 7.14227 20.3439 7.14365 20.3439 7.14504C20.3439 7.14643 20.3439 7.14783 20.3439 7.14924C20.3439 7.15065 20.3439 7.15207 20.3439 7.15349C20.3439 7.15492 20.3439 7.15636 20.3439 7.1578C20.3439 7.15925 20.3439 7.1607 20.3439 7.16217C20.3439 7.16363 20.3439 7.1651 20.3439 7.16659C20.3439 7.16807 20.3439 7.16956 20.3439 7.17106C20.3439 7.17256 20.3439 7.17407 20.3439 7.17558C20.3439 7.1771 20.3439 7.17863 20.3439 7.18016C20.3439 7.1817 20.3439 7.18324 20.3439 7.1848C20.3439 7.18635 20.3439 7.18791 20.3439 7.18949C20.3439 7.19106 20.3439 7.19264 20.3439 7.19423C20.3439 7.19581 20.3439 7.19741 20.3439 7.19902C20.3439 7.20062 20.3439 7.20224 20.3439 7.20386C20.3439 7.20549 20.3439 7.20712 20.3439 7.20876C20.3439 7.2104 20.3439 7.21205 20.3439 7.21371C20.3439 7.21537 20.3439 7.21704 20.3439 7.21871C20.3439 7.22039 20.3439 7.22208 20.3439 7.22377C20.3439 7.22546 20.3439 7.22716 20.3439 7.22888C20.3439 7.23059 20.3439 7.2323 20.3439 7.23403C20.3439 7.23576 20.3439 7.2375 20.3439 7.23924C20.3439 7.24099 20.3439 7.24274 20.3439 7.2445C20.3439 7.24626 20.3439 7.24803 20.3439 7.24981C20.3439 7.25159 20.3439 7.25338 20.3439 7.25517C20.3439 7.25697 20.3439 7.25877 20.3439 7.26058C20.3439 7.2624 20.3439 7.26422 20.3439 7.26604C20.3439 7.26787 20.3439 7.26971 20.3439 7.27156C20.3439 7.2734 20.3439 7.27526 20.3439 7.27712C20.3439 7.27898 20.3439 7.28085 20.3439 7.28273C20.3439 7.28461 20.3439 7.28649 20.3439 7.28839C20.3439 7.29028 20.3439 7.29219 20.3439 7.2941C20.3439 7.29601 20.3439 7.29793 20.3439 7.29985C20.3439 7.30178 20.3439 7.30372 20.3439 7.30566C20.3439 7.30761 20.3439 7.30956 20.3439 7.31152C20.3439 7.31348 20.3439 7.31544 20.3439 7.31742C20.3439 7.3194 20.3439 7.32138 20.3439 7.32337C20.3439 7.32536 20.3439 7.32736 20.3439 7.32937C20.3439 7.33138 20.3439 7.33339 20.3439 7.33542C20.3439 7.33744 20.3439 7.33947 20.3439 7.34151C20.3439 7.34355 20.3439 7.3456 20.3439 7.34765C20.3439 7.34971 20.3439 7.35177 20.3439 7.35384C20.3439 7.35591 20.3439 7.35799 20.3439 7.36008C20.3439 7.36216 20.3439 7.36426 20.3439 7.36636C20.3439 7.36846 20.3439 7.37057 20.3439 7.37269C20.3439 7.3748 20.3439 7.37693 20.3439 7.37906C20.3439 7.38119 20.3439 7.38333 20.3439 7.38548C20.3439 7.38763 20.3439 7.38979 20.3439 7.39195C20.3439 7.39411 20.3439 7.39628 20.3439 7.39846C20.3439 7.40064 20.3439 7.40282 20.3439 7.40502C20.3439 7.40721 20.3439 7.40941 20.3439 7.41162C20.3439 7.41383 20.3439 7.41604 20.3439 7.41827C20.3439 7.42049 20.3439 7.42272 20.3439 7.42496C20.3439 7.4272 20.3439 7.42944 20.3439 7.43169C20.3439 7.43395 20.3439 7.43621 20.3439 7.43847C20.3439 7.44074 20.3439 7.44302 20.3439 7.4453C20.3439 7.44758 20.3439 7.44987 20.3439 7.45217C20.3439 7.45446 20.3439 7.45677 20.3439 7.45908C20.3439 7.46139 20.3439 7.46371 20.3439 7.46603C20.3439 7.46836 20.3439 7.47069 20.3439 7.47303C20.3439 7.47537 20.3439 7.47772 20.3439 7.48007C20.3439 7.48243 20.3439 7.48479 20.3439 7.48716C20.3439 7.48953 20.3439 7.4919 20.3439 7.49429C20.3439 7.49667 20.3439 7.49906 20.3439 7.50145C20.3439 7.50385 20.3439 7.50626 20.3439 7.50867C20.3439 7.51108 20.3439 7.51349 20.3439 7.51592C20.3439 7.51834 20.3439 7.52078 20.3439 7.52321C20.3439 7.52565 20.3439 7.5281 20.3439 7.53055C20.3439 7.533 20.3439 7.53546 20.3439 7.53793C20.3439 7.54039 20.3439 7.54287 20.3439 7.54535C20.3439 7.54783 20.3439 7.55031 20.3439 7.55281C20.3439 7.5553 20.3439 7.5578 20.3439 7.56031C20.3439 7.56282 20.3439 7.56533 20.3439 7.56785C20.3439 7.57037 20.3439 7.5729 20.3439 7.57543C20.3439 7.57796 20.3439 7.5805 20.3439 7.58305C20.3439 7.5856 20.3439 7.58815 20.3439 7.59071C20.3439 7.59327 20.3439 7.59584 20.3439 7.59841C20.3439 7.60099 20.3439 7.60357 20.3439 7.60615C20.3439 7.60874 20.3439 7.61133 20.3439 7.61393C20.3439 7.61653 20.3439 7.61914 20.3439 7.62175C20.3439 7.62436 20.3439 7.62698 20.3439 7.62961C20.3439 7.63223 20.3439 7.63487 20.3439 7.63751C20.3439 7.64014 20.3439 7.64279 20.3439 7.64544C20.3439 7.64809 20.3439 7.65075 20.3439 7.65341C20.3439 7.65608 20.3439 7.65875 20.3439 7.66142C20.3439 7.6641 20.3439 7.66678 20.3439 7.66947C20.3439 7.67216 20.3439 7.67485 20.3439 7.67756C20.3439 7.68026 20.3439 7.68296 20.3439 7.68568C20.3439 7.68839 20.3439 7.69111 20.3439 7.69384C20.3439 7.69656 20.3439 7.6993 20.3439 7.70203C20.3439 7.70477 20.3439 7.70752 20.3439 7.71027C20.3439 7.71302 20.3439 7.71578 20.3439 7.71854C20.3439 7.7213 20.3439 7.72407 20.3439 7.72684C20.3439 7.72962 20.3439 7.7324 20.3439 7.73519C20.3439 7.73797 20.3439 7.74077 20.3439 7.74356C20.3439 7.74636 20.3439 7.74917 20.3439 7.75198C20.3439 7.75479 20.3439 7.75761 20.3439 7.76043C20.3439 7.76325 20.3439 7.76608 20.3439 7.76891C20.3439 7.77175 20.3439 7.77459 20.3439 7.77743C20.3439 7.78028 20.3439 7.78313 20.3439 7.78598C20.3439 7.78884 20.3439 7.79171 20.3439 7.79457C20.3439 7.79744 20.3439 7.80032 20.3439 7.8032C20.3439 7.80608 20.3439 7.80896 20.3439 7.81185C20.3439 7.81475 20.3439 7.81764 20.3439 7.82055C20.3439 7.82345 20.3439 7.82636 20.3439 7.82927C20.3439 7.83218 20.3439 7.8351 20.3439 7.83803C20.3439 7.84095 20.3439 7.84388 20.3439 7.84682C20.3439 7.84976 20.3439 7.8527 20.3439 7.85564C20.3439 7.85859 20.3439 7.86154 20.3439 7.8645C20.3439 7.86746 20.3439 7.87042 20.3439 7.87339C20.3439 7.87636 20.3439 7.87934 20.3439 7.88232C20.3439 7.88529 20.3439 7.88828 20.3439 7.89127C20.3439 7.89426 20.3439 7.89726 20.3439 7.90026C20.3439 7.90326 20.3439 7.90626 20.3439 7.90928C20.3439 7.91229 20.3439 7.91531 20.3439 7.91833C20.3439 7.92135 20.3439 7.92438 20.3439 7.92741C20.3439 7.93044 20.3439 7.93348 20.3439 7.93652C20.3439 7.93957 20.3439 7.94261 20.3439 7.94567C20.3439 7.94872 20.3439 7.95178 20.3439 7.95484C20.3439 7.9579 20.3439 7.96097 20.3439 7.96405C20.3439 7.96712 20.3439 7.9702 20.3439 7.97328C20.3439 7.97637 20.3439 7.97945 20.3439 7.98255C20.3439 7.98564 20.3439 7.98874 20.3439 7.99184C20.3439 7.99495 20.3439 7.99806 20.3439 8.00117C20.3439 8.00428 20.3439 8.0074 20.3439 8.01053C20.3439 8.01365 20.3439 8.01678 20.3439 8.01991C20.3439 8.02304 20.3439 8.02618 20.3439 8.02932C20.3439 8.03247 20.3439 8.03561 20.3439 8.03877C20.3439 8.04192 20.3439 8.04508 20.3439 8.04824C20.3439 8.0514 20.3439 8.05457 20.3439 8.05774C20.3439 8.06091 20.3439 8.06408 20.3439 8.06727C20.3439 8.07045 20.3439 8.07363 20.3439 8.07682C20.3439 8.08001 20.3439 8.08321 20.3439 8.0864C20.3439 8.0896 20.3439 8.09281 20.3439 8.09602C20.3439 8.09922 20.3439 8.10244 20.3439 8.10565C20.3439 8.10887 20.3439 8.11209 20.3439 8.11532C20.3439 8.11855 20.3439 8.12178 20.3439 8.12501C20.3439 8.12825 20.3439 8.13149 20.3439 8.13473C20.3439 8.13798 20.3439 8.14123 20.3439 8.14448C20.3439 8.14773 20.3439 8.15099 20.3439 8.15425C20.3439 8.15751 20.3439 8.16078 20.3439 8.16405C20.3439 8.16732 20.3439 8.1706 20.3439 8.17388C20.3439 8.17716 20.3439 8.18044 20.3439 8.18373C20.3439 8.18701 20.3439 8.19031 20.3439 8.1936C20.3439 8.1969 20.3439 8.2002 20.3439 8.2035C20.3439 8.20681 20.3439 8.21012 20.3439 8.21343C20.3439 8.21674 20.3439 8.22006 20.3439 8.22338C20.3439 8.2267 20.3439 8.23003 20.3439 8.23336C20.3439 8.23669 20.3439 8.24002 20.3439 8.24336C20.3439 8.2467 20.3439 8.25004 20.3439 8.25338C20.3439 8.25673 20.3439 8.26008 20.3439 8.26343C20.3439 8.26679 20.3439 8.27014 20.3439 8.2735C20.3439 8.27687 20.3439 8.28023 20.3439 8.2836C20.3439 8.28697 20.3439 8.29034 20.3439 8.29372C20.3439 8.2971 20.3439 8.30048 20.3439 8.30386C20.3439 8.30725 20.3439 8.31064 20.3439 8.31403C20.3439 8.31742 20.3439 8.32082 20.3439 8.32422C20.3439 8.32762 20.3439 8.33102 20.3439 8.33443C20.3439 8.33784 20.3439 8.34125 20.3439 8.34466C20.3439 8.34808 20.3439 8.3515 20.3439 8.35492C20.3439 8.35834 20.3439 8.36177 20.3439 8.3652C20.3439 8.36862 20.3439 8.37206 20.3439 8.37549C20.3439 8.37893 20.3439 8.38237 20.3439 8.38582C20.3439 8.38926 20.3439 8.39271 20.3439 8.39616C20.3439 8.39961 20.3439 8.40306 20.3439 8.40652C20.3439 8.40998 20.3439 8.41344 20.3439 8.4169C20.3439 8.42037 20.3439 8.42384 20.3439 8.42731C20.3439 8.43078 20.3439 8.43426 20.3439 8.43773C20.3439 8.44121 20.3439 8.44469 20.3439 8.44818C20.3439 8.45167 20.3439 8.45515 20.3439 8.45865C20.3439 8.46214 20.3439 8.46563 20.3439 8.46913C20.3439 8.47263 20.3439 8.47613 20.3439 8.47964C20.3439 8.48314 20.3439 8.48665 20.3439 8.49016C20.3439 8.49367 20.3439 8.49719 20.3439 8.5007C20.3439 8.50422 20.3439 8.50774 20.3439 8.51127C20.3439 8.51479 20.3439 8.51832 20.3439 8.52185C20.3439 8.52538 20.3439 8.52891 20.3439 8.53245C20.3439 8.53598 20.3439 8.53952 20.3439 8.54307C20.3439 8.54661 20.3439 8.55015 20.3439 8.5537C20.3439 8.55725 20.3439 8.5608 20.3439 8.56436C20.3439 8.56791 20.3439 8.57147 20.3439 8.57503C20.3439 8.57859 20.3439 8.58215 20.3439 8.58572C20.3439 8.58928 20.3439 8.59285 20.3439 8.59643C20.3439 8.6 20.3439 8.60357 20.3439 8.60715C20.3439 8.61073 20.3439 8.61431 20.3439 8.61789C20.3439 8.62147 20.3439 8.62506 20.3439 8.62865C20.3439 8.63224 20.3439 8.63583 20.3439 8.63942C20.3439 8.64301 20.3439 8.64661 20.3439 8.65021C20.3439 8.65381 20.3439 8.65741 20.3439 8.66102C20.3439 8.66462 20.3439 8.66823 20.3439 8.67184C20.3439 8.67545 20.3439 8.67906 20.3439 8.68268C20.3439 8.68629 20.3439 8.68991 20.3439 8.69353C20.3439 8.69715 20.3439 8.70077 20.3439 8.7044C20.3439 8.70802 20.3439 8.71165 20.3439 8.71528C20.3439 8.71891 20.3439 8.72254 20.3439 8.72618C20.3439 8.72982 20.3439 8.73345 20.3439 8.73709C20.3439 8.74073 20.3439 8.74437 20.3439 8.74802C20.3439 8.75166 20.3439 8.75531 20.3439 8.75896C20.3439 8.76261 20.3439 8.76626 20.3439 8.76992C20.3439 8.77357 20.3439 8.77723 20.3439 8.78088C20.3439 8.78454 20.3439 8.7882 20.3439 8.79187C20.3439 8.79553 20.3439 8.79919 20.3439 8.80286C20.3439 8.80653 20.3439 8.8102 20.3439 8.81387C20.3439 8.81754 20.3439 8.82122 20.3439 8.82489C20.3439 8.82857 20.3439 8.83225 20.3439 8.83593C20.3439 8.83961 20.3439 8.84329 20.3439 8.84697C20.3439 8.85066 20.3439 8.85434 20.3439 8.85803C20.3439 8.86172 20.3439 8.86541 20.3439 8.8691C20.3439 8.8728 20.3439 8.87649 20.3439 8.88019C20.3439 8.88388 20.3439 8.88758 20.3439 8.89128C20.3439 8.89498 20.3439 8.89868 20.3439 8.90239C20.3439 8.90609 20.3439 8.9098 20.3439 8.9135C20.3439 8.91721 20.3439 8.92092 20.3439 8.92463C20.3439 8.92834 20.3439 8.93205 20.3439 8.93577C20.3439 8.93948 20.3439 8.9432 20.3439 8.94692C20.3439 8.95064 20.3439 8.95436 20.3439 8.95808C20.3439 8.9618 20.3439 8.96552 20.3439 8.96925C20.3439 8.97297 20.3439 8.9767 20.3439 8.98043C20.3439 8.98416 20.3439 8.98789 20.3439 8.99162C20.3439 8.99535 20.3439 8.99908 20.3439 9.00282C20.3439 9.00655 20.3439 9.01029 20.3439 9.01402C20.3439 9.01776 20.3439 9.0215 20.3439 9.02524C20.3439 9.02898 20.3439 9.03272 20.3439 9.03647C20.3439 9.04021 20.3439 9.04396 20.3439 9.0477C20.3439 9.05145 20.3439 9.0552 20.3439 9.05895C20.3439 9.0627 20.3439 9.06645 20.3439 9.0702C20.3439 9.07395 20.3439 9.0777 20.3439 9.08146C20.3439 9.08521 20.3439 9.08897 20.3439 9.09273C20.3439 9.09648 20.3439 9.10024 20.3439 9.104C20.3439 9.10776 20.3439 9.11152 20.3439 9.11528C20.3439 9.11904 20.3439 9.12281 20.3439 9.12657C20.3439 9.13034 20.3439 9.1341 20.3439 9.13787C20.3439 9.14164 20.3439 9.1454 20.3439 9.14917C20.3439 9.15294 20.3439 9.15671 20.3439 9.16048C20.3439 9.16425 20.3439 9.16803 20.3439 9.1718C20.3439 9.17557 20.3439 9.17935 20.3439 9.18312C20.3439 9.1869 20.3439 9.19067 20.3439 9.19445C20.3439 9.19823 20.3439 9.202 20.3439 9.20578C20.3439 9.20956 20.3439 9.21334 20.3439 9.21712C20.3439 9.2209 20.3439 9.22469 20.3439 9.22847C20.3439 9.23225 20.3439 9.23603 20.3439 9.23982C20.3439 9.2436 20.3439 9.24739 20.3439 9.25117C20.3439 9.25496 20.3439 9.25874 20.3439 9.26253C20.3439 9.26632 20.3439 9.27011 20.3439 9.2739C20.3439 9.27768 20.3439 9.28147 20.3439 9.28526C20.3439 9.28905 20.3439 9.29285 20.3439 9.29664C20.3439 9.30043 20.3439 9.30422 20.3439 9.30801C20.3439 9.31181 20.3439 9.3156 20.3439 9.31939C20.3439 9.32319 20.3439 9.32698 20.3439 9.33078C20.3439 9.33457 20.3439 9.33837 20.3439 9.34216C20.3439 9.34596 20.3439 9.34975 20.3439 9.35355C20.3439 9.35735 20.3439 9.36115 20.3439 9.36494C20.3439 9.36874 20.3439 9.37254 20.3439 9.37634C20.3439 9.38014 20.3439 9.38393 20.3439 9.38773C20.3439 9.39153 20.3439 9.39533 20.3439 9.39913C20.3439 9.40293 20.3439 9.40673 20.3439 9.41053C20.3439 9.41434 20.3439 9.41814 20.3439 9.42194C20.3439 9.42574 20.3439 9.42954 20.3439 9.43334C20.3439 9.43714 20.3439 9.44094 20.3439 9.44475C20.3439 9.44855 20.3439 9.45235 20.3439 9.45615C20.3439 9.45996 20.3439 9.46376 20.3439 9.46756C20.3439 9.47136 20.3439 9.47517 20.3439 9.47897C20.3439 9.48277 20.3439 9.48657 20.3439 9.49038C20.3439 9.49418 20.3439 9.49798 20.3439 9.50179C20.3439 9.50559 20.3439 9.50939 20.3439 9.5132C20.3439 9.517 20.3439 9.5208 20.3439 9.5246C20.3439 9.52841 20.3439 9.53221 20.3439 9.53601C20.3439 9.53981 20.3439 9.54362 20.3439 9.54742C20.3439 9.55122 20.3439 9.55502 20.3439 9.55883C20.3439 9.56263 20.3439 9.56643 20.3439 9.57023C20.3439 9.57403 20.3439 9.57784 20.3439 9.58164C20.3439 9.58544 20.3439 9.58924 20.3439 9.59304C20.3439 9.59684 20.3439 9.60064 20.3439 9.60444C20.3439 9.60824 20.3439 9.61204 20.3439 9.61584C20.3439 9.61964 20.3439 9.62344 20.3439 9.62724C20.3439 9.63104 20.3439 9.63484 20.3439 9.63863C20.3439 9.64243 20.3439 9.64623 20.3439 9.65003C20.3439 9.65382 20.3439 9.65762 20.3439 9.66142C20.3439 9.66521 20.3439 9.66901 20.3439 9.6728C20.3439 9.6766 20.3439 9.68039 20.3439 9.68419C20.3439 9.68798 20.3439 9.69178 20.3439 9.69557C20.3439 9.69936 20.3439 9.70315 20.3439 9.70695C20.3439 9.71074 20.3439 9.71453 20.3439 9.71832C20.3439 9.72211 20.3439 9.7259 20.3439 9.72969C20.3439 9.73348 20.3439 9.73727 20.3439 9.74105C20.3439 9.74484 20.3439 9.74863 20.3439 9.75242C20.3439 9.7562 20.3439 9.75999 20.3439 9.76377C20.3439 9.76756 20.3439 9.77134 20.3439 9.77512C20.3439 9.77891 20.3439 9.78269 20.3439 9.78647C20.3439 9.79025 20.3439 9.79403 20.3439 9.79781C20.3439 9.80159 20.3439 9.80537 20.3439 9.80915C20.3439 9.81292 20.3439 9.8167 20.3439 9.82048C20.3439 9.82425 20.3439 9.82803 20.3439 9.8318C20.3439 9.83557 20.3439 9.83935 20.3439 9.84312C20.3439 9.84689 20.3439 9.85066 20.3439 9.85443C20.3439 9.8582 20.3439 9.86197 20.3439 9.86574C20.3439 9.8695 20.3439 9.87327 20.3439 9.87703C20.3439 9.8808 20.3439 9.88456 20.3439 9.88833C20.3439 9.89209 20.3439 9.89585 20.3439 9.89961C20.3439 9.90337 20.3439 9.90713 20.3439 9.91089C20.3439 9.91465 20.3439 9.9184 20.3439 9.92216C20.3439 9.92591 20.3439 9.92967 20.3439 9.93342C20.3439 9.93717 20.3439 9.94092 20.3439 9.94467C20.3439 9.94842 20.3439 9.95217 20.3439 9.95592C20.3439 9.95967 20.3439 9.96341 20.3439 9.96716C20.3439 9.9709 20.3439 9.97464 20.3439 9.97839C20.3439 9.98213 20.3439 9.98587 20.3439 9.98961C20.3439 9.99334 20.3439 9.99708 20.3439 10.0008C20.3439 10.0046 20.3439 10.0083 20.3439 10.012C20.3439 10.0158 20.3439 10.0195 20.3439 10.0232C20.3439 10.0269 20.3439 10.0307 20.3439 10.0344C20.3439 10.0381 20.3439 10.0418 20.3439 10.0456C20.3439 10.0493 20.3439 10.053 20.3439 10.0567C20.3439 10.0604 20.3439 10.0642 20.3439 10.0679C20.3439 10.0716 20.3439 10.0753 20.3439 10.079C20.3439 10.0827 20.3439 10.0864 20.3439 10.0902C20.3439 10.0939 20.3439 10.0976 20.3439 10.1013C20.3439 10.105 20.3439 10.1087 20.3439 10.1124C20.3439 10.1161 20.3439 10.1198 20.3439 10.1235C20.3439 10.1272 20.3439 10.1309 20.3439 10.1346C20.3439 10.1383 20.3439 10.142 20.3439 10.1456C20.3439 10.1493 20.3439 10.153 20.3439 10.1567C20.3439 10.1604 20.3439 10.1641 20.3439 10.1678C20.3439 10.1714 20.3439 10.1751 20.3439 10.1788C20.3439 10.1825 20.3439 10.1861 20.3439 10.1898C20.3439 10.1935 20.3439 10.1972 20.3439 10.2008C20.3439 10.2045 20.3439 10.2082 20.3439 10.2118C20.3439 10.2155 20.3439 10.2192 20.3439 10.2228C20.3439 10.2265 20.3439 10.2301 20.3439 10.2338C20.3439 10.2374 20.3439 10.2411 20.3439 10.2447C20.3439 10.2484 20.3439 10.252 20.3439 10.2557C20.3439 10.2593 20.3439 10.263 20.3439 10.2666C20.3439 10.2703 20.3439 10.2739 20.3439 10.2775C20.3439 10.2812 20.3439 10.2848 20.3439 10.2884C20.3439 10.2921 20.3439 10.2957 20.3439 10.2993C20.3439 10.303 20.3439 10.3066 20.3439 10.3102C20.3439 10.3138 20.3439 10.3174 20.3439 10.3211C20.3439 10.3247 20.3439 10.3283 20.3439 10.3319C20.3439 10.3355 20.3439 10.3391 20.3439 10.3427C20.3439 10.3463 20.3439 10.3499 20.3439 10.3535C20.3439 10.3571 20.3439 10.3607 20.3439 10.3643C20.3439 10.3679 20.3439 10.3715 20.3439 10.3751C20.3439 10.3787 20.3439 10.3823 20.3439 10.3859C20.3439 10.3895 20.3439 10.393 20.3439 10.3966C20.3439 10.4002 20.3439 10.4038 20.3439 10.4074C20.3439 10.4109 20.3439 10.4145 20.3439 10.4181C20.3439 10.4216 20.3439 10.4252 20.3439 10.4288C20.3439 10.4323 20.3439 10.4359 20.3439 10.4394C20.3439 10.443 20.3439 10.4465 20.3439 10.4501C20.3439 10.4536 20.3439 10.4572 20.3439 10.4607C20.3439 10.4643 20.3439 10.4678 20.3439 10.4714C20.3439 10.4749 20.3439 10.4784 20.3439 10.482C20.3439 10.4855 20.3439 10.489 20.3439 10.4926C20.3439 10.4961 20.3439 10.4996 20.3439 10.5031C20.3439 10.5066 20.3439 10.5102 20.3439 10.5137C20.3439 10.5172 20.3439 10.5207 20.3439 10.5242C20.3439 10.5277 20.3439 10.5312 20.3439 10.5347C20.3439 10.5382 20.3439 10.5417 20.3439 10.5452C20.3439 10.5487 20.3439 10.5522 20.3439 10.5557C20.3439 10.5592 20.3439 10.5626 20.3439 10.5661C20.3439 10.5696 20.3439 10.5731 20.3439 10.5766C20.3439 10.58 20.3439 10.5835 20.3439 10.587C20.3439 10.5904 20.3439 10.5939 20.3439 10.5974C20.3439 10.6008 20.3439 10.6043 20.3439 10.6077C20.3439 10.6112 20.3439 10.6146 20.3439 10.6181C20.3439 10.6215 20.3439 10.625 20.3439 10.6284C20.3439 10.6318 20.3439 10.6353 20.3439 10.6387C20.3439 10.6421 20.3439 10.6456 20.3439 10.649C20.3439 10.6524 20.3439 10.6558 20.3439 10.6593C20.3439 10.6627 20.3439 10.6661 20.3439 10.6695C20.3439 10.6729 20.3439 10.6763 20.3439 10.6797C20.3439 10.6831 20.3439 10.6865 20.3439 10.6899C20.3439 10.6933 20.3439 10.6967 20.3439 10.7001C20.3439 10.7035 20.3439 10.7068 20.3439 10.7102C20.3439 10.7136 20.3439 10.717 20.3439 10.7204C20.3439 10.7237 20.3439 10.7271 20.3439 10.7305C20.3439 10.7338 20.3439 10.7372 20.3439 10.7405C20.3439 10.7439 20.3439 10.7472 20.3439 10.7506C20.3439 10.7539 20.3439 10.7573 20.3439 10.7606C20.3439 10.764 20.3439 10.7673 20.3439 10.7706C20.3439 10.774 20.3439 10.7773 20.3439 10.7806C20.3439 10.7839 20.3439 10.7873 20.3439 10.7906C20.3439 10.7939 20.3439 10.7972 20.3439 10.8005C20.3439 10.8038 20.3439 10.8071 20.3439 10.8104C20.3439 10.8137 20.3439 10.817 20.3439 10.8203C20.3439 10.8236 20.3439 10.8269 20.3439 10.8302C20.3439 10.8334 20.3439 10.8367 20.3439 10.84C20.3439 10.8433 20.3439 10.8465 20.3439 10.8498C20.3439 10.8531 20.3439 10.8563 20.3439 10.8596C20.3439 10.8628 20.3439 10.8661 20.3439 10.8693C20.3439 10.8726 20.3439 10.8758 20.3439 10.8791C20.3439 10.8823 20.3439 10.8855 20.3439 10.8888C20.3439 10.892 20.3439 10.8952 20.3439 10.8984C20.3439 10.9017 20.3439 10.9049 20.3439 10.9081C20.3439 10.9113 20.3439 10.9145 20.3439 10.9177C20.3439 10.9209 20.3439 10.9241 20.3439 10.9273C20.3439 10.9305 20.3439 10.9337 20.3439 10.9369C20.3439 10.94 20.3439 10.9432 20.3439 10.9464C20.3439 10.9496 20.3439 10.9527 20.3439 10.9559C20.3439 10.9591 20.3439 10.9622 20.3439 10.9654C20.3439 10.9685 20.3439 10.9717 20.3439 10.9748C20.3439 10.978 20.3439 10.9811 20.3439 10.9843C20.3439 10.9874 20.3439 10.9905 20.3439 10.9936C20.3439 10.9968 20.3439 10.9999 20.3439 11.003C20.3439 11.0061 20.3439 11.0092 20.3439 11.0123C20.3439 11.0154 20.3439 11.0186 20.3439 11.0216C20.3439 11.0247 20.3439 11.0278 20.3439 11.0309C20.3439 11.034 20.3439 11.0371 20.3439 11.0402C20.3439 11.0432 20.3439 11.0463 20.3439 11.0494C20.3439 11.0524 20.3439 11.0555 20.3439 11.0586C20.3439 11.0616 20.3439 11.0647 20.3439 11.0677C20.3439 11.0708 20.3439 11.0738 20.3439 11.0768C20.3439 11.0799 20.3439 11.0829 20.3439 11.0859C20.3439 11.089 20.3439 11.092 20.3439 11.095C20.3439 11.098 20.3439 11.101 20.3439 11.104C20.3439 11.107 20.3439 11.11 20.3439 11.113C20.3439 11.116 20.3439 11.119 20.3439 11.122C20.3439 11.125 20.3439 11.1279 20.3439 11.1309C20.3439 11.1339 20.3439 11.1369 20.3439 11.1398C20.3439 11.1428 20.3439 11.1457 20.3439 11.1487C20.3439 11.1516 20.3439 11.1546 20.3439 11.1575C20.3439 11.1605 20.3439 11.1634 20.3439 11.1663C20.3439 11.1692 20.3439 11.1722 20.3439 11.1751C20.3439 11.178 20.3439 11.1809 20.3439 11.1838C20.3439 11.1867 20.3439 11.1896 20.3439 11.1925C20.3439 11.1954 20.3439 11.1983 20.3439 11.2012C20.3439 11.2041 20.3439 11.2069 20.3439 11.2098C20.3439 11.2127 20.3439 11.2156 20.3439 11.2184C20.3439 11.2213 20.3439 11.2241 20.3439 11.227C20.3439 11.2298 20.3439 11.2327 20.3439 11.2355C20.3439 11.2384 20.3439 11.2412 20.3439 11.244C20.3439 11.2468 20.3439 11.2497 20.3439 11.2525C20.3439 11.2553 20.3439 11.2581 20.3439 11.2609C20.3439 11.2637 20.3439 11.2665 20.3439 11.2693C20.3439 11.2721 20.3439 11.2749 20.3439 11.2776C20.3439 11.2804 20.3439 11.2832 20.3439 11.286C20.3439 11.2887 20.3439 11.2915 20.3439 11.2942C20.3439 11.297 20.3439 11.2997 20.3439 11.3025C20.3439 11.3052 20.3439 11.308 20.3439 11.3107C20.3439 11.3134 20.3439 11.3161 20.3439 11.3189C20.3439 11.3216 20.3439 11.3243 20.3439 11.327C20.3439 11.3297 20.3439 11.3324 20.3439 11.3351C20.3439 11.3378 20.3439 11.3405 20.3439 11.3431C20.3439 11.3458 20.3439 11.3485 20.3439 11.3512C20.3439 11.3538 20.3439 11.3565 20.3439 11.3591C20.3439 11.3618 20.3439 11.3645 20.3439 11.3671C20.3439 11.3697 20.3439 11.3724 20.3439 11.375H21.8439ZM6.65642 11.375C6.65642 10.7019 6.65638 9.60812 6.65634 8.68264C6.65631 8.2199 6.65629 7.79923 6.65628 7.49425C6.65627 7.34175 6.65626 7.21818 6.65626 7.13273C6.65626 7.09001 6.65625 7.05681 6.65625 7.0343C6.65625 7.02305 6.65625 7.01446 6.65625 7.00869C6.65625 7.0058 6.65625 7.00362 6.65625 7.00216C6.65625 7.00143 6.65625 7.00088 6.65625 7.00051C6.65625 7.00033 6.65625 7.00019 6.65625 7.0001C6.65625 7.00005 6.65625 7.00002 6.65625 6.99999C6.65625 6.99997 6.65625 6.99996 5.90625 7C5.15625 7.00004 5.15625 7.00005 5.15625 7.00008C5.15625 7.0001 5.15625 7.00013 5.15625 7.00018C5.15625 7.00027 5.15625 7.00041 5.15625 7.00059C5.15625 7.00096 5.15625 7.00151 5.15625 7.00224C5.15625 7.0037 5.15625 7.00589 5.15625 7.00877C5.15625 7.01454 5.15625 7.02313 5.15625 7.03439C5.15625 7.0569 5.15626 7.09009 5.15626 7.13281C5.15626 7.21826 5.15627 7.34183 5.15628 7.49432C5.15629 7.79931 5.15631 8.21998 5.15634 8.68271C5.15638 9.60819 5.15642 10.7019 5.15642 11.375H6.65642ZM17.3954 5.14726L14.0204 1.89726L12.9799 2.97774L16.3549 6.22774L17.3954 5.14726ZM12.9799 1.89726L9.60494 5.14726L10.6454 6.22774L14.0204 2.97774L12.9799 1.89726ZM12.7502 2.4375L12.7502 16.25H14.2502L14.2502 2.4375L12.7502 2.4375ZM10.1252 20.75H16.8752V19.25H10.1252V20.75Z" fill="#242423"/>
</svg>
