<svg width="27" height="26" viewBox="0 0 27 26" fill="none" xmlns="http://www.w3.org/2000/svg">
<path d="M24.75 11.375H18M15.4688 6.90625C15.4688 8.92554 13.7688 10.5625 11.6719 10.5625C9.57492 10.5625 7.875 8.92554 7.875 6.90625C7.875 4.88696 9.57492 3.25 11.6719 3.25C13.7688 3.25 15.4688 4.88696 15.4688 6.90625ZM4.50104 20.8372C4.50035 20.7978 4.5 20.7583 4.5 20.7188C4.5 16.9045 7.71096 13.8125 11.6719 13.8125C15.6328 13.8125 18.8438 16.9045 18.8438 20.7188V20.7215C18.8437 20.7601 18.8434 20.7987 18.8427 20.8372C16.7483 22.0515 14.2948 22.75 11.6719 22.75C9.04897 22.75 6.59547 22.0515 4.50104 20.8372Z" stroke="#242423" stroke-width="1.5" stroke-linecap="round" stroke-linejoin="round"/>
</svg>
