<svg width="27" height="27" viewBox="0 0 27 27" fill="none" xmlns="http://www.w3.org/2000/svg">
<path d="M20.25 8.4375V11.8125M20.25 11.8125V15.1875M20.25 11.8125H23.625M20.25 11.8125H16.875M14.3438 7.17188C14.3438 9.26883 12.6438 10.9688 10.5469 10.9688C8.44992 10.9688 6.75 9.26883 6.75 7.17188C6.75 5.07492 8.44992 3.375 10.5469 3.375C12.6438 3.375 14.3438 5.07492 14.3438 7.17188ZM3.37604 21.6386C3.37535 21.5977 3.375 21.5567 3.375 21.5156C3.375 17.5547 6.58596 14.3438 10.5469 14.3438C14.5078 14.3438 17.7188 17.5547 17.7188 21.5156V21.5185C17.7187 21.5586 17.7184 21.5987 17.7177 21.6386C15.6233 22.8997 13.1698 23.625 10.5469 23.625C7.92397 23.625 5.47047 22.8997 3.37604 21.6386Z" stroke="#242423" stroke-width="1.5" stroke-linecap="round" stroke-linejoin="round"/>
</svg>
