<svg width="27" height="27" viewBox="0 0 27 27" fill="none" xmlns="http://www.w3.org/2000/svg">
<path d="M16.875 21.5185C17.8121 21.7913 18.803 21.9375 19.8281 21.9375C21.4917 21.9375 23.0653 21.5523 24.4647 20.8663C24.4674 20.8018 24.4687 20.737 24.4687 20.6719C24.4687 18.1089 22.391 16.0312 19.8281 16.0312C18.2328 16.0312 16.8255 16.8362 15.9903 18.0621M16.875 21.5185V21.5156C16.875 20.2636 16.5542 19.0865 15.9903 18.0621M16.875 21.5185C16.875 21.5586 16.8746 21.5987 16.874 21.6386C14.7795 22.8997 12.326 23.625 9.70312 23.625C7.08022 23.625 4.62672 22.8997 2.53229 21.6386C2.5316 21.5977 2.53125 21.5567 2.53125 21.5156C2.53125 17.5547 5.74221 14.3438 9.70312 14.3438C12.412 14.3438 14.7702 15.8456 15.9903 18.0621M13.5 7.17188C13.5 9.26883 11.8001 10.9688 9.70312 10.9688C7.60617 10.9688 5.90625 9.26883 5.90625 7.17188C5.90625 5.07492 7.60617 3.375 9.70312 3.375C11.8001 3.375 13.5 5.07492 13.5 7.17188ZM22.7812 9.70312C22.7812 11.3341 21.4591 12.6562 19.8281 12.6562C18.1972 12.6562 16.875 11.3341 16.875 9.70312C16.875 8.07216 18.1972 6.75 19.8281 6.75C21.4591 6.75 22.7812 8.07216 22.7812 9.70312Z" stroke="#242423" stroke-width="1.5" stroke-linecap="round" stroke-linejoin="round"/>
</svg>
