<svg width="27" height="27" viewBox="0 0 27 27" fill="none" xmlns="http://www.w3.org/2000/svg">
<path d="M8.79319 16.3872C8.5003 16.6801 8.5003 17.155 8.79319 17.4478C9.08608 17.7407 9.56096 17.7407 9.85385 17.4478L8.79319 16.3872ZM17.1459 17.4478C17.4388 17.7407 17.9137 17.7407 18.2065 17.4478C18.4994 17.155 18.4994 16.6801 18.2065 16.3872L17.1459 17.4478ZM5.21346 12.8074C4.92057 13.1003 4.92057 13.5752 5.21346 13.8681C5.50635 14.161 5.98123 14.161 6.27412 13.8681L5.21346 12.8074ZM20.7256 13.8681C21.0185 14.161 21.4934 14.161 21.7863 13.8681C22.0792 13.5752 22.0792 13.1003 21.7863 12.8074L20.7256 13.8681ZM1.63373 9.22761C1.34084 9.52051 1.34084 9.99538 1.63373 10.2883C1.92663 10.5812 2.4015 10.5812 2.69439 10.2883L1.63373 9.22761ZM24.3053 10.2883C24.5982 10.5812 25.0731 10.5812 25.366 10.2883C25.6589 9.99538 25.6589 9.52051 25.366 9.22761L24.3053 10.2883ZM14.0965 20.4972L14.6268 21.0275C14.9197 20.7346 14.9197 20.2598 14.6268 19.9669L14.0965 20.4972ZM13.4999 21.0938L12.9695 21.6241C13.1102 21.7648 13.301 21.8438 13.4999 21.8438C13.6988 21.8438 13.8895 21.7648 14.0302 21.6241L13.4999 21.0938ZM12.9032 20.4972L12.3729 19.9669C12.2323 20.1075 12.1532 20.2983 12.1532 20.4972C12.1532 20.6961 12.2323 20.8869 12.3729 21.0275L12.9032 20.4972ZM9.85385 17.4478C11.8675 15.4342 15.1322 15.4342 17.1459 17.4478L18.2065 16.3872C15.6071 13.7878 11.3926 13.7878 8.79319 16.3872L9.85385 17.4478ZM6.27412 13.8681C10.2648 9.87739 16.7349 9.87739 20.7256 13.8681L21.7863 12.8074C17.2098 8.23094 9.78992 8.23094 5.21346 12.8074L6.27412 13.8681ZM2.69439 10.2883C8.66209 4.32058 18.3376 4.32058 24.3053 10.2883L25.366 9.22761C18.8125 2.67413 8.18722 2.67413 1.63373 9.22761L2.69439 10.2883ZM13.5662 19.9669L12.9695 20.5635L14.0302 21.6241L14.6268 21.0275L13.5662 19.9669ZM13.4336 21.0275C13.4702 20.9909 13.5295 20.9909 13.5662 21.0275L14.6268 19.9669C14.0044 19.3445 12.9953 19.3445 12.3729 19.9669L13.4336 21.0275ZM14.0302 20.5635L13.4336 19.9669L12.3729 21.0275L12.9695 21.6241L14.0302 20.5635Z" fill="#242423"/>
</svg>
