<svg width="27" height="27" viewBox="0 0 27 27" fill="none" xmlns="http://www.w3.org/2000/svg">
<path d="M12.0964 19.1115L9.60045 21.6075V2.84321C9.60045 2.54187 9.43971 2.26351 9.17884 2.11293C8.91796 1.96236 8.59649 1.96236 8.33562 2.11293C8.07475 2.26351 7.91401 2.54188 7.91401 2.84321V21.6075L5.41803 19.1115C5.2029 18.9109 4.89875 18.8371 4.61548 18.9165C4.33221 18.9959 4.11085 19.2173 4.03144 19.5006C3.95183 19.7838 4.0258 20.088 4.22625 20.3033L8.16134 24.2384V24.2382C8.31944 24.3961 8.53382 24.4848 8.75723 24.4848C8.98063 24.4848 9.19502 24.3961 9.35312 24.2382L13.2882 20.3031V20.3033C13.4887 20.088 13.5626 19.7838 13.483 19.5006C13.4036 19.2173 13.1822 18.9959 12.899 18.9165C12.6157 18.8371 12.3116 18.9109 12.0964 19.1115V19.1115Z" fill="#242423"/>
<path d="M22.2489 9.30797H19.7193L22.9798 3.24788C23.1219 2.98795 23.1174 2.67266 22.9678 2.41709C22.8179 2.1613 22.5452 2.00301 22.2489 2H18.3139C18.0127 2 17.7344 2.16074 17.5838 2.42161C17.433 2.68248 17.433 3.00396 17.5838 3.26483C17.7344 3.5257 18.0127 3.68644 18.3139 3.68644H20.8435L17.583 9.74654H17.5832C17.4409 10.0065 17.4454 10.3218 17.5952 10.5773C17.7449 10.8331 18.0178 10.9914 18.3139 10.9944H22.2489C22.5503 10.9944 22.8286 10.8337 22.9792 10.5728C23.1298 10.3119 23.1298 9.99045 22.9792 9.72958C22.8286 9.46871 22.5503 9.30797 22.2489 9.30797H22.2489Z" fill="#242423"/>
<path d="M20.2816 15.4902C19.536 15.4902 18.8212 15.7863 18.294 16.3135C17.7669 16.8405 17.4707 17.5554 17.4707 18.3009V23.6411C17.4707 23.9425 17.6314 24.2208 17.8923 24.3714C18.1532 24.522 18.4747 24.522 18.7355 24.3714C18.9964 24.2208 19.1571 23.9425 19.1571 23.6411V21.3925H21.4058V23.6411C21.4058 23.9425 21.5665 24.2208 21.8274 24.3714C22.0883 24.522 22.4098 24.522 22.6706 24.3714C22.9315 24.2208 23.0922 23.9425 23.0922 23.6411V18.3009C23.0922 17.5554 22.7962 16.8405 22.269 16.3135C21.7419 15.7863 21.0269 15.4902 20.2816 15.4902V15.4902ZM19.1573 19.7063L19.1571 18.3009C19.1571 17.8992 19.3715 17.5281 19.7194 17.3272C20.0672 17.1264 20.4957 17.1264 20.8436 17.3272C21.1914 17.5281 21.4058 17.8992 21.4058 18.3009V19.7063H19.1573Z" fill="#242423"/>
</svg>
