<svg width="18" height="18" viewBox="0 0 18 18" fill="none" xmlns="http://www.w3.org/2000/svg">
<path d="M3.78841 10.7558H6.78953L7.55155 14.0547H9.24392L6.76974 3.33325H3.80749L1.33331 14.0547H3.02648L3.78841 10.7558ZM5.45686 4.98271L6.40859 9.10634H4.16787L5.11961 4.98271H5.45686Z" fill="#242423"/>
<path d="M15.8419 7.45679V8.59494C15.2374 7.90299 14.3582 7.45679 13.3677 7.45679C11.5459 7.45679 10.0688 8.93387 10.0688 10.7557C10.0688 12.5775 11.5459 14.0546 13.3677 14.0546C14.3582 14.0546 15.2374 13.6084 15.8419 12.9165V14.0546H16.6666V7.45679H15.8419ZM13.3677 12.4051C12.4573 12.4051 11.7182 11.6661 11.7182 10.7557C11.7182 9.84526 12.4573 9.10624 13.3677 9.10624C14.2773 9.10624 15.0171 9.84526 15.0171 10.7557C15.0171 11.6661 14.2773 12.4051 13.3677 12.4051Z" fill="#242423"/>
</svg>
