<svg width="16" height="15" viewBox="0 0 16 15" fill="none" xmlns="http://www.w3.org/2000/svg">
<path d="M6.80291 10.9779L6.81326 10.9879M6.80291 10.9779C6.54157 11.2295 6.39473 11.5709 6.39473 11.927C6.39473 12.2829 6.54157 12.6243 6.80291 12.876C7.06439 13.1278 7.41893 13.2692 7.78853 13.2692C8.15812 13.2692 8.51265 13.1278 8.77414 12.876C9.03548 12.6243 9.18233 12.2829 9.18233 11.927C9.18233 11.571 9.03548 11.2296 8.77414 10.9779M6.80291 10.9779C7.0644 10.7262 7.41893 10.5848 7.78853 10.5848M8.77414 10.9779L8.76483 10.9869M8.77414 10.9779C8.51267 10.7262 8.15812 10.5848 7.78853 10.5848M7.78853 10.5848L7.75443 7.48188M12.3858 4.41528C12.0161 4.41528 11.6615 4.27387 11.4002 4.02222C11.1389 3.77056 10.992 3.42917 10.992 3.07311C10.992 2.7172 11.1389 2.3758 11.4002 2.12416C11.6615 1.87235 12.0161 1.73094 12.3858 1.73094C12.7554 1.73094 13.11 1.87235 13.3713 2.12416C13.6328 2.37582 13.7796 2.71721 13.7796 3.07311C13.7796 3.42918 13.6328 3.77058 13.3713 4.02222C13.1099 4.27387 12.7554 4.41528 12.3858 4.41528ZM12.3858 4.41528C12.3858 4.41528 12.3858 4.92052 12.3858 5.2454C12.3858 6.0187 12.0376 6.51259 11.4002 6.98384C10.8286 7.40646 9.62821 7.48188 9.62821 7.48188H7.75443M3.19116 4.41505C2.82156 4.41505 2.46702 4.27364 2.20571 4.02198C1.94421 3.77033 1.79736 3.42894 1.79736 3.07288C1.79736 2.71697 1.94421 2.37557 2.2057 2.12393C2.46704 1.87212 2.82157 1.73071 3.19116 1.73071C3.56092 1.73071 3.91546 1.87212 4.17678 2.12393C4.43811 2.37559 4.58496 2.71698 4.58496 3.07288C4.58496 3.42894 4.43811 3.77035 4.17678 4.02199C3.91544 4.27362 3.56092 4.41505 3.19116 4.41505ZM3.19116 4.41505C3.19116 4.41505 3.19116 4.89206 3.19116 5.21502C3.19116 6.01185 3.58282 6.50964 4.24852 6.98384C4.8065 7.38131 5.94938 7.48188 5.94938 7.48188H7.75443" stroke="#A3A3A3" stroke-linecap="round" stroke-linejoin="round"/>
</svg>
