<svg width="24" height="24" viewBox="0 0 24 24" fill="none" xmlns="http://www.w3.org/2000/svg">
<path d="M9.91375 7.16314C10.2031 7.597 10.3766 7.91389 10.6177 8.37313C10.6622 8.45786 10.4694 8.62674 10.4889 8.71966M15.6908 14.0569C16.4107 14.3187 16.6921 14.3873 17.4131 14.6462M7.44856 17.2594C8.30874 16.5081 8.70591 15.9141 9.43154 15.0472C9.53912 14.9186 9.64836 14.7878 9.71442 14.6462M16.3556 11.9789C16.3556 14.0361 14.6045 15.7038 12.4444 15.7038C10.2844 15.7038 8.53333 14.0361 8.53333 11.9789C8.53333 9.92173 10.2844 8.25405 12.4444 8.25405C14.6045 8.25405 16.3556 9.92173 16.3556 11.9789ZM11.4667 4.99479C11.4667 6.28053 10.3722 7.32283 9.02222 7.32283C7.67219 7.32283 6.57778 6.28053 6.57778 4.99479C6.57778 3.70905 7.67219 2.66675 9.02222 2.66675C10.3722 2.66675 11.4667 3.70905 11.4667 4.99479ZM22.2222 15.2382C22.2222 16.5239 21.1278 17.5662 19.7778 17.5662C18.4277 17.5662 17.3333 16.5239 17.3333 15.2382C17.3333 13.9524 18.4277 12.9101 19.7778 12.9101C21.1278 12.9101 22.2222 13.9524 22.2222 15.2382ZM8.53333 19.4287C8.53333 20.9715 7.22003 22.2223 5.6 22.2223C3.97996 22.2223 2.66666 20.9715 2.66666 19.4287C2.66666 17.8858 3.97996 16.635 5.6 16.635C7.22003 16.635 8.53333 17.8858 8.53333 19.4287Z" stroke="#242423" stroke-width="1.5" stroke-linecap="round"/>
</svg>
