<svg width="20" height="20" viewBox="0 0 20 20" fill="none" xmlns="http://www.w3.org/2000/svg">
<path d="M9.07232 5.93191C8.81926 6.04244 8.70373 6.33719 8.81427 6.59024C8.9248 6.8433 9.21955 6.95883 9.47261 6.84829L9.07232 5.93191ZM9.37036 6.34734L9.5705 6.80553L9.57051 6.80553L9.37036 6.34734ZM11.8786 8.10518L12.3593 8.24274L12.3593 8.24274L11.8786 8.10518ZM10.2057 13.9515L9.72496 13.814L9.72496 13.814L10.2057 13.9515ZM12.7139 15.7094L12.9141 16.1676L12.9141 16.1676L12.7139 15.7094ZM13.012 16.1248C13.265 16.0143 13.3806 15.7195 13.27 15.4665C13.1595 15.2134 12.8647 15.0979 12.6117 15.2084L13.012 16.1248ZM9.47261 6.84829L9.5705 6.80553L9.17021 5.88914L9.07232 5.93191L9.47261 6.84829ZM11.3979 7.96762L9.72496 13.814L10.6864 14.0891L12.3593 8.24274L11.3979 7.96762ZM12.9141 16.1676L13.012 16.1248L12.6117 15.2084L12.5138 15.2512L12.9141 16.1676ZM9.72496 13.814C9.47157 14.6995 9.88618 15.492 10.5282 15.942C11.1667 16.3894 12.0693 16.5366 12.9141 16.1676L12.5138 15.2512C12.0063 15.4729 11.4714 15.3818 11.1021 15.1231C10.7364 14.8668 10.5731 14.4851 10.6864 14.0891L9.72496 13.814ZM9.57051 6.80553C10.078 6.58385 10.6129 6.67487 10.9822 6.93365C11.3479 7.18993 11.5112 7.57164 11.3979 7.96762L12.3593 8.24274C12.6127 7.35726 12.1981 6.56468 11.5561 6.11473C10.9176 5.66727 10.015 5.5201 9.17021 5.88914L9.57051 6.80553Z" fill="#6366F1"/>
<path d="M11.0599 3.06506C11.6122 3.06506 12.0599 2.61735 12.0599 2.06506C12.0599 1.51278 11.6122 1.06506 11.0599 1.06506V3.06506ZM11.0422 1.06506C10.49 1.06506 10.0422 1.51278 10.0422 2.06506C10.0422 2.61735 10.49 3.06506 11.0422 3.06506V1.06506ZM11.0599 1.06506H11.0422V3.06506H11.0599V1.06506Z" fill="#6366F1"/>
</svg>
