<svg width="238" height="93" viewBox="0 0 238 93" fill="none" xmlns="http://www.w3.org/2000/svg">
<path d="M44.2236 7.38596C44.2236 9.88417 42.1929 11.9094 39.6878 11.9094C37.1828 11.9094 35.152 9.88417 35.152 7.38596C35.152 4.88776 37.1828 2.86257 39.6878 2.86257C42.1929 2.86257 44.2236 4.88776 44.2236 7.38596Z" fill="url(#paint0_linear_240_3861)"/>
<path d="M72.7726 85.0819C72.7726 86.4044 71.6975 87.4766 70.3713 87.4766C69.0451 87.4766 67.97 86.4044 67.97 85.0819C67.97 83.7593 69.0451 82.6871 70.3713 82.6871C71.6975 82.6871 72.7726 83.7593 72.7726 85.0819Z" fill="url(#paint1_linear_240_3861)"/>
<path d="M33.2843 38.1184C33.2843 39.2206 32.3884 40.114 31.2832 40.114C30.1781 40.114 29.2821 39.2206 29.2821 38.1184C29.2821 37.0163 30.1781 36.1228 31.2832 36.1228C32.3884 36.1228 33.2843 37.0163 33.2843 38.1184Z" fill="url(#paint2_linear_240_3861)"/>
<path d="M78.3757 90.2705C78.3757 91.2257 77.5992 92 76.6414 92C75.6836 92 74.9071 91.2257 74.9071 90.2705C74.9071 89.3153 75.6836 88.5409 76.6414 88.5409C77.5992 88.5409 78.3757 89.3153 78.3757 90.2705Z" fill="url(#paint3_linear_240_3861)"/>
<path d="M89.8486 26.5439C89.8486 27.7195 88.893 28.6725 87.7141 28.6725C86.5353 28.6725 85.5796 27.7195 85.5796 26.5439C85.5796 25.3682 86.5353 24.4152 87.7141 24.4152C88.893 24.4152 89.8486 25.3682 89.8486 26.5439Z" fill="url(#paint4_linear_240_3861)"/>
<path d="M84.7792 48.4956C84.7792 49.5978 83.8833 50.4912 82.7781 50.4912C81.6729 50.4912 80.777 49.5978 80.777 48.4956C80.777 47.3935 81.6729 46.5 82.7781 46.5C83.8833 46.5 84.7792 47.3935 84.7792 48.4956Z" fill="url(#paint5_linear_240_3861)"/>
<path d="M43.1564 49.0278C43.1564 50.1299 42.2605 51.0234 41.1553 51.0234C40.0501 51.0234 39.1542 50.1299 39.1542 49.0278C39.1542 47.9256 40.0501 47.0322 41.1553 47.0322C42.2605 47.0322 43.1564 47.9256 43.1564 49.0278Z" fill="url(#paint6_linear_240_3861)"/>
<path d="M22.8786 50.6243C22.8786 51.7264 21.9827 52.6199 20.8775 52.6199C19.7724 52.6199 18.8764 51.7264 18.8764 50.6243C18.8764 49.5221 19.7724 48.6287 20.8775 48.6287C21.9827 48.6287 22.8786 49.5221 22.8786 50.6243Z" fill="url(#paint7_linear_240_3861)"/>
<path d="M98.6534 42.6418C98.6534 44.1848 97.3991 45.4357 95.8519 45.4357C94.3047 45.4357 93.0504 44.1848 93.0504 42.6418C93.0504 41.0988 94.3047 39.848 95.8519 39.848C97.3991 39.848 98.6534 41.0988 98.6534 42.6418Z" fill="url(#paint8_linear_240_3861)"/>
<path d="M77.0416 41.3114C77.0416 42.4136 76.1457 43.307 75.0405 43.307C73.9353 43.307 73.0394 42.4136 73.0394 41.3114C73.0394 40.2093 73.9353 39.3158 75.0405 39.3158C76.1457 39.3158 77.0416 40.2093 77.0416 41.3114Z" fill="url(#paint9_linear_240_3861)"/>
<path d="M69.8377 59.405C69.8377 60.5071 68.9417 61.4006 67.8366 61.4006C66.7314 61.4006 65.8355 60.5071 65.8355 59.405C65.8355 58.3028 66.7314 57.4094 67.8366 57.4094C68.9417 57.4094 69.8377 58.3028 69.8377 59.405Z" fill="url(#paint10_linear_240_3861)"/>
<path d="M78.9093 81.8889C78.9093 83.2115 77.8342 84.2836 76.508 84.2836C75.1818 84.2836 74.1067 83.2115 74.1067 81.8889C74.1067 80.5663 75.1818 79.4942 76.508 79.4942C77.8342 79.4942 78.9093 80.5663 78.9093 81.8889Z" fill="url(#paint11_linear_240_3861)"/>
<path d="M72.7726 51.0234C72.7726 52.7868 71.3391 54.2164 69.5709 54.2164C67.8026 54.2164 66.3691 52.7868 66.3691 51.0234C66.3691 49.26 67.8026 47.8304 69.5709 47.8304C71.3391 47.8304 72.7726 49.26 72.7726 51.0234Z" fill="url(#paint12_linear_240_3861)"/>
<path d="M94.3844 55.8129C94.3844 58.1641 92.4731 60.0702 90.1154 60.0702C87.7577 60.0702 85.8464 58.1641 85.8464 55.8129C85.8464 53.4616 87.7577 51.5556 90.1154 51.5556C92.4731 51.5556 94.3844 53.4616 94.3844 55.8129Z" fill="url(#paint13_linear_240_3861)"/>
<path d="M111.46 34.2602C111.46 36.7584 109.43 38.7836 106.925 38.7836C104.42 38.7836 102.389 36.7584 102.389 34.2602C102.389 31.762 104.42 29.7368 106.925 29.7368C109.43 29.7368 111.46 31.762 111.46 34.2602Z" fill="url(#paint14_linear_240_3861)"/>
<path d="M103.456 22.0205C103.456 24.5187 101.425 26.5439 98.9202 26.5439C96.4152 26.5439 94.3844 24.5187 94.3844 22.0205C94.3844 19.5223 96.4152 17.4971 98.9202 17.4971C101.425 17.4971 103.456 19.5223 103.456 22.0205Z" fill="url(#paint15_linear_240_3861)"/>
<path d="M113.328 50.8904C113.328 54.4907 110.401 57.4094 106.791 57.4094C103.181 57.4094 100.254 54.4907 100.254 50.8904C100.254 47.29 103.181 44.3713 106.791 44.3713C110.401 44.3713 113.328 47.29 113.328 50.8904Z" fill="url(#paint16_linear_240_3861)"/>
<path d="M100.788 68.3187C100.788 71.4047 98.2794 73.9064 95.1849 73.9064C92.0904 73.9064 89.5818 71.4047 89.5818 68.3187C89.5818 65.2327 92.0904 62.731 95.1849 62.731C98.2794 62.731 100.788 65.2327 100.788 68.3187Z" fill="url(#paint17_linear_240_3861)"/>
<path d="M85.046 67.6535C85.046 71.1069 82.2388 73.9064 78.7759 73.9064C75.313 73.9064 72.5058 71.1069 72.5058 67.6535C72.5058 64.2001 75.313 61.4006 78.7759 61.4006C82.2388 61.4006 85.046 64.2001 85.046 67.6535Z" fill="url(#paint18_linear_240_3861)"/>
<path d="M73.0394 75.5029C73.0394 77.8542 71.1281 79.7602 68.7704 79.7602C66.4127 79.7602 64.5014 77.8542 64.5014 75.5029C64.5014 73.1517 66.4127 71.2456 68.7704 71.2456C71.1281 71.2456 73.0394 73.1517 73.0394 75.5029Z" fill="url(#paint19_linear_240_3861)"/>
<path d="M47.4254 67.9196C47.4254 70.0504 45.6933 71.7778 43.5566 71.7778C41.4199 71.7778 39.6878 70.0504 39.6878 67.9196C39.6878 65.7888 41.4199 64.0614 43.5566 64.0614C45.6933 64.0614 47.4254 65.7888 47.4254 67.9196Z" fill="url(#paint20_linear_240_3861)"/>
<path d="M64.7682 66.057C64.7682 69.5104 61.961 72.3099 58.4981 72.3099C55.0352 72.3099 52.228 69.5104 52.228 66.057C52.228 62.6036 55.0352 59.8041 58.4981 59.8041C61.961 59.8041 64.7682 62.6036 64.7682 66.057Z" fill="url(#paint21_linear_240_3861)"/>
<path d="M35.6856 46.8991C35.6856 49.0299 33.9535 50.7573 31.8169 50.7573C29.6802 50.7573 27.9481 49.0299 27.9481 46.8991C27.9481 44.7683 29.6802 43.0409 31.8169 43.0409C33.9535 43.0409 35.6856 44.7683 35.6856 46.8991Z" fill="url(#paint22_linear_240_3861)"/>
<path d="M20.2105 42.5088C20.2105 44.2722 18.777 45.7018 17.0088 45.7018C15.2405 45.7018 13.807 44.2722 13.807 42.5088C13.807 40.7453 15.2405 39.3158 17.0088 39.3158C18.777 39.3158 20.2105 40.7453 20.2105 42.5088Z" fill="url(#paint23_linear_240_3861)"/>
<path d="M10.3384 45.4357C10.3384 47.9339 8.30769 49.9591 5.80263 49.9591C3.29757 49.9591 1.26681 47.9339 1.26681 45.4357C1.26681 42.9375 3.29757 40.9123 5.80263 40.9123C8.30769 40.9123 10.3384 42.9375 10.3384 45.4357Z" fill="url(#paint24_linear_240_3861)"/>
<path d="M23.9459 61.1345C23.9459 63.1918 22.2138 64.8596 20.0771 64.8596C17.9404 64.8596 16.2083 63.1918 16.2083 61.1345C16.2083 59.0772 17.9404 57.4094 20.0771 57.4094C22.2138 57.4094 23.9459 59.0772 23.9459 61.1345Z" fill="url(#paint25_linear_240_3861)"/>
<path d="M12.4729 57.4094C12.4729 60.0545 10.3227 62.1988 7.67032 62.1988C5.0179 62.1988 2.86769 60.0545 2.86769 57.4094C2.86769 54.7642 5.0179 52.6199 7.67032 52.6199C10.3227 52.6199 12.4729 54.7642 12.4729 57.4094Z" fill="url(#paint26_linear_240_3861)"/>
<path d="M57.5643 49.4269C57.5643 52.219 55.2946 54.4825 52.4948 54.4825C49.6951 54.4825 47.4254 52.219 47.4254 49.4269C47.4254 46.6348 49.6951 44.3713 52.4948 44.3713C55.2946 44.3713 57.5643 46.6348 57.5643 49.4269Z" fill="url(#paint27_linear_240_3861)"/>
<path d="M38.8874 59.405C38.8874 62.4175 36.4385 64.8596 33.4177 64.8596C30.3969 64.8596 27.9481 62.4175 27.9481 59.405C27.9481 56.3924 30.3969 53.9503 33.4177 53.9503C36.4385 53.9503 38.8874 56.3924 38.8874 59.405Z" fill="url(#paint28_linear_240_3861)"/>
<path d="M90.3822 37.3202C90.3822 39.451 88.6501 41.1784 86.5135 41.1784C84.3768 41.1784 82.6447 39.451 82.6447 37.3202C82.6447 35.1894 84.3768 33.462 86.5135 33.462C88.6501 33.462 90.3822 35.1894 90.3822 37.3202Z" fill="url(#paint29_linear_240_3861)"/>
<path d="M68.5036 40.7792C68.5036 43.057 66.652 44.9035 64.368 44.9035C62.084 44.9035 60.2324 43.057 60.2324 40.7792C60.2324 38.5015 62.084 36.655 64.368 36.655C66.652 36.655 68.5036 38.5015 68.5036 40.7792Z" fill="url(#paint30_linear_240_3861)"/>
<path d="M56.497 36.655C56.497 37.8306 55.5414 38.7836 54.3625 38.7836C53.1837 38.7836 52.228 37.8306 52.228 36.655C52.228 35.4793 53.1837 34.5263 54.3625 34.5263C55.5414 34.5263 56.497 35.4793 56.497 36.655Z" fill="url(#paint31_linear_240_3861)"/>
<path d="M36.2193 20.0249C36.2193 21.127 35.3233 22.0205 34.2182 22.0205C33.113 22.0205 32.2171 21.127 32.2171 20.0249C32.2171 18.9227 33.113 18.0292 34.2182 18.0292C35.3233 18.0292 36.2193 18.9227 36.2193 20.0249Z" fill="url(#paint32_linear_240_3861)"/>
<path d="M17.5424 20.557C17.5424 22.247 16.1686 23.617 14.474 23.617C12.7794 23.617 11.4057 22.247 11.4057 20.557C11.4057 18.8671 12.7794 17.4971 14.474 17.4971C16.1686 17.4971 17.5424 18.8671 17.5424 20.557Z" fill="url(#paint33_linear_240_3861)"/>
<path d="M75.9744 6.8538C75.9744 9.0581 74.1825 10.845 71.9722 10.845C69.7618 10.845 67.97 9.0581 67.97 6.8538C67.97 4.64951 69.7618 2.86257 71.9722 2.86257C74.1825 2.86257 75.9744 4.64951 75.9744 6.8538Z" fill="url(#paint34_linear_240_3861)"/>
<path d="M69.0372 17.6301C69.0372 18.8792 68.0218 19.8918 66.7693 19.8918C65.5168 19.8918 64.5014 18.8792 64.5014 17.6301C64.5014 16.381 65.5168 15.3684 66.7693 15.3684C68.0218 15.3684 69.0372 16.381 69.0372 17.6301Z" fill="url(#paint35_linear_240_3861)"/>
<path d="M89.8486 14.038C89.8486 17.124 87.34 19.6257 84.2455 19.6257C81.1511 19.6257 78.6425 17.124 78.6425 14.038C78.6425 10.952 81.1511 8.45029 84.2455 8.45029C87.34 8.45029 89.8486 10.952 89.8486 14.038Z" fill="url(#paint36_linear_240_3861)"/>
<path d="M81.3106 27.6082C81.3106 30.6942 78.802 33.1959 75.7075 33.1959C72.6131 33.1959 70.1045 30.6942 70.1045 27.6082C70.1045 24.5222 72.6131 22.0205 75.7075 22.0205C78.802 22.0205 81.3106 24.5222 81.3106 27.6082Z" fill="url(#paint37_linear_240_3861)"/>
<path d="M48.4927 36.788C48.4927 40.0945 45.8049 42.7749 42.4894 42.7749C39.1738 42.7749 36.4861 40.0945 36.4861 36.788C36.4861 33.4816 39.1738 30.8012 42.4894 30.8012C45.8049 30.8012 48.4927 33.4816 48.4927 36.788Z" fill="url(#paint38_linear_240_3861)"/>
<path d="M14.3406 32.3977C14.3406 36.0715 11.3542 39.0497 7.67032 39.0497C3.9864 39.0497 1 36.0715 1 32.3977C1 28.7238 3.9864 25.7456 7.67032 25.7456C11.3542 25.7456 14.3406 28.7238 14.3406 32.3977Z" fill="url(#paint39_linear_240_3861)"/>
<path d="M62.6337 6.98684C62.6337 10.2933 59.946 12.9737 56.6304 12.9737C53.3149 12.9737 50.6272 10.2933 50.6272 6.98684C50.6272 3.6804 53.3149 1 56.6304 1C59.946 1 62.6337 3.6804 62.6337 6.98684Z" fill="url(#paint40_linear_240_3861)"/>
<path d="M32.2171 29.0716C32.2171 32.0842 29.7682 34.5263 26.7474 34.5263C23.7266 34.5263 21.2778 32.0842 21.2778 29.0716C21.2778 26.0591 23.7266 23.617 26.7474 23.617C29.7682 23.617 32.2171 26.0591 32.2171 29.0716Z" fill="url(#paint41_linear_240_3861)"/>
<path d="M29.549 14.4371C29.549 16.568 27.8168 18.2953 25.6802 18.2953C23.5435 18.2953 21.8114 16.568 21.8114 14.4371C21.8114 12.3063 23.5435 10.5789 25.6802 10.5789C27.8168 10.5789 29.549 12.3063 29.549 14.4371Z" fill="url(#paint42_linear_240_3861)"/>
<path d="M49.5599 20.8231C49.5599 23.2478 47.5889 25.2135 45.1575 25.2135C42.7261 25.2135 40.7551 23.2478 40.7551 20.8231C40.7551 18.3984 42.7261 16.4327 45.1575 16.4327C47.5889 16.4327 49.5599 18.3984 49.5599 20.8231Z" fill="url(#paint43_linear_240_3861)"/>
<path d="M64.5014 26.8099C64.5014 29.3081 62.4707 31.3333 59.9656 31.3333C57.4605 31.3333 55.4298 29.3081 55.4298 26.8099C55.4298 24.3117 57.4605 22.2865 59.9656 22.2865C62.4707 22.2865 64.5014 24.3117 64.5014 26.8099Z" fill="url(#paint44_linear_240_3861)"/>
<path d="M13.3935 19.6161L25.4784 28.199M7.55916 32.2739L26.5029 29.0809M7.00209 32.4375L6.20165 45.7416M7.00394 58.2371L6.47032 46.2635M7.36772 58.1272L16.973 42.4284M16.738 42.6471L26.3433 29.6091M31.3711 37.7832L27.1021 30.333M31.9224 37.6209L20.4494 50.925M20.0778 62.1679L20.6115 50.7264M19.8925 61.0034L33.7668 59.9391M41.2786 49.0408L33.2742 59.152M40.7551 49.2939H54.8962M42.8315 68.5437L52.9704 49.1198M43.1213 67.3883L58.3297 66.5901M67.7945 59.5671L58.9896 65.1548M67.5912 58.7565L77.7301 67.005M68.3673 75.7712L76.1048 69.9174M69.6987 79.4081L70.4991 85.528M76.0528 90.3576L72.0507 86.6325M76.6418 89.8935L76.3749 81.911M77.9737 67.3026L76.9064 81.9371M79.5838 66.0904L82.252 48.529M71.0409 50.9033L83.0475 48.5085M70.3193 50.1727L75.122 41.392M84.248 37.7957L75.1763 41.787M87.0483 35.5504L87.5819 26.7697M99.462 21.5622L88.2559 26.6178M98.3357 21.8071L85.5287 14.889M99.201 22.971L107.739 35.2108M95.8606 42.5024L106.533 34.786M95.7838 43.3337L89.1135 56.9039M94.5603 67.2219L90.5581 56.5786M96.5067 66.0739L105.311 53.568M87.6016 26.443L84.9335 16.0658M25.947 14.5702V28.6725M39.7735 7.13891L45.1098 20.443M57.017 6.20615L45.0104 21.1067M56.7248 6.40751L66.8637 17.5829M39.7326 7.44197L25.5915 14.8923M72.0463 7.12798L66.9768 18.3034M60.2266 26.6848L66.6301 17.9041M60.497 27.4187L44.7551 20.5005M42.4969 37.3536L45.165 19.7922M43.1564 36.788H54.3625M64.2387 40.7255L54.9002 36.7342M64.5293 40.4785L76.0022 27.1744M66.3071 17.2928L76.1792 27.1378M71.5167 6.55052L84.3237 14.2669M44.2236 7.38596C44.2236 9.88417 42.1929 11.9094 39.6878 11.9094C37.1828 11.9094 35.152 9.88417 35.152 7.38596C35.152 4.88776 37.1828 2.86257 39.6878 2.86257C42.1929 2.86257 44.2236 4.88776 44.2236 7.38596ZM72.7726 85.0819C72.7726 86.4044 71.6975 87.4766 70.3713 87.4766C69.0451 87.4766 67.97 86.4044 67.97 85.0819C67.97 83.7593 69.0451 82.6871 70.3713 82.6871C71.6975 82.6871 72.7726 83.7593 72.7726 85.0819ZM33.2843 38.1184C33.2843 39.2206 32.3884 40.114 31.2832 40.114C30.1781 40.114 29.2821 39.2206 29.2821 38.1184C29.2821 37.0163 30.1781 36.1228 31.2832 36.1228C32.3884 36.1228 33.2843 37.0163 33.2843 38.1184ZM78.3757 90.2705C78.3757 91.2257 77.5992 92 76.6414 92C75.6836 92 74.9071 91.2257 74.9071 90.2705C74.9071 89.3153 75.6836 88.5409 76.6414 88.5409C77.5992 88.5409 78.3757 89.3153 78.3757 90.2705ZM89.8486 26.5439C89.8486 27.7195 88.893 28.6725 87.7141 28.6725C86.5353 28.6725 85.5796 27.7195 85.5796 26.5439C85.5796 25.3682 86.5353 24.4152 87.7141 24.4152C88.893 24.4152 89.8486 25.3682 89.8486 26.5439ZM84.7792 48.4956C84.7792 49.5978 83.8833 50.4912 82.7781 50.4912C81.6729 50.4912 80.777 49.5978 80.777 48.4956C80.777 47.3935 81.6729 46.5 82.7781 46.5C83.8833 46.5 84.7792 47.3935 84.7792 48.4956ZM43.1564 49.0278C43.1564 50.1299 42.2605 51.0234 41.1553 51.0234C40.0501 51.0234 39.1542 50.1299 39.1542 49.0278C39.1542 47.9256 40.0501 47.0322 41.1553 47.0322C42.2605 47.0322 43.1564 47.9256 43.1564 49.0278ZM22.8786 50.6243C22.8786 51.7264 21.9827 52.6199 20.8775 52.6199C19.7724 52.6199 18.8764 51.7264 18.8764 50.6243C18.8764 49.5221 19.7724 48.6287 20.8775 48.6287C21.9827 48.6287 22.8786 49.5221 22.8786 50.6243ZM98.6534 42.6418C98.6534 44.1848 97.3991 45.4357 95.8519 45.4357C94.3047 45.4357 93.0504 44.1848 93.0504 42.6418C93.0504 41.0988 94.3047 39.848 95.8519 39.848C97.3991 39.848 98.6534 41.0988 98.6534 42.6418ZM77.0416 41.3114C77.0416 42.4136 76.1457 43.307 75.0405 43.307C73.9353 43.307 73.0394 42.4136 73.0394 41.3114C73.0394 40.2093 73.9353 39.3158 75.0405 39.3158C76.1457 39.3158 77.0416 40.2093 77.0416 41.3114ZM69.8377 59.405C69.8377 60.5071 68.9417 61.4006 67.8366 61.4006C66.7314 61.4006 65.8355 60.5071 65.8355 59.405C65.8355 58.3028 66.7314 57.4094 67.8366 57.4094C68.9417 57.4094 69.8377 58.3028 69.8377 59.405ZM78.9093 81.8889C78.9093 83.2115 77.8342 84.2836 76.508 84.2836C75.1818 84.2836 74.1067 83.2115 74.1067 81.8889C74.1067 80.5663 75.1818 79.4942 76.508 79.4942C77.8342 79.4942 78.9093 80.5663 78.9093 81.8889ZM72.7726 51.0234C72.7726 52.7868 71.3391 54.2164 69.5709 54.2164C67.8026 54.2164 66.3691 52.7868 66.3691 51.0234C66.3691 49.26 67.8026 47.8304 69.5709 47.8304C71.3391 47.8304 72.7726 49.26 72.7726 51.0234ZM94.3844 55.8129C94.3844 58.1641 92.4731 60.0702 90.1154 60.0702C87.7577 60.0702 85.8464 58.1641 85.8464 55.8129C85.8464 53.4616 87.7577 51.5556 90.1154 51.5556C92.4731 51.5556 94.3844 53.4616 94.3844 55.8129ZM111.46 34.2602C111.46 36.7584 109.43 38.7836 106.925 38.7836C104.42 38.7836 102.389 36.7584 102.389 34.2602C102.389 31.762 104.42 29.7368 106.925 29.7368C109.43 29.7368 111.46 31.762 111.46 34.2602ZM103.456 22.0205C103.456 24.5187 101.425 26.5439 98.9202 26.5439C96.4152 26.5439 94.3844 24.5187 94.3844 22.0205C94.3844 19.5223 96.4152 17.4971 98.9202 17.4971C101.425 17.4971 103.456 19.5223 103.456 22.0205ZM113.328 50.8904C113.328 54.4907 110.401 57.4094 106.791 57.4094C103.181 57.4094 100.254 54.4907 100.254 50.8904C100.254 47.29 103.181 44.3713 106.791 44.3713C110.401 44.3713 113.328 47.29 113.328 50.8904ZM100.788 68.3187C100.788 71.4047 98.2794 73.9064 95.1849 73.9064C92.0904 73.9064 89.5818 71.4047 89.5818 68.3187C89.5818 65.2327 92.0904 62.731 95.1849 62.731C98.2794 62.731 100.788 65.2327 100.788 68.3187ZM85.046 67.6535C85.046 71.1069 82.2388 73.9064 78.7759 73.9064C75.313 73.9064 72.5058 71.1069 72.5058 67.6535C72.5058 64.2001 75.313 61.4006 78.7759 61.4006C82.2388 61.4006 85.046 64.2001 85.046 67.6535ZM73.0394 75.5029C73.0394 77.8542 71.1281 79.7602 68.7704 79.7602C66.4127 79.7602 64.5014 77.8542 64.5014 75.5029C64.5014 73.1517 66.4127 71.2456 68.7704 71.2456C71.1281 71.2456 73.0394 73.1517 73.0394 75.5029ZM47.4254 67.9196C47.4254 70.0504 45.6933 71.7778 43.5566 71.7778C41.4199 71.7778 39.6878 70.0504 39.6878 67.9196C39.6878 65.7888 41.4199 64.0614 43.5566 64.0614C45.6933 64.0614 47.4254 65.7888 47.4254 67.9196ZM64.7682 66.057C64.7682 69.5104 61.961 72.3099 58.4981 72.3099C55.0352 72.3099 52.228 69.5104 52.228 66.057C52.228 62.6036 55.0352 59.8041 58.4981 59.8041C61.961 59.8041 64.7682 62.6036 64.7682 66.057ZM35.6856 46.8991C35.6856 49.0299 33.9535 50.7573 31.8169 50.7573C29.6802 50.7573 27.9481 49.0299 27.9481 46.8991C27.9481 44.7683 29.6802 43.0409 31.8169 43.0409C33.9535 43.0409 35.6856 44.7683 35.6856 46.8991ZM20.2105 42.5088C20.2105 44.2722 18.777 45.7018 17.0088 45.7018C15.2405 45.7018 13.807 44.2722 13.807 42.5088C13.807 40.7453 15.2405 39.3158 17.0088 39.3158C18.777 39.3158 20.2105 40.7453 20.2105 42.5088ZM10.3384 45.4357C10.3384 47.9339 8.30769 49.9591 5.80263 49.9591C3.29757 49.9591 1.26681 47.9339 1.26681 45.4357C1.26681 42.9375 3.29757 40.9123 5.80263 40.9123C8.30769 40.9123 10.3384 42.9375 10.3384 45.4357ZM23.9459 61.1345C23.9459 63.1918 22.2138 64.8596 20.0771 64.8596C17.9404 64.8596 16.2083 63.1918 16.2083 61.1345C16.2083 59.0772 17.9404 57.4094 20.0771 57.4094C22.2138 57.4094 23.9459 59.0772 23.9459 61.1345ZM12.4729 57.4094C12.4729 60.0545 10.3227 62.1988 7.67032 62.1988C5.0179 62.1988 2.86769 60.0545 2.86769 57.4094C2.86769 54.7642 5.0179 52.6199 7.67032 52.6199C10.3227 52.6199 12.4729 54.7642 12.4729 57.4094ZM57.5643 49.4269C57.5643 52.219 55.2946 54.4825 52.4948 54.4825C49.6951 54.4825 47.4254 52.219 47.4254 49.4269C47.4254 46.6348 49.6951 44.3713 52.4948 44.3713C55.2946 44.3713 57.5643 46.6348 57.5643 49.4269ZM38.8874 59.405C38.8874 62.4175 36.4385 64.8596 33.4177 64.8596C30.3969 64.8596 27.9481 62.4175 27.9481 59.405C27.9481 56.3924 30.3969 53.9503 33.4177 53.9503C36.4385 53.9503 38.8874 56.3924 38.8874 59.405ZM90.3822 37.3202C90.3822 39.451 88.6501 41.1784 86.5135 41.1784C84.3768 41.1784 82.6447 39.451 82.6447 37.3202C82.6447 35.1894 84.3768 33.462 86.5135 33.462C88.6501 33.462 90.3822 35.1894 90.3822 37.3202ZM68.5036 40.7792C68.5036 43.057 66.652 44.9035 64.368 44.9035C62.084 44.9035 60.2324 43.057 60.2324 40.7792C60.2324 38.5015 62.084 36.655 64.368 36.655C66.652 36.655 68.5036 38.5015 68.5036 40.7792ZM56.497 36.655C56.497 37.8306 55.5414 38.7836 54.3625 38.7836C53.1837 38.7836 52.228 37.8306 52.228 36.655C52.228 35.4793 53.1837 34.5263 54.3625 34.5263C55.5414 34.5263 56.497 35.4793 56.497 36.655ZM36.2193 20.0249C36.2193 21.127 35.3233 22.0205 34.2182 22.0205C33.113 22.0205 32.2171 21.127 32.2171 20.0249C32.2171 18.9227 33.113 18.0292 34.2182 18.0292C35.3233 18.0292 36.2193 18.9227 36.2193 20.0249ZM17.5424 20.557C17.5424 22.247 16.1686 23.617 14.474 23.617C12.7794 23.617 11.4057 22.247 11.4057 20.557C11.4057 18.8671 12.7794 17.4971 14.474 17.4971C16.1686 17.4971 17.5424 18.8671 17.5424 20.557ZM75.9744 6.8538C75.9744 9.0581 74.1825 10.845 71.9722 10.845C69.7618 10.845 67.97 9.0581 67.97 6.8538C67.97 4.64951 69.7618 2.86257 71.9722 2.86257C74.1825 2.86257 75.9744 4.64951 75.9744 6.8538ZM69.0372 17.6301C69.0372 18.8792 68.0218 19.8918 66.7693 19.8918C65.5168 19.8918 64.5014 18.8792 64.5014 17.6301C64.5014 16.381 65.5168 15.3684 66.7693 15.3684C68.0218 15.3684 69.0372 16.381 69.0372 17.6301ZM89.8486 14.038C89.8486 17.124 87.34 19.6257 84.2455 19.6257C81.1511 19.6257 78.6425 17.124 78.6425 14.038C78.6425 10.952 81.1511 8.45029 84.2455 8.45029C87.34 8.45029 89.8486 10.952 89.8486 14.038ZM81.3106 27.6082C81.3106 30.6942 78.802 33.1959 75.7075 33.1959C72.6131 33.1959 70.1045 30.6942 70.1045 27.6082C70.1045 24.5222 72.6131 22.0205 75.7075 22.0205C78.802 22.0205 81.3106 24.5222 81.3106 27.6082ZM48.4927 36.788C48.4927 40.0945 45.8049 42.7749 42.4894 42.7749C39.1738 42.7749 36.4861 40.0945 36.4861 36.788C36.4861 33.4816 39.1738 30.8012 42.4894 30.8012C45.8049 30.8012 48.4927 33.4816 48.4927 36.788ZM14.3406 32.3977C14.3406 36.0715 11.3542 39.0497 7.67032 39.0497C3.9864 39.0497 1 36.0715 1 32.3977C1 28.7238 3.9864 25.7456 7.67032 25.7456C11.3542 25.7456 14.3406 28.7238 14.3406 32.3977ZM62.6337 6.98684C62.6337 10.2933 59.946 12.9737 56.6304 12.9737C53.3149 12.9737 50.6272 10.2933 50.6272 6.98684C50.6272 3.6804 53.3149 1 56.6304 1C59.946 1 62.6337 3.6804 62.6337 6.98684ZM32.2171 29.0716C32.2171 32.0842 29.7682 34.5263 26.7474 34.5263C23.7266 34.5263 21.2778 32.0842 21.2778 29.0716C21.2778 26.0591 23.7266 23.617 26.7474 23.617C29.7682 23.617 32.2171 26.0591 32.2171 29.0716ZM29.549 14.4371C29.549 16.568 27.8168 18.2953 25.6802 18.2953C23.5435 18.2953 21.8114 16.568 21.8114 14.4371C21.8114 12.3063 23.5435 10.5789 25.6802 10.5789C27.8168 10.5789 29.549 12.3063 29.549 14.4371ZM49.5599 20.8231C49.5599 23.2478 47.5889 25.2135 45.1575 25.2135C42.7261 25.2135 40.7551 23.2478 40.7551 20.8231C40.7551 18.3984 42.7261 16.4327 45.1575 16.4327C47.5889 16.4327 49.5599 18.3984 49.5599 20.8231ZM64.5014 26.8099C64.5014 29.3081 62.4707 31.3333 59.9656 31.3333C57.4605 31.3333 55.4298 29.3081 55.4298 26.8099C55.4298 24.3117 57.4605 22.2865 59.9656 22.2865C62.4707 22.2865 64.5014 24.3117 64.5014 26.8099Z" stroke="url(#paint45_linear_240_3861)" stroke-width="1.5"/>
<path d="M160.694 62.1401H154.324L139.9 40.3456V62.1401H133.53V30.3356H139.9L154.324 52.1756V30.3356H160.694V62.1401Z" fill="url(#paint46_linear_240_3861)"/>
<path d="M178.182 62.5496C175.755 62.5496 173.571 62.0188 171.63 60.9571C169.688 59.8651 168.156 58.3333 167.034 56.3616C165.942 54.39 165.396 52.115 165.396 49.5366C165.396 46.9583 165.957 44.6833 167.08 42.7116C168.232 40.74 169.794 39.2233 171.766 38.1616C173.738 37.0696 175.937 36.5236 178.364 36.5236C180.79 36.5236 182.989 37.0696 184.961 38.1616C186.933 39.2233 188.48 40.74 189.602 42.7116C190.755 44.6833 191.331 46.9583 191.331 49.5366C191.331 52.115 190.74 54.39 189.557 56.3616C188.404 58.3333 186.827 59.8651 184.825 60.9571C182.853 62.0188 180.639 62.5496 178.182 62.5496ZM178.182 56.9986C179.334 56.9986 180.411 56.7256 181.412 56.1796C182.443 55.6033 183.262 54.754 183.869 53.6316C184.476 52.5093 184.779 51.1443 184.779 49.5366C184.779 47.1403 184.142 45.3051 182.868 44.0311C181.624 42.7268 180.093 42.0746 178.273 42.0746C176.453 42.0746 174.921 42.7268 173.677 44.0311C172.464 45.3051 171.857 47.1403 171.857 49.5366C171.857 51.933 172.449 53.7833 173.632 55.0876C174.845 56.3616 176.362 56.9986 178.182 56.9986ZM187.327 28.5156V33.0656H169.946V28.5156H187.327Z" fill="url(#paint47_linear_240_3861)"/>
<path d="M203.42 42.1656V54.3596C203.42 55.209 203.617 55.8308 204.012 56.2251C204.436 56.5891 205.134 56.7711 206.105 56.7711H209.062V62.1401H205.058C199.689 62.1401 197.005 59.5315 197.005 54.3141V42.1656H194.002V36.9331H197.005V30.6996H203.42V36.9331H209.062V42.1656H203.42Z" fill="url(#paint48_linear_240_3861)"/>
<path d="M224.837 62.5496C222.41 62.5496 220.226 62.0188 218.285 60.9571C216.344 59.8651 214.812 58.3333 213.689 56.3616C212.597 54.39 212.051 52.115 212.051 49.5366C212.051 46.9583 212.613 44.6833 213.735 42.7116C214.888 40.74 216.45 39.2233 218.421 38.1616C220.393 37.0696 222.592 36.5236 225.019 36.5236C227.446 36.5236 229.645 37.0696 231.616 38.1616C233.588 39.2233 235.135 40.74 236.257 42.7116C237.41 44.6833 237.986 46.9583 237.986 49.5366C237.986 52.115 237.395 54.39 236.212 56.3616C235.059 58.3333 233.482 59.8651 231.48 60.9571C229.508 62.0188 227.294 62.5496 224.837 62.5496ZM224.837 56.9986C225.99 56.9986 227.066 56.7256 228.067 56.1796C229.099 55.6033 229.918 54.754 230.524 53.6316C231.131 52.5093 231.434 51.1443 231.434 49.5366C231.434 47.1403 230.797 45.3051 229.523 44.0311C228.28 42.7268 226.748 42.0746 224.928 42.0746C223.108 42.0746 221.576 42.7268 220.332 44.0311C219.119 45.3051 218.512 47.1403 218.512 49.5366C218.512 51.933 219.104 53.7833 220.287 55.0876C221.5 56.3616 223.017 56.9986 224.837 56.9986Z" fill="url(#paint49_linear_240_3861)"/>
<defs>
<linearGradient id="paint0_linear_240_3861" x1="55.724" y1="25.6458" x2="55.724" y2="69.25" gradientUnits="userSpaceOnUse">
<stop stop-color="#1AC8FF"/>
<stop offset="1" stop-color="#6366F1"/>
<stop offset="1" stop-color="#818CF8"/>
<stop offset="1" stop-color="#818CF8"/>
</linearGradient>
<linearGradient id="paint1_linear_240_3861" x1="55.724" y1="25.6458" x2="55.724" y2="69.25" gradientUnits="userSpaceOnUse">
<stop stop-color="#1AC8FF"/>
<stop offset="1" stop-color="#6366F1"/>
<stop offset="1" stop-color="#818CF8"/>
<stop offset="1" stop-color="#818CF8"/>
</linearGradient>
<linearGradient id="paint2_linear_240_3861" x1="55.724" y1="25.6458" x2="55.724" y2="69.25" gradientUnits="userSpaceOnUse">
<stop stop-color="#1AC8FF"/>
<stop offset="1" stop-color="#6366F1"/>
<stop offset="1" stop-color="#818CF8"/>
<stop offset="1" stop-color="#818CF8"/>
</linearGradient>
<linearGradient id="paint3_linear_240_3861" x1="55.724" y1="25.6458" x2="55.724" y2="69.25" gradientUnits="userSpaceOnUse">
<stop stop-color="#1AC8FF"/>
<stop offset="1" stop-color="#6366F1"/>
<stop offset="1" stop-color="#818CF8"/>
<stop offset="1" stop-color="#818CF8"/>
</linearGradient>
<linearGradient id="paint4_linear_240_3861" x1="55.724" y1="25.6458" x2="55.724" y2="69.25" gradientUnits="userSpaceOnUse">
<stop stop-color="#1AC8FF"/>
<stop offset="1" stop-color="#6366F1"/>
<stop offset="1" stop-color="#818CF8"/>
<stop offset="1" stop-color="#818CF8"/>
</linearGradient>
<linearGradient id="paint5_linear_240_3861" x1="55.724" y1="25.6458" x2="55.724" y2="69.25" gradientUnits="userSpaceOnUse">
<stop stop-color="#1AC8FF"/>
<stop offset="1" stop-color="#6366F1"/>
<stop offset="1" stop-color="#818CF8"/>
<stop offset="1" stop-color="#818CF8"/>
</linearGradient>
<linearGradient id="paint6_linear_240_3861" x1="55.724" y1="25.6458" x2="55.724" y2="69.25" gradientUnits="userSpaceOnUse">
<stop stop-color="#1AC8FF"/>
<stop offset="1" stop-color="#6366F1"/>
<stop offset="1" stop-color="#818CF8"/>
<stop offset="1" stop-color="#818CF8"/>
</linearGradient>
<linearGradient id="paint7_linear_240_3861" x1="55.724" y1="25.6458" x2="55.724" y2="69.25" gradientUnits="userSpaceOnUse">
<stop stop-color="#1AC8FF"/>
<stop offset="1" stop-color="#6366F1"/>
<stop offset="1" stop-color="#818CF8"/>
<stop offset="1" stop-color="#818CF8"/>
</linearGradient>
<linearGradient id="paint8_linear_240_3861" x1="55.724" y1="25.6458" x2="55.724" y2="69.25" gradientUnits="userSpaceOnUse">
<stop stop-color="#1AC8FF"/>
<stop offset="1" stop-color="#6366F1"/>
<stop offset="1" stop-color="#818CF8"/>
<stop offset="1" stop-color="#818CF8"/>
</linearGradient>
<linearGradient id="paint9_linear_240_3861" x1="55.724" y1="25.6458" x2="55.724" y2="69.25" gradientUnits="userSpaceOnUse">
<stop stop-color="#1AC8FF"/>
<stop offset="1" stop-color="#6366F1"/>
<stop offset="1" stop-color="#818CF8"/>
<stop offset="1" stop-color="#818CF8"/>
</linearGradient>
<linearGradient id="paint10_linear_240_3861" x1="55.724" y1="25.6458" x2="55.724" y2="69.25" gradientUnits="userSpaceOnUse">
<stop stop-color="#1AC8FF"/>
<stop offset="1" stop-color="#6366F1"/>
<stop offset="1" stop-color="#818CF8"/>
<stop offset="1" stop-color="#818CF8"/>
</linearGradient>
<linearGradient id="paint11_linear_240_3861" x1="55.724" y1="25.6458" x2="55.724" y2="69.25" gradientUnits="userSpaceOnUse">
<stop stop-color="#1AC8FF"/>
<stop offset="1" stop-color="#6366F1"/>
<stop offset="1" stop-color="#818CF8"/>
<stop offset="1" stop-color="#818CF8"/>
</linearGradient>
<linearGradient id="paint12_linear_240_3861" x1="55.724" y1="25.6458" x2="55.724" y2="69.25" gradientUnits="userSpaceOnUse">
<stop stop-color="#1AC8FF"/>
<stop offset="1" stop-color="#6366F1"/>
<stop offset="1" stop-color="#818CF8"/>
<stop offset="1" stop-color="#818CF8"/>
</linearGradient>
<linearGradient id="paint13_linear_240_3861" x1="55.724" y1="25.6458" x2="55.724" y2="69.25" gradientUnits="userSpaceOnUse">
<stop stop-color="#1AC8FF"/>
<stop offset="1" stop-color="#6366F1"/>
<stop offset="1" stop-color="#818CF8"/>
<stop offset="1" stop-color="#818CF8"/>
</linearGradient>
<linearGradient id="paint14_linear_240_3861" x1="55.724" y1="25.6458" x2="55.724" y2="69.25" gradientUnits="userSpaceOnUse">
<stop stop-color="#1AC8FF"/>
<stop offset="1" stop-color="#6366F1"/>
<stop offset="1" stop-color="#818CF8"/>
<stop offset="1" stop-color="#818CF8"/>
</linearGradient>
<linearGradient id="paint15_linear_240_3861" x1="55.724" y1="25.6458" x2="55.724" y2="69.25" gradientUnits="userSpaceOnUse">
<stop stop-color="#1AC8FF"/>
<stop offset="1" stop-color="#6366F1"/>
<stop offset="1" stop-color="#818CF8"/>
<stop offset="1" stop-color="#818CF8"/>
</linearGradient>
<linearGradient id="paint16_linear_240_3861" x1="55.724" y1="25.6458" x2="55.724" y2="69.25" gradientUnits="userSpaceOnUse">
<stop stop-color="#1AC8FF"/>
<stop offset="1" stop-color="#6366F1"/>
<stop offset="1" stop-color="#818CF8"/>
<stop offset="1" stop-color="#818CF8"/>
</linearGradient>
<linearGradient id="paint17_linear_240_3861" x1="55.724" y1="25.6458" x2="55.724" y2="69.25" gradientUnits="userSpaceOnUse">
<stop stop-color="#1AC8FF"/>
<stop offset="1" stop-color="#6366F1"/>
<stop offset="1" stop-color="#818CF8"/>
<stop offset="1" stop-color="#818CF8"/>
</linearGradient>
<linearGradient id="paint18_linear_240_3861" x1="55.724" y1="25.6458" x2="55.724" y2="69.25" gradientUnits="userSpaceOnUse">
<stop stop-color="#1AC8FF"/>
<stop offset="1" stop-color="#6366F1"/>
<stop offset="1" stop-color="#818CF8"/>
<stop offset="1" stop-color="#818CF8"/>
</linearGradient>
<linearGradient id="paint19_linear_240_3861" x1="55.724" y1="25.6458" x2="55.724" y2="69.25" gradientUnits="userSpaceOnUse">
<stop stop-color="#1AC8FF"/>
<stop offset="1" stop-color="#6366F1"/>
<stop offset="1" stop-color="#818CF8"/>
<stop offset="1" stop-color="#818CF8"/>
</linearGradient>
<linearGradient id="paint20_linear_240_3861" x1="55.724" y1="25.6458" x2="55.724" y2="69.25" gradientUnits="userSpaceOnUse">
<stop stop-color="#1AC8FF"/>
<stop offset="1" stop-color="#6366F1"/>
<stop offset="1" stop-color="#818CF8"/>
<stop offset="1" stop-color="#818CF8"/>
</linearGradient>
<linearGradient id="paint21_linear_240_3861" x1="55.724" y1="25.6458" x2="55.724" y2="69.25" gradientUnits="userSpaceOnUse">
<stop stop-color="#1AC8FF"/>
<stop offset="1" stop-color="#6366F1"/>
<stop offset="1" stop-color="#818CF8"/>
<stop offset="1" stop-color="#818CF8"/>
</linearGradient>
<linearGradient id="paint22_linear_240_3861" x1="55.724" y1="25.6458" x2="55.724" y2="69.25" gradientUnits="userSpaceOnUse">
<stop stop-color="#1AC8FF"/>
<stop offset="1" stop-color="#6366F1"/>
<stop offset="1" stop-color="#818CF8"/>
<stop offset="1" stop-color="#818CF8"/>
</linearGradient>
<linearGradient id="paint23_linear_240_3861" x1="55.724" y1="25.6458" x2="55.724" y2="69.25" gradientUnits="userSpaceOnUse">
<stop stop-color="#1AC8FF"/>
<stop offset="1" stop-color="#6366F1"/>
<stop offset="1" stop-color="#818CF8"/>
<stop offset="1" stop-color="#818CF8"/>
</linearGradient>
<linearGradient id="paint24_linear_240_3861" x1="55.724" y1="25.6458" x2="55.724" y2="69.25" gradientUnits="userSpaceOnUse">
<stop stop-color="#1AC8FF"/>
<stop offset="1" stop-color="#6366F1"/>
<stop offset="1" stop-color="#818CF8"/>
<stop offset="1" stop-color="#818CF8"/>
</linearGradient>
<linearGradient id="paint25_linear_240_3861" x1="55.724" y1="25.6458" x2="55.724" y2="69.25" gradientUnits="userSpaceOnUse">
<stop stop-color="#1AC8FF"/>
<stop offset="1" stop-color="#6366F1"/>
<stop offset="1" stop-color="#818CF8"/>
<stop offset="1" stop-color="#818CF8"/>
</linearGradient>
<linearGradient id="paint26_linear_240_3861" x1="55.724" y1="25.6458" x2="55.724" y2="69.25" gradientUnits="userSpaceOnUse">
<stop stop-color="#1AC8FF"/>
<stop offset="1" stop-color="#6366F1"/>
<stop offset="1" stop-color="#818CF8"/>
<stop offset="1" stop-color="#818CF8"/>
</linearGradient>
<linearGradient id="paint27_linear_240_3861" x1="55.724" y1="25.6458" x2="55.724" y2="69.25" gradientUnits="userSpaceOnUse">
<stop stop-color="#1AC8FF"/>
<stop offset="1" stop-color="#6366F1"/>
<stop offset="1" stop-color="#818CF8"/>
<stop offset="1" stop-color="#818CF8"/>
</linearGradient>
<linearGradient id="paint28_linear_240_3861" x1="55.724" y1="25.6458" x2="55.724" y2="69.25" gradientUnits="userSpaceOnUse">
<stop stop-color="#1AC8FF"/>
<stop offset="1" stop-color="#6366F1"/>
<stop offset="1" stop-color="#818CF8"/>
<stop offset="1" stop-color="#818CF8"/>
</linearGradient>
<linearGradient id="paint29_linear_240_3861" x1="55.724" y1="25.6458" x2="55.724" y2="69.25" gradientUnits="userSpaceOnUse">
<stop stop-color="#1AC8FF"/>
<stop offset="1" stop-color="#6366F1"/>
<stop offset="1" stop-color="#818CF8"/>
<stop offset="1" stop-color="#818CF8"/>
</linearGradient>
<linearGradient id="paint30_linear_240_3861" x1="55.724" y1="25.6458" x2="55.724" y2="69.25" gradientUnits="userSpaceOnUse">
<stop stop-color="#1AC8FF"/>
<stop offset="1" stop-color="#6366F1"/>
<stop offset="1" stop-color="#818CF8"/>
<stop offset="1" stop-color="#818CF8"/>
</linearGradient>
<linearGradient id="paint31_linear_240_3861" x1="55.724" y1="25.6458" x2="55.724" y2="69.25" gradientUnits="userSpaceOnUse">
<stop stop-color="#1AC8FF"/>
<stop offset="1" stop-color="#6366F1"/>
<stop offset="1" stop-color="#818CF8"/>
<stop offset="1" stop-color="#818CF8"/>
</linearGradient>
<linearGradient id="paint32_linear_240_3861" x1="55.724" y1="25.6458" x2="55.724" y2="69.25" gradientUnits="userSpaceOnUse">
<stop stop-color="#1AC8FF"/>
<stop offset="1" stop-color="#6366F1"/>
<stop offset="1" stop-color="#818CF8"/>
<stop offset="1" stop-color="#818CF8"/>
</linearGradient>
<linearGradient id="paint33_linear_240_3861" x1="55.724" y1="25.6458" x2="55.724" y2="69.25" gradientUnits="userSpaceOnUse">
<stop stop-color="#1AC8FF"/>
<stop offset="1" stop-color="#6366F1"/>
<stop offset="1" stop-color="#818CF8"/>
<stop offset="1" stop-color="#818CF8"/>
</linearGradient>
<linearGradient id="paint34_linear_240_3861" x1="55.724" y1="25.6458" x2="55.724" y2="69.25" gradientUnits="userSpaceOnUse">
<stop stop-color="#1AC8FF"/>
<stop offset="1" stop-color="#6366F1"/>
<stop offset="1" stop-color="#818CF8"/>
<stop offset="1" stop-color="#818CF8"/>
</linearGradient>
<linearGradient id="paint35_linear_240_3861" x1="55.724" y1="25.6458" x2="55.724" y2="69.25" gradientUnits="userSpaceOnUse">
<stop stop-color="#1AC8FF"/>
<stop offset="1" stop-color="#6366F1"/>
<stop offset="1" stop-color="#818CF8"/>
<stop offset="1" stop-color="#818CF8"/>
</linearGradient>
<linearGradient id="paint36_linear_240_3861" x1="55.724" y1="25.6458" x2="55.724" y2="69.25" gradientUnits="userSpaceOnUse">
<stop stop-color="#1AC8FF"/>
<stop offset="1" stop-color="#6366F1"/>
<stop offset="1" stop-color="#818CF8"/>
<stop offset="1" stop-color="#818CF8"/>
</linearGradient>
<linearGradient id="paint37_linear_240_3861" x1="55.724" y1="25.6458" x2="55.724" y2="69.25" gradientUnits="userSpaceOnUse">
<stop stop-color="#1AC8FF"/>
<stop offset="1" stop-color="#6366F1"/>
<stop offset="1" stop-color="#818CF8"/>
<stop offset="1" stop-color="#818CF8"/>
</linearGradient>
<linearGradient id="paint38_linear_240_3861" x1="55.724" y1="25.6458" x2="55.724" y2="69.25" gradientUnits="userSpaceOnUse">
<stop stop-color="#1AC8FF"/>
<stop offset="1" stop-color="#6366F1"/>
<stop offset="1" stop-color="#818CF8"/>
<stop offset="1" stop-color="#818CF8"/>
</linearGradient>
<linearGradient id="paint39_linear_240_3861" x1="55.724" y1="25.6458" x2="55.724" y2="69.25" gradientUnits="userSpaceOnUse">
<stop stop-color="#1AC8FF"/>
<stop offset="1" stop-color="#6366F1"/>
<stop offset="1" stop-color="#818CF8"/>
<stop offset="1" stop-color="#818CF8"/>
</linearGradient>
<linearGradient id="paint40_linear_240_3861" x1="55.724" y1="25.6458" x2="55.724" y2="69.25" gradientUnits="userSpaceOnUse">
<stop stop-color="#1AC8FF"/>
<stop offset="1" stop-color="#6366F1"/>
<stop offset="1" stop-color="#818CF8"/>
<stop offset="1" stop-color="#818CF8"/>
</linearGradient>
<linearGradient id="paint41_linear_240_3861" x1="55.724" y1="25.6458" x2="55.724" y2="69.25" gradientUnits="userSpaceOnUse">
<stop stop-color="#1AC8FF"/>
<stop offset="1" stop-color="#6366F1"/>
<stop offset="1" stop-color="#818CF8"/>
<stop offset="1" stop-color="#818CF8"/>
</linearGradient>
<linearGradient id="paint42_linear_240_3861" x1="55.724" y1="25.6458" x2="55.724" y2="69.25" gradientUnits="userSpaceOnUse">
<stop stop-color="#1AC8FF"/>
<stop offset="1" stop-color="#6366F1"/>
<stop offset="1" stop-color="#818CF8"/>
<stop offset="1" stop-color="#818CF8"/>
</linearGradient>
<linearGradient id="paint43_linear_240_3861" x1="55.724" y1="25.6458" x2="55.724" y2="69.25" gradientUnits="userSpaceOnUse">
<stop stop-color="#1AC8FF"/>
<stop offset="1" stop-color="#6366F1"/>
<stop offset="1" stop-color="#818CF8"/>
<stop offset="1" stop-color="#818CF8"/>
</linearGradient>
<linearGradient id="paint44_linear_240_3861" x1="55.724" y1="25.6458" x2="55.724" y2="69.25" gradientUnits="userSpaceOnUse">
<stop stop-color="#1AC8FF"/>
<stop offset="1" stop-color="#6366F1"/>
<stop offset="1" stop-color="#818CF8"/>
<stop offset="1" stop-color="#818CF8"/>
</linearGradient>
<linearGradient id="paint45_linear_240_3861" x1="55.724" y1="25.6458" x2="55.724" y2="69.25" gradientUnits="userSpaceOnUse">
<stop stop-color="#1AC8FF"/>
<stop offset="1" stop-color="#6366F1"/>
<stop offset="1" stop-color="#818CF8"/>
<stop offset="1" stop-color="#818CF8"/>
</linearGradient>
<linearGradient id="paint46_linear_240_3861" x1="184.419" y1="37.7332" x2="184.419" y2="54.0411" gradientUnits="userSpaceOnUse">
<stop stop-color="#1AC8FF"/>
<stop offset="1" stop-color="#6366F1"/>
<stop offset="1" stop-color="#818CF8"/>
<stop offset="1" stop-color="#818CF8"/>
</linearGradient>
<linearGradient id="paint47_linear_240_3861" x1="184.419" y1="37.7332" x2="184.419" y2="54.0411" gradientUnits="userSpaceOnUse">
<stop stop-color="#1AC8FF"/>
<stop offset="1" stop-color="#6366F1"/>
<stop offset="1" stop-color="#818CF8"/>
<stop offset="1" stop-color="#818CF8"/>
</linearGradient>
<linearGradient id="paint48_linear_240_3861" x1="184.419" y1="37.7332" x2="184.419" y2="54.0411" gradientUnits="userSpaceOnUse">
<stop stop-color="#1AC8FF"/>
<stop offset="1" stop-color="#6366F1"/>
<stop offset="1" stop-color="#818CF8"/>
<stop offset="1" stop-color="#818CF8"/>
</linearGradient>
<linearGradient id="paint49_linear_240_3861" x1="184.419" y1="37.7332" x2="184.419" y2="54.0411" gradientUnits="userSpaceOnUse">
<stop stop-color="#1AC8FF"/>
<stop offset="1" stop-color="#6366F1"/>
<stop offset="1" stop-color="#818CF8"/>
<stop offset="1" stop-color="#818CF8"/>
</linearGradient>
</defs>
</svg>
