<svg width="20" height="20" viewBox="0 0 20 20" fill="none" xmlns="http://www.w3.org/2000/svg">
<path d="M5 5.73169L5.24993 6.43882L5 5.73169ZM16.25 8.23169L16.0001 8.93882L16.25 8.23169ZM3.75 8.23169L3.99993 8.93882L3.75 8.23169ZM4.375 8.875H15.625V7.375H4.375V8.875ZM16.75 10V15H18.25V10H16.75ZM15.625 16.125H4.375V17.625H15.625V16.125ZM3.25 15V10H1.75V15H3.25ZM4.375 16.125C3.75368 16.125 3.25 15.6213 3.25 15H1.75C1.75 16.4497 2.92525 17.625 4.375 17.625V16.125ZM16.75 15C16.75 15.6213 16.2463 16.125 15.625 16.125V17.625C17.0747 17.625 18.25 16.4497 18.25 15H16.75ZM5.625 6.375H14.375V4.875H5.625V6.375ZM6.875 3.875H13.125V2.375H6.875V3.875ZM13.125 3.875C13.7463 3.875 14.25 4.37868 14.25 5H15.75C15.75 3.55025 14.5747 2.375 13.125 2.375V3.875ZM6.875 2.375C5.42525 2.375 4.25 3.55025 4.25 5H5.75C5.75 4.37868 6.25368 3.875 6.875 3.875V2.375ZM4.25 5V5.73169H5.75V5H4.25ZM5.625 4.875C5.31953 4.875 5.02471 4.92749 4.75007 5.02456L5.24993 6.43882C5.36626 6.3977 5.49217 6.375 5.625 6.375V4.875ZM4.75007 5.02456C3.73153 5.38456 3 6.35589 3 7.5H4.5C4.5 7.01134 4.81198 6.59362 5.24993 6.43882L4.75007 5.02456ZM14.25 5V5.73169H15.75V5H14.25ZM14.375 6.375C14.5078 6.375 14.6337 6.3977 14.7501 6.43882L15.2499 5.02456C14.9753 4.92749 14.6805 4.875 14.375 4.875V6.375ZM14.7501 6.43882C15.188 6.59362 15.5 7.01134 15.5 7.5H17C17 6.35589 16.2685 5.38456 15.2499 5.02456L14.7501 6.43882ZM15.5 7.5V8.23169H17V7.5H15.5ZM15.625 8.875C15.7578 8.875 15.8837 8.8977 16.0001 8.93882L16.4999 7.52456C16.2253 7.42749 15.9305 7.375 15.625 7.375V8.875ZM16.0001 8.93882C16.438 9.09362 16.75 9.51134 16.75 10H18.25C18.25 8.85589 17.5185 7.88456 16.4999 7.52456L16.0001 8.93882ZM3 7.5V8.23169H4.5V7.5H3ZM4.375 7.375C4.06953 7.375 3.77471 7.42749 3.50007 7.52456L3.99993 8.93882C4.11626 8.8977 4.24217 8.875 4.375 8.875V7.375ZM3.50007 7.52456C2.48153 7.88456 1.75 8.85589 1.75 10H3.25C3.25 9.51134 3.56198 9.09362 3.99993 8.93882L3.50007 7.52456Z" fill="white"/>
</svg>
