<svg width="32" height="32" viewBox="0 0 32 32" fill="none" xmlns="http://www.w3.org/2000/svg">
<path d="M8 9.17071L8.24993 9.87784L8 9.17071ZM26 13.1707L25.7501 13.8778L26 13.1707ZM6 13.1707L6.24993 13.8778L6 13.1707ZM7 13.75H25V12.25H7V13.75ZM27.25 16V24H28.75V16H27.25ZM25 26.25H7V27.75H25V26.25ZM4.75 24V16H3.25V24H4.75ZM7 26.25C5.75736 26.25 4.75 25.2426 4.75 24H3.25C3.25 26.0711 4.92893 27.75 7 27.75V26.25ZM27.25 24C27.25 25.2426 26.2426 26.25 25 26.25V27.75C27.0711 27.75 28.75 26.0711 28.75 24H27.25ZM9 9.75H23V8.25H9V9.75ZM11 5.75H21V4.25H11V5.75ZM21 5.75C22.2426 5.75 23.25 6.75736 23.25 8H24.75C24.75 5.92893 23.0711 4.25 21 4.25V5.75ZM11 4.25C8.92893 4.25 7.25 5.92893 7.25 8H8.75C8.75 6.75736 9.75736 5.75 11 5.75V4.25ZM7.25 8V9.17071H8.75V8H7.25ZM9 8.25C8.56305 8.25 8.142 8.32505 7.75007 8.46358L8.24993 9.87784C8.48356 9.79526 8.73568 9.75 9 9.75V8.25ZM7.75007 8.46358C6.29459 8.97801 5.25 10.3661 5.25 12H6.75C6.75 11.0215 7.37503 10.1871 8.24993 9.87784L7.75007 8.46358ZM23.25 8V9.17071H24.75V8H23.25ZM23 9.75C23.2643 9.75 23.5164 9.79526 23.7501 9.87784L24.2499 8.46358C23.858 8.32505 23.437 8.25 23 8.25V9.75ZM23.7501 9.87784C24.625 10.1871 25.25 11.0215 25.25 12H26.75C26.75 10.3661 25.7054 8.97801 24.2499 8.46358L23.7501 9.87784ZM25.25 12V13.1707H26.75V12H25.25ZM25 13.75C25.2643 13.75 25.5164 13.7953 25.7501 13.8778L26.2499 12.4636C25.858 12.325 25.437 12.25 25 12.25V13.75ZM25.7501 13.8778C26.625 14.1871 27.25 15.0215 27.25 16H28.75C28.75 14.3661 27.7054 12.978 26.2499 12.4636L25.7501 13.8778ZM5.25 12V13.1707H6.75V12H5.25ZM7 12.25C6.56305 12.25 6.142 12.325 5.75007 12.4636L6.24993 13.8778C6.48356 13.7953 6.73568 13.75 7 13.75V12.25ZM5.75007 12.4636C4.29459 12.978 3.25 14.3661 3.25 16H4.75C4.75 15.0215 5.37503 14.1871 6.24993 13.8778L5.75007 12.4636Z" fill="#737373"/>
</svg>
