<svg width="19" height="20" viewBox="0 0 19 20" fill="none" xmlns="http://www.w3.org/2000/svg">
<path d="M8.33582 14.3289L8.34809 14.3413M8.33582 14.3289C8.02574 14.6421 7.85151 15.0669 7.85151 15.51C7.85151 15.9529 8.02574 16.3778 8.33582 16.6909C8.64606 17.0043 9.06672 17.1803 9.50524 17.1803C9.94377 17.1803 10.3644 17.0043 10.6747 16.6909C10.9847 16.3778 11.159 15.9529 11.159 15.51C11.159 15.0669 10.9847 14.6421 10.6747 14.3289M8.33582 14.3289C8.64607 14.0157 9.06672 13.8398 9.50524 13.8398M10.6747 14.3289L10.6636 14.3401M10.6747 14.3289C10.3644 14.0157 9.94377 13.8398 9.50524 13.8398M9.50524 13.8398L9.46479 9.9783M14.9599 6.16208C14.5212 6.16208 14.1005 5.98611 13.7905 5.67294C13.4804 5.35976 13.3062 4.93492 13.3062 4.49183C13.3062 4.04892 13.4804 3.62406 13.7905 3.31091C14.1005 2.99755 14.5212 2.82158 14.9599 2.82158C15.3984 2.82158 15.8191 2.99755 16.1291 3.31092C16.4394 3.62409 16.6136 4.04893 16.6136 4.49183C16.6136 4.93493 16.4394 5.35979 16.1291 5.67294C15.8191 5.98611 15.3984 6.16208 14.9599 6.16208ZM14.9599 6.16208C14.9599 6.16208 14.9599 6.79083 14.9599 7.19512C14.9599 8.15746 14.5467 8.77207 13.7905 9.35851C13.1123 9.88443 11.688 9.9783 11.688 9.9783H9.46479M4.05049 6.1618C3.61196 6.1618 3.19131 5.98582 2.88125 5.67265C2.57099 5.35947 2.39676 4.93463 2.39676 4.49154C2.39676 4.04863 2.57099 3.62378 2.88125 3.31063C3.19133 2.99727 3.61197 2.82129 4.05049 2.82129C4.48921 2.82129 4.90987 2.99726 5.21992 3.31062C5.53 3.6238 5.70423 4.04864 5.70423 4.49154C5.70423 4.93464 5.53 5.3595 5.21992 5.67265C4.90984 5.9858 4.4892 6.1618 4.05049 6.1618ZM4.05049 6.1618C4.05049 6.1618 4.05049 6.75542 4.05049 7.15732C4.05049 8.14892 4.51519 8.7684 5.30505 9.35851C5.96709 9.85314 7.3231 9.9783 7.3231 9.9783H9.46479" stroke="#A3A3A3" stroke-linecap="round" stroke-linejoin="round"/>
</svg>
