<svg width="20" height="20" viewBox="0 0 20 20" fill="none" xmlns="http://www.w3.org/2000/svg">
<path d="M8.90594 5.93492C8.65428 6.0486 8.54242 6.34476 8.6561 6.59642C8.76978 6.84808 9.06595 6.95993 9.3176 6.84626L8.90594 5.93492ZM9.20644 6.34783L9.41227 6.80349L9.41228 6.80349L9.20644 6.34783ZM11.6319 8.10567L12.1138 8.23901L11.6319 8.10567ZM10.0142 13.952L9.53229 13.8187H9.53229L10.0142 13.952ZM12.4397 15.7099L12.6455 16.1655L12.6455 16.1655L12.4397 15.7099ZM12.7402 16.1228C12.9918 16.0091 13.1037 15.7129 12.99 15.4613C12.8763 15.2096 12.5802 15.0978 12.3285 15.2114L12.7402 16.1228ZM9.3176 6.84626L9.41227 6.80349L9.00061 5.89216L8.90594 5.93492L9.3176 6.84626ZM11.1501 7.97232L9.53229 13.8187L10.4961 14.0854L12.1138 8.23901L11.1501 7.97232ZM12.6455 16.1655L12.7402 16.1228L12.3285 15.2114L12.2338 15.2542L12.6455 16.1655ZM9.53229 13.8187C9.29005 14.6941 9.68394 15.484 10.3102 15.9379C10.9332 16.3894 11.8178 16.5394 12.6455 16.1655L12.2338 15.2542C11.7539 15.471 11.2484 15.3829 10.897 15.1282C10.5487 14.8758 10.3837 14.4914 10.4961 14.0854L9.53229 13.8187ZM9.41228 6.80349C9.89226 6.58667 10.3977 6.67482 10.7491 6.92953C11.0974 7.18193 11.2624 7.56627 11.1501 7.97232L12.1138 8.23901C12.3561 7.3636 11.9622 6.57366 11.336 6.11982C10.7129 5.66829 9.82831 5.51826 9.0006 5.89216L9.41228 6.80349Z" fill="#A3A3A3"/>
<path d="M10.8402 3.06543C11.3925 3.06543 11.8402 2.61771 11.8402 2.06543C11.8402 1.51314 11.3925 1.06543 10.8402 1.06543V3.06543ZM10.8231 1.06543C10.2708 1.06543 9.82306 1.51314 9.82306 2.06543C9.82306 2.61771 10.2708 3.06543 10.8231 3.06543V1.06543ZM10.8402 1.06543H10.8231V3.06543H10.8402V1.06543Z" fill="#A3A3A3"/>
</svg>
