<svg width="18" height="18" viewBox="0 0 18 18" fill="none" xmlns="http://www.w3.org/2000/svg">
<path d="M6.71783 2.84467C6.42494 2.55178 5.95006 2.55178 5.65717 2.84467C5.36428 3.13756 5.36428 3.61244 5.65717 3.90533L6.71783 2.84467ZM11.8125 9L12.3428 9.53033C12.6357 9.23744 12.6357 8.76256 12.3428 8.46967L11.8125 9ZM5.65717 14.0947C5.36428 14.3876 5.36428 14.8624 5.65717 15.1553C5.95006 15.4482 6.42494 15.4482 6.71783 15.1553L5.65717 14.0947ZM5.65717 3.90533L11.2822 9.53033L12.3428 8.46967L6.71783 2.84467L5.65717 3.90533ZM11.2822 8.46967L5.65717 14.0947L6.71783 15.1553L12.3428 9.53033L11.2822 8.46967Z" fill="#4F46E5"/>
</svg>
