<svg width="27" height="27" viewBox="0 0 27 27" fill="none" xmlns="http://www.w3.org/2000/svg">
<path d="M18.4 13.4762C18.4 15.7905 16.4301 17.6667 14 17.6667C11.5699 17.6667 9.6 15.7905 9.6 13.4762C9.6 11.1619 11.5699 9.28571 14 9.28571C16.4301 9.28571 18.4 11.1619 18.4 13.4762Z" fill="#6366F1"/>
<path d="M12.9 5.61905C12.9 7.06551 11.6688 8.2381 10.15 8.2381C8.63122 8.2381 7.4 7.06551 7.4 5.61905C7.4 4.17259 8.63122 3 10.15 3C11.6688 3 12.9 4.17259 12.9 5.61905Z" fill="#6366F1"/>
<path d="M25 17.1429C25 18.5893 23.7688 19.7619 22.25 19.7619C20.7312 19.7619 19.5 18.5893 19.5 17.1429C19.5 15.6964 20.7312 14.5238 22.25 14.5238C23.7688 14.5238 25 15.6964 25 17.1429Z" fill="#6366F1"/>
<path d="M9.6 21.8571C9.6 23.5929 8.12254 25 6.3 25C4.47746 25 3 23.5929 3 21.8571C3 20.1214 4.47746 18.7143 6.3 18.7143C8.12254 18.7143 9.6 20.1214 9.6 21.8571Z" fill="#6366F1"/>
<path d="M11.153 8.05845C11.4785 8.54653 11.6737 8.90304 11.945 9.41968C11.995 9.51501 11.778 9.70499 11.8 9.80952M17.6522 15.814C18.462 16.1084 18.7786 16.1857 19.5897 16.4769M8.37963 19.4168C9.34733 18.5715 9.79415 17.9032 10.6105 16.928C10.7315 16.7834 10.8544 16.6362 10.9287 16.4769M18.4 13.4762C18.4 15.7905 16.4301 17.6667 14 17.6667C11.5699 17.6667 9.6 15.7905 9.6 13.4762C9.6 11.1619 11.5699 9.28571 14 9.28571C16.4301 9.28571 18.4 11.1619 18.4 13.4762ZM12.9 5.61905C12.9 7.06551 11.6688 8.2381 10.15 8.2381C8.63122 8.2381 7.4 7.06551 7.4 5.61905C7.4 4.17259 8.63122 3 10.15 3C11.6688 3 12.9 4.17259 12.9 5.61905ZM25 17.1429C25 18.5893 23.7688 19.7619 22.25 19.7619C20.7312 19.7619 19.5 18.5893 19.5 17.1429C19.5 15.6964 20.7312 14.5238 22.25 14.5238C23.7688 14.5238 25 15.6964 25 17.1429ZM9.6 21.8571C9.6 23.5929 8.12254 25 6.3 25C4.47746 25 3 23.5929 3 21.8571C3 20.1214 4.47746 18.7143 6.3 18.7143C8.12254 18.7143 9.6 20.1214 9.6 21.8571Z" stroke="#6366F1" stroke-width="1.5" stroke-linecap="round"/>
</svg>
