<svg width="383" height="580" viewBox="0 0 383 580" fill="none" xmlns="http://www.w3.org/2000/svg">
<line x1="201.813" y1="287.447" x2="221.741" y2="417.887" stroke="#D4D4D4" stroke-width="1.5"/>
<line x1="184.278" y1="545.797" x2="220.278" y2="417.797" stroke="#D4D4D4" stroke-width="1.5"/>
<line x1="201.672" y1="287.11" x2="299.6" y2="417.55" stroke="#D4D4D4" stroke-width="1.5"/>
<line x1="184.44" y1="545.501" x2="298.44" y2="417.501" stroke="#D4D4D4" stroke-width="1.5"/>
<line x1="196.67" y1="280.634" x2="211.253" y2="126.929" stroke="#D4D4D4" stroke-width="1.5"/>
<line x1="197.009" y1="281.334" x2="18.5919" y2="165.629" stroke="#D4D4D4" stroke-width="1.5"/>
<line x1="352.269" y1="37.7001" x2="19.2691" y2="165.7" stroke="#D4D4D4" stroke-width="1.5"/>
<line x1="354.402" y1="37.6335" x2="212.402" y2="127.633" stroke="#D4D4D4" stroke-width="1.5"/>
<line x1="195.78" y1="279.959" x2="301.896" y2="269.035" stroke="#D4D4D4" stroke-width="1.5"/>
<line x1="354.732" y1="37.1636" x2="302.705" y2="269.944" stroke="#D4D4D4" stroke-width="1.5"/>
<line x1="198.622" y1="286.335" x2="134.671" y2="414.335" stroke="#D4D4D4" stroke-width="1.5"/>
<line x1="184.3" y1="546.27" x2="133.3" y2="414.27" stroke="#D4D4D4" stroke-width="1.5"/>
<line x1="198.438" y1="286.57" x2="48.4869" y2="414.57" stroke="#D4D4D4" stroke-width="1.5"/>
<line x1="184.48" y1="546.54" x2="47.4796" y2="414.54" stroke="#D4D4D4" stroke-width="1.5"/>
<line x1="184.312" y1="546.3" x2="18.3124" y2="165.3" stroke="#D4D4D4" stroke-width="1.5"/>
<circle cx="199" cy="281" r="22" fill="#818CF8"/>
<path d="M169.016 310.456C169.251 310.456 169.443 310.536 169.592 310.696C169.741 310.845 169.816 311.037 169.816 311.272V318.184C169.816 318.419 169.741 318.616 169.592 318.776C169.443 318.925 169.251 319 169.016 319C168.792 319 168.6 318.925 168.44 318.776C168.291 318.616 168.216 318.419 168.216 318.184V317.032L168.552 317.08C168.552 317.272 168.472 317.485 168.312 317.72C168.163 317.955 167.955 318.184 167.688 318.408C167.421 318.621 167.107 318.803 166.744 318.952C166.381 319.091 165.992 319.16 165.576 319.16C164.84 319.16 164.179 318.973 163.592 318.6C163.005 318.216 162.541 317.693 162.2 317.032C161.859 316.371 161.688 315.619 161.688 314.776C161.688 313.912 161.859 313.155 162.2 312.504C162.541 311.843 163 311.325 163.576 310.952C164.163 310.579 164.813 310.392 165.528 310.392C165.987 310.392 166.408 310.467 166.792 310.616C167.187 310.765 167.528 310.957 167.816 311.192C168.104 311.427 168.323 311.677 168.472 311.944C168.632 312.2 168.712 312.445 168.712 312.68L168.216 312.728V311.272C168.216 311.048 168.291 310.856 168.44 310.696C168.6 310.536 168.792 310.456 169.016 310.456ZM165.752 317.688C166.253 317.688 166.696 317.56 167.08 317.304C167.464 317.048 167.763 316.701 167.976 316.264C168.189 315.816 168.296 315.32 168.296 314.776C168.296 314.221 168.189 313.725 167.976 313.288C167.763 312.851 167.464 312.504 167.08 312.248C166.696 311.992 166.253 311.864 165.752 311.864C165.261 311.864 164.824 311.992 164.44 312.248C164.067 312.504 163.768 312.851 163.544 313.288C163.331 313.725 163.224 314.221 163.224 314.776C163.224 315.32 163.331 315.816 163.544 316.264C163.768 316.701 164.067 317.048 164.44 317.304C164.824 317.56 165.261 317.688 165.752 317.688ZM176.394 310.392C177.151 310.392 177.738 310.552 178.154 310.872C178.57 311.181 178.858 311.603 179.017 312.136C179.188 312.659 179.274 313.245 179.274 313.896V318.184C179.274 318.419 179.194 318.616 179.034 318.776C178.884 318.925 178.698 319 178.474 319C178.239 319 178.047 318.925 177.898 318.776C177.748 318.616 177.674 318.419 177.674 318.184V313.912C177.674 313.528 177.62 313.187 177.514 312.888C177.407 312.579 177.22 312.333 176.954 312.152C176.698 311.96 176.335 311.864 175.866 311.864C175.428 311.864 175.044 311.96 174.714 312.152C174.383 312.333 174.122 312.579 173.93 312.888C173.748 313.187 173.658 313.528 173.658 313.912V318.184C173.658 318.419 173.578 318.616 173.418 318.776C173.268 318.925 173.082 319 172.858 319C172.623 319 172.431 318.925 172.282 318.776C172.132 318.616 172.058 318.419 172.058 318.184V311.4C172.058 311.165 172.132 310.973 172.282 310.824C172.431 310.664 172.623 310.584 172.858 310.584C173.082 310.584 173.268 310.664 173.418 310.824C173.578 310.973 173.658 311.165 173.658 311.4V312.296L173.37 312.456C173.444 312.221 173.572 311.987 173.754 311.752C173.946 311.507 174.175 311.283 174.442 311.08C174.708 310.867 175.007 310.701 175.338 310.584C175.668 310.456 176.02 310.392 176.394 310.392ZM188.391 310.456C188.626 310.456 188.818 310.536 188.967 310.696C189.116 310.845 189.191 311.037 189.191 311.272V318.184C189.191 318.419 189.116 318.616 188.967 318.776C188.818 318.925 188.626 319 188.391 319C188.167 319 187.975 318.925 187.815 318.776C187.666 318.616 187.591 318.419 187.591 318.184V317.032L187.927 317.08C187.927 317.272 187.847 317.485 187.687 317.72C187.538 317.955 187.33 318.184 187.063 318.408C186.796 318.621 186.482 318.803 186.119 318.952C185.756 319.091 185.367 319.16 184.951 319.16C184.215 319.16 183.554 318.973 182.967 318.6C182.38 318.216 181.916 317.693 181.575 317.032C181.234 316.371 181.063 315.619 181.063 314.776C181.063 313.912 181.234 313.155 181.575 312.504C181.916 311.843 182.375 311.325 182.951 310.952C183.538 310.579 184.188 310.392 184.903 310.392C185.362 310.392 185.783 310.467 186.167 310.616C186.562 310.765 186.903 310.957 187.191 311.192C187.479 311.427 187.698 311.677 187.847 311.944C188.007 312.2 188.087 312.445 188.087 312.68L187.591 312.728V311.272C187.591 311.048 187.666 310.856 187.815 310.696C187.975 310.536 188.167 310.456 188.391 310.456ZM185.127 317.688C185.628 317.688 186.071 317.56 186.455 317.304C186.839 317.048 187.138 316.701 187.351 316.264C187.564 315.816 187.671 315.32 187.671 314.776C187.671 314.221 187.564 313.725 187.351 313.288C187.138 312.851 186.839 312.504 186.455 312.248C186.071 311.992 185.628 311.864 185.127 311.864C184.636 311.864 184.199 311.992 183.815 312.248C183.442 312.504 183.143 312.851 182.919 313.288C182.706 313.725 182.599 314.221 182.599 314.776C182.599 315.32 182.706 315.816 182.919 316.264C183.143 316.701 183.442 317.048 183.815 317.304C184.199 317.56 184.636 317.688 185.127 317.688ZM191.321 310.68H195.081C195.294 310.68 195.47 310.755 195.609 310.904C195.758 311.043 195.833 311.219 195.833 311.432C195.833 311.635 195.758 311.805 195.609 311.944C195.47 312.083 195.294 312.152 195.081 312.152H191.321C191.107 312.152 190.926 312.083 190.777 311.944C190.638 311.795 190.569 311.619 190.569 311.416C190.569 311.203 190.638 311.027 190.777 310.888C190.926 310.749 191.107 310.68 191.321 310.68ZM193.001 308.6C193.235 308.6 193.427 308.68 193.577 308.84C193.726 308.989 193.801 309.181 193.801 309.416V316.84C193.801 317.032 193.833 317.187 193.897 317.304C193.961 317.421 194.046 317.501 194.153 317.544C194.27 317.587 194.387 317.608 194.505 317.608C194.622 317.608 194.723 317.587 194.809 317.544C194.905 317.501 195.017 317.48 195.145 317.48C195.273 317.48 195.39 317.539 195.497 317.656C195.603 317.773 195.657 317.933 195.657 318.136C195.657 318.392 195.518 318.6 195.241 318.76C194.963 318.92 194.665 319 194.345 319C194.163 319 193.95 318.984 193.705 318.952C193.459 318.92 193.219 318.84 192.985 318.712C192.761 318.584 192.574 318.381 192.424 318.104C192.275 317.816 192.201 317.416 192.201 316.904V309.416C192.201 309.181 192.275 308.989 192.424 308.84C192.584 308.68 192.777 308.6 193.001 308.6ZM205.59 314.792C205.59 315.645 205.404 316.403 205.03 317.064C204.657 317.715 204.15 318.227 203.51 318.6C202.87 318.973 202.15 319.16 201.35 319.16C200.55 319.16 199.83 318.973 199.19 318.6C198.55 318.227 198.038 317.715 197.654 317.064C197.281 316.403 197.094 315.645 197.094 314.792C197.094 313.928 197.281 313.171 197.654 312.52C198.038 311.859 198.55 311.341 199.19 310.968C199.83 310.584 200.55 310.392 201.35 310.392C202.15 310.392 202.87 310.584 203.51 310.968C204.15 311.341 204.657 311.859 205.03 312.52C205.404 313.171 205.59 313.928 205.59 314.792ZM203.99 314.792C203.99 314.205 203.873 313.699 203.638 313.272C203.404 312.835 203.084 312.493 202.678 312.248C202.284 311.992 201.841 311.864 201.35 311.864C200.86 311.864 200.412 311.992 200.006 312.248C199.601 312.493 199.281 312.835 199.046 313.272C198.812 313.699 198.694 314.205 198.694 314.792C198.694 315.357 198.812 315.859 199.046 316.296C199.281 316.733 199.601 317.075 200.006 317.32C200.412 317.565 200.86 317.688 201.35 317.688C201.841 317.688 202.284 317.565 202.678 317.32C203.084 317.075 203.404 316.733 203.638 316.296C203.873 315.859 203.99 315.357 203.99 314.792ZM211.625 310.44C212.415 310.44 213.023 310.637 213.449 311.032C213.876 311.416 214.159 311.939 214.297 312.6L214.041 312.52L214.153 312.264C214.292 311.987 214.5 311.709 214.777 311.432C215.065 311.144 215.407 310.909 215.801 310.728C216.196 310.536 216.617 310.44 217.065 310.44C217.801 310.44 218.372 310.6 218.777 310.92C219.183 311.229 219.465 311.651 219.625 312.184C219.785 312.707 219.865 313.293 219.865 313.944V318.184C219.865 318.419 219.791 318.616 219.641 318.776C219.492 318.925 219.3 319 219.065 319C218.841 319 218.649 318.925 218.489 318.776C218.34 318.616 218.265 318.419 218.265 318.184V313.96C218.265 313.587 218.212 313.245 218.105 312.936C218.009 312.627 217.833 312.381 217.577 312.2C217.332 312.008 216.991 311.912 216.553 311.912C216.137 311.912 215.764 312.008 215.433 312.2C215.113 312.381 214.863 312.627 214.681 312.936C214.5 313.245 214.409 313.587 214.409 313.96V318.184C214.409 318.419 214.335 318.616 214.185 318.776C214.036 318.925 213.844 319 213.609 319C213.375 319 213.183 318.925 213.033 318.776C212.884 318.616 212.809 318.419 212.809 318.184V313.944C212.809 313.571 212.756 313.229 212.649 312.92C212.553 312.611 212.383 312.365 212.137 312.184C211.892 312.003 211.551 311.912 211.113 311.912C210.697 311.912 210.329 312.003 210.009 312.184C209.689 312.365 209.439 312.611 209.257 312.92C209.087 313.229 209.001 313.571 209.001 313.944V318.184C209.001 318.419 208.921 318.616 208.761 318.776C208.612 318.925 208.425 319 208.201 319C207.967 319 207.775 318.925 207.625 318.776C207.476 318.616 207.401 318.419 207.401 318.184V311.4C207.401 311.165 207.476 310.973 207.625 310.824C207.775 310.664 207.967 310.584 208.201 310.584C208.425 310.584 208.612 310.664 208.761 310.824C208.921 310.973 209.001 311.165 209.001 311.4V312.344L208.697 312.52C208.772 312.285 208.895 312.045 209.065 311.8C209.236 311.555 209.449 311.331 209.705 311.128C209.972 310.925 210.265 310.76 210.585 310.632C210.905 310.504 211.252 310.44 211.625 310.44ZM228.282 310.52C228.517 310.52 228.709 310.6 228.858 310.76C229.008 310.909 229.082 311.101 229.082 311.336V318.216C229.082 319.155 228.901 319.917 228.538 320.504C228.186 321.091 227.706 321.517 227.098 321.784C226.501 322.061 225.824 322.2 225.066 322.2C224.682 322.2 224.298 322.163 223.914 322.088C223.53 322.024 223.216 321.928 222.97 321.8C222.714 321.683 222.533 321.539 222.426 321.368C222.32 321.197 222.304 321.011 222.378 320.808C222.453 320.552 222.581 320.376 222.762 320.28C222.944 320.195 223.13 320.189 223.322 320.264C223.504 320.339 223.744 320.435 224.042 320.552C224.341 320.669 224.682 320.728 225.066 320.728C225.589 320.728 226.032 320.643 226.394 320.472C226.757 320.301 227.029 320.035 227.21 319.672C227.402 319.309 227.498 318.84 227.498 318.264V317.16L227.754 317.544C227.584 317.896 227.36 318.189 227.082 318.424C226.805 318.659 226.474 318.84 226.09 318.968C225.717 319.096 225.301 319.16 224.842 319.16C224.256 319.16 223.749 319.032 223.322 318.776C222.906 318.509 222.586 318.147 222.362 317.688C222.138 317.219 222.026 316.685 222.026 316.088V311.336C222.026 311.101 222.101 310.909 222.25 310.76C222.4 310.6 222.592 310.52 222.826 310.52C223.05 310.52 223.237 310.6 223.386 310.76C223.546 310.909 223.626 311.101 223.626 311.336V315.656C223.626 316.36 223.781 316.877 224.09 317.208C224.4 317.528 224.858 317.688 225.466 317.688C225.872 317.688 226.224 317.603 226.522 317.432C226.821 317.261 227.056 317.027 227.226 316.728C227.397 316.419 227.482 316.061 227.482 315.656V311.336C227.482 311.101 227.557 310.909 227.706 310.76C227.866 310.6 228.058 310.52 228.282 310.52Z" fill="#A3A3A3"/>
<circle cx="213" cy="124" r="10" fill="#737373"/>
<path d="M196.848 108.184C196.848 108.419 196.768 108.616 196.608 108.776C196.459 108.925 196.272 109 196.048 109C195.824 109 195.632 108.925 195.472 108.776C195.323 108.616 195.248 108.419 195.248 108.184V97.976C195.248 97.7413 195.328 97.5493 195.488 97.4C195.648 97.24 195.84 97.16 196.064 97.16C196.299 97.16 196.485 97.24 196.624 97.4C196.773 97.5493 196.848 97.7413 196.848 97.976V108.184ZM205.423 100.584C205.647 100.584 205.834 100.664 205.983 100.824C206.143 100.973 206.223 101.165 206.223 101.4V105.608C206.223 106.717 205.914 107.587 205.295 108.216C204.677 108.835 203.802 109.144 202.671 109.144C201.551 109.144 200.682 108.835 200.063 108.216C199.455 107.587 199.151 106.717 199.151 105.608V101.4C199.151 101.165 199.226 100.973 199.375 100.824C199.525 100.664 199.717 100.584 199.951 100.584C200.175 100.584 200.362 100.664 200.511 100.824C200.671 100.973 200.751 101.165 200.751 101.4V105.608C200.751 106.301 200.911 106.819 201.231 107.16C201.562 107.501 202.042 107.672 202.671 107.672C203.311 107.672 203.797 107.501 204.127 107.16C204.458 106.819 204.623 106.301 204.623 105.608V101.4C204.623 101.165 204.698 100.973 204.847 100.824C204.997 100.664 205.189 100.584 205.423 100.584ZM212.784 100.392C213.541 100.392 214.128 100.552 214.544 100.872C214.96 101.181 215.248 101.603 215.408 102.136C215.579 102.659 215.664 103.245 215.664 103.896V108.184C215.664 108.419 215.584 108.616 215.424 108.776C215.275 108.925 215.088 109 214.864 109C214.629 109 214.437 108.925 214.288 108.776C214.139 108.616 214.064 108.419 214.064 108.184V103.912C214.064 103.528 214.011 103.187 213.904 102.888C213.797 102.579 213.611 102.333 213.344 102.152C213.088 101.96 212.725 101.864 212.256 101.864C211.819 101.864 211.435 101.96 211.104 102.152C210.773 102.333 210.512 102.579 210.32 102.888C210.139 103.187 210.048 103.528 210.048 103.912V108.184C210.048 108.419 209.968 108.616 209.808 108.776C209.659 108.925 209.472 109 209.248 109C209.013 109 208.821 108.925 208.672 108.776C208.523 108.616 208.448 108.419 208.448 108.184V101.4C208.448 101.165 208.523 100.973 208.672 100.824C208.821 100.664 209.013 100.584 209.248 100.584C209.472 100.584 209.659 100.664 209.808 100.824C209.968 100.973 210.048 101.165 210.048 101.4V102.296L209.76 102.456C209.835 102.221 209.963 101.987 210.144 101.752C210.336 101.507 210.565 101.283 210.832 101.08C211.099 100.867 211.397 100.701 211.728 100.584C212.059 100.456 212.411 100.392 212.784 100.392ZM221.39 100.392C221.848 100.392 222.27 100.467 222.654 100.616C223.038 100.765 223.368 100.957 223.646 101.192C223.934 101.416 224.158 101.651 224.318 101.896C224.478 102.141 224.558 102.355 224.558 102.536L224.19 102.552V101.272C224.19 101.048 224.264 100.856 224.414 100.696C224.563 100.536 224.755 100.456 224.99 100.456C225.224 100.456 225.416 100.536 225.566 100.696C225.715 100.845 225.79 101.037 225.79 101.272V108.328C225.79 109.235 225.598 109.971 225.214 110.536C224.83 111.112 224.318 111.533 223.678 111.8C223.048 112.067 222.355 112.2 221.598 112.2C221.331 112.2 221.016 112.163 220.654 112.088C220.291 112.024 219.955 111.944 219.646 111.848C219.347 111.752 219.139 111.656 219.022 111.56C218.776 111.432 218.611 111.283 218.526 111.112C218.451 110.941 218.451 110.771 218.526 110.6C218.632 110.365 218.776 110.221 218.958 110.168C219.139 110.115 219.347 110.131 219.582 110.216C219.688 110.248 219.854 110.307 220.078 110.392C220.302 110.477 220.552 110.552 220.83 110.616C221.107 110.691 221.368 110.728 221.614 110.728C222.467 110.728 223.107 110.531 223.534 110.136C223.971 109.741 224.19 109.203 224.19 108.52V107.08L224.366 107.192C224.334 107.416 224.232 107.645 224.062 107.88C223.902 108.104 223.688 108.312 223.422 108.504C223.155 108.696 222.846 108.856 222.494 108.984C222.152 109.101 221.8 109.16 221.438 109.16C220.68 109.16 220.003 108.973 219.406 108.6C218.808 108.216 218.334 107.699 217.982 107.048C217.63 106.387 217.454 105.629 217.454 104.776C217.454 103.923 217.63 103.171 217.982 102.52C218.334 101.859 218.803 101.341 219.39 100.968C219.987 100.584 220.654 100.392 221.39 100.392ZM221.63 101.864C221.107 101.864 220.648 101.992 220.254 102.248C219.859 102.504 219.55 102.851 219.326 103.288C219.102 103.725 218.99 104.221 218.99 104.776C218.99 105.331 219.102 105.827 219.326 106.264C219.55 106.701 219.859 107.048 220.254 107.304C220.648 107.56 221.107 107.688 221.63 107.688C222.152 107.688 222.611 107.565 223.006 107.32C223.4 107.064 223.71 106.717 223.934 106.28C224.158 105.832 224.27 105.331 224.27 104.776C224.27 104.221 224.158 103.725 223.934 103.288C223.71 102.84 223.4 102.493 223.006 102.248C222.611 101.992 222.152 101.864 221.63 101.864ZM227.358 107.688C227.262 107.539 227.22 107.368 227.23 107.176C227.241 106.973 227.353 106.803 227.566 106.664C227.716 106.568 227.87 106.531 228.03 106.552C228.201 106.563 228.361 106.643 228.51 106.792C228.809 107.123 229.14 107.384 229.502 107.576C229.876 107.768 230.324 107.864 230.846 107.864C231.06 107.853 231.278 107.821 231.502 107.768C231.726 107.704 231.918 107.597 232.078 107.448C232.238 107.288 232.318 107.059 232.318 106.76C232.318 106.493 232.233 106.28 232.062 106.12C231.892 105.96 231.668 105.832 231.39 105.736C231.113 105.629 230.814 105.533 230.494 105.448C230.153 105.352 229.806 105.245 229.454 105.128C229.113 105.011 228.804 104.861 228.526 104.68C228.249 104.488 228.02 104.243 227.838 103.944C227.668 103.645 227.582 103.277 227.582 102.84C227.582 102.339 227.721 101.907 227.998 101.544C228.286 101.181 228.654 100.899 229.102 100.696C229.561 100.493 230.057 100.392 230.59 100.392C230.9 100.392 231.225 100.435 231.566 100.52C231.908 100.595 232.238 100.717 232.558 100.888C232.878 101.059 233.156 101.283 233.39 101.56C233.497 101.699 233.556 101.864 233.566 102.056C233.588 102.248 233.502 102.419 233.31 102.568C233.182 102.675 233.028 102.723 232.846 102.712C232.665 102.701 232.516 102.643 232.398 102.536C232.196 102.28 231.934 102.083 231.614 101.944C231.294 101.795 230.932 101.72 230.526 101.72C230.324 101.72 230.11 101.752 229.886 101.816C229.673 101.869 229.492 101.971 229.342 102.12C229.193 102.269 229.118 102.488 229.118 102.776C229.118 103.043 229.204 103.256 229.374 103.416C229.556 103.576 229.79 103.709 230.078 103.816C230.366 103.923 230.681 104.019 231.022 104.104C231.353 104.189 231.678 104.291 231.998 104.408C232.329 104.525 232.622 104.68 232.878 104.872C233.145 105.053 233.358 105.293 233.518 105.592C233.689 105.88 233.774 106.248 233.774 106.696C233.774 107.219 233.62 107.667 233.31 108.04C233.012 108.403 232.628 108.68 232.158 108.872C231.7 109.064 231.214 109.16 230.702 109.16C230.094 109.16 229.486 109.053 228.878 108.84C228.281 108.616 227.774 108.232 227.358 107.688Z" fill="#A3A3A3"/>
<circle cx="19" cy="165" r="10" fill="#737373"/>
<path d="M5.36 141.392C6.10667 141.392 6.768 141.579 7.344 141.952C7.93067 142.325 8.39467 142.843 8.736 143.504C9.07733 144.155 9.248 144.907 9.248 145.76C9.248 146.613 9.07733 147.371 8.736 148.032C8.39467 148.693 7.936 149.216 7.36 149.6C6.784 149.973 6.13333 150.16 5.408 150.16C5.00267 150.16 4.61867 150.096 4.256 149.968C3.89333 149.829 3.57333 149.659 3.296 149.456C3.01867 149.243 2.78933 149.019 2.608 148.784C2.43733 148.549 2.33067 148.331 2.288 148.128L2.72 147.92V149.312C2.72 149.536 2.64 149.728 2.48 149.888C2.33067 150.037 2.144 150.112 1.92 150.112C1.68533 150.112 1.49333 150.037 1.344 149.888C1.19467 149.739 1.12 149.547 1.12 149.312V138.976C1.12 138.741 1.19467 138.549 1.344 138.4C1.49333 138.24 1.68533 138.16 1.92 138.16C2.144 138.16 2.33067 138.24 2.48 138.4C2.64 138.549 2.72 138.741 2.72 138.976V143.472L2.464 143.328C2.496 143.125 2.59733 142.917 2.768 142.704C2.93867 142.48 3.152 142.267 3.408 142.064C3.67467 141.861 3.97333 141.701 4.304 141.584C4.64533 141.456 4.99733 141.392 5.36 141.392ZM5.184 142.864C4.672 142.864 4.224 142.992 3.84 143.248C3.46667 143.504 3.17333 143.851 2.96 144.288C2.74667 144.715 2.64 145.205 2.64 145.76C2.64 146.315 2.74667 146.816 2.96 147.264C3.17333 147.701 3.46667 148.048 3.84 148.304C4.224 148.56 4.672 148.688 5.184 148.688C5.68533 148.688 6.12267 148.56 6.496 148.304C6.86933 148.048 7.16267 147.696 7.376 147.248C7.6 146.8 7.712 146.304 7.712 145.76C7.712 145.205 7.6 144.715 7.376 144.288C7.16267 143.851 6.86933 143.504 6.496 143.248C6.12267 142.992 5.68533 142.864 5.184 142.864ZM11.8575 150C11.6228 150 11.4308 149.925 11.2815 149.776C11.1322 149.616 11.0575 149.419 11.0575 149.184V142.4C11.0575 142.165 11.1322 141.973 11.2815 141.824C11.4308 141.664 11.6228 141.584 11.8575 141.584C12.0815 141.584 12.2682 141.664 12.4175 141.824C12.5775 141.973 12.6575 142.165 12.6575 142.4V144.192L12.4975 143.504C12.5828 143.205 12.7108 142.928 12.8815 142.672C13.0628 142.416 13.2762 142.192 13.5215 142C13.7668 141.808 14.0388 141.659 14.3375 141.552C14.6468 141.445 14.9668 141.392 15.2975 141.392C15.5748 141.392 15.8148 141.467 16.0175 141.616C16.2202 141.765 16.3215 141.952 16.3215 142.176C16.3215 142.464 16.2468 142.677 16.0975 142.816C15.9482 142.944 15.7828 143.008 15.6015 143.008C15.4415 143.008 15.2868 142.976 15.1375 142.912C14.9882 142.837 14.8122 142.8 14.6095 142.8C14.3855 142.8 14.1562 142.859 13.9215 142.976C13.6868 143.093 13.4735 143.269 13.2815 143.504C13.0895 143.728 12.9348 143.995 12.8175 144.304C12.7108 144.613 12.6575 144.96 12.6575 145.344V149.184C12.6575 149.419 12.5775 149.616 12.4175 149.776C12.2682 149.925 12.0815 150 11.8575 150ZM24.4535 141.456C24.6882 141.456 24.8802 141.536 25.0295 141.696C25.1788 141.845 25.2535 142.037 25.2535 142.272V149.184C25.2535 149.419 25.1788 149.616 25.0295 149.776C24.8802 149.925 24.6882 150 24.4535 150C24.2295 150 24.0375 149.925 23.8775 149.776C23.7282 149.616 23.6535 149.419 23.6535 149.184V148.032L23.9895 148.08C23.9895 148.272 23.9095 148.485 23.7495 148.72C23.6002 148.955 23.3922 149.184 23.1255 149.408C22.8588 149.621 22.5442 149.803 22.1815 149.952C21.8188 150.091 21.4295 150.16 21.0135 150.16C20.2775 150.16 19.6162 149.973 19.0295 149.6C18.4428 149.216 17.9788 148.693 17.6375 148.032C17.2962 147.371 17.1255 146.619 17.1255 145.776C17.1255 144.912 17.2962 144.155 17.6375 143.504C17.9788 142.843 18.4375 142.325 19.0135 141.952C19.6002 141.579 20.2508 141.392 20.9655 141.392C21.4242 141.392 21.8455 141.467 22.2295 141.616C22.6242 141.765 22.9655 141.957 23.2535 142.192C23.5415 142.427 23.7602 142.677 23.9095 142.944C24.0695 143.2 24.1495 143.445 24.1495 143.68L23.6535 143.728V142.272C23.6535 142.048 23.7282 141.856 23.8775 141.696C24.0375 141.536 24.2295 141.456 24.4535 141.456ZM21.1895 148.688C21.6908 148.688 22.1335 148.56 22.5175 148.304C22.9015 148.048 23.2002 147.701 23.4135 147.264C23.6268 146.816 23.7335 146.32 23.7335 145.776C23.7335 145.221 23.6268 144.725 23.4135 144.288C23.2002 143.851 22.9015 143.504 22.5175 143.248C22.1335 142.992 21.6908 142.864 21.1895 142.864C20.6988 142.864 20.2615 142.992 19.8775 143.248C19.5042 143.504 19.2055 143.851 18.9815 144.288C18.7682 144.725 18.6615 145.221 18.6615 145.776C18.6615 146.32 18.7682 146.816 18.9815 147.264C19.2055 147.701 19.5042 148.048 19.8775 148.304C20.2615 148.56 20.6988 148.688 21.1895 148.688ZM28.999 149.184C28.999 149.419 28.9243 149.616 28.775 149.776C28.6257 149.925 28.4337 150 28.199 150C27.975 150 27.783 149.925 27.623 149.776C27.4737 149.616 27.399 149.419 27.399 149.184V142.336C27.399 142.101 27.4737 141.909 27.623 141.76C27.783 141.6 27.975 141.52 28.199 141.52C28.4337 141.52 28.6257 141.6 28.775 141.76C28.9243 141.909 28.999 142.101 28.999 142.336V149.184ZM28.183 140.464C27.8737 140.464 27.6497 140.411 27.511 140.304C27.3723 140.187 27.303 139.995 27.303 139.728V139.472C27.303 139.205 27.3777 139.019 27.527 138.912C27.6763 138.805 27.9003 138.752 28.199 138.752C28.519 138.752 28.7483 138.811 28.887 138.928C29.0257 139.035 29.095 139.216 29.095 139.472V139.728C29.095 140.005 29.0203 140.197 28.871 140.304C28.7323 140.411 28.503 140.464 28.183 140.464ZM35.4873 141.392C36.2446 141.392 36.8313 141.552 37.2473 141.872C37.6633 142.181 37.9513 142.603 38.1112 143.136C38.2819 143.659 38.3673 144.245 38.3673 144.896V149.184C38.3673 149.419 38.2873 149.616 38.1273 149.776C37.9779 149.925 37.7913 150 37.5673 150C37.3326 150 37.1406 149.925 36.9913 149.776C36.8419 149.616 36.7673 149.419 36.7673 149.184V144.912C36.7673 144.528 36.7139 144.187 36.6073 143.888C36.5006 143.579 36.3139 143.333 36.0473 143.152C35.7913 142.96 35.4286 142.864 34.9593 142.864C34.5219 142.864 34.1379 142.96 33.8073 143.152C33.4766 143.333 33.2153 143.579 33.0233 143.888C32.8419 144.187 32.7513 144.528 32.7513 144.912V149.184C32.7513 149.419 32.6713 149.616 32.5113 149.776C32.3619 149.925 32.1753 150 31.9513 150C31.7166 150 31.5246 149.925 31.3753 149.776C31.2259 149.616 31.1513 149.419 31.1513 149.184V142.4C31.1513 142.165 31.2259 141.973 31.3753 141.824C31.5246 141.664 31.7166 141.584 31.9513 141.584C32.1753 141.584 32.3619 141.664 32.5113 141.824C32.6713 141.973 32.7513 142.165 32.7513 142.4V143.296L32.4633 143.456C32.5379 143.221 32.6659 142.987 32.8473 142.752C33.0393 142.507 33.2686 142.283 33.5353 142.08C33.8019 141.867 34.1006 141.701 34.4313 141.584C34.7619 141.456 35.1139 141.392 35.4873 141.392Z" fill="#A3A3A3"/>
<circle cx="303" cy="267" r="10" fill="#737373"/>
<path d="M288.36 293.44C289.096 293.44 289.667 293.6 290.072 293.92C290.477 294.229 290.76 294.651 290.92 295.184C291.091 295.717 291.176 296.304 291.176 296.944V301.184C291.176 301.419 291.096 301.616 290.936 301.776C290.787 301.925 290.6 302 290.376 302C290.141 302 289.949 301.925 289.8 301.776C289.651 301.616 289.576 301.419 289.576 301.184V296.944C289.576 296.571 289.523 296.229 289.416 295.92C289.32 295.611 289.144 295.365 288.888 295.184C288.643 295.003 288.296 294.912 287.848 294.912C287.432 294.912 287.059 295.003 286.728 295.184C286.408 295.365 286.157 295.611 285.976 295.92C285.805 296.229 285.72 296.571 285.72 296.944V301.184C285.72 301.419 285.64 301.616 285.48 301.776C285.331 301.925 285.144 302 284.92 302C284.685 302 284.493 301.925 284.344 301.776C284.195 301.616 284.12 301.419 284.12 301.184V290.976C284.12 290.741 284.195 290.549 284.344 290.4C284.493 290.24 284.685 290.16 284.92 290.16C285.144 290.16 285.331 290.24 285.48 290.4C285.64 290.549 285.72 290.741 285.72 290.976V295.344L285.432 295.504C285.507 295.269 285.629 295.029 285.8 294.784C285.981 294.539 286.2 294.315 286.456 294.112C286.723 293.909 287.016 293.749 287.336 293.632C287.656 293.504 287.997 293.44 288.36 293.44ZM297.321 302.16C296.436 302.16 295.668 301.979 295.017 301.616C294.367 301.243 293.86 300.736 293.497 300.096C293.145 299.445 292.969 298.704 292.969 297.872C292.969 296.933 293.156 296.133 293.529 295.472C293.913 294.8 294.409 294.288 295.017 293.936C295.625 293.573 296.271 293.392 296.953 293.392C297.476 293.392 297.972 293.499 298.441 293.712C298.911 293.915 299.327 294.203 299.689 294.576C300.063 294.939 300.356 295.371 300.569 295.872C300.783 296.363 300.895 296.901 300.905 297.488C300.895 297.701 300.809 297.877 300.649 298.016C300.489 298.155 300.303 298.224 300.089 298.224H293.865L293.481 296.864H299.497L299.193 297.152V296.752C299.172 296.379 299.049 296.053 298.825 295.776C298.601 295.488 298.324 295.269 297.993 295.12C297.663 294.96 297.316 294.88 296.953 294.88C296.633 294.88 296.324 294.933 296.025 295.04C295.737 295.136 295.476 295.296 295.241 295.52C295.017 295.744 294.836 296.043 294.697 296.416C294.569 296.779 294.505 297.232 294.505 297.776C294.505 298.363 294.628 298.875 294.873 299.312C295.119 299.749 295.449 300.091 295.865 300.336C296.281 300.571 296.74 300.688 297.241 300.688C297.636 300.688 297.961 300.651 298.217 300.576C298.473 300.491 298.687 300.389 298.857 300.272C299.028 300.155 299.177 300.043 299.305 299.936C299.465 299.84 299.625 299.792 299.785 299.792C299.977 299.792 300.137 299.861 300.265 300C300.393 300.128 300.457 300.283 300.457 300.464C300.457 300.699 300.34 300.912 300.105 301.104C299.817 301.381 299.417 301.627 298.905 301.84C298.404 302.053 297.876 302.16 297.321 302.16ZM309.672 293.456C309.907 293.456 310.099 293.536 310.248 293.696C310.398 293.845 310.472 294.037 310.472 294.272V301.184C310.472 301.419 310.398 301.616 310.248 301.776C310.099 301.925 309.907 302 309.672 302C309.448 302 309.256 301.925 309.096 301.776C308.947 301.616 308.872 301.419 308.872 301.184V300.032L309.208 300.08C309.208 300.272 309.128 300.485 308.968 300.72C308.819 300.955 308.611 301.184 308.344 301.408C308.078 301.621 307.763 301.803 307.4 301.952C307.038 302.091 306.648 302.16 306.232 302.16C305.496 302.16 304.835 301.973 304.248 301.6C303.662 301.216 303.198 300.693 302.856 300.032C302.515 299.371 302.344 298.619 302.344 297.776C302.344 296.912 302.515 296.155 302.856 295.504C303.198 294.843 303.656 294.325 304.232 293.952C304.819 293.579 305.47 293.392 306.184 293.392C306.643 293.392 307.064 293.467 307.448 293.616C307.843 293.765 308.184 293.957 308.472 294.192C308.76 294.427 308.979 294.677 309.128 294.944C309.288 295.2 309.368 295.445 309.368 295.68L308.872 295.728V294.272C308.872 294.048 308.947 293.856 309.096 293.696C309.256 293.536 309.448 293.456 309.672 293.456ZM306.408 300.688C306.91 300.688 307.352 300.56 307.736 300.304C308.12 300.048 308.419 299.701 308.632 299.264C308.846 298.816 308.952 298.32 308.952 297.776C308.952 297.221 308.846 296.725 308.632 296.288C308.419 295.851 308.12 295.504 307.736 295.248C307.352 294.992 306.91 294.864 306.408 294.864C305.918 294.864 305.48 294.992 305.096 295.248C304.723 295.504 304.424 295.851 304.2 296.288C303.987 296.725 303.88 297.221 303.88 297.776C303.88 298.32 303.987 298.816 304.2 299.264C304.424 299.701 304.723 300.048 305.096 300.304C305.48 300.56 305.918 300.688 306.408 300.688ZM313.514 302C313.279 302 313.087 301.925 312.938 301.776C312.788 301.616 312.714 301.419 312.714 301.184V294.4C312.714 294.165 312.788 293.973 312.938 293.824C313.087 293.664 313.279 293.584 313.514 293.584C313.738 293.584 313.924 293.664 314.074 293.824C314.234 293.973 314.314 294.165 314.314 294.4V296.192L314.154 295.504C314.239 295.205 314.367 294.928 314.538 294.672C314.719 294.416 314.932 294.192 315.178 294C315.423 293.808 315.695 293.659 315.994 293.552C316.303 293.445 316.623 293.392 316.954 293.392C317.231 293.392 317.471 293.467 317.674 293.616C317.876 293.765 317.978 293.952 317.978 294.176C317.978 294.464 317.903 294.677 317.754 294.816C317.604 294.944 317.439 295.008 317.258 295.008C317.098 295.008 316.943 294.976 316.794 294.912C316.644 294.837 316.468 294.8 316.266 294.8C316.042 294.8 315.812 294.859 315.578 294.976C315.343 295.093 315.13 295.269 314.938 295.504C314.746 295.728 314.591 295.995 314.474 296.304C314.367 296.613 314.314 296.96 314.314 297.344V301.184C314.314 301.419 314.234 301.616 314.074 301.776C313.924 301.925 313.738 302 313.514 302ZM319.289 293.68H323.049C323.263 293.68 323.439 293.755 323.577 293.904C323.727 294.043 323.801 294.219 323.801 294.432C323.801 294.635 323.727 294.805 323.577 294.944C323.439 295.083 323.263 295.152 323.049 295.152H319.289C319.076 295.152 318.895 295.083 318.745 294.944C318.607 294.795 318.537 294.619 318.537 294.416C318.537 294.203 318.607 294.027 318.745 293.888C318.895 293.749 319.076 293.68 319.289 293.68ZM320.969 291.6C321.204 291.6 321.396 291.68 321.545 291.84C321.695 291.989 321.769 292.181 321.769 292.416V299.84C321.769 300.032 321.801 300.187 321.865 300.304C321.929 300.421 322.015 300.501 322.121 300.544C322.239 300.587 322.356 300.608 322.473 300.608C322.591 300.608 322.692 300.587 322.777 300.544C322.873 300.501 322.985 300.48 323.113 300.48C323.241 300.48 323.359 300.539 323.465 300.656C323.572 300.773 323.625 300.933 323.625 301.136C323.625 301.392 323.487 301.6 323.209 301.76C322.932 301.92 322.633 302 322.313 302C322.132 302 321.919 301.984 321.673 301.952C321.428 301.92 321.188 301.84 320.953 301.712C320.729 301.584 320.543 301.381 320.393 301.104C320.244 300.816 320.169 300.416 320.169 299.904V292.416C320.169 292.181 320.244 291.989 320.393 291.84C320.553 291.68 320.745 291.6 320.969 291.6Z" fill="#A3A3A3"/>
<circle cx="221" cy="415" r="10" fill="#737373"/>
<path d="M203.848 437.392C204.424 437.392 204.936 437.456 205.384 437.584C205.832 437.701 206.179 437.872 206.424 438.096C206.68 438.309 206.808 438.56 206.808 438.848C206.808 439.029 206.755 439.2 206.648 439.36C206.541 439.509 206.381 439.584 206.168 439.584C206.019 439.584 205.891 439.557 205.784 439.504C205.688 439.451 205.597 439.387 205.512 439.312C205.427 439.237 205.32 439.163 205.192 439.088C205.075 439.024 204.899 438.971 204.664 438.928C204.44 438.885 204.237 438.864 204.056 438.864C203.491 438.864 203 438.992 202.584 439.248C202.179 439.504 201.859 439.851 201.624 440.288C201.4 440.725 201.288 441.221 201.288 441.776C201.288 442.331 201.4 442.827 201.624 443.264C201.859 443.701 202.173 444.048 202.568 444.304C202.973 444.56 203.443 444.688 203.976 444.688C204.296 444.688 204.557 444.667 204.76 444.624C204.963 444.571 205.139 444.507 205.288 444.432C205.448 444.336 205.581 444.24 205.688 444.144C205.805 444.037 205.965 443.984 206.168 443.984C206.403 443.984 206.579 444.059 206.696 444.208C206.824 444.347 206.888 444.523 206.888 444.736C206.888 444.971 206.744 445.2 206.456 445.424C206.179 445.637 205.805 445.813 205.336 445.952C204.867 446.091 204.349 446.16 203.784 446.16C202.952 446.16 202.227 445.968 201.608 445.584C201 445.2 200.525 444.677 200.184 444.016C199.853 443.355 199.688 442.608 199.688 441.776C199.688 440.933 199.864 440.187 200.216 439.536C200.568 438.875 201.059 438.352 201.688 437.968C202.317 437.584 203.037 437.392 203.848 437.392ZM209.217 446C208.982 446 208.79 445.925 208.641 445.776C208.492 445.616 208.417 445.419 208.417 445.184V438.4C208.417 438.165 208.492 437.973 208.641 437.824C208.79 437.664 208.982 437.584 209.217 437.584C209.441 437.584 209.628 437.664 209.777 437.824C209.937 437.973 210.017 438.165 210.017 438.4V440.192L209.857 439.504C209.942 439.205 210.07 438.928 210.241 438.672C210.422 438.416 210.636 438.192 210.881 438C211.126 437.808 211.398 437.659 211.697 437.552C212.006 437.445 212.326 437.392 212.657 437.392C212.934 437.392 213.174 437.467 213.377 437.616C213.58 437.765 213.681 437.952 213.681 438.176C213.681 438.464 213.606 438.677 213.457 438.816C213.308 438.944 213.142 439.008 212.961 439.008C212.801 439.008 212.646 438.976 212.497 438.912C212.348 438.837 212.172 438.8 211.969 438.8C211.745 438.8 211.516 438.859 211.281 438.976C211.046 439.093 210.833 439.269 210.641 439.504C210.449 439.728 210.294 439.995 210.177 440.304C210.07 440.613 210.017 440.96 210.017 441.344V445.184C210.017 445.419 209.937 445.616 209.777 445.776C209.628 445.925 209.441 446 209.217 446ZM221.813 437.456C222.048 437.456 222.24 437.536 222.389 437.696C222.538 437.845 222.613 438.037 222.613 438.272V445.184C222.613 445.419 222.538 445.616 222.389 445.776C222.24 445.925 222.048 446 221.813 446C221.589 446 221.397 445.925 221.237 445.776C221.088 445.616 221.013 445.419 221.013 445.184V444.032L221.349 444.08C221.349 444.272 221.269 444.485 221.109 444.72C220.96 444.955 220.752 445.184 220.485 445.408C220.218 445.621 219.904 445.803 219.541 445.952C219.178 446.091 218.789 446.16 218.373 446.16C217.637 446.16 216.976 445.973 216.389 445.6C215.802 445.216 215.338 444.693 214.997 444.032C214.656 443.371 214.485 442.619 214.485 441.776C214.485 440.912 214.656 440.155 214.997 439.504C215.338 438.843 215.797 438.325 216.373 437.952C216.96 437.579 217.61 437.392 218.325 437.392C218.784 437.392 219.205 437.467 219.589 437.616C219.984 437.765 220.325 437.957 220.613 438.192C220.901 438.427 221.12 438.677 221.269 438.944C221.429 439.2 221.509 439.445 221.509 439.68L221.013 439.728V438.272C221.013 438.048 221.088 437.856 221.237 437.696C221.397 437.536 221.589 437.456 221.813 437.456ZM218.549 444.688C219.05 444.688 219.493 444.56 219.877 444.304C220.261 444.048 220.56 443.701 220.773 443.264C220.986 442.816 221.093 442.32 221.093 441.776C221.093 441.221 220.986 440.725 220.773 440.288C220.56 439.851 220.261 439.504 219.877 439.248C219.493 438.992 219.05 438.864 218.549 438.864C218.058 438.864 217.621 438.992 217.237 439.248C216.864 439.504 216.565 439.851 216.341 440.288C216.128 440.725 216.021 441.221 216.021 441.776C216.021 442.32 216.128 442.816 216.341 443.264C216.565 443.701 216.864 444.048 217.237 444.304C217.621 444.56 218.058 444.688 218.549 444.688ZM229.19 437.392C229.948 437.392 230.534 437.552 230.95 437.872C231.366 438.181 231.654 438.603 231.814 439.136C231.985 439.659 232.07 440.245 232.07 440.896V445.184C232.07 445.419 231.99 445.616 231.83 445.776C231.681 445.925 231.494 446 231.27 446C231.036 446 230.844 445.925 230.694 445.776C230.545 445.616 230.47 445.419 230.47 445.184V440.912C230.47 440.528 230.417 440.187 230.31 439.888C230.204 439.579 230.017 439.333 229.75 439.152C229.494 438.96 229.132 438.864 228.662 438.864C228.225 438.864 227.841 438.96 227.51 439.152C227.18 439.333 226.918 439.579 226.726 439.888C226.545 440.187 226.454 440.528 226.454 440.912V445.184C226.454 445.419 226.374 445.616 226.214 445.776C226.065 445.925 225.878 446 225.654 446C225.42 446 225.228 445.925 225.078 445.776C224.929 445.616 224.854 445.419 224.854 445.184V438.4C224.854 438.165 224.929 437.973 225.078 437.824C225.228 437.664 225.42 437.584 225.654 437.584C225.878 437.584 226.065 437.664 226.214 437.824C226.374 437.973 226.454 438.165 226.454 438.4V439.296L226.166 439.456C226.241 439.221 226.369 438.987 226.55 438.752C226.742 438.507 226.972 438.283 227.238 438.08C227.505 437.867 227.804 437.701 228.134 437.584C228.465 437.456 228.817 437.392 229.19 437.392ZM235.796 445.184C235.796 445.419 235.721 445.616 235.572 445.776C235.423 445.925 235.231 446 234.996 446C234.772 446 234.58 445.925 234.42 445.776C234.271 445.616 234.196 445.419 234.196 445.184V438.336C234.196 438.101 234.271 437.909 234.42 437.76C234.58 437.6 234.772 437.52 234.996 437.52C235.231 437.52 235.423 437.6 235.572 437.76C235.721 437.909 235.796 438.101 235.796 438.336V445.184ZM234.98 436.464C234.671 436.464 234.447 436.411 234.308 436.304C234.169 436.187 234.1 435.995 234.1 435.728V435.472C234.1 435.205 234.175 435.019 234.324 434.912C234.473 434.805 234.697 434.752 234.996 434.752C235.316 434.752 235.545 434.811 235.684 434.928C235.823 435.035 235.892 435.216 235.892 435.472V435.728C235.892 436.005 235.817 436.197 235.668 436.304C235.529 436.411 235.3 436.464 234.98 436.464ZM244.844 437.456C245.079 437.456 245.271 437.536 245.42 437.696C245.569 437.845 245.644 438.037 245.644 438.272V445.184C245.644 445.419 245.569 445.616 245.42 445.776C245.271 445.925 245.079 446 244.844 446C244.62 446 244.428 445.925 244.268 445.776C244.119 445.616 244.044 445.419 244.044 445.184V444.032L244.38 444.08C244.38 444.272 244.3 444.485 244.14 444.72C243.991 444.955 243.783 445.184 243.516 445.408C243.249 445.621 242.935 445.803 242.572 445.952C242.209 446.091 241.82 446.16 241.404 446.16C240.668 446.16 240.007 445.973 239.42 445.6C238.833 445.216 238.369 444.693 238.028 444.032C237.687 443.371 237.516 442.619 237.516 441.776C237.516 440.912 237.687 440.155 238.028 439.504C238.369 438.843 238.828 438.325 239.404 437.952C239.991 437.579 240.641 437.392 241.356 437.392C241.815 437.392 242.236 437.467 242.62 437.616C243.015 437.765 243.356 437.957 243.644 438.192C243.932 438.427 244.151 438.677 244.3 438.944C244.46 439.2 244.54 439.445 244.54 439.68L244.044 439.728V438.272C244.044 438.048 244.119 437.856 244.268 437.696C244.428 437.536 244.62 437.456 244.844 437.456ZM241.58 444.688C242.081 444.688 242.524 444.56 242.908 444.304C243.292 444.048 243.591 443.701 243.804 443.264C244.017 442.816 244.124 442.32 244.124 441.776C244.124 441.221 244.017 440.725 243.804 440.288C243.591 439.851 243.292 439.504 242.908 439.248C242.524 438.992 242.081 438.864 241.58 438.864C241.089 438.864 240.652 438.992 240.268 439.248C239.895 439.504 239.596 439.851 239.372 440.288C239.159 440.725 239.052 441.221 239.052 441.776C239.052 442.32 239.159 442.816 239.372 443.264C239.596 443.701 239.895 444.048 240.268 444.304C240.652 444.56 241.089 444.688 241.58 444.688ZM249.614 445.184C249.614 445.419 249.534 445.616 249.374 445.776C249.224 445.925 249.038 446 248.814 446C248.59 446 248.398 445.925 248.238 445.776C248.088 445.616 248.014 445.419 248.014 445.184V434.976C248.014 434.741 248.094 434.549 248.254 434.4C248.414 434.24 248.606 434.16 248.83 434.16C249.064 434.16 249.251 434.24 249.39 434.4C249.539 434.549 249.614 434.741 249.614 434.976V445.184Z" fill="#A3A3A3"/>
<circle cx="299" cy="415" r="10" fill="#737373"/>
<path d="M277.848 445.184C277.848 445.419 277.768 445.616 277.608 445.776C277.459 445.925 277.272 446 277.048 446C276.824 446 276.632 445.925 276.472 445.776C276.323 445.616 276.248 445.419 276.248 445.184V434.976C276.248 434.741 276.328 434.549 276.488 434.4C276.648 434.24 276.84 434.16 277.064 434.16C277.299 434.16 277.485 434.24 277.624 434.4C277.773 434.549 277.848 434.741 277.848 434.976V445.184ZM286.423 437.584C286.647 437.584 286.834 437.664 286.983 437.824C287.143 437.973 287.223 438.165 287.223 438.4V442.608C287.223 443.717 286.914 444.587 286.295 445.216C285.677 445.835 284.802 446.144 283.671 446.144C282.551 446.144 281.682 445.835 281.063 445.216C280.455 444.587 280.151 443.717 280.151 442.608V438.4C280.151 438.165 280.226 437.973 280.375 437.824C280.525 437.664 280.717 437.584 280.951 437.584C281.175 437.584 281.362 437.664 281.511 437.824C281.671 437.973 281.751 438.165 281.751 438.4V442.608C281.751 443.301 281.911 443.819 282.231 444.16C282.562 444.501 283.042 444.672 283.671 444.672C284.311 444.672 284.797 444.501 285.127 444.16C285.458 443.819 285.623 443.301 285.623 442.608V438.4C285.623 438.165 285.698 437.973 285.847 437.824C285.997 437.664 286.189 437.584 286.423 437.584ZM293.672 437.44C294.461 437.44 295.069 437.637 295.496 438.032C295.923 438.416 296.205 438.939 296.344 439.6L296.088 439.52L296.2 439.264C296.339 438.987 296.547 438.709 296.824 438.432C297.112 438.144 297.453 437.909 297.848 437.728C298.243 437.536 298.664 437.44 299.112 437.44C299.848 437.44 300.419 437.6 300.824 437.92C301.229 438.229 301.512 438.651 301.672 439.184C301.832 439.707 301.912 440.293 301.912 440.944V445.184C301.912 445.419 301.837 445.616 301.688 445.776C301.539 445.925 301.347 446 301.112 446C300.888 446 300.696 445.925 300.536 445.776C300.387 445.616 300.312 445.419 300.312 445.184V440.96C300.312 440.587 300.259 440.245 300.152 439.936C300.056 439.627 299.88 439.381 299.624 439.2C299.379 439.008 299.037 438.912 298.6 438.912C298.184 438.912 297.811 439.008 297.48 439.2C297.16 439.381 296.909 439.627 296.728 439.936C296.547 440.245 296.456 440.587 296.456 440.96V445.184C296.456 445.419 296.381 445.616 296.232 445.776C296.083 445.925 295.891 446 295.656 446C295.421 446 295.229 445.925 295.08 445.776C294.931 445.616 294.856 445.419 294.856 445.184V440.944C294.856 440.571 294.803 440.229 294.696 439.92C294.6 439.611 294.429 439.365 294.184 439.184C293.939 439.003 293.597 438.912 293.16 438.912C292.744 438.912 292.376 439.003 292.056 439.184C291.736 439.365 291.485 439.611 291.304 439.92C291.133 440.229 291.048 440.571 291.048 440.944V445.184C291.048 445.419 290.968 445.616 290.808 445.776C290.659 445.925 290.472 446 290.248 446C290.013 446 289.821 445.925 289.672 445.776C289.523 445.616 289.448 445.419 289.448 445.184V438.4C289.448 438.165 289.523 437.973 289.672 437.824C289.821 437.664 290.013 437.584 290.248 437.584C290.472 437.584 290.659 437.664 290.808 437.824C290.968 437.973 291.048 438.165 291.048 438.4V439.344L290.744 439.52C290.819 439.285 290.941 439.045 291.112 438.8C291.283 438.555 291.496 438.331 291.752 438.128C292.019 437.925 292.312 437.76 292.632 437.632C292.952 437.504 293.299 437.44 293.672 437.44ZM308.391 437.392C309.138 437.392 309.799 437.579 310.375 437.952C310.962 438.325 311.426 438.843 311.767 439.504C312.109 440.155 312.279 440.907 312.279 441.76C312.279 442.613 312.109 443.371 311.767 444.032C311.426 444.693 310.967 445.216 310.391 445.6C309.815 445.973 309.165 446.16 308.439 446.16C308.034 446.16 307.65 446.096 307.287 445.968C306.925 445.829 306.605 445.659 306.327 445.456C306.05 445.243 305.821 445.019 305.639 444.784C305.469 444.549 305.362 444.331 305.319 444.128L305.751 443.92V445.312C305.751 445.536 305.671 445.728 305.511 445.888C305.362 446.037 305.175 446.112 304.951 446.112C304.717 446.112 304.525 446.037 304.375 445.888C304.226 445.739 304.151 445.547 304.151 445.312V434.976C304.151 434.741 304.226 434.549 304.375 434.4C304.525 434.24 304.717 434.16 304.951 434.16C305.175 434.16 305.362 434.24 305.511 434.4C305.671 434.549 305.751 434.741 305.751 434.976V439.472L305.495 439.328C305.527 439.125 305.629 438.917 305.799 438.704C305.97 438.48 306.183 438.267 306.439 438.064C306.706 437.861 307.005 437.701 307.335 437.584C307.677 437.456 308.029 437.392 308.391 437.392ZM308.215 438.864C307.703 438.864 307.255 438.992 306.871 439.248C306.498 439.504 306.205 439.851 305.991 440.288C305.778 440.715 305.671 441.205 305.671 441.76C305.671 442.315 305.778 442.816 305.991 443.264C306.205 443.701 306.498 444.048 306.871 444.304C307.255 444.56 307.703 444.688 308.215 444.688C308.717 444.688 309.154 444.56 309.527 444.304C309.901 444.048 310.194 443.696 310.407 443.248C310.631 442.8 310.743 442.304 310.743 441.76C310.743 441.205 310.631 440.715 310.407 440.288C310.194 439.851 309.901 439.504 309.527 439.248C309.154 438.992 308.717 438.864 308.215 438.864ZM320.985 437.456C321.219 437.456 321.411 437.536 321.561 437.696C321.71 437.845 321.785 438.037 321.785 438.272V445.184C321.785 445.419 321.71 445.616 321.561 445.776C321.411 445.925 321.219 446 320.985 446C320.761 446 320.569 445.925 320.409 445.776C320.259 445.616 320.185 445.419 320.185 445.184V444.032L320.521 444.08C320.521 444.272 320.441 444.485 320.281 444.72C320.131 444.955 319.923 445.184 319.657 445.408C319.39 445.621 319.075 445.803 318.713 445.952C318.35 446.091 317.961 446.16 317.545 446.16C316.809 446.16 316.147 445.973 315.561 445.6C314.974 445.216 314.51 444.693 314.169 444.032C313.827 443.371 313.657 442.619 313.657 441.776C313.657 440.912 313.827 440.155 314.169 439.504C314.51 438.843 314.969 438.325 315.545 437.952C316.131 437.579 316.782 437.392 317.497 437.392C317.955 437.392 318.377 437.467 318.761 437.616C319.155 437.765 319.497 437.957 319.785 438.192C320.073 438.427 320.291 438.677 320.441 438.944C320.601 439.2 320.681 439.445 320.681 439.68L320.185 439.728V438.272C320.185 438.048 320.259 437.856 320.409 437.696C320.569 437.536 320.761 437.456 320.985 437.456ZM317.721 444.688C318.222 444.688 318.665 444.56 319.049 444.304C319.433 444.048 319.731 443.701 319.945 443.264C320.158 442.816 320.265 442.32 320.265 441.776C320.265 441.221 320.158 440.725 319.945 440.288C319.731 439.851 319.433 439.504 319.049 439.248C318.665 438.992 318.222 438.864 317.721 438.864C317.23 438.864 316.793 438.992 316.409 439.248C316.035 439.504 315.737 439.851 315.513 440.288C315.299 440.725 315.193 441.221 315.193 441.776C315.193 442.32 315.299 442.816 315.513 443.264C315.737 443.701 316.035 444.048 316.409 444.304C316.793 444.56 317.23 444.688 317.721 444.688ZM324.826 446C324.592 446 324.4 445.925 324.25 445.776C324.101 445.616 324.026 445.419 324.026 445.184V438.4C324.026 438.165 324.101 437.973 324.25 437.824C324.4 437.664 324.592 437.584 324.826 437.584C325.05 437.584 325.237 437.664 325.386 437.824C325.546 437.973 325.626 438.165 325.626 438.4V440.192L325.466 439.504C325.552 439.205 325.68 438.928 325.85 438.672C326.032 438.416 326.245 438.192 326.49 438C326.736 437.808 327.008 437.659 327.306 437.552C327.616 437.445 327.936 437.392 328.266 437.392C328.544 437.392 328.784 437.467 328.986 437.616C329.189 437.765 329.29 437.952 329.29 438.176C329.29 438.464 329.216 438.677 329.066 438.816C328.917 438.944 328.752 439.008 328.57 439.008C328.41 439.008 328.256 438.976 328.106 438.912C327.957 438.837 327.781 438.8 327.578 438.8C327.354 438.8 327.125 438.859 326.89 438.976C326.656 439.093 326.442 439.269 326.25 439.504C326.058 439.728 325.904 439.995 325.786 440.304C325.68 440.613 325.626 440.96 325.626 441.344V445.184C325.626 445.419 325.546 445.616 325.386 445.776C325.237 445.925 325.05 446 324.826 446Z" fill="#A3A3A3"/>
<circle cx="134" cy="415" r="10" fill="#737373"/>
<path d="M111.36 437.392C112.107 437.392 112.768 437.579 113.344 437.952C113.931 438.325 114.395 438.843 114.736 439.504C115.077 440.155 115.248 440.907 115.248 441.76C115.248 442.613 115.077 443.371 114.736 444.032C114.395 444.693 113.936 445.216 113.36 445.6C112.784 445.973 112.133 446.16 111.408 446.16C111.003 446.16 110.619 446.096 110.256 445.968C109.893 445.829 109.573 445.659 109.296 445.456C109.019 445.243 108.789 445.019 108.608 444.784C108.437 444.549 108.331 444.331 108.288 444.128L108.72 443.92V445.312C108.72 445.536 108.64 445.728 108.48 445.888C108.331 446.037 108.144 446.112 107.92 446.112C107.685 446.112 107.493 446.037 107.344 445.888C107.195 445.739 107.12 445.547 107.12 445.312V434.976C107.12 434.741 107.195 434.549 107.344 434.4C107.493 434.24 107.685 434.16 107.92 434.16C108.144 434.16 108.331 434.24 108.48 434.4C108.64 434.549 108.72 434.741 108.72 434.976V439.472L108.464 439.328C108.496 439.125 108.597 438.917 108.768 438.704C108.939 438.48 109.152 438.267 109.408 438.064C109.675 437.861 109.973 437.701 110.304 437.584C110.645 437.456 110.997 437.392 111.36 437.392ZM111.184 438.864C110.672 438.864 110.224 438.992 109.84 439.248C109.467 439.504 109.173 439.851 108.96 440.288C108.747 440.715 108.64 441.205 108.64 441.76C108.64 442.315 108.747 442.816 108.96 443.264C109.173 443.701 109.467 444.048 109.84 444.304C110.224 444.56 110.672 444.688 111.184 444.688C111.685 444.688 112.123 444.56 112.496 444.304C112.869 444.048 113.163 443.696 113.376 443.248C113.6 442.8 113.712 442.304 113.712 441.76C113.712 441.205 113.6 440.715 113.376 440.288C113.163 439.851 112.869 439.504 112.496 439.248C112.123 438.992 111.685 438.864 111.184 438.864ZM117.858 446C117.623 446 117.431 445.925 117.282 445.776C117.132 445.616 117.058 445.419 117.058 445.184V438.4C117.058 438.165 117.132 437.973 117.282 437.824C117.431 437.664 117.623 437.584 117.858 437.584C118.082 437.584 118.268 437.664 118.418 437.824C118.578 437.973 118.658 438.165 118.658 438.4V440.192L118.498 439.504C118.583 439.205 118.711 438.928 118.882 438.672C119.063 438.416 119.276 438.192 119.522 438C119.767 437.808 120.039 437.659 120.338 437.552C120.647 437.445 120.967 437.392 121.298 437.392C121.575 437.392 121.815 437.467 122.018 437.616C122.22 437.765 122.322 437.952 122.322 438.176C122.322 438.464 122.247 438.677 122.098 438.816C121.948 438.944 121.783 439.008 121.602 439.008C121.442 439.008 121.287 438.976 121.138 438.912C120.988 438.837 120.812 438.8 120.61 438.8C120.386 438.8 120.156 438.859 119.922 438.976C119.687 439.093 119.474 439.269 119.282 439.504C119.09 439.728 118.935 439.995 118.818 440.304C118.711 440.613 118.658 440.96 118.658 441.344V445.184C118.658 445.419 118.578 445.616 118.418 445.776C118.268 445.925 118.082 446 117.858 446ZM130.454 437.456C130.688 437.456 130.88 437.536 131.03 437.696C131.179 437.845 131.253 438.037 131.253 438.272V445.184C131.253 445.419 131.179 445.616 131.03 445.776C130.88 445.925 130.688 446 130.454 446C130.23 446 130.038 445.925 129.878 445.776C129.728 445.616 129.654 445.419 129.654 445.184V444.032L129.99 444.08C129.99 444.272 129.91 444.485 129.75 444.72C129.6 444.955 129.392 445.184 129.126 445.408C128.859 445.621 128.544 445.803 128.182 445.952C127.819 446.091 127.43 446.16 127.014 446.16C126.278 446.16 125.616 445.973 125.03 445.6C124.443 445.216 123.979 444.693 123.638 444.032C123.296 443.371 123.126 442.619 123.126 441.776C123.126 440.912 123.296 440.155 123.638 439.504C123.979 438.843 124.438 438.325 125.014 437.952C125.6 437.579 126.251 437.392 126.966 437.392C127.424 437.392 127.846 437.467 128.23 437.616C128.624 437.765 128.966 437.957 129.254 438.192C129.542 438.427 129.76 438.677 129.91 438.944C130.07 439.2 130.15 439.445 130.15 439.68L129.654 439.728V438.272C129.654 438.048 129.728 437.856 129.878 437.696C130.038 437.536 130.23 437.456 130.454 437.456ZM127.19 444.688C127.691 444.688 128.134 444.56 128.518 444.304C128.902 444.048 129.2 443.701 129.414 443.264C129.627 442.816 129.734 442.32 129.734 441.776C129.734 441.221 129.627 440.725 129.414 440.288C129.2 439.851 128.902 439.504 128.518 439.248C128.134 438.992 127.691 438.864 127.19 438.864C126.699 438.864 126.262 438.992 125.878 439.248C125.504 439.504 125.206 439.851 124.982 440.288C124.768 440.725 124.662 441.221 124.662 441.776C124.662 442.32 124.768 442.816 124.982 443.264C125.206 443.701 125.504 444.048 125.878 444.304C126.262 444.56 126.699 444.688 127.19 444.688ZM137.223 437.392C137.799 437.392 138.311 437.456 138.759 437.584C139.207 437.701 139.554 437.872 139.799 438.096C140.055 438.309 140.183 438.56 140.183 438.848C140.183 439.029 140.13 439.2 140.023 439.36C139.916 439.509 139.756 439.584 139.543 439.584C139.394 439.584 139.266 439.557 139.159 439.504C139.063 439.451 138.972 439.387 138.887 439.312C138.802 439.237 138.695 439.163 138.567 439.088C138.45 439.024 138.274 438.971 138.039 438.928C137.815 438.885 137.612 438.864 137.431 438.864C136.866 438.864 136.375 438.992 135.959 439.248C135.554 439.504 135.234 439.851 134.999 440.288C134.775 440.725 134.663 441.221 134.663 441.776C134.663 442.331 134.775 442.827 134.999 443.264C135.234 443.701 135.548 444.048 135.943 444.304C136.348 444.56 136.818 444.688 137.351 444.688C137.671 444.688 137.932 444.667 138.135 444.624C138.338 444.571 138.514 444.507 138.663 444.432C138.823 444.336 138.956 444.24 139.063 444.144C139.18 444.037 139.34 443.984 139.543 443.984C139.778 443.984 139.954 444.059 140.071 444.208C140.199 444.347 140.263 444.523 140.263 444.736C140.263 444.971 140.119 445.2 139.831 445.424C139.554 445.637 139.18 445.813 138.711 445.952C138.242 446.091 137.724 446.16 137.159 446.16C136.327 446.16 135.602 445.968 134.983 445.584C134.375 445.2 133.9 444.677 133.559 444.016C133.228 443.355 133.063 442.608 133.063 441.776C133.063 440.933 133.239 440.187 133.591 439.536C133.943 438.875 134.434 438.352 135.063 437.968C135.692 437.584 136.412 437.392 137.223 437.392ZM146.032 437.44C146.768 437.44 147.339 437.6 147.744 437.92C148.149 438.229 148.432 438.651 148.592 439.184C148.763 439.717 148.848 440.304 148.848 440.944V445.184C148.848 445.419 148.768 445.616 148.608 445.776C148.459 445.925 148.272 446 148.048 446C147.813 446 147.621 445.925 147.472 445.776C147.323 445.616 147.248 445.419 147.248 445.184V440.944C147.248 440.571 147.195 440.229 147.088 439.92C146.992 439.611 146.816 439.365 146.56 439.184C146.315 439.003 145.968 438.912 145.52 438.912C145.104 438.912 144.731 439.003 144.4 439.184C144.08 439.365 143.829 439.611 143.648 439.92C143.477 440.229 143.392 440.571 143.392 440.944V445.184C143.392 445.419 143.312 445.616 143.152 445.776C143.003 445.925 142.816 446 142.592 446C142.357 446 142.165 445.925 142.016 445.776C141.867 445.616 141.792 445.419 141.792 445.184V434.976C141.792 434.741 141.867 434.549 142.016 434.4C142.165 434.24 142.357 434.16 142.592 434.16C142.816 434.16 143.003 434.24 143.152 434.4C143.312 434.549 143.392 434.741 143.392 434.976V439.344L143.104 439.504C143.179 439.269 143.301 439.029 143.472 438.784C143.653 438.539 143.872 438.315 144.128 438.112C144.395 437.909 144.688 437.749 145.008 437.632C145.328 437.504 145.669 437.44 146.032 437.44ZM152.577 445.184C152.577 445.419 152.502 445.616 152.353 445.776C152.204 445.925 152.012 446 151.777 446C151.553 446 151.361 445.925 151.201 445.776C151.052 445.616 150.977 445.419 150.977 445.184V438.336C150.977 438.101 151.052 437.909 151.201 437.76C151.361 437.6 151.553 437.52 151.777 437.52C152.012 437.52 152.204 437.6 152.353 437.76C152.502 437.909 152.577 438.101 152.577 438.336V445.184ZM151.761 436.464C151.452 436.464 151.228 436.411 151.089 436.304C150.95 436.187 150.881 435.995 150.881 435.728V435.472C150.881 435.205 150.956 435.019 151.105 434.912C151.254 434.805 151.478 434.752 151.777 434.752C152.097 434.752 152.326 434.811 152.465 434.928C152.604 435.035 152.673 435.216 152.673 435.472V435.728C152.673 436.005 152.598 436.197 152.449 436.304C152.31 436.411 152.081 436.464 151.761 436.464ZM161.625 437.456C161.86 437.456 162.052 437.536 162.201 437.696C162.351 437.845 162.425 438.037 162.425 438.272V445.184C162.425 445.419 162.351 445.616 162.201 445.776C162.052 445.925 161.86 446 161.625 446C161.401 446 161.209 445.925 161.049 445.776C160.9 445.616 160.825 445.419 160.825 445.184V444.032L161.161 444.08C161.161 444.272 161.081 444.485 160.921 444.72C160.772 444.955 160.564 445.184 160.297 445.408C160.031 445.621 159.716 445.803 159.353 445.952C158.991 446.091 158.601 446.16 158.185 446.16C157.449 446.16 156.788 445.973 156.201 445.6C155.615 445.216 155.151 444.693 154.809 444.032C154.468 443.371 154.297 442.619 154.297 441.776C154.297 440.912 154.468 440.155 154.809 439.504C155.151 438.843 155.609 438.325 156.185 437.952C156.772 437.579 157.423 437.392 158.137 437.392C158.596 437.392 159.017 437.467 159.401 437.616C159.796 437.765 160.137 437.957 160.425 438.192C160.713 438.427 160.932 438.677 161.081 438.944C161.241 439.2 161.321 439.445 161.321 439.68L160.825 439.728V438.272C160.825 438.048 160.9 437.856 161.049 437.696C161.209 437.536 161.401 437.456 161.625 437.456ZM158.361 444.688C158.863 444.688 159.305 444.56 159.689 444.304C160.073 444.048 160.372 443.701 160.585 443.264C160.799 442.816 160.905 442.32 160.905 441.776C160.905 441.221 160.799 440.725 160.585 440.288C160.372 439.851 160.073 439.504 159.689 439.248C159.305 438.992 158.863 438.864 158.361 438.864C157.871 438.864 157.433 438.992 157.049 439.248C156.676 439.504 156.377 439.851 156.153 440.288C155.94 440.725 155.833 441.221 155.833 441.776C155.833 442.32 155.94 442.816 156.153 443.264C156.377 443.701 156.676 444.048 157.049 444.304C157.433 444.56 157.871 444.688 158.361 444.688ZM166.395 445.184C166.395 445.419 166.315 445.616 166.155 445.776C166.006 445.925 165.819 446 165.595 446C165.371 446 165.179 445.925 165.019 445.776C164.87 445.616 164.795 445.419 164.795 445.184V434.976C164.795 434.741 164.875 434.549 165.035 434.4C165.195 434.24 165.387 434.16 165.611 434.16C165.846 434.16 166.032 434.24 166.171 434.4C166.32 434.549 166.395 434.741 166.395 434.976V445.184Z" fill="#A3A3A3"/>
<circle cx="48" cy="415" r="10" fill="#737373"/>
<path d="M20.624 444.688C20.528 444.539 20.4853 444.368 20.496 444.176C20.5067 443.973 20.6187 443.803 20.832 443.664C20.9813 443.568 21.136 443.531 21.296 443.552C21.4667 443.563 21.6267 443.643 21.776 443.792C22.0747 444.123 22.4053 444.384 22.768 444.576C23.1413 444.768 23.5893 444.864 24.112 444.864C24.3253 444.853 24.544 444.821 24.768 444.768C24.992 444.704 25.184 444.597 25.344 444.448C25.504 444.288 25.584 444.059 25.584 443.76C25.584 443.493 25.4987 443.28 25.328 443.12C25.1573 442.96 24.9333 442.832 24.656 442.736C24.3787 442.629 24.08 442.533 23.76 442.448C23.4187 442.352 23.072 442.245 22.72 442.128C22.3787 442.011 22.0693 441.861 21.792 441.68C21.5147 441.488 21.2853 441.243 21.104 440.944C20.9333 440.645 20.848 440.277 20.848 439.84C20.848 439.339 20.9867 438.907 21.264 438.544C21.552 438.181 21.92 437.899 22.368 437.696C22.8267 437.493 23.3227 437.392 23.856 437.392C24.1653 437.392 24.4907 437.435 24.832 437.52C25.1733 437.595 25.504 437.717 25.824 437.888C26.144 438.059 26.4213 438.283 26.656 438.56C26.7627 438.699 26.8213 438.864 26.832 439.056C26.8533 439.248 26.768 439.419 26.576 439.568C26.448 439.675 26.2933 439.723 26.112 439.712C25.9307 439.701 25.7813 439.643 25.664 439.536C25.4613 439.28 25.2 439.083 24.88 438.944C24.56 438.795 24.1973 438.72 23.792 438.72C23.5893 438.72 23.376 438.752 23.152 438.816C22.9387 438.869 22.7573 438.971 22.608 439.12C22.4587 439.269 22.384 439.488 22.384 439.776C22.384 440.043 22.4693 440.256 22.64 440.416C22.8213 440.576 23.056 440.709 23.344 440.816C23.632 440.923 23.9467 441.019 24.288 441.104C24.6187 441.189 24.944 441.291 25.264 441.408C25.5947 441.525 25.888 441.68 26.144 441.872C26.4107 442.053 26.624 442.293 26.784 442.592C26.9547 442.88 27.04 443.248 27.04 443.696C27.04 444.219 26.8853 444.667 26.576 445.04C26.2773 445.403 25.8933 445.68 25.424 445.872C24.9653 446.064 24.48 446.16 23.968 446.16C23.36 446.16 22.752 446.053 22.144 445.84C21.5467 445.616 21.04 445.232 20.624 444.688ZM35.7816 437.456C36.0163 437.456 36.2083 437.536 36.3576 437.696C36.507 437.845 36.5816 438.037 36.5816 438.272V445.184C36.5816 445.419 36.507 445.616 36.3576 445.776C36.2083 445.925 36.0163 446 35.7816 446C35.5576 446 35.3656 445.925 35.2056 445.776C35.0563 445.616 34.9816 445.419 34.9816 445.184V444.032L35.3176 444.08C35.3176 444.272 35.2376 444.485 35.0776 444.72C34.9283 444.955 34.7203 445.184 34.4536 445.408C34.187 445.621 33.8723 445.803 33.5096 445.952C33.147 446.091 32.7576 446.16 32.3416 446.16C31.6056 446.16 30.9443 445.973 30.3576 445.6C29.771 445.216 29.307 444.693 28.9656 444.032C28.6243 443.371 28.4536 442.619 28.4536 441.776C28.4536 440.912 28.6243 440.155 28.9656 439.504C29.307 438.843 29.7656 438.325 30.3416 437.952C30.9283 437.579 31.579 437.392 32.2936 437.392C32.7523 437.392 33.1736 437.467 33.5576 437.616C33.9523 437.765 34.2936 437.957 34.5816 438.192C34.8696 438.427 35.0883 438.677 35.2376 438.944C35.3976 439.2 35.4776 439.445 35.4776 439.68L34.9816 439.728V438.272C34.9816 438.048 35.0563 437.856 35.2056 437.696C35.3656 437.536 35.5576 437.456 35.7816 437.456ZM32.5176 444.688C33.019 444.688 33.4616 444.56 33.8456 444.304C34.2296 444.048 34.5283 443.701 34.7416 443.264C34.955 442.816 35.0616 442.32 35.0616 441.776C35.0616 441.221 34.955 440.725 34.7416 440.288C34.5283 439.851 34.2296 439.504 33.8456 439.248C33.4616 438.992 33.019 438.864 32.5176 438.864C32.027 438.864 31.5896 438.992 31.2056 439.248C30.8323 439.504 30.5336 439.851 30.3096 440.288C30.0963 440.725 29.9896 441.221 29.9896 441.776C29.9896 442.32 30.0963 442.816 30.3096 443.264C30.5336 443.701 30.8323 444.048 31.2056 444.304C31.5896 444.56 32.027 444.688 32.5176 444.688ZM42.5511 437.392C43.1271 437.392 43.6391 437.456 44.0871 437.584C44.5351 437.701 44.8818 437.872 45.1271 438.096C45.3831 438.309 45.5111 438.56 45.5111 438.848C45.5111 439.029 45.4578 439.2 45.3511 439.36C45.2445 439.509 45.0845 439.584 44.8711 439.584C44.7218 439.584 44.5938 439.557 44.4871 439.504C44.3911 439.451 44.3005 439.387 44.2151 439.312C44.1298 439.237 44.0231 439.163 43.8951 439.088C43.7778 439.024 43.6018 438.971 43.3671 438.928C43.1431 438.885 42.9405 438.864 42.7591 438.864C42.1938 438.864 41.7031 438.992 41.2871 439.248C40.8818 439.504 40.5618 439.851 40.3271 440.288C40.1031 440.725 39.9911 441.221 39.9911 441.776C39.9911 442.331 40.1031 442.827 40.3271 443.264C40.5618 443.701 40.8765 444.048 41.2711 444.304C41.6765 444.56 42.1458 444.688 42.6791 444.688C42.9991 444.688 43.2605 444.667 43.4631 444.624C43.6658 444.571 43.8418 444.507 43.9911 444.432C44.1511 444.336 44.2845 444.24 44.3911 444.144C44.5085 444.037 44.6685 443.984 44.8711 443.984C45.1058 443.984 45.2818 444.059 45.3991 444.208C45.5271 444.347 45.5911 444.523 45.5911 444.736C45.5911 444.971 45.4471 445.2 45.1591 445.424C44.8818 445.637 44.5085 445.813 44.0391 445.952C43.5698 446.091 43.0525 446.16 42.4871 446.16C41.6551 446.16 40.9298 445.968 40.3111 445.584C39.7031 445.2 39.2285 444.677 38.8871 444.016C38.5565 443.355 38.3911 442.608 38.3911 441.776C38.3911 440.933 38.5671 440.187 38.9191 439.536C39.2711 438.875 39.7618 438.352 40.3911 437.968C41.0205 437.584 41.7405 437.392 42.5511 437.392ZM47.92 446C47.6853 446 47.4933 445.925 47.344 445.776C47.1947 445.616 47.12 445.419 47.12 445.184V438.4C47.12 438.165 47.1947 437.973 47.344 437.824C47.4933 437.664 47.6853 437.584 47.92 437.584C48.144 437.584 48.3307 437.664 48.48 437.824C48.64 437.973 48.72 438.165 48.72 438.4V440.192L48.56 439.504C48.6453 439.205 48.7733 438.928 48.944 438.672C49.1253 438.416 49.3387 438.192 49.584 438C49.8293 437.808 50.1013 437.659 50.4 437.552C50.7093 437.445 51.0293 437.392 51.36 437.392C51.6373 437.392 51.8773 437.467 52.08 437.616C52.2827 437.765 52.384 437.952 52.384 438.176C52.384 438.464 52.3093 438.677 52.16 438.816C52.0107 438.944 51.8453 439.008 51.664 439.008C51.504 439.008 51.3493 438.976 51.2 438.912C51.0507 438.837 50.8747 438.8 50.672 438.8C50.448 438.8 50.2187 438.859 49.984 438.976C49.7493 439.093 49.536 439.269 49.344 439.504C49.152 439.728 48.9973 439.995 48.88 440.304C48.7733 440.613 48.72 440.96 48.72 441.344V445.184C48.72 445.419 48.64 445.616 48.48 445.776C48.3307 445.925 48.144 446 47.92 446ZM60.516 437.456C60.7507 437.456 60.9427 437.536 61.092 437.696C61.2413 437.845 61.316 438.037 61.316 438.272V445.184C61.316 445.419 61.2413 445.616 61.092 445.776C60.9427 445.925 60.7507 446 60.516 446C60.292 446 60.1 445.925 59.94 445.776C59.7907 445.616 59.716 445.419 59.716 445.184V444.032L60.052 444.08C60.052 444.272 59.972 444.485 59.812 444.72C59.6627 444.955 59.4547 445.184 59.188 445.408C58.9213 445.621 58.6067 445.803 58.244 445.952C57.8813 446.091 57.492 446.16 57.076 446.16C56.34 446.16 55.6787 445.973 55.092 445.6C54.5053 445.216 54.0413 444.693 53.7 444.032C53.3587 443.371 53.188 442.619 53.188 441.776C53.188 440.912 53.3587 440.155 53.7 439.504C54.0413 438.843 54.5 438.325 55.076 437.952C55.6627 437.579 56.3133 437.392 57.028 437.392C57.4867 437.392 57.908 437.467 58.292 437.616C58.6867 437.765 59.028 437.957 59.316 438.192C59.604 438.427 59.8227 438.677 59.972 438.944C60.132 439.2 60.212 439.445 60.212 439.68L59.716 439.728V438.272C59.716 438.048 59.7907 437.856 59.94 437.696C60.1 437.536 60.292 437.456 60.516 437.456ZM57.252 444.688C57.7533 444.688 58.196 444.56 58.58 444.304C58.964 444.048 59.2627 443.701 59.476 443.264C59.6893 442.816 59.796 442.32 59.796 441.776C59.796 441.221 59.6893 440.725 59.476 440.288C59.2627 439.851 58.964 439.504 58.58 439.248C58.196 438.992 57.7533 438.864 57.252 438.864C56.7613 438.864 56.324 438.992 55.94 439.248C55.5667 439.504 55.268 439.851 55.044 440.288C54.8307 440.725 54.724 441.221 54.724 441.776C54.724 442.32 54.8307 442.816 55.044 443.264C55.268 443.701 55.5667 444.048 55.94 444.304C56.324 444.56 56.7613 444.688 57.252 444.688ZM65.2855 445.184C65.2855 445.419 65.2055 445.616 65.0455 445.776C64.8962 445.925 64.7095 446 64.4855 446C64.2615 446 64.0695 445.925 63.9095 445.776C63.7602 445.616 63.6855 445.419 63.6855 445.184V434.976C63.6855 434.741 63.7655 434.549 63.9255 434.4C64.0855 434.24 64.2775 434.16 64.5015 434.16C64.7362 434.16 64.9228 434.24 65.0615 434.4C65.2108 434.549 65.2855 434.741 65.2855 434.976V445.184Z" fill="#A3A3A3"/>
<circle cx="352" cy="37" r="14" fill="#818CF8"/>
<path d="M338.184 11.792C338.184 12.6453 337.997 13.4027 337.624 14.064C337.251 14.7147 336.744 15.2267 336.104 15.6C335.464 15.9733 334.744 16.16 333.944 16.16C333.144 16.16 332.424 15.9733 331.784 15.6C331.144 15.2267 330.632 14.7147 330.248 14.064C329.875 13.4027 329.688 12.6453 329.688 11.792C329.688 10.928 329.875 10.1707 330.248 9.52C330.632 8.85867 331.144 8.34133 331.784 7.968C332.424 7.584 333.144 7.392 333.944 7.392C334.744 7.392 335.464 7.584 336.104 7.968C336.744 8.34133 337.251 8.85867 337.624 9.52C337.997 10.1707 338.184 10.928 338.184 11.792ZM336.584 11.792C336.584 11.2053 336.467 10.6987 336.232 10.272C335.997 9.83467 335.677 9.49333 335.272 9.248C334.877 8.992 334.435 8.864 333.944 8.864C333.453 8.864 333.005 8.992 332.6 9.248C332.195 9.49333 331.875 9.83467 331.64 10.272C331.405 10.6987 331.288 11.2053 331.288 11.792C331.288 12.3573 331.405 12.8587 331.64 13.296C331.875 13.7333 332.195 14.0747 332.6 14.32C333.005 14.5653 333.453 14.688 333.944 14.688C334.435 14.688 334.877 14.5653 335.272 14.32C335.677 14.0747 335.997 13.7333 336.232 13.296C336.467 12.8587 336.584 12.3573 336.584 11.792ZM340.795 16C340.56 16 340.368 15.9253 340.219 15.776C340.07 15.616 339.995 15.4187 339.995 15.184V8.4C339.995 8.16533 340.07 7.97333 340.219 7.824C340.368 7.664 340.56 7.584 340.795 7.584C341.019 7.584 341.206 7.664 341.355 7.824C341.515 7.97333 341.595 8.16533 341.595 8.4V10.192L341.435 9.504C341.52 9.20533 341.648 8.928 341.819 8.672C342 8.416 342.214 8.192 342.459 8C342.704 7.808 342.976 7.65867 343.275 7.552C343.584 7.44533 343.904 7.392 344.235 7.392C344.512 7.392 344.752 7.46667 344.955 7.616C345.158 7.76533 345.259 7.952 345.259 8.176C345.259 8.464 345.184 8.67733 345.035 8.816C344.886 8.944 344.72 9.008 344.539 9.008C344.379 9.008 344.224 8.976 344.075 8.912C343.926 8.83733 343.75 8.8 343.547 8.8C343.323 8.8 343.094 8.85867 342.859 8.976C342.624 9.09333 342.411 9.26933 342.219 9.504C342.027 9.728 341.872 9.99467 341.755 10.304C341.648 10.6133 341.595 10.96 341.595 11.344V15.184C341.595 15.4187 341.515 15.616 341.355 15.776C341.206 15.9253 341.019 16 340.795 16ZM349.952 7.392C350.411 7.392 350.832 7.46667 351.216 7.616C351.6 7.76533 351.931 7.95733 352.208 8.192C352.496 8.416 352.72 8.65067 352.88 8.896C353.04 9.14133 353.12 9.35467 353.12 9.536L352.752 9.552V8.272C352.752 8.048 352.827 7.856 352.976 7.696C353.125 7.536 353.317 7.456 353.552 7.456C353.787 7.456 353.979 7.536 354.128 7.696C354.277 7.84533 354.352 8.03733 354.352 8.272V15.328C354.352 16.2347 354.16 16.9707 353.776 17.536C353.392 18.112 352.88 18.5333 352.24 18.8C351.611 19.0667 350.917 19.2 350.16 19.2C349.893 19.2 349.579 19.1627 349.216 19.088C348.853 19.024 348.517 18.944 348.208 18.848C347.909 18.752 347.701 18.656 347.584 18.56C347.339 18.432 347.173 18.2827 347.088 18.112C347.013 17.9413 347.013 17.7707 347.088 17.6C347.195 17.3653 347.339 17.2213 347.52 17.168C347.701 17.1147 347.909 17.1307 348.144 17.216C348.251 17.248 348.416 17.3067 348.64 17.392C348.864 17.4773 349.115 17.552 349.392 17.616C349.669 17.6907 349.931 17.728 350.176 17.728C351.029 17.728 351.669 17.5307 352.096 17.136C352.533 16.7413 352.752 16.2027 352.752 15.52V14.08L352.928 14.192C352.896 14.416 352.795 14.6453 352.624 14.88C352.464 15.104 352.251 15.312 351.984 15.504C351.717 15.696 351.408 15.856 351.056 15.984C350.715 16.1013 350.363 16.16 350 16.16C349.243 16.16 348.565 15.9733 347.968 15.6C347.371 15.216 346.896 14.6987 346.544 14.048C346.192 13.3867 346.016 12.6293 346.016 11.776C346.016 10.9227 346.192 10.1707 346.544 9.52C346.896 8.85867 347.365 8.34133 347.952 7.968C348.549 7.584 349.216 7.392 349.952 7.392ZM350.192 8.864C349.669 8.864 349.211 8.992 348.816 9.248C348.421 9.504 348.112 9.85067 347.888 10.288C347.664 10.7253 347.552 11.2213 347.552 11.776C347.552 12.3307 347.664 12.8267 347.888 13.264C348.112 13.7013 348.421 14.048 348.816 14.304C349.211 14.56 349.669 14.688 350.192 14.688C350.715 14.688 351.173 14.5653 351.568 14.32C351.963 14.064 352.272 13.7173 352.496 13.28C352.72 12.832 352.832 12.3307 352.832 11.776C352.832 11.2213 352.72 10.7253 352.496 10.288C352.272 9.84 351.963 9.49333 351.568 9.248C351.173 8.992 350.715 8.864 350.192 8.864ZM363.391 7.456C363.626 7.456 363.818 7.536 363.967 7.696C364.116 7.84533 364.191 8.03733 364.191 8.272V15.184C364.191 15.4187 364.116 15.616 363.967 15.776C363.818 15.9253 363.626 16 363.391 16C363.167 16 362.975 15.9253 362.815 15.776C362.666 15.616 362.591 15.4187 362.591 15.184V14.032L362.927 14.08C362.927 14.272 362.847 14.4853 362.687 14.72C362.538 14.9547 362.33 15.184 362.063 15.408C361.796 15.6213 361.482 15.8027 361.119 15.952C360.756 16.0907 360.367 16.16 359.951 16.16C359.215 16.16 358.554 15.9733 357.967 15.6C357.38 15.216 356.916 14.6933 356.575 14.032C356.234 13.3707 356.063 12.6187 356.063 11.776C356.063 10.912 356.234 10.1547 356.575 9.504C356.916 8.84267 357.375 8.32533 357.951 7.952C358.538 7.57867 359.188 7.392 359.903 7.392C360.362 7.392 360.783 7.46667 361.167 7.616C361.562 7.76533 361.903 7.95733 362.191 8.192C362.479 8.42667 362.698 8.67733 362.847 8.944C363.007 9.2 363.087 9.44533 363.087 9.68L362.591 9.728V8.272C362.591 8.048 362.666 7.856 362.815 7.696C362.975 7.536 363.167 7.456 363.391 7.456ZM360.127 14.688C360.628 14.688 361.071 14.56 361.455 14.304C361.839 14.048 362.138 13.7013 362.351 13.264C362.564 12.816 362.671 12.32 362.671 11.776C362.671 11.2213 362.564 10.7253 362.351 10.288C362.138 9.85067 361.839 9.504 361.455 9.248C361.071 8.992 360.628 8.864 360.127 8.864C359.636 8.864 359.199 8.992 358.815 9.248C358.442 9.504 358.143 9.85067 357.919 10.288C357.706 10.7253 357.599 11.2213 357.599 11.776C357.599 12.32 357.706 12.816 357.919 13.264C358.143 13.7013 358.442 14.048 358.815 14.304C359.199 14.56 359.636 14.688 360.127 14.688ZM370.769 7.392C371.526 7.392 372.113 7.552 372.529 7.872C372.945 8.18133 373.233 8.60267 373.392 9.136C373.563 9.65867 373.649 10.2453 373.649 10.896V15.184C373.649 15.4187 373.569 15.616 373.409 15.776C373.259 15.9253 373.073 16 372.849 16C372.614 16 372.422 15.9253 372.273 15.776C372.123 15.616 372.049 15.4187 372.049 15.184V10.912C372.049 10.528 371.995 10.1867 371.889 9.888C371.782 9.57867 371.595 9.33333 371.329 9.152C371.073 8.96 370.71 8.864 370.241 8.864C369.803 8.864 369.419 8.96 369.089 9.152C368.758 9.33333 368.497 9.57867 368.305 9.888C368.123 10.1867 368.033 10.528 368.033 10.912V15.184C368.033 15.4187 367.953 15.616 367.793 15.776C367.643 15.9253 367.457 16 367.233 16C366.998 16 366.806 15.9253 366.657 15.776C366.507 15.616 366.433 15.4187 366.433 15.184V8.4C366.433 8.16533 366.507 7.97333 366.657 7.824C366.806 7.664 366.998 7.584 367.233 7.584C367.457 7.584 367.643 7.664 367.793 7.824C367.953 7.97333 368.033 8.16533 368.033 8.4V9.296L367.745 9.456C367.819 9.22133 367.947 8.98667 368.129 8.752C368.321 8.50667 368.55 8.28267 368.817 8.08C369.083 7.86667 369.382 7.70133 369.713 7.584C370.043 7.456 370.395 7.392 370.769 7.392ZM375.374 14.688C375.278 14.5387 375.235 14.368 375.246 14.176C375.257 13.9733 375.369 13.8027 375.582 13.664C375.731 13.568 375.886 13.5307 376.046 13.552C376.217 13.5627 376.377 13.6427 376.526 13.792C376.825 14.1227 377.155 14.384 377.518 14.576C377.891 14.768 378.339 14.864 378.862 14.864C379.075 14.8533 379.294 14.8213 379.518 14.768C379.742 14.704 379.934 14.5973 380.094 14.448C380.254 14.288 380.334 14.0587 380.334 13.76C380.334 13.4933 380.249 13.28 380.078 13.12C379.907 12.96 379.683 12.832 379.406 12.736C379.129 12.6293 378.83 12.5333 378.51 12.448C378.169 12.352 377.822 12.2453 377.47 12.128C377.129 12.0107 376.819 11.8613 376.542 11.68C376.265 11.488 376.035 11.2427 375.854 10.944C375.683 10.6453 375.598 10.2773 375.598 9.84C375.598 9.33867 375.737 8.90667 376.014 8.544C376.302 8.18133 376.67 7.89867 377.118 7.696C377.577 7.49333 378.073 7.392 378.606 7.392C378.915 7.392 379.241 7.43467 379.582 7.52C379.923 7.59467 380.254 7.71733 380.574 7.888C380.894 8.05867 381.171 8.28267 381.406 8.56C381.513 8.69867 381.571 8.864 381.582 9.056C381.603 9.248 381.518 9.41867 381.326 9.568C381.198 9.67467 381.043 9.72267 380.862 9.712C380.681 9.70133 380.531 9.64267 380.414 9.536C380.211 9.28 379.95 9.08267 379.63 8.944C379.31 8.79467 378.947 8.72 378.542 8.72C378.339 8.72 378.126 8.752 377.902 8.816C377.689 8.86933 377.507 8.97067 377.358 9.12C377.209 9.26933 377.134 9.488 377.134 9.776C377.134 10.0427 377.219 10.256 377.39 10.416C377.571 10.576 377.806 10.7093 378.094 10.816C378.382 10.9227 378.697 11.0187 379.038 11.104C379.369 11.1893 379.694 11.2907 380.014 11.408C380.345 11.5253 380.638 11.68 380.894 11.872C381.161 12.0533 381.374 12.2933 381.534 12.592C381.705 12.88 381.79 13.248 381.79 13.696C381.79 14.2187 381.635 14.6667 381.326 15.04C381.027 15.4027 380.643 15.68 380.174 15.872C379.715 16.064 379.23 16.16 378.718 16.16C378.11 16.16 377.502 16.0533 376.894 15.84C376.297 15.616 375.79 15.232 375.374 14.688Z" fill="#A3A3A3"/>
<circle cx="185" cy="546" r="14" fill="#818CF8"/>
<path d="M133.456 567.392C134.213 567.392 134.8 567.552 135.216 567.872C135.632 568.181 135.92 568.603 136.08 569.136C136.251 569.659 136.336 570.245 136.336 570.896V575.184C136.336 575.419 136.256 575.616 136.096 575.776C135.947 575.925 135.76 576 135.536 576C135.301 576 135.109 575.925 134.96 575.776C134.811 575.616 134.736 575.419 134.736 575.184V570.912C134.736 570.528 134.683 570.187 134.576 569.888C134.469 569.579 134.283 569.333 134.016 569.152C133.76 568.96 133.397 568.864 132.928 568.864C132.491 568.864 132.107 568.96 131.776 569.152C131.445 569.333 131.184 569.579 130.992 569.888C130.811 570.187 130.72 570.528 130.72 570.912V575.184C130.72 575.419 130.64 575.616 130.48 575.776C130.331 575.925 130.144 576 129.92 576C129.685 576 129.493 575.925 129.344 575.776C129.195 575.616 129.12 575.419 129.12 575.184V568.4C129.12 568.165 129.195 567.973 129.344 567.824C129.493 567.664 129.685 567.584 129.92 567.584C130.144 567.584 130.331 567.664 130.48 567.824C130.64 567.973 130.72 568.165 130.72 568.4V569.296L130.432 569.456C130.507 569.221 130.635 568.987 130.816 568.752C131.008 568.507 131.237 568.283 131.504 568.08C131.771 567.867 132.069 567.701 132.4 567.584C132.731 567.456 133.083 567.392 133.456 567.392ZM142.478 576.16C141.592 576.16 140.824 575.979 140.174 575.616C139.523 575.243 139.016 574.736 138.654 574.096C138.302 573.445 138.126 572.704 138.126 571.872C138.126 570.933 138.312 570.133 138.686 569.472C139.07 568.8 139.566 568.288 140.174 567.936C140.782 567.573 141.427 567.392 142.11 567.392C142.632 567.392 143.128 567.499 143.598 567.712C144.067 567.915 144.483 568.203 144.846 568.576C145.219 568.939 145.512 569.371 145.726 569.872C145.939 570.363 146.051 570.901 146.062 571.488C146.051 571.701 145.966 571.877 145.806 572.016C145.646 572.155 145.459 572.224 145.246 572.224H139.022L138.638 570.864H144.654L144.35 571.152V570.752C144.328 570.379 144.206 570.053 143.982 569.776C143.758 569.488 143.48 569.269 143.15 569.12C142.819 568.96 142.472 568.88 142.11 568.88C141.79 568.88 141.48 568.933 141.182 569.04C140.894 569.136 140.632 569.296 140.398 569.52C140.174 569.744 139.992 570.043 139.854 570.416C139.726 570.779 139.662 571.232 139.662 571.776C139.662 572.363 139.784 572.875 140.03 573.312C140.275 573.749 140.606 574.091 141.022 574.336C141.438 574.571 141.896 574.688 142.398 574.688C142.792 574.688 143.118 574.651 143.374 574.576C143.63 574.491 143.843 574.389 144.014 574.272C144.184 574.155 144.334 574.043 144.462 573.936C144.622 573.84 144.782 573.792 144.942 573.792C145.134 573.792 145.294 573.861 145.422 574C145.55 574.128 145.614 574.283 145.614 574.464C145.614 574.699 145.496 574.912 145.262 575.104C144.974 575.381 144.574 575.627 144.062 575.84C143.56 576.053 143.032 576.16 142.478 576.16ZM148.67 576C148.435 576 148.243 575.925 148.094 575.776C147.945 575.616 147.87 575.419 147.87 575.184V568.4C147.87 568.165 147.945 567.973 148.094 567.824C148.243 567.664 148.435 567.584 148.67 567.584C148.894 567.584 149.081 567.664 149.23 567.824C149.39 567.973 149.47 568.165 149.47 568.4V570.192L149.31 569.504C149.395 569.205 149.523 568.928 149.694 568.672C149.875 568.416 150.089 568.192 150.334 568C150.579 567.808 150.851 567.659 151.15 567.552C151.459 567.445 151.779 567.392 152.11 567.392C152.387 567.392 152.627 567.467 152.83 567.616C153.033 567.765 153.134 567.952 153.134 568.176C153.134 568.464 153.059 568.677 152.91 568.816C152.761 568.944 152.595 569.008 152.414 569.008C152.254 569.008 152.099 568.976 151.95 568.912C151.801 568.837 151.625 568.8 151.422 568.8C151.198 568.8 150.969 568.859 150.734 568.976C150.499 569.093 150.286 569.269 150.094 569.504C149.902 569.728 149.747 569.995 149.63 570.304C149.523 570.613 149.47 570.96 149.47 571.344V575.184C149.47 575.419 149.39 575.616 149.23 575.776C149.081 575.925 148.894 576 148.67 576ZM155.546 567.504C155.706 567.504 155.856 567.547 155.994 567.632C156.144 567.717 156.25 567.845 156.314 568.016L158.826 573.824L158.522 573.968L161.066 568.032C161.216 567.68 161.456 567.509 161.786 567.52C162 567.52 162.176 567.589 162.314 567.728C162.464 567.856 162.538 568.027 162.538 568.24C162.538 568.304 162.528 568.373 162.506 568.448C162.485 568.512 162.458 568.576 162.426 568.64L159.386 575.488C159.248 575.808 159.018 575.979 158.698 576C158.538 576.021 158.378 575.989 158.218 575.904C158.069 575.808 157.952 575.669 157.866 575.488L154.842 568.64C154.821 568.597 154.8 568.544 154.778 568.48C154.757 568.405 154.746 568.32 154.746 568.224C154.746 568.064 154.816 567.904 154.954 567.744C155.104 567.584 155.301 567.504 155.546 567.504ZM172.153 571.792C172.153 572.645 171.966 573.403 171.593 574.064C171.219 574.715 170.713 575.227 170.073 575.6C169.433 575.973 168.713 576.16 167.913 576.16C167.113 576.16 166.393 575.973 165.753 575.6C165.113 575.227 164.601 574.715 164.217 574.064C163.843 573.403 163.657 572.645 163.657 571.792C163.657 570.928 163.843 570.171 164.217 569.52C164.601 568.859 165.113 568.341 165.753 567.968C166.393 567.584 167.113 567.392 167.913 567.392C168.713 567.392 169.433 567.584 170.073 567.968C170.713 568.341 171.219 568.859 171.593 569.52C171.966 570.171 172.153 570.928 172.153 571.792ZM170.553 571.792C170.553 571.205 170.435 570.699 170.201 570.272C169.966 569.835 169.646 569.493 169.241 569.248C168.846 568.992 168.403 568.864 167.913 568.864C167.422 568.864 166.974 568.992 166.569 569.248C166.163 569.493 165.843 569.835 165.609 570.272C165.374 570.699 165.257 571.205 165.257 571.792C165.257 572.357 165.374 572.859 165.609 573.296C165.843 573.733 166.163 574.075 166.569 574.32C166.974 574.565 167.422 574.688 167.913 574.688C168.403 574.688 168.846 574.565 169.241 574.32C169.646 574.075 169.966 573.733 170.201 573.296C170.435 572.859 170.553 572.357 170.553 571.792ZM180.236 567.584C180.46 567.584 180.646 567.664 180.796 567.824C180.956 567.973 181.036 568.165 181.036 568.4V572.608C181.036 573.717 180.726 574.587 180.108 575.216C179.489 575.835 178.614 576.144 177.484 576.144C176.364 576.144 175.494 575.835 174.876 575.216C174.268 574.587 173.964 573.717 173.964 572.608V568.4C173.964 568.165 174.038 567.973 174.188 567.824C174.337 567.664 174.529 567.584 174.764 567.584C174.988 567.584 175.174 567.664 175.324 567.824C175.484 567.973 175.564 568.165 175.564 568.4V572.608C175.564 573.301 175.724 573.819 176.044 574.16C176.374 574.501 176.854 574.672 177.484 574.672C178.124 574.672 178.609 574.501 178.94 574.16C179.27 573.819 179.436 573.301 179.436 572.608V568.4C179.436 568.165 179.51 567.973 179.66 567.824C179.809 567.664 180.001 567.584 180.236 567.584ZM182.765 574.688C182.669 574.539 182.626 574.368 182.637 574.176C182.647 573.973 182.759 573.803 182.973 573.664C183.122 573.568 183.277 573.531 183.437 573.552C183.607 573.563 183.767 573.643 183.917 573.792C184.215 574.123 184.546 574.384 184.909 574.576C185.282 574.768 185.73 574.864 186.253 574.864C186.466 574.853 186.685 574.821 186.909 574.768C187.133 574.704 187.325 574.597 187.485 574.448C187.645 574.288 187.725 574.059 187.725 573.76C187.725 573.493 187.639 573.28 187.469 573.12C187.298 572.96 187.074 572.832 186.797 572.736C186.519 572.629 186.221 572.533 185.901 572.448C185.559 572.352 185.213 572.245 184.861 572.128C184.519 572.011 184.21 571.861 183.933 571.68C183.655 571.488 183.426 571.243 183.245 570.944C183.074 570.645 182.989 570.277 182.989 569.84C182.989 569.339 183.127 568.907 183.405 568.544C183.693 568.181 184.061 567.899 184.509 567.696C184.967 567.493 185.463 567.392 185.997 567.392C186.306 567.392 186.631 567.435 186.973 567.52C187.314 567.595 187.645 567.717 187.965 567.888C188.285 568.059 188.562 568.283 188.797 568.56C188.903 568.699 188.962 568.864 188.973 569.056C188.994 569.248 188.909 569.419 188.717 569.568C188.589 569.675 188.434 569.723 188.253 569.712C188.071 569.701 187.922 569.643 187.805 569.536C187.602 569.28 187.341 569.083 187.021 568.944C186.701 568.795 186.338 568.72 185.933 568.72C185.73 568.72 185.517 568.752 185.293 568.816C185.079 568.869 184.898 568.971 184.749 569.12C184.599 569.269 184.525 569.488 184.525 569.776C184.525 570.043 184.61 570.256 184.781 570.416C184.962 570.576 185.197 570.709 185.485 570.816C185.773 570.923 186.087 571.019 186.429 571.104C186.759 571.189 187.085 571.291 187.405 571.408C187.735 571.525 188.029 571.68 188.285 571.872C188.551 572.053 188.765 572.293 188.925 572.592C189.095 572.88 189.181 573.248 189.181 573.696C189.181 574.219 189.026 574.667 188.717 575.04C188.418 575.403 188.034 575.68 187.565 575.872C187.106 576.064 186.621 576.16 186.109 576.16C185.501 576.16 184.893 576.053 184.285 575.84C183.687 575.616 183.181 575.232 182.765 574.688ZM194.858 574.688C194.762 574.539 194.72 574.368 194.73 574.176C194.741 573.973 194.853 573.803 195.066 573.664C195.216 573.568 195.37 573.531 195.53 573.552C195.701 573.563 195.861 573.643 196.01 573.792C196.309 574.123 196.64 574.384 197.002 574.576C197.376 574.768 197.824 574.864 198.346 574.864C198.56 574.853 198.778 574.821 199.002 574.768C199.226 574.704 199.418 574.597 199.578 574.448C199.738 574.288 199.818 574.059 199.818 573.76C199.818 573.493 199.733 573.28 199.562 573.12C199.392 572.96 199.168 572.832 198.89 572.736C198.613 572.629 198.314 572.533 197.994 572.448C197.653 572.352 197.306 572.245 196.954 572.128C196.613 572.011 196.304 571.861 196.026 571.68C195.749 571.488 195.52 571.243 195.338 570.944C195.168 570.645 195.082 570.277 195.082 569.84C195.082 569.339 195.221 568.907 195.498 568.544C195.786 568.181 196.154 567.899 196.602 567.696C197.061 567.493 197.557 567.392 198.09 567.392C198.4 567.392 198.725 567.435 199.066 567.52C199.408 567.595 199.738 567.717 200.058 567.888C200.378 568.059 200.656 568.283 200.89 568.56C200.997 568.699 201.056 568.864 201.066 569.056C201.088 569.248 201.002 569.419 200.81 569.568C200.682 569.675 200.528 569.723 200.346 569.712C200.165 569.701 200.016 569.643 199.898 569.536C199.696 569.28 199.434 569.083 199.114 568.944C198.794 568.795 198.432 568.72 198.026 568.72C197.824 568.72 197.61 568.752 197.386 568.816C197.173 568.869 196.992 568.971 196.842 569.12C196.693 569.269 196.618 569.488 196.618 569.776C196.618 570.043 196.704 570.256 196.874 570.416C197.056 570.576 197.29 570.709 197.578 570.816C197.866 570.923 198.181 571.019 198.522 571.104C198.853 571.189 199.178 571.291 199.498 571.408C199.829 571.525 200.122 571.68 200.378 571.872C200.645 572.053 200.858 572.293 201.018 572.592C201.189 572.88 201.274 573.248 201.274 573.696C201.274 574.219 201.12 574.667 200.81 575.04C200.512 575.403 200.128 575.68 199.658 575.872C199.2 576.064 198.714 576.16 198.202 576.16C197.594 576.16 196.986 576.053 196.378 575.84C195.781 575.616 195.274 575.232 194.858 574.688ZM209.251 567.52C209.486 567.52 209.678 567.6 209.827 567.76C209.976 567.909 210.051 568.101 210.051 568.336V575.216C210.051 576.155 209.87 576.917 209.507 577.504C209.155 578.091 208.675 578.517 208.067 578.784C207.47 579.061 206.792 579.2 206.035 579.2C205.651 579.2 205.267 579.163 204.883 579.088C204.499 579.024 204.184 578.928 203.939 578.8C203.683 578.683 203.502 578.539 203.395 578.368C203.288 578.197 203.272 578.011 203.347 577.808C203.422 577.552 203.55 577.376 203.731 577.28C203.912 577.195 204.099 577.189 204.291 577.264C204.472 577.339 204.712 577.435 205.011 577.552C205.31 577.669 205.651 577.728 206.035 577.728C206.558 577.728 207 577.643 207.363 577.472C207.726 577.301 207.998 577.035 208.179 576.672C208.371 576.309 208.467 575.84 208.467 575.264V574.16L208.723 574.544C208.552 574.896 208.328 575.189 208.051 575.424C207.774 575.659 207.443 575.84 207.059 575.968C206.686 576.096 206.27 576.16 205.811 576.16C205.224 576.16 204.718 576.032 204.291 575.776C203.875 575.509 203.555 575.147 203.331 574.688C203.107 574.219 202.995 573.685 202.995 573.088V568.336C202.995 568.101 203.07 567.909 203.219 567.76C203.368 567.6 203.56 567.52 203.795 567.52C204.019 567.52 204.206 567.6 204.355 567.76C204.515 567.909 204.595 568.101 204.595 568.336V572.656C204.595 573.36 204.75 573.877 205.059 574.208C205.368 574.528 205.827 574.688 206.435 574.688C206.84 574.688 207.192 574.603 207.491 574.432C207.79 574.261 208.024 574.027 208.195 573.728C208.366 573.419 208.451 573.061 208.451 572.656V568.336C208.451 568.101 208.526 567.909 208.675 567.76C208.835 567.6 209.027 567.52 209.251 567.52ZM211.64 574.688C211.544 574.539 211.501 574.368 211.512 574.176C211.522 573.973 211.634 573.803 211.848 573.664C211.997 573.568 212.152 573.531 212.312 573.552C212.482 573.563 212.642 573.643 212.792 573.792C213.09 574.123 213.421 574.384 213.784 574.576C214.157 574.768 214.605 574.864 215.128 574.864C215.341 574.853 215.56 574.821 215.784 574.768C216.008 574.704 216.2 574.597 216.36 574.448C216.52 574.288 216.6 574.059 216.6 573.76C216.6 573.493 216.514 573.28 216.344 573.12C216.173 572.96 215.949 572.832 215.672 572.736C215.394 572.629 215.096 572.533 214.776 572.448C214.434 572.352 214.088 572.245 213.736 572.128C213.394 572.011 213.085 571.861 212.808 571.68C212.53 571.488 212.301 571.243 212.12 570.944C211.949 570.645 211.864 570.277 211.864 569.84C211.864 569.339 212.002 568.907 212.28 568.544C212.568 568.181 212.936 567.899 213.384 567.696C213.842 567.493 214.338 567.392 214.872 567.392C215.181 567.392 215.506 567.435 215.848 567.52C216.189 567.595 216.52 567.717 216.84 567.888C217.16 568.059 217.437 568.283 217.672 568.56C217.778 568.699 217.837 568.864 217.848 569.056C217.869 569.248 217.784 569.419 217.592 569.568C217.464 569.675 217.309 569.723 217.128 569.712C216.946 569.701 216.797 569.643 216.68 569.536C216.477 569.28 216.216 569.083 215.896 568.944C215.576 568.795 215.213 568.72 214.808 568.72C214.605 568.72 214.392 568.752 214.168 568.816C213.954 568.869 213.773 568.971 213.624 569.12C213.474 569.269 213.4 569.488 213.4 569.776C213.4 570.043 213.485 570.256 213.656 570.416C213.837 570.576 214.072 570.709 214.36 570.816C214.648 570.923 214.962 571.019 215.304 571.104C215.634 571.189 215.96 571.291 216.28 571.408C216.61 571.525 216.904 571.68 217.16 571.872C217.426 572.053 217.64 572.293 217.8 572.592C217.97 572.88 218.056 573.248 218.056 573.696C218.056 574.219 217.901 574.667 217.592 575.04C217.293 575.403 216.909 575.68 216.44 575.872C215.981 576.064 215.496 576.16 214.984 576.16C214.376 576.16 213.768 576.053 213.16 575.84C212.562 575.616 212.056 575.232 211.64 574.688ZM219.664 567.68H223.424C223.638 567.68 223.814 567.755 223.952 567.904C224.102 568.043 224.176 568.219 224.176 568.432C224.176 568.635 224.102 568.805 223.952 568.944C223.814 569.083 223.638 569.152 223.424 569.152H219.664C219.451 569.152 219.27 569.083 219.12 568.944C218.982 568.795 218.912 568.619 218.912 568.416C218.912 568.203 218.982 568.027 219.12 567.888C219.27 567.749 219.451 567.68 219.664 567.68ZM221.344 565.6C221.579 565.6 221.771 565.68 221.92 565.84C222.07 565.989 222.144 566.181 222.144 566.416V573.84C222.144 574.032 222.176 574.187 222.24 574.304C222.304 574.421 222.39 574.501 222.496 574.544C222.614 574.587 222.731 574.608 222.848 574.608C222.966 574.608 223.067 574.587 223.152 574.544C223.248 574.501 223.36 574.48 223.488 574.48C223.616 574.48 223.734 574.539 223.84 574.656C223.947 574.773 224 574.933 224 575.136C224 575.392 223.862 575.6 223.584 575.76C223.307 575.92 223.008 576 222.688 576C222.507 576 222.294 575.984 222.048 575.952C221.803 575.92 221.563 575.84 221.328 575.712C221.104 575.584 220.918 575.381 220.768 575.104C220.619 574.816 220.544 574.416 220.544 573.904V566.416C220.544 566.181 220.619 565.989 220.768 565.84C220.928 565.68 221.12 565.6 221.344 565.6ZM229.79 576.16C228.905 576.16 228.137 575.979 227.486 575.616C226.835 575.243 226.329 574.736 225.966 574.096C225.614 573.445 225.438 572.704 225.438 571.872C225.438 570.933 225.625 570.133 225.998 569.472C226.382 568.8 226.878 568.288 227.486 567.936C228.094 567.573 228.739 567.392 229.422 567.392C229.945 567.392 230.441 567.499 230.91 567.712C231.379 567.915 231.795 568.203 232.158 568.576C232.531 568.939 232.825 569.371 233.038 569.872C233.251 570.363 233.363 570.901 233.374 571.488C233.363 571.701 233.278 571.877 233.118 572.016C232.958 572.155 232.771 572.224 232.558 572.224H226.334L225.95 570.864H231.966L231.662 571.152V570.752C231.641 570.379 231.518 570.053 231.294 569.776C231.07 569.488 230.793 569.269 230.462 569.12C230.131 568.96 229.785 568.88 229.422 568.88C229.102 568.88 228.793 568.933 228.494 569.04C228.206 569.136 227.945 569.296 227.71 569.52C227.486 569.744 227.305 570.043 227.166 570.416C227.038 570.779 226.974 571.232 226.974 571.776C226.974 572.363 227.097 572.875 227.342 573.312C227.587 573.749 227.918 574.091 228.334 574.336C228.75 574.571 229.209 574.688 229.71 574.688C230.105 574.688 230.43 574.651 230.686 574.576C230.942 574.491 231.155 574.389 231.326 574.272C231.497 574.155 231.646 574.043 231.774 573.936C231.934 573.84 232.094 573.792 232.254 573.792C232.446 573.792 232.606 573.861 232.734 574C232.862 574.128 232.926 574.283 232.926 574.464C232.926 574.699 232.809 574.912 232.574 575.104C232.286 575.381 231.886 575.627 231.374 575.84C230.873 576.053 230.345 576.16 229.79 576.16ZM239.407 567.44C240.196 567.44 240.804 567.637 241.231 568.032C241.657 568.416 241.94 568.939 242.079 569.6L241.823 569.52L241.935 569.264C242.073 568.987 242.281 568.709 242.559 568.432C242.847 568.144 243.188 567.909 243.583 567.728C243.977 567.536 244.399 567.44 244.847 567.44C245.583 567.44 246.153 567.6 246.559 567.92C246.964 568.229 247.247 568.651 247.407 569.184C247.567 569.707 247.647 570.293 247.647 570.944V575.184C247.647 575.419 247.572 575.616 247.423 575.776C247.273 575.925 247.081 576 246.847 576C246.623 576 246.431 575.925 246.271 575.776C246.121 575.616 246.047 575.419 246.047 575.184V570.96C246.047 570.587 245.993 570.245 245.887 569.936C245.791 569.627 245.615 569.381 245.359 569.2C245.113 569.008 244.772 568.912 244.335 568.912C243.919 568.912 243.545 569.008 243.215 569.2C242.895 569.381 242.644 569.627 242.463 569.936C242.281 570.245 242.191 570.587 242.191 570.96V575.184C242.191 575.419 242.116 575.616 241.967 575.776C241.817 575.925 241.625 576 241.391 576C241.156 576 240.964 575.925 240.815 575.776C240.665 575.616 240.591 575.419 240.591 575.184V570.944C240.591 570.571 240.537 570.229 240.431 569.92C240.335 569.611 240.164 569.365 239.919 569.184C239.673 569.003 239.332 568.912 238.895 568.912C238.479 568.912 238.111 569.003 237.791 569.184C237.471 569.365 237.22 569.611 237.039 569.92C236.868 570.229 236.783 570.571 236.783 570.944V575.184C236.783 575.419 236.703 575.616 236.543 575.776C236.393 575.925 236.207 576 235.983 576C235.748 576 235.556 575.925 235.407 575.776C235.257 575.616 235.183 575.419 235.183 575.184V568.4C235.183 568.165 235.257 567.973 235.407 567.824C235.556 567.664 235.748 567.584 235.983 567.584C236.207 567.584 236.393 567.664 236.543 567.824C236.703 567.973 236.783 568.165 236.783 568.4V569.344L236.479 569.52C236.553 569.285 236.676 569.045 236.847 568.8C237.017 568.555 237.231 568.331 237.487 568.128C237.753 567.925 238.047 567.76 238.367 567.632C238.687 567.504 239.033 567.44 239.407 567.44Z" fill="#A3A3A3"/>
</svg>
