<svg width="169" height="66" viewBox="0 0 169 66" fill="none" xmlns="http://www.w3.org/2000/svg">
<path d="M31.399 5.49123C31.399 7.2482 29.9708 8.67251 28.209 8.67251C26.4472 8.67251 25.019 7.2482 25.019 5.49123C25.019 3.73425 26.4472 2.30994 28.209 2.30994C29.9708 2.30994 31.399 3.73425 31.399 5.49123Z" fill="url(#paint0_linear_226_3983)"/>
<path d="M51.4774 60.1345C51.4774 61.0647 50.7213 61.8187 49.7886 61.8187C48.8559 61.8187 48.0998 61.0647 48.0998 60.1345C48.0998 59.2043 48.8559 58.4503 49.7886 58.4503C50.7213 58.4503 51.4774 59.2043 51.4774 60.1345Z" fill="url(#paint1_linear_226_3983)"/>
<path d="M23.7055 27.1053C23.7055 27.8804 23.0754 28.5088 22.2981 28.5088C21.5208 28.5088 20.8907 27.8804 20.8907 27.1053C20.8907 26.3301 21.5208 25.7018 22.2981 25.7018C23.0754 25.7018 23.7055 26.3301 23.7055 27.1053Z" fill="url(#paint2_linear_226_3983)"/>
<path d="M55.4181 63.7836C55.4181 64.4554 54.872 65 54.1983 65C53.5247 65 52.9786 64.4554 52.9786 63.7836C52.9786 63.1118 53.5247 62.5673 54.1983 62.5673C54.872 62.5673 55.4181 63.1118 55.4181 63.7836Z" fill="url(#paint3_linear_226_3983)"/>
<path d="M63.4869 18.9649C63.4869 19.7917 62.8148 20.462 61.9857 20.462C61.1567 20.462 60.4846 19.7917 60.4846 18.9649C60.4846 18.1381 61.1567 17.4678 61.9857 17.4678C62.8148 17.4678 63.4869 18.1381 63.4869 18.9649Z" fill="url(#paint4_linear_226_3983)"/>
<path d="M59.9216 34.4035C59.9216 35.1786 59.2915 35.807 58.5143 35.807C57.737 35.807 57.1069 35.1786 57.1069 34.4035C57.1069 33.6284 57.737 33 58.5143 33C59.2915 33 59.9216 33.6284 59.9216 34.4035Z" fill="url(#paint5_linear_226_3983)"/>
<path d="M30.6485 34.7778C30.6485 35.5529 30.0184 36.1813 29.2411 36.1813C28.4638 36.1813 27.8337 35.5529 27.8337 34.7778C27.8337 34.0026 28.4638 33.3743 29.2411 33.3743C30.0184 33.3743 30.6485 34.0026 30.6485 34.7778Z" fill="url(#paint6_linear_226_3983)"/>
<path d="M16.3872 35.9006C16.3872 36.6757 15.7571 37.3041 14.9798 37.3041C14.2025 37.3041 13.5724 36.6757 13.5724 35.9006C13.5724 35.1255 14.2025 34.4971 14.9798 34.4971C15.7571 34.4971 16.3872 35.1255 16.3872 35.9006Z" fill="url(#paint7_linear_226_3983)"/>
<path d="M69.6793 30.2866C69.6793 31.3717 68.7972 32.2515 67.709 32.2515C66.6209 32.2515 65.7387 31.3717 65.7387 30.2866C65.7387 29.2014 66.6209 28.3216 67.709 28.3216C68.7972 28.3216 69.6793 29.2014 69.6793 30.2866Z" fill="url(#paint8_linear_226_3983)"/>
<path d="M54.4798 29.3509C54.4798 30.126 53.8497 30.7544 53.0724 30.7544C52.2952 30.7544 51.6651 30.126 51.6651 29.3509C51.6651 28.5757 52.2952 27.9474 53.0724 27.9474C53.8497 27.9474 54.4798 28.5757 54.4798 29.3509Z" fill="url(#paint9_linear_226_3983)"/>
<path d="M49.4133 42.076C49.4133 42.8512 48.7832 43.4795 48.0059 43.4795C47.2287 43.4795 46.5986 42.8512 46.5986 42.076C46.5986 41.3009 47.2287 40.6725 48.0059 40.6725C48.7832 40.6725 49.4133 41.3009 49.4133 42.076Z" fill="url(#paint10_linear_226_3983)"/>
<path d="M55.7934 57.8889C55.7934 58.8191 55.0372 59.5731 54.1045 59.5731C53.1718 59.5731 52.4157 58.8191 52.4157 57.8889C52.4157 56.9587 53.1718 56.2047 54.1045 56.2047C55.0372 56.2047 55.7934 56.9587 55.7934 57.8889Z" fill="url(#paint11_linear_226_3983)"/>
<path d="M51.4774 36.1813C51.4774 37.4215 50.4693 38.4269 49.2257 38.4269C47.982 38.4269 46.9739 37.4215 46.9739 36.1813C46.9739 34.9411 47.982 33.9357 49.2257 33.9357C50.4693 33.9357 51.4774 34.9411 51.4774 36.1813Z" fill="url(#paint12_linear_226_3983)"/>
<path d="M66.677 39.5497C66.677 41.2033 65.3327 42.5439 63.6746 42.5439C62.0164 42.5439 60.6722 41.2033 60.6722 39.5497C60.6722 37.8961 62.0164 36.5556 63.6746 36.5556C65.3327 36.5556 66.677 37.8961 66.677 39.5497Z" fill="url(#paint13_linear_226_3983)"/>
<path d="M78.6865 24.3918C78.6865 26.1488 77.2582 27.5731 75.4964 27.5731C73.7346 27.5731 72.3064 26.1488 72.3064 24.3918C72.3064 22.6348 73.7346 21.2105 75.4964 21.2105C77.2582 21.2105 78.6865 22.6348 78.6865 24.3918Z" fill="url(#paint14_linear_226_3983)"/>
<path d="M73.057 15.7836C73.057 17.5406 71.6288 18.9649 69.867 18.9649C68.1052 18.9649 66.677 17.5406 66.677 15.7836C66.677 14.0266 68.1052 12.6023 69.867 12.6023C71.6288 12.6023 73.057 14.0266 73.057 15.7836Z" fill="url(#paint15_linear_226_3983)"/>
<path d="M80 36.0877C80 38.6198 77.9417 40.6725 75.4026 40.6725C72.8635 40.6725 70.8052 38.6198 70.8052 36.0877C70.8052 33.5556 72.8635 31.5029 75.4026 31.5029C77.9417 31.5029 80 33.5556 80 36.0877Z" fill="url(#paint16_linear_226_3983)"/>
<path d="M71.1805 48.345C71.1805 50.5154 69.4163 52.2749 67.2399 52.2749C65.0636 52.2749 63.2993 50.5154 63.2993 48.345C63.2993 46.1746 65.0636 44.4152 67.2399 44.4152C69.4163 44.4152 71.1805 46.1746 71.1805 48.345Z" fill="url(#paint17_linear_226_3983)"/>
<path d="M60.1093 47.8772C60.1093 50.306 58.135 52.2749 55.6995 52.2749C53.2641 52.2749 51.2898 50.306 51.2898 47.8772C51.2898 45.4484 53.2641 43.4795 55.6995 43.4795C58.135 43.4795 60.1093 45.4484 60.1093 47.8772Z" fill="url(#paint18_linear_226_3983)"/>
<path d="M51.6651 53.3977C51.6651 55.0513 50.3209 56.3918 48.6627 56.3918C47.0045 56.3918 45.6603 55.0513 45.6603 53.3977C45.6603 51.744 47.0045 50.4035 48.6627 50.4035C50.3209 50.4035 51.6651 51.744 51.6651 53.3977Z" fill="url(#paint19_linear_226_3983)"/>
<path d="M33.6508 48.0643C33.6508 49.5629 32.4326 50.7778 30.9299 50.7778C29.4272 50.7778 28.209 49.5629 28.209 48.0643C28.209 46.5657 29.4272 45.3509 30.9299 45.3509C32.4326 45.3509 33.6508 46.5657 33.6508 48.0643Z" fill="url(#paint20_linear_226_3983)"/>
<path d="M45.848 46.7544C45.848 49.1831 43.8737 51.152 41.4382 51.152C39.0028 51.152 37.0285 49.1831 37.0285 46.7544C37.0285 44.3256 39.0028 42.3567 41.4382 42.3567C43.8737 42.3567 45.848 44.3256 45.848 46.7544Z" fill="url(#paint21_linear_226_3983)"/>
<path d="M25.3943 33.2807C25.3943 34.7793 24.1761 35.9942 22.6734 35.9942C21.1707 35.9942 19.9525 34.7793 19.9525 33.2807C19.9525 31.7821 21.1707 30.5673 22.6734 30.5673C24.1761 30.5673 25.3943 31.7821 25.3943 33.2807Z" fill="url(#paint22_linear_226_3983)"/>
<path d="M14.5107 30.193C14.5107 31.4332 13.5025 32.4386 12.2589 32.4386C11.0153 32.4386 10.0071 31.4332 10.0071 30.193C10.0071 28.9528 11.0153 27.9474 12.2589 27.9474C13.5025 27.9474 14.5107 28.9528 14.5107 30.193Z" fill="url(#paint23_linear_226_3983)"/>
<path d="M7.5677 32.2515C7.5677 34.0084 6.13947 35.4327 4.37767 35.4327C2.61587 35.4327 1.18765 34.0084 1.18765 32.2515C1.18765 30.4945 2.61587 29.0702 4.37767 29.0702C6.13947 29.0702 7.5677 30.4945 7.5677 32.2515Z" fill="url(#paint24_linear_226_3983)"/>
<path d="M17.1378 43.2924C17.1378 44.7393 15.9196 45.9123 14.4169 45.9123C12.9142 45.9123 11.696 44.7393 11.696 43.2924C11.696 41.8455 12.9142 40.6725 14.4169 40.6725C15.9196 40.6725 17.1378 41.8455 17.1378 43.2924Z" fill="url(#paint25_linear_226_3983)"/>
<path d="M9.06888 40.6725C9.06888 42.5328 7.55665 44.0409 5.69121 44.0409C3.82577 44.0409 2.31354 42.5328 2.31354 40.6725C2.31354 38.8122 3.82577 37.3041 5.69121 37.3041C7.55665 37.3041 9.06888 38.8122 9.06888 40.6725Z" fill="url(#paint26_linear_226_3983)"/>
<path d="M40.7815 35.0585C40.7815 37.0222 39.1852 38.614 37.2162 38.614C35.2471 38.614 33.6508 37.0222 33.6508 35.0585C33.6508 33.0948 35.2471 31.5029 37.2162 31.5029C39.1852 31.5029 40.7815 33.0948 40.7815 35.0585Z" fill="url(#paint27_linear_226_3983)"/>
<path d="M27.6461 42.076C27.6461 44.1947 25.9238 45.9123 23.7993 45.9123C21.6748 45.9123 19.9525 44.1947 19.9525 42.076C19.9525 39.9573 21.6748 38.2398 23.7993 38.2398C25.9238 38.2398 27.6461 39.9573 27.6461 42.076Z" fill="url(#paint28_linear_226_3983)"/>
<path d="M63.8622 26.5439C63.8622 28.0425 62.644 29.2573 61.1413 29.2573C59.6386 29.2573 58.4204 28.0425 58.4204 26.5439C58.4204 25.0453 59.6386 23.8304 61.1413 23.8304C62.644 23.8304 63.8622 25.0453 63.8622 26.5439Z" fill="url(#paint29_linear_226_3983)"/>
<path d="M48.4751 28.9766C48.4751 30.5786 47.1729 31.8772 45.5665 31.8772C43.9602 31.8772 42.658 30.5786 42.658 28.9766C42.658 27.3747 43.9602 26.076 45.5665 26.076C47.1729 26.076 48.4751 27.3747 48.4751 28.9766Z" fill="url(#paint30_linear_226_3983)"/>
<path d="M40.0309 26.076C40.0309 26.9028 39.3588 27.5731 38.5297 27.5731C37.7006 27.5731 37.0285 26.9028 37.0285 26.076C37.0285 25.2492 37.7006 24.5789 38.5297 24.5789C39.3588 24.5789 40.0309 25.2492 40.0309 26.076Z" fill="url(#paint31_linear_226_3983)"/>
<path d="M25.7696 14.3801C25.7696 15.1553 25.1395 15.7836 24.3622 15.7836C23.585 15.7836 22.9549 15.1553 22.9549 14.3801C22.9549 13.605 23.585 12.9766 24.3622 12.9766C25.1395 12.9766 25.7696 13.605 25.7696 14.3801Z" fill="url(#paint32_linear_226_3983)"/>
<path d="M12.6342 14.7544C12.6342 15.9429 11.6681 16.9064 10.4762 16.9064C9.28444 16.9064 8.31829 15.9429 8.31829 14.7544C8.31829 13.5658 9.28444 12.6023 10.4762 12.6023C11.6681 12.6023 12.6342 13.5658 12.6342 14.7544Z" fill="url(#paint33_linear_226_3983)"/>
<path d="M53.7292 5.11696C53.7292 6.66723 52.469 7.92398 50.9145 7.92398C49.36 7.92398 48.0998 6.66723 48.0998 5.11696C48.0998 3.56669 49.36 2.30994 50.9145 2.30994C52.469 2.30994 53.7292 3.56669 53.7292 5.11696Z" fill="url(#paint34_linear_226_3983)"/>
<path d="M48.8504 12.6959C48.8504 13.5744 48.1362 14.2865 47.2553 14.2865C46.3744 14.2865 45.6603 13.5744 45.6603 12.6959C45.6603 11.8174 46.3744 11.1053 47.2553 11.1053C48.1362 11.1053 48.8504 11.8174 48.8504 12.6959Z" fill="url(#paint35_linear_226_3983)"/>
<path d="M63.4869 10.1696C63.4869 12.34 61.7227 14.0994 59.5463 14.0994C57.37 14.0994 55.6057 12.34 55.6057 10.1696C55.6057 7.99921 57.37 6.23977 59.5463 6.23977C61.7227 6.23977 63.4869 7.99921 63.4869 10.1696Z" fill="url(#paint36_linear_226_3983)"/>
<path d="M57.4822 19.7135C57.4822 21.8838 55.7179 23.6433 53.5416 23.6433C51.3652 23.6433 49.601 21.8838 49.601 19.7135C49.601 17.5431 51.3652 15.7836 53.5416 15.7836C55.7179 15.7836 57.4822 17.5431 57.4822 19.7135Z" fill="url(#paint37_linear_226_3983)"/>
<path d="M34.4014 26.1696C34.4014 28.495 32.5111 30.3801 30.1793 30.3801C27.8475 30.3801 25.9572 28.495 25.9572 26.1696C25.9572 23.8442 27.8475 21.9591 30.1793 21.9591C32.5111 21.9591 34.4014 23.8442 34.4014 26.1696Z" fill="url(#paint38_linear_226_3983)"/>
<path d="M10.3824 23.0819C10.3824 25.6657 8.2821 27.7602 5.69121 27.7602C3.10033 27.7602 1 25.6657 1 23.0819C1 20.4981 3.10033 18.4035 5.69121 18.4035C8.2821 18.4035 10.3824 20.4981 10.3824 23.0819Z" fill="url(#paint39_linear_226_3983)"/>
<path d="M44.3468 5.21053C44.3468 7.53594 42.4565 9.42105 40.1247 9.42105C37.7929 9.42105 35.9026 7.53594 35.9026 5.21053C35.9026 2.88512 37.7929 1 40.1247 1C42.4565 1 44.3468 2.88512 44.3468 5.21053Z" fill="url(#paint40_linear_226_3983)"/>
<path d="M22.9549 20.7427C22.9549 22.8614 21.2326 24.5789 19.1081 24.5789C16.9836 24.5789 15.2613 22.8614 15.2613 20.7427C15.2613 18.624 16.9836 16.9064 19.1081 16.9064C21.2326 16.9064 22.9549 18.624 22.9549 20.7427Z" fill="url(#paint41_linear_226_3983)"/>
<path d="M21.0784 10.4503C21.0784 11.9489 19.8602 13.1637 18.3575 13.1637C16.8548 13.1637 15.6366 11.9489 15.6366 10.4503C15.6366 8.95169 16.8548 7.73684 18.3575 7.73684C19.8602 7.73684 21.0784 8.95169 21.0784 10.4503Z" fill="url(#paint42_linear_226_3983)"/>
<path d="M35.152 14.9415C35.152 16.6468 33.7658 18.0292 32.0558 18.0292C30.3458 18.0292 28.9596 16.6468 28.9596 14.9415C28.9596 13.2362 30.3458 11.8538 32.0558 11.8538C33.7658 11.8538 35.152 13.2362 35.152 14.9415Z" fill="url(#paint43_linear_226_3983)"/>
<path d="M45.6603 19.152C45.6603 20.909 44.2321 22.3333 42.4703 22.3333C40.7085 22.3333 39.2803 20.909 39.2803 19.152C39.2803 17.3951 40.7085 15.9708 42.4703 15.9708C44.2321 15.9708 45.6603 17.3951 45.6603 19.152Z" fill="url(#paint44_linear_226_3983)"/>
<path d="M9.71632 14.0926L18.2156 20.1289M5.61303 22.9948L18.9361 20.7492M5.22125 23.1099L4.6583 32.4666M5.22255 41.2547L4.84726 32.8336M5.4784 41.1774L12.2337 30.1364M12.0685 30.2903L18.8238 21.1207M22.3599 26.8695L19.3575 21.6298M22.7476 26.7553L14.6787 36.1121M14.4174 44.0192L14.7927 35.9724M14.2871 43.2002L24.0448 42.4517M29.3278 34.787L23.6984 41.8981M28.9596 34.9649H38.905M30.42 48.5033L37.5506 34.8425M30.6238 47.6907L41.3198 47.1293M47.9763 42.19L41.7839 46.1198M47.8334 41.6199L54.964 47.4211M48.3792 53.5863L53.821 49.4694M49.3155 56.1442L49.8785 60.4483M53.7844 63.8449L50.9697 61.2251M54.1986 63.5185L54.0109 57.9045M55.1353 47.6304L54.3848 57.9228M56.2678 46.7779L58.1442 34.427M50.2595 36.0968L58.7037 34.4126M49.7521 35.583L53.1297 29.4076M59.548 26.8783L53.168 29.6853M61.5175 25.2992L61.8928 19.1237M70.248 15.4613L62.3668 19.0169M69.4559 15.6336L60.4488 10.7681M70.0644 16.4521L76.0692 25.0603M67.7151 30.1885L75.2211 24.7616M67.6611 30.7732L62.9699 40.317M66.8007 47.5736L63.9859 40.0882M68.1695 46.7663L74.3619 37.9709M61.9066 18.894L60.0301 11.5957M18.5451 10.5439V20.462M28.2693 5.31748L32.0223 14.6742M40.3966 4.66147L31.9524 15.141M40.1911 4.80308L47.3217 12.6627M28.2405 5.53062L18.2951 10.7704M50.9666 5.30979L47.4013 13.1694M42.6539 19.064L47.1574 12.8886M42.8441 19.5802L31.7728 14.7147M30.1846 26.5673L32.0611 14.2165M30.6485 26.1696H38.5297M45.4755 28.9388L38.9078 26.1318M45.6799 28.7651L53.7488 19.4084M46.9303 12.4587L53.8733 19.3826M50.5941 4.90367L59.6013 10.3306M31.3991 5.49123C31.3991 7.2482 29.9708 8.67251 28.209 8.67251C26.4472 8.67251 25.019 7.2482 25.019 5.49123C25.019 3.73425 26.4472 2.30994 28.209 2.30994C29.9708 2.30994 31.3991 3.73425 31.3991 5.49123ZM51.4774 60.1345C51.4774 61.0647 50.7213 61.8187 49.7886 61.8187C48.8559 61.8187 48.0998 61.0647 48.0998 60.1345C48.0998 59.2043 48.8559 58.4503 49.7886 58.4503C50.7213 58.4503 51.4774 59.2043 51.4774 60.1345ZM23.7055 27.1053C23.7055 27.8804 23.0754 28.5088 22.2981 28.5088C21.5208 28.5088 20.8907 27.8804 20.8907 27.1053C20.8907 26.3301 21.5208 25.7018 22.2981 25.7018C23.0754 25.7018 23.7055 26.3301 23.7055 27.1053ZM55.4181 63.7836C55.4181 64.4554 54.872 65 54.1983 65C53.5247 65 52.9786 64.4554 52.9786 63.7836C52.9786 63.1118 53.5247 62.5673 54.1983 62.5673C54.872 62.5673 55.4181 63.1118 55.4181 63.7836ZM63.4869 18.9649C63.4869 19.7917 62.8148 20.462 61.9857 20.462C61.1567 20.462 60.4846 19.7917 60.4846 18.9649C60.4846 18.1381 61.1567 17.4678 61.9857 17.4678C62.8148 17.4678 63.4869 18.1381 63.4869 18.9649ZM59.9216 34.4035C59.9216 35.1786 59.2915 35.807 58.5143 35.807C57.737 35.807 57.1069 35.1786 57.1069 34.4035C57.1069 33.6284 57.737 33 58.5143 33C59.2915 33 59.9216 33.6284 59.9216 34.4035ZM30.6485 34.7778C30.6485 35.5529 30.0184 36.1813 29.2411 36.1813C28.4638 36.1813 27.8337 35.5529 27.8337 34.7778C27.8337 34.0026 28.4638 33.3743 29.2411 33.3743C30.0184 33.3743 30.6485 34.0026 30.6485 34.7778ZM16.3872 35.9006C16.3872 36.6757 15.7571 37.3041 14.9798 37.3041C14.2025 37.3041 13.5724 36.6757 13.5724 35.9006C13.5724 35.1254 14.2025 34.4971 14.9798 34.4971C15.7571 34.4971 16.3872 35.1254 16.3872 35.9006ZM69.6793 30.2865C69.6793 31.3717 68.7972 32.2515 67.709 32.2515C66.6209 32.2515 65.7387 31.3717 65.7387 30.2865C65.7387 29.2014 66.6209 28.3216 67.709 28.3216C68.7972 28.3216 69.6793 29.2014 69.6793 30.2865ZM54.4798 29.3509C54.4798 30.126 53.8497 30.7544 53.0724 30.7544C52.2952 30.7544 51.6651 30.126 51.6651 29.3509C51.6651 28.5757 52.2952 27.9474 53.0724 27.9474C53.8497 27.9474 54.4798 28.5757 54.4798 29.3509ZM49.4133 42.076C49.4133 42.8512 48.7832 43.4795 48.0059 43.4795C47.2287 43.4795 46.5986 42.8512 46.5986 42.076C46.5986 41.3009 47.2287 40.6725 48.0059 40.6725C48.7832 40.6725 49.4133 41.3009 49.4133 42.076ZM55.7934 57.8889C55.7934 58.8191 55.0372 59.5731 54.1045 59.5731C53.1718 59.5731 52.4157 58.8191 52.4157 57.8889C52.4157 56.9587 53.1718 56.2047 54.1045 56.2047C55.0372 56.2047 55.7934 56.9587 55.7934 57.8889ZM51.4774 36.1813C51.4774 37.4215 50.4693 38.4269 49.2257 38.4269C47.982 38.4269 46.9739 37.4215 46.9739 36.1813C46.9739 34.9411 47.982 33.9357 49.2257 33.9357C50.4693 33.9357 51.4774 34.9411 51.4774 36.1813ZM66.677 39.5497C66.677 41.2033 65.3328 42.5439 63.6746 42.5439C62.0164 42.5439 60.6722 41.2033 60.6722 39.5497C60.6722 37.8961 62.0164 36.5556 63.6746 36.5556C65.3328 36.5556 66.677 37.8961 66.677 39.5497ZM78.6865 24.3918C78.6865 26.1488 77.2582 27.5731 75.4964 27.5731C73.7346 27.5731 72.3064 26.1488 72.3064 24.3918C72.3064 22.6348 73.7346 21.2105 75.4964 21.2105C77.2582 21.2105 78.6865 22.6348 78.6865 24.3918ZM73.057 15.7836C73.057 17.5406 71.6288 18.9649 69.867 18.9649C68.1052 18.9649 66.677 17.5406 66.677 15.7836C66.677 14.0266 68.1052 12.6023 69.867 12.6023C71.6288 12.6023 73.057 14.0266 73.057 15.7836ZM80 36.0877C80 38.6198 77.9417 40.6725 75.4026 40.6725C72.8635 40.6725 70.8052 38.6198 70.8052 36.0877C70.8052 33.5556 72.8635 31.5029 75.4026 31.5029C77.9417 31.5029 80 33.5556 80 36.0877ZM71.1805 48.345C71.1805 50.5154 69.4162 52.2749 67.2399 52.2749C65.0636 52.2749 63.2993 50.5154 63.2993 48.345C63.2993 46.1746 65.0636 44.4152 67.2399 44.4152C69.4162 44.4152 71.1805 46.1746 71.1805 48.345ZM60.1093 47.8772C60.1093 50.306 58.135 52.2749 55.6995 52.2749C53.2641 52.2749 51.2898 50.306 51.2898 47.8772C51.2898 45.4484 53.2641 43.4795 55.6995 43.4795C58.135 43.4795 60.1093 45.4484 60.1093 47.8772ZM51.6651 53.3977C51.6651 55.0513 50.3209 56.3918 48.6627 56.3918C47.0045 56.3918 45.6603 55.0513 45.6603 53.3977C45.6603 51.744 47.0045 50.4035 48.6627 50.4035C50.3209 50.4035 51.6651 51.744 51.6651 53.3977ZM33.6508 48.0643C33.6508 49.5629 32.4326 50.7778 30.9299 50.7778C29.4272 50.7778 28.209 49.5629 28.209 48.0643C28.209 46.5657 29.4272 45.3509 30.9299 45.3509C32.4326 45.3509 33.6508 46.5657 33.6508 48.0643ZM45.848 46.7544C45.848 49.1831 43.8737 51.152 41.4382 51.152C39.0028 51.152 37.0285 49.1831 37.0285 46.7544C37.0285 44.3256 39.0028 42.3567 41.4382 42.3567C43.8737 42.3567 45.848 44.3256 45.848 46.7544ZM25.3943 33.2807C25.3943 34.7793 24.1761 35.9942 22.6734 35.9942C21.1707 35.9942 19.9525 34.7793 19.9525 33.2807C19.9525 31.7821 21.1707 30.5673 22.6734 30.5673C24.1761 30.5673 25.3943 31.7821 25.3943 33.2807ZM14.5107 30.193C14.5107 31.4332 13.5025 32.4386 12.2589 32.4386C11.0153 32.4386 10.0071 31.4332 10.0071 30.193C10.0071 28.9528 11.0153 27.9474 12.2589 27.9474C13.5025 27.9474 14.5107 28.9528 14.5107 30.193ZM7.5677 32.2515C7.5677 34.0084 6.13947 35.4327 4.37767 35.4327C2.61587 35.4327 1.18765 34.0084 1.18765 32.2515C1.18765 30.4945 2.61587 29.0702 4.37767 29.0702C6.13947 29.0702 7.5677 30.4945 7.5677 32.2515ZM17.1378 43.2924C17.1378 44.7393 15.9196 45.9123 14.4169 45.9123C12.9142 45.9123 11.696 44.7393 11.696 43.2924C11.696 41.8455 12.9142 40.6725 14.4169 40.6725C15.9196 40.6725 17.1378 41.8455 17.1378 43.2924ZM9.06888 40.6725C9.06888 42.5328 7.55665 44.0409 5.69121 44.0409C3.82577 44.0409 2.31354 42.5328 2.31354 40.6725C2.31354 38.8122 3.82577 37.3041 5.69121 37.3041C7.55665 37.3041 9.06888 38.8122 9.06888 40.6725ZM40.7815 35.0585C40.7815 37.0222 39.1852 38.614 37.2162 38.614C35.2471 38.614 33.6508 37.0222 33.6508 35.0585C33.6508 33.0948 35.2471 31.5029 37.2162 31.5029C39.1852 31.5029 40.7815 33.0948 40.7815 35.0585ZM27.6461 42.076C27.6461 44.1947 25.9238 45.9123 23.7993 45.9123C21.6748 45.9123 19.9525 44.1947 19.9525 42.076C19.9525 39.9573 21.6748 38.2398 23.7993 38.2398C25.9238 38.2398 27.6461 39.9573 27.6461 42.076ZM63.8622 26.5439C63.8622 28.0425 62.644 29.2573 61.1413 29.2573C59.6386 29.2573 58.4204 28.0425 58.4204 26.5439C58.4204 25.0453 59.6386 23.8304 61.1413 23.8304C62.644 23.8304 63.8622 25.0453 63.8622 26.5439ZM48.4751 28.9766C48.4751 30.5786 47.1729 31.8772 45.5665 31.8772C43.9602 31.8772 42.658 30.5786 42.658 28.9766C42.658 27.3747 43.9602 26.076 45.5665 26.076C47.1729 26.076 48.4751 27.3747 48.4751 28.9766ZM40.0309 26.076C40.0309 26.9028 39.3588 27.5731 38.5297 27.5731C37.7006 27.5731 37.0285 26.9028 37.0285 26.076C37.0285 25.2492 37.7006 24.5789 38.5297 24.5789C39.3588 24.5789 40.0309 25.2492 40.0309 26.076ZM25.7696 14.3801C25.7696 15.1553 25.1395 15.7836 24.3622 15.7836C23.585 15.7836 22.9549 15.1553 22.9549 14.3801C22.9549 13.605 23.585 12.9766 24.3622 12.9766C25.1395 12.9766 25.7696 13.605 25.7696 14.3801ZM12.6342 14.7544C12.6342 15.9429 11.6681 16.9064 10.4762 16.9064C9.28444 16.9064 8.31829 15.9429 8.31829 14.7544C8.31829 13.5658 9.28444 12.6023 10.4762 12.6023C11.6681 12.6023 12.6342 13.5658 12.6342 14.7544ZM53.7292 5.11696C53.7292 6.66723 52.469 7.92398 50.9145 7.92398C49.36 7.92398 48.0998 6.66723 48.0998 5.11696C48.0998 3.56669 49.36 2.30994 50.9145 2.30994C52.469 2.30994 53.7292 3.56669 53.7292 5.11696ZM48.8504 12.6959C48.8504 13.5744 48.1362 14.2865 47.2553 14.2865C46.3744 14.2865 45.6603 13.5744 45.6603 12.6959C45.6603 11.8174 46.3744 11.1053 47.2553 11.1053C48.1362 11.1053 48.8504 11.8174 48.8504 12.6959ZM63.4869 10.1696C63.4869 12.34 61.7227 14.0994 59.5463 14.0994C57.37 14.0994 55.6057 12.34 55.6057 10.1696C55.6057 7.99921 57.37 6.23977 59.5463 6.23977C61.7227 6.23977 63.4869 7.99921 63.4869 10.1696ZM57.4822 19.7135C57.4822 21.8838 55.7179 23.6433 53.5416 23.6433C51.3652 23.6433 49.601 21.8838 49.601 19.7135C49.601 17.5431 51.3652 15.7836 53.5416 15.7836C55.7179 15.7836 57.4822 17.5431 57.4822 19.7135ZM34.4014 26.1696C34.4014 28.495 32.5111 30.3801 30.1793 30.3801C27.8475 30.3801 25.9572 28.495 25.9572 26.1696C25.9572 23.8442 27.8475 21.9591 30.1793 21.9591C32.5111 21.9591 34.4014 23.8442 34.4014 26.1696ZM10.3824 23.0819C10.3824 25.6657 8.2821 27.7602 5.69121 27.7602C3.10033 27.7602 1 25.6657 1 23.0819C1 20.4981 3.10033 18.4035 5.69121 18.4035C8.2821 18.4035 10.3824 20.4981 10.3824 23.0819ZM44.3468 5.21053C44.3468 7.53594 42.4565 9.42105 40.1247 9.42105C37.7929 9.42105 35.9026 7.53594 35.9026 5.21053C35.9026 2.88512 37.7929 1 40.1247 1C42.4565 1 44.3468 2.88512 44.3468 5.21053ZM22.9549 20.7427C22.9549 22.8614 21.2326 24.5789 19.1081 24.5789C16.9836 24.5789 15.2613 22.8614 15.2613 20.7427C15.2613 18.624 16.9836 16.9064 19.1081 16.9064C21.2326 16.9064 22.9549 18.624 22.9549 20.7427ZM21.0784 10.4503C21.0784 11.9489 19.8602 13.1637 18.3575 13.1637C16.8548 13.1637 15.6366 11.9489 15.6366 10.4503C15.6366 8.9517 16.8548 7.73684 18.3575 7.73684C19.8602 7.73684 21.0784 8.9517 21.0784 10.4503ZM35.152 14.9415C35.152 16.6468 33.7658 18.0292 32.0558 18.0292C30.3458 18.0292 28.9596 16.6468 28.9596 14.9415C28.9596 13.2362 30.3458 11.8538 32.0558 11.8538C33.7658 11.8538 35.152 13.2362 35.152 14.9415ZM45.6603 19.152C45.6603 20.909 44.2321 22.3333 42.4703 22.3333C40.7085 22.3333 39.2803 20.909 39.2803 19.152C39.2803 17.3951 40.7085 15.9708 42.4703 15.9708C44.2321 15.9708 45.6603 17.3951 45.6603 19.152Z" stroke="url(#paint45_linear_226_3983)" stroke-width="1.5"/>
<path d="M113.312 44H108.832L98.688 28.672V44H94.208V21.632H98.688L108.832 36.992V21.632H113.312V44ZM125.611 44.288C123.905 44.288 122.369 43.9147 121.003 43.168C119.638 42.4 118.561 41.3227 117.771 39.936C117.003 38.5493 116.619 36.9493 116.619 35.136C116.619 33.3227 117.014 31.7227 117.803 30.336C118.614 28.9493 119.713 27.8827 121.099 27.136C122.486 26.368 124.033 25.984 125.739 25.984C127.446 25.984 128.993 26.368 130.379 27.136C131.766 27.8827 132.854 28.9493 133.643 30.336C134.454 31.7227 134.859 33.3227 134.859 35.136C134.859 36.9493 134.443 38.5493 133.611 39.936C132.801 41.3227 131.691 42.4 130.283 43.168C128.897 43.9147 127.339 44.288 125.611 44.288ZM125.611 40.384C126.422 40.384 127.179 40.192 127.883 39.808C128.609 39.4027 129.185 38.8053 129.611 38.016C130.038 37.2267 130.251 36.2667 130.251 35.136C130.251 33.4507 129.803 32.16 128.907 31.264C128.033 30.3467 126.955 29.888 125.675 29.888C124.395 29.888 123.318 30.3467 122.443 31.264C121.59 32.16 121.163 33.4507 121.163 35.136C121.163 36.8213 121.579 38.1227 122.411 39.04C123.265 39.936 124.331 40.384 125.611 40.384ZM132.043 20.352V23.552H119.819V20.352H132.043ZM143.362 29.952V38.528C143.362 39.1253 143.5 39.5627 143.778 39.84C144.076 40.096 144.567 40.224 145.25 40.224H147.33V44H144.514C140.738 44 138.85 42.1653 138.85 38.496V29.952H136.738V26.272H138.85V21.888H143.362V26.272H147.33V29.952H143.362ZM158.424 44.288C156.717 44.288 155.181 43.9147 153.816 43.168C152.45 42.4 151.373 41.3227 150.584 39.936C149.816 38.5493 149.432 36.9493 149.432 35.136C149.432 33.3227 149.826 31.7227 150.616 30.336C151.426 28.9493 152.525 27.8827 153.912 27.136C155.298 26.368 156.845 25.984 158.552 25.984C160.258 25.984 161.805 26.368 163.192 27.136C164.578 27.8827 165.666 28.9493 166.456 30.336C167.266 31.7227 167.672 33.3227 167.672 35.136C167.672 36.9493 167.256 38.5493 166.424 39.936C165.613 41.3227 164.504 42.4 163.096 43.168C161.709 43.9147 160.152 44.288 158.424 44.288ZM158.424 40.384C159.234 40.384 159.992 40.192 160.696 39.808C161.421 39.4027 161.997 38.8053 162.424 38.016C162.85 37.2267 163.064 36.2667 163.064 35.136C163.064 33.4507 162.616 32.16 161.72 31.264C160.845 30.3467 159.768 29.888 158.488 29.888C157.208 29.888 156.13 30.3467 155.256 31.264C154.402 32.16 153.976 33.4507 153.976 35.136C153.976 36.8213 154.392 38.1227 155.224 39.04C156.077 39.936 157.144 40.384 158.424 40.384Z" fill="url(#paint46_linear_226_3983)"/>
<defs>
<linearGradient id="paint0_linear_226_3983" x1="39.4872" y1="18.3333" x2="39.4872" y2="49" gradientUnits="userSpaceOnUse">
<stop stop-color="#1AC8FF"/>
<stop offset="1" stop-color="#6366F1"/>
<stop offset="1" stop-color="#818CF8"/>
<stop offset="1" stop-color="#818CF8"/>
</linearGradient>
<linearGradient id="paint1_linear_226_3983" x1="39.4872" y1="18.3333" x2="39.4872" y2="49" gradientUnits="userSpaceOnUse">
<stop stop-color="#1AC8FF"/>
<stop offset="1" stop-color="#6366F1"/>
<stop offset="1" stop-color="#818CF8"/>
<stop offset="1" stop-color="#818CF8"/>
</linearGradient>
<linearGradient id="paint2_linear_226_3983" x1="39.4872" y1="18.3333" x2="39.4872" y2="49" gradientUnits="userSpaceOnUse">
<stop stop-color="#1AC8FF"/>
<stop offset="1" stop-color="#6366F1"/>
<stop offset="1" stop-color="#818CF8"/>
<stop offset="1" stop-color="#818CF8"/>
</linearGradient>
<linearGradient id="paint3_linear_226_3983" x1="39.4872" y1="18.3333" x2="39.4872" y2="49" gradientUnits="userSpaceOnUse">
<stop stop-color="#1AC8FF"/>
<stop offset="1" stop-color="#6366F1"/>
<stop offset="1" stop-color="#818CF8"/>
<stop offset="1" stop-color="#818CF8"/>
</linearGradient>
<linearGradient id="paint4_linear_226_3983" x1="39.4872" y1="18.3333" x2="39.4872" y2="49" gradientUnits="userSpaceOnUse">
<stop stop-color="#1AC8FF"/>
<stop offset="1" stop-color="#6366F1"/>
<stop offset="1" stop-color="#818CF8"/>
<stop offset="1" stop-color="#818CF8"/>
</linearGradient>
<linearGradient id="paint5_linear_226_3983" x1="39.4872" y1="18.3333" x2="39.4872" y2="49" gradientUnits="userSpaceOnUse">
<stop stop-color="#1AC8FF"/>
<stop offset="1" stop-color="#6366F1"/>
<stop offset="1" stop-color="#818CF8"/>
<stop offset="1" stop-color="#818CF8"/>
</linearGradient>
<linearGradient id="paint6_linear_226_3983" x1="39.4872" y1="18.3333" x2="39.4872" y2="49" gradientUnits="userSpaceOnUse">
<stop stop-color="#1AC8FF"/>
<stop offset="1" stop-color="#6366F1"/>
<stop offset="1" stop-color="#818CF8"/>
<stop offset="1" stop-color="#818CF8"/>
</linearGradient>
<linearGradient id="paint7_linear_226_3983" x1="39.4872" y1="18.3333" x2="39.4872" y2="49" gradientUnits="userSpaceOnUse">
<stop stop-color="#1AC8FF"/>
<stop offset="1" stop-color="#6366F1"/>
<stop offset="1" stop-color="#818CF8"/>
<stop offset="1" stop-color="#818CF8"/>
</linearGradient>
<linearGradient id="paint8_linear_226_3983" x1="39.4872" y1="18.3333" x2="39.4872" y2="49" gradientUnits="userSpaceOnUse">
<stop stop-color="#1AC8FF"/>
<stop offset="1" stop-color="#6366F1"/>
<stop offset="1" stop-color="#818CF8"/>
<stop offset="1" stop-color="#818CF8"/>
</linearGradient>
<linearGradient id="paint9_linear_226_3983" x1="39.4872" y1="18.3333" x2="39.4872" y2="49" gradientUnits="userSpaceOnUse">
<stop stop-color="#1AC8FF"/>
<stop offset="1" stop-color="#6366F1"/>
<stop offset="1" stop-color="#818CF8"/>
<stop offset="1" stop-color="#818CF8"/>
</linearGradient>
<linearGradient id="paint10_linear_226_3983" x1="39.4872" y1="18.3333" x2="39.4872" y2="49" gradientUnits="userSpaceOnUse">
<stop stop-color="#1AC8FF"/>
<stop offset="1" stop-color="#6366F1"/>
<stop offset="1" stop-color="#818CF8"/>
<stop offset="1" stop-color="#818CF8"/>
</linearGradient>
<linearGradient id="paint11_linear_226_3983" x1="39.4872" y1="18.3333" x2="39.4872" y2="49" gradientUnits="userSpaceOnUse">
<stop stop-color="#1AC8FF"/>
<stop offset="1" stop-color="#6366F1"/>
<stop offset="1" stop-color="#818CF8"/>
<stop offset="1" stop-color="#818CF8"/>
</linearGradient>
<linearGradient id="paint12_linear_226_3983" x1="39.4872" y1="18.3333" x2="39.4872" y2="49" gradientUnits="userSpaceOnUse">
<stop stop-color="#1AC8FF"/>
<stop offset="1" stop-color="#6366F1"/>
<stop offset="1" stop-color="#818CF8"/>
<stop offset="1" stop-color="#818CF8"/>
</linearGradient>
<linearGradient id="paint13_linear_226_3983" x1="39.4872" y1="18.3333" x2="39.4872" y2="49" gradientUnits="userSpaceOnUse">
<stop stop-color="#1AC8FF"/>
<stop offset="1" stop-color="#6366F1"/>
<stop offset="1" stop-color="#818CF8"/>
<stop offset="1" stop-color="#818CF8"/>
</linearGradient>
<linearGradient id="paint14_linear_226_3983" x1="39.4872" y1="18.3333" x2="39.4872" y2="49" gradientUnits="userSpaceOnUse">
<stop stop-color="#1AC8FF"/>
<stop offset="1" stop-color="#6366F1"/>
<stop offset="1" stop-color="#818CF8"/>
<stop offset="1" stop-color="#818CF8"/>
</linearGradient>
<linearGradient id="paint15_linear_226_3983" x1="39.4872" y1="18.3333" x2="39.4872" y2="49" gradientUnits="userSpaceOnUse">
<stop stop-color="#1AC8FF"/>
<stop offset="1" stop-color="#6366F1"/>
<stop offset="1" stop-color="#818CF8"/>
<stop offset="1" stop-color="#818CF8"/>
</linearGradient>
<linearGradient id="paint16_linear_226_3983" x1="39.4872" y1="18.3333" x2="39.4872" y2="49" gradientUnits="userSpaceOnUse">
<stop stop-color="#1AC8FF"/>
<stop offset="1" stop-color="#6366F1"/>
<stop offset="1" stop-color="#818CF8"/>
<stop offset="1" stop-color="#818CF8"/>
</linearGradient>
<linearGradient id="paint17_linear_226_3983" x1="39.4872" y1="18.3333" x2="39.4872" y2="49" gradientUnits="userSpaceOnUse">
<stop stop-color="#1AC8FF"/>
<stop offset="1" stop-color="#6366F1"/>
<stop offset="1" stop-color="#818CF8"/>
<stop offset="1" stop-color="#818CF8"/>
</linearGradient>
<linearGradient id="paint18_linear_226_3983" x1="39.4872" y1="18.3333" x2="39.4872" y2="49" gradientUnits="userSpaceOnUse">
<stop stop-color="#1AC8FF"/>
<stop offset="1" stop-color="#6366F1"/>
<stop offset="1" stop-color="#818CF8"/>
<stop offset="1" stop-color="#818CF8"/>
</linearGradient>
<linearGradient id="paint19_linear_226_3983" x1="39.4872" y1="18.3333" x2="39.4872" y2="49" gradientUnits="userSpaceOnUse">
<stop stop-color="#1AC8FF"/>
<stop offset="1" stop-color="#6366F1"/>
<stop offset="1" stop-color="#818CF8"/>
<stop offset="1" stop-color="#818CF8"/>
</linearGradient>
<linearGradient id="paint20_linear_226_3983" x1="39.4872" y1="18.3333" x2="39.4872" y2="49" gradientUnits="userSpaceOnUse">
<stop stop-color="#1AC8FF"/>
<stop offset="1" stop-color="#6366F1"/>
<stop offset="1" stop-color="#818CF8"/>
<stop offset="1" stop-color="#818CF8"/>
</linearGradient>
<linearGradient id="paint21_linear_226_3983" x1="39.4872" y1="18.3333" x2="39.4872" y2="49" gradientUnits="userSpaceOnUse">
<stop stop-color="#1AC8FF"/>
<stop offset="1" stop-color="#6366F1"/>
<stop offset="1" stop-color="#818CF8"/>
<stop offset="1" stop-color="#818CF8"/>
</linearGradient>
<linearGradient id="paint22_linear_226_3983" x1="39.4872" y1="18.3333" x2="39.4872" y2="49" gradientUnits="userSpaceOnUse">
<stop stop-color="#1AC8FF"/>
<stop offset="1" stop-color="#6366F1"/>
<stop offset="1" stop-color="#818CF8"/>
<stop offset="1" stop-color="#818CF8"/>
</linearGradient>
<linearGradient id="paint23_linear_226_3983" x1="39.4872" y1="18.3333" x2="39.4872" y2="49" gradientUnits="userSpaceOnUse">
<stop stop-color="#1AC8FF"/>
<stop offset="1" stop-color="#6366F1"/>
<stop offset="1" stop-color="#818CF8"/>
<stop offset="1" stop-color="#818CF8"/>
</linearGradient>
<linearGradient id="paint24_linear_226_3983" x1="39.4872" y1="18.3333" x2="39.4872" y2="49" gradientUnits="userSpaceOnUse">
<stop stop-color="#1AC8FF"/>
<stop offset="1" stop-color="#6366F1"/>
<stop offset="1" stop-color="#818CF8"/>
<stop offset="1" stop-color="#818CF8"/>
</linearGradient>
<linearGradient id="paint25_linear_226_3983" x1="39.4872" y1="18.3333" x2="39.4872" y2="49" gradientUnits="userSpaceOnUse">
<stop stop-color="#1AC8FF"/>
<stop offset="1" stop-color="#6366F1"/>
<stop offset="1" stop-color="#818CF8"/>
<stop offset="1" stop-color="#818CF8"/>
</linearGradient>
<linearGradient id="paint26_linear_226_3983" x1="39.4872" y1="18.3333" x2="39.4872" y2="49" gradientUnits="userSpaceOnUse">
<stop stop-color="#1AC8FF"/>
<stop offset="1" stop-color="#6366F1"/>
<stop offset="1" stop-color="#818CF8"/>
<stop offset="1" stop-color="#818CF8"/>
</linearGradient>
<linearGradient id="paint27_linear_226_3983" x1="39.4872" y1="18.3333" x2="39.4872" y2="49" gradientUnits="userSpaceOnUse">
<stop stop-color="#1AC8FF"/>
<stop offset="1" stop-color="#6366F1"/>
<stop offset="1" stop-color="#818CF8"/>
<stop offset="1" stop-color="#818CF8"/>
</linearGradient>
<linearGradient id="paint28_linear_226_3983" x1="39.4872" y1="18.3333" x2="39.4872" y2="49" gradientUnits="userSpaceOnUse">
<stop stop-color="#1AC8FF"/>
<stop offset="1" stop-color="#6366F1"/>
<stop offset="1" stop-color="#818CF8"/>
<stop offset="1" stop-color="#818CF8"/>
</linearGradient>
<linearGradient id="paint29_linear_226_3983" x1="39.4872" y1="18.3333" x2="39.4872" y2="49" gradientUnits="userSpaceOnUse">
<stop stop-color="#1AC8FF"/>
<stop offset="1" stop-color="#6366F1"/>
<stop offset="1" stop-color="#818CF8"/>
<stop offset="1" stop-color="#818CF8"/>
</linearGradient>
<linearGradient id="paint30_linear_226_3983" x1="39.4872" y1="18.3333" x2="39.4872" y2="49" gradientUnits="userSpaceOnUse">
<stop stop-color="#1AC8FF"/>
<stop offset="1" stop-color="#6366F1"/>
<stop offset="1" stop-color="#818CF8"/>
<stop offset="1" stop-color="#818CF8"/>
</linearGradient>
<linearGradient id="paint31_linear_226_3983" x1="39.4872" y1="18.3333" x2="39.4872" y2="49" gradientUnits="userSpaceOnUse">
<stop stop-color="#1AC8FF"/>
<stop offset="1" stop-color="#6366F1"/>
<stop offset="1" stop-color="#818CF8"/>
<stop offset="1" stop-color="#818CF8"/>
</linearGradient>
<linearGradient id="paint32_linear_226_3983" x1="39.4872" y1="18.3333" x2="39.4872" y2="49" gradientUnits="userSpaceOnUse">
<stop stop-color="#1AC8FF"/>
<stop offset="1" stop-color="#6366F1"/>
<stop offset="1" stop-color="#818CF8"/>
<stop offset="1" stop-color="#818CF8"/>
</linearGradient>
<linearGradient id="paint33_linear_226_3983" x1="39.4872" y1="18.3333" x2="39.4872" y2="49" gradientUnits="userSpaceOnUse">
<stop stop-color="#1AC8FF"/>
<stop offset="1" stop-color="#6366F1"/>
<stop offset="1" stop-color="#818CF8"/>
<stop offset="1" stop-color="#818CF8"/>
</linearGradient>
<linearGradient id="paint34_linear_226_3983" x1="39.4872" y1="18.3333" x2="39.4872" y2="49" gradientUnits="userSpaceOnUse">
<stop stop-color="#1AC8FF"/>
<stop offset="1" stop-color="#6366F1"/>
<stop offset="1" stop-color="#818CF8"/>
<stop offset="1" stop-color="#818CF8"/>
</linearGradient>
<linearGradient id="paint35_linear_226_3983" x1="39.4872" y1="18.3333" x2="39.4872" y2="49" gradientUnits="userSpaceOnUse">
<stop stop-color="#1AC8FF"/>
<stop offset="1" stop-color="#6366F1"/>
<stop offset="1" stop-color="#818CF8"/>
<stop offset="1" stop-color="#818CF8"/>
</linearGradient>
<linearGradient id="paint36_linear_226_3983" x1="39.4872" y1="18.3333" x2="39.4872" y2="49" gradientUnits="userSpaceOnUse">
<stop stop-color="#1AC8FF"/>
<stop offset="1" stop-color="#6366F1"/>
<stop offset="1" stop-color="#818CF8"/>
<stop offset="1" stop-color="#818CF8"/>
</linearGradient>
<linearGradient id="paint37_linear_226_3983" x1="39.4872" y1="18.3333" x2="39.4872" y2="49" gradientUnits="userSpaceOnUse">
<stop stop-color="#1AC8FF"/>
<stop offset="1" stop-color="#6366F1"/>
<stop offset="1" stop-color="#818CF8"/>
<stop offset="1" stop-color="#818CF8"/>
</linearGradient>
<linearGradient id="paint38_linear_226_3983" x1="39.4872" y1="18.3333" x2="39.4872" y2="49" gradientUnits="userSpaceOnUse">
<stop stop-color="#1AC8FF"/>
<stop offset="1" stop-color="#6366F1"/>
<stop offset="1" stop-color="#818CF8"/>
<stop offset="1" stop-color="#818CF8"/>
</linearGradient>
<linearGradient id="paint39_linear_226_3983" x1="39.4872" y1="18.3333" x2="39.4872" y2="49" gradientUnits="userSpaceOnUse">
<stop stop-color="#1AC8FF"/>
<stop offset="1" stop-color="#6366F1"/>
<stop offset="1" stop-color="#818CF8"/>
<stop offset="1" stop-color="#818CF8"/>
</linearGradient>
<linearGradient id="paint40_linear_226_3983" x1="39.4872" y1="18.3333" x2="39.4872" y2="49" gradientUnits="userSpaceOnUse">
<stop stop-color="#1AC8FF"/>
<stop offset="1" stop-color="#6366F1"/>
<stop offset="1" stop-color="#818CF8"/>
<stop offset="1" stop-color="#818CF8"/>
</linearGradient>
<linearGradient id="paint41_linear_226_3983" x1="39.4872" y1="18.3333" x2="39.4872" y2="49" gradientUnits="userSpaceOnUse">
<stop stop-color="#1AC8FF"/>
<stop offset="1" stop-color="#6366F1"/>
<stop offset="1" stop-color="#818CF8"/>
<stop offset="1" stop-color="#818CF8"/>
</linearGradient>
<linearGradient id="paint42_linear_226_3983" x1="39.4872" y1="18.3333" x2="39.4872" y2="49" gradientUnits="userSpaceOnUse">
<stop stop-color="#1AC8FF"/>
<stop offset="1" stop-color="#6366F1"/>
<stop offset="1" stop-color="#818CF8"/>
<stop offset="1" stop-color="#818CF8"/>
</linearGradient>
<linearGradient id="paint43_linear_226_3983" x1="39.4872" y1="18.3333" x2="39.4872" y2="49" gradientUnits="userSpaceOnUse">
<stop stop-color="#1AC8FF"/>
<stop offset="1" stop-color="#6366F1"/>
<stop offset="1" stop-color="#818CF8"/>
<stop offset="1" stop-color="#818CF8"/>
</linearGradient>
<linearGradient id="paint44_linear_226_3983" x1="39.4872" y1="18.3333" x2="39.4872" y2="49" gradientUnits="userSpaceOnUse">
<stop stop-color="#1AC8FF"/>
<stop offset="1" stop-color="#6366F1"/>
<stop offset="1" stop-color="#818CF8"/>
<stop offset="1" stop-color="#818CF8"/>
</linearGradient>
<linearGradient id="paint45_linear_226_3983" x1="39.4872" y1="18.3333" x2="39.4872" y2="49" gradientUnits="userSpaceOnUse">
<stop stop-color="#1AC8FF"/>
<stop offset="1" stop-color="#6366F1"/>
<stop offset="1" stop-color="#818CF8"/>
<stop offset="1" stop-color="#818CF8"/>
</linearGradient>
<linearGradient id="paint46_linear_226_3983" x1="129.513" y1="22" x2="129.513" y2="45" gradientUnits="userSpaceOnUse">
<stop stop-color="#1AC8FF"/>
<stop offset="1" stop-color="#6366F1"/>
<stop offset="1" stop-color="#818CF8"/>
<stop offset="1" stop-color="#818CF8"/>
</linearGradient>
</defs>
</svg>
