<svg width="711" height="443" viewBox="0 0 711 443" fill="none" xmlns="http://www.w3.org/2000/svg">
<path d="M686.031 441.511H73.1311C73.1311 441.511 -10.0161 360.047 42.8831 264.203C95.7824 168.357 166.829 216.555 163.389 105.003C159.952 -6.55487 326.786 -16.1363 379.89 16.2086C432.994 48.5562 432.674 87.5108 542.302 74.6219C651.93 61.7356 672.876 169.181 644.353 223.943C642.42 227.65 640.931 231.155 639.832 234.478C639.614 235.134 639.414 235.781 639.227 236.421C620.531 300.716 766.275 309.285 686.031 441.511Z" fill="#EBF3FA"/>
<path d="M121.721 440.49H157.401C159.313 438.87 156.078 435.186 152.698 434.939C151.23 434.827 149.373 435.136 147.252 435.584C146.761 429.062 143.957 399.745 133.389 400.923C121.507 402.242 133.389 413.833 136.748 420.696C139.237 425.778 141.862 433.068 143.061 436.508C142.096 436.719 141.098 436.924 140.077 437.111C138.502 432.276 132.643 416.01 125.191 416.956C116.441 418.068 119.958 424.59 126.16 428.46C130.709 431.306 136.296 435.352 138.951 437.308C136.702 437.673 134.354 437.921 131.973 437.865C125.861 437.721 122.878 439.523 121.721 440.49Z" fill="#92D684"/>
<path d="M661.444 440.49H633.302C631.794 439.211 634.347 436.306 637.012 436.111C638.169 436.023 639.635 436.266 641.306 436.62C641.695 431.477 643.907 408.353 652.241 409.281C661.612 410.323 652.241 419.464 649.592 424.877C647.628 428.889 645.56 434.637 644.613 437.351C645.373 437.516 646.162 437.676 646.967 437.825C648.209 434.011 652.83 421.181 658.707 421.93C665.607 422.804 662.835 427.948 657.942 431.002C654.355 433.246 649.949 436.439 647.854 437.98C649.629 438.27 651.479 438.465 653.358 438.419C658.179 438.307 660.533 439.728 661.444 440.49Z" fill="#92D684"/>
<path d="M193.456 272.031C193.456 272.031 187.463 216.893 145.555 205.715C145.555 205.715 137.386 203.666 133.491 212.458C129.595 221.251 146.081 223.364 155.821 228.303C165.561 233.241 187.397 251.767 193.456 272.031Z" fill="#DFEBFD"/>
<path d="M193.82 266.349C193.82 266.349 164.061 233.681 141.841 238.444C119.622 243.207 126.514 253.745 133.209 252.594C139.904 251.445 152.875 246.621 165.19 252.005C177.504 257.391 193.82 266.349 193.82 266.349Z" fill="#DFEBFD"/>
<path d="M553.912 405.55C553.912 405.55 561.052 339.874 610.968 326.558C610.968 326.558 620.699 324.12 625.339 334.591C629.979 345.066 610.342 347.582 598.74 353.464C587.139 359.346 561.129 381.414 553.912 405.55Z" fill="#DFEBFD"/>
<path d="M553.48 398.78C553.48 398.78 588.925 359.868 615.393 365.542C641.858 371.216 633.649 383.769 625.675 382.4C617.701 381.03 602.251 375.283 587.581 381.696C572.915 388.111 553.48 398.78 553.48 398.78Z" fill="#DFEBFD"/>
<path d="M187.589 292.009C187.589 292.009 189.497 322.262 183.846 322.27C178.195 322.278 184.15 288.406 184.15 288.406C184.15 288.406 158.307 271.791 147.395 271.501C147.395 271.501 160.868 302.478 155.389 301.092C149.91 299.709 134.393 268.127 134.393 268.127C134.393 268.127 106.865 259.425 100.279 275.562C93.6923 291.698 99.9641 300.949 104.009 302.508C108.054 304.067 134.879 307.033 133.753 310.423C132.627 313.816 113.852 317.145 104.153 312.766C104.153 312.766 111.884 341.622 126.665 342.038C141.445 342.451 147.086 333.968 156.215 334.391C165.344 334.813 171.652 338.067 166.829 339.94C162.006 341.817 146.904 338.288 138.832 343.594C130.76 348.901 124.374 351.995 137.595 356.454C150.816 360.916 175.378 362.187 181.538 352.355C181.807 351.926 182.063 351.518 182.308 351.126C181.908 351.95 181.538 352.355 181.538 352.355C183.86 354.125 186.752 361.55 188.695 367.213C188.954 368.168 189.386 369.498 190.047 371.313C190.305 372.128 190.51 372.797 190.651 373.261C193.952 385.817 188.864 406.163 188.864 406.163L191.666 407.301C200.663 387.272 191.514 368.773 191.514 368.773C185.888 354.306 187.698 342.523 187.698 342.523C187.698 342.523 215.591 331.14 205.87 309.81C205.87 309.81 197.636 296.431 187.589 292.009Z" fill="#CDDFF9"/>
<path d="M603.655 243.87C598.679 222.727 563.061 228.082 563.061 228.082C563.061 228.082 537.792 263.934 530.769 264.571C523.749 265.211 546.382 229.705 546.382 229.705C532.88 227.94 497.798 243.361 497.798 243.361C497.798 243.361 498.542 286.207 491.58 285.098C484.616 283.99 492.86 247.127 492.86 247.127C479.616 250.613 466.866 265.477 466.866 265.477C450.733 289.84 482.889 309.277 482.889 309.277C482.889 309.277 482.828 324.13 473.076 340.844C473.076 340.844 470.898 343.917 468.614 349.188L472.188 349.308C472.513 348.36 472.865 347.445 473.252 346.569C473.252 346.563 473.254 346.558 473.26 346.553C473.265 346.542 473.27 346.529 473.276 346.515C473.54 345.972 473.918 345.199 474.387 344.258C474.39 344.258 474.39 344.255 474.39 344.255C474.39 344.252 474.392 344.252 474.392 344.25C475.557 342.152 476.349 340.598 476.852 339.476C476.855 339.474 476.855 339.468 476.855 339.466C480.354 332.875 485.362 324.301 488.566 322.576C488.566 322.576 488.19 322.006 487.857 320.913C488.084 321.444 488.321 321.995 488.566 322.576C494.243 335.876 524.759 339.087 541.921 336.172C559.082 333.253 551.814 328.203 542.899 320.1C533.984 312.001 514.688 313.405 509.109 310.159C503.531 306.913 511.937 304.136 523.27 305.394C534.602 306.649 539.9 318.187 558.197 320.551C576.491 322.918 591.637 288.907 591.637 288.907C578.831 292.409 556.342 284.659 555.617 280.266C554.89 275.871 588.522 277.441 593.812 276.308C599.1 275.176 608.628 265.011 603.655 243.87Z" fill="#DFEBFD"/>
<path d="M451.72 147.688C451.72 147.688 471.205 140.578 473.86 148.507C476.517 156.433 451.72 147.688 451.72 147.688C451.72 147.688 452.104 148.893 451.72 147.688Z" fill="#7AA76F"/>
<path d="M467.183 159.277C464.254 165.958 451.709 147.694 451.709 147.694C451.709 147.694 470.11 152.595 467.183 159.277Z" fill="#7AA76F"/>
<path d="M396.934 105.983C396.934 105.983 394.333 82.9532 403.642 82.151C412.952 81.3515 396.934 105.983 396.934 105.983C396.934 105.983 398.344 105.885 396.934 105.983Z" fill="#9DD592"/>
<path d="M413.586 92.2361C420.073 97.1721 396.937 105.997 396.937 105.997C396.937 105.997 407.099 87.3002 413.586 92.2361Z" fill="#9DD592"/>
<path d="M285.342 80.0803C285.342 80.0803 266.163 62.3274 273.524 54.7902C280.883 47.2503 285.342 80.0803 285.342 80.0803C285.342 80.0803 286.474 78.9556 285.342 80.0803Z" fill="#7AA76F"/>
<path d="M289.441 56.08C298.614 55.5176 285.355 80.0881 285.355 80.0881C285.355 80.0881 280.264 56.6423 289.441 56.08Z" fill="#7AA76F"/>
<path d="M575.569 440.493L228.128 441.657C227.952 441.516 227.821 441.386 227.736 441.268C227.717 441.242 227.699 441.21 227.685 441.186C227.184 440.272 224.834 438.497 221.319 435.975V435.973C214.16 430.831 202.168 422.577 191.209 412.202C190.59 411.618 189.978 411.029 189.371 410.429C188.827 409.899 188.287 409.358 187.754 408.814C166.328 387.106 151.572 357.248 190.849 327.168C255.523 277.633 105.581 274.085 227.413 136.955C228.352 135.9 423.309 133.451 425.894 136.26C468.721 182.824 458.337 241.615 462.812 269.48C475.469 348.269 613.537 302.289 575.569 440.493Z" fill="#818CF8"/>
<path d="M526.83 441.657H170.545C176.716 424.467 197.491 382.748 221.802 368.498C259.337 346.494 346.724 337.405 416.813 347.789C498.355 359.868 525.103 422.447 526.83 441.657Z" fill="#FCE7F3"/>
<path d="M328.305 387.735C288.3 388.351 286.16 374.292 284.398 359.231C283.668 352.994 283.193 342.222 282.69 329.298C282.479 323.885 282.261 318.096 282.018 312.107C281.554 300.562 280.664 288.694 279.867 279.448C278.99 269.339 278.22 262.364 278.22 262.364L359.12 243.132L363.93 241.994C366.105 305.325 385.127 333.589 387.195 344.332C391.545 366.933 354.568 387.33 328.305 387.735Z" fill="#FFB27D"/>
<path d="M359.045 271.882C350.085 295.205 327.806 326.025 282.69 329.298C282.479 323.885 282.261 318.096 282.018 312.108C281.554 300.562 280.664 288.694 279.867 279.448L359.045 271.882Z" fill="#F4A269"/>
<path d="M260.702 306.694C260.702 306.694 368.248 316.662 373.426 249.59C378.602 182.52 395.969 138.635 327.521 129.434C259.073 120.237 243.743 144.797 236.568 166.763C229.396 188.73 232.858 302.372 260.702 306.694Z" fill="#FFB27D"/>
<path d="M398.733 235.355C388.096 245.032 383.952 259.696 372.851 254.454C372.851 254.454 372.859 254.403 372.878 254.305C372.883 254.254 372.894 254.185 372.907 254.107C372.918 254.041 372.929 253.966 372.942 253.884C372.95 253.822 372.961 253.758 372.969 253.689C373.294 251.554 374.176 245.214 374.45 237.97V237.954C374.525 235.936 374.554 233.855 374.512 231.776C374.253 219.329 371.42 206.952 360.658 209.844C358.358 210.462 356.138 210.878 353.987 211.104C320.136 214.684 304.747 171.814 289.484 150.953C284.572 144.237 279.67 139.802 274.17 139.935C268.199 140.079 262.112 143.03 256.518 148.016C244.359 158.856 234.541 179.338 233.352 201.694C233.352 201.712 233.349 201.734 233.349 201.75V201.752C232.363 219.534 218.412 176.177 237.011 144.618C240.985 137.878 412.411 138.422 415.742 146.476C416.172 147.507 416.585 148.565 416.984 149.642C434.708 197.461 420.801 215.286 398.733 235.355Z" fill="#818CF8"/>
<path d="M426.086 137.188C426.086 137.625 425.96 138.059 425.71 138.486C425.544 138.779 425.313 139.075 425.033 139.365C425.014 139.381 424.998 139.402 424.977 139.418C423.908 140.485 422.077 141.519 419.577 142.499C418.484 142.929 417.261 143.347 415.91 143.76C415.816 143.787 415.72 143.816 415.622 143.845C415.033 144.024 414.42 144.2 413.786 144.376C413.642 144.416 413.498 144.453 413.351 144.493C412.344 144.757 411.286 145.018 410.174 145.277C408.386 145.692 406.464 146.092 404.417 146.476C403.815 146.588 403.205 146.7 402.584 146.812C402.36 146.849 402.136 146.889 401.909 146.929C400.537 147.169 399.119 147.398 397.65 147.622C396.099 147.859 394.49 148.088 392.834 148.31H392.829C391.651 148.467 390.449 148.624 389.218 148.771C388.674 148.837 388.125 148.901 387.571 148.968C386.942 149.04 386.31 149.112 385.67 149.181C384.977 149.258 384.279 149.333 383.57 149.405C380.436 149.735 377.166 150.042 373.778 150.314C373.546 150.335 373.317 150.351 373.085 150.37C373.072 150.372 373.064 150.372 373.053 150.372C372.595 150.41 372.136 150.444 371.675 150.479C369.279 150.663 366.827 150.834 364.325 150.985C364.274 150.988 364.221 150.991 364.17 150.993C363.496 151.033 362.822 151.073 362.142 151.111C359.783 151.247 357.382 151.369 354.943 151.479C354.525 151.497 354.106 151.513 353.685 151.532C352.771 151.572 351.852 151.606 350.924 151.641C349.45 151.697 347.963 151.748 346.465 151.793C346.023 151.806 345.578 151.82 345.13 151.83C344.69 151.844 344.248 151.857 343.808 151.865C341.417 151.929 338.997 151.98 336.553 152.014C333.326 152.06 330.056 152.086 326.745 152.086C324.722 152.086 322.716 152.078 320.725 152.057C320.114 152.052 319.504 152.046 318.899 152.038C318.118 152.028 317.343 152.017 316.57 152.006C316.143 152.001 315.717 151.996 315.293 151.985C314.619 151.974 313.944 151.964 313.275 151.948C308.747 151.857 304.318 151.721 300.005 151.54C296.141 151.38 292.372 151.18 288.713 150.953C287.801 150.895 286.895 150.839 285.994 150.775C285.539 150.746 285.08 150.714 284.627 150.682C283.881 150.631 283.14 150.575 282.404 150.522C281.277 150.439 280.163 150.348 279.06 150.261C278.361 150.202 277.671 150.146 276.983 150.085C274.273 149.847 271.645 149.594 269.105 149.322C268.708 149.282 268.313 149.24 267.922 149.194C264.617 148.829 261.475 148.435 258.5 148.016C255.393 147.574 252.474 147.105 249.764 146.607C248.852 146.439 247.962 146.268 247.101 146.095C246.299 145.935 245.518 145.77 244.761 145.607C243.298 145.285 241.917 144.957 240.622 144.618C240.35 144.546 240.076 144.474 239.812 144.402C237.394 143.749 235.3 143.07 233.549 142.358C233.522 142.348 233.49 142.332 233.458 142.321C233.306 142.26 233.151 142.198 233.005 142.134C232.989 142.126 232.97 142.116 232.954 142.11C229.356 140.57 227.4 138.912 227.4 137.188C227.4 137.108 227.403 137.033 227.413 136.956C227.48 136.279 227.853 135.61 228.511 134.957C228.914 134.552 229.428 134.155 230.044 133.76C231.952 132.545 234.854 131.386 238.618 130.303C240.076 129.885 241.664 129.477 243.372 129.083C247.056 128.233 251.307 127.441 256.038 126.721C257.25 126.538 258.498 126.356 259.774 126.18C265.96 125.336 272.86 124.605 280.328 124.014C281.061 123.955 281.799 123.896 282.54 123.84C282.644 123.832 282.746 123.824 282.849 123.816C283.441 123.776 284.038 123.734 284.638 123.691C285.253 123.648 285.874 123.603 286.498 123.561C289.395 123.371 292.367 123.198 295.403 123.046C297.628 122.937 299.888 122.836 302.18 122.75H302.183C307.74 122.537 313.486 122.393 319.371 122.329C319.8 122.324 320.229 122.321 320.661 122.319C322.673 122.297 324.704 122.289 326.745 122.289C327.193 122.289 327.641 122.289 328.089 122.292C331.383 122.297 334.64 122.329 337.851 122.385C344.661 122.497 351.263 122.713 357.59 123.019C358.493 123.067 359.389 123.113 360.282 123.158C360.7 123.182 361.116 123.203 361.532 123.227C362.536 123.286 363.531 123.342 364.522 123.406C366.465 123.523 368.378 123.654 370.257 123.79C373.549 124.032 376.739 124.301 379.818 124.595C382.459 124.845 385.009 125.112 387.472 125.4C388.466 125.514 389.447 125.631 390.414 125.754C391.211 125.853 391.998 125.954 392.773 126.058C396.646 126.575 400.244 127.135 403.533 127.734C404.623 127.934 405.678 128.137 406.701 128.345C409.303 128.872 411.68 129.427 413.804 130.008C414.588 130.221 415.337 130.437 416.048 130.655C416.461 130.781 416.861 130.908 417.248 131.036C418.724 131.527 420.027 132.025 421.152 132.537C422.415 133.115 423.447 133.71 424.238 134.315C424.334 134.392 424.43 134.469 424.524 134.544C425.193 135.104 425.656 135.679 425.894 136.26C426.022 136.569 426.086 136.876 426.086 137.188Z" fill="#23569E"/>
<path d="M267.922 149.194C264.617 148.829 261.475 148.435 258.501 148.016C255.393 147.574 252.475 147.105 249.764 146.606C248.853 146.439 247.962 146.268 247.102 146.095C246.299 145.935 245.518 145.77 244.761 145.607C244.759 145.607 244.759 145.602 244.759 145.602C241.193 140.053 238.922 134.888 238.618 130.303C238.16 123.355 240.372 116.841 240.372 116.841C249.879 118.995 255.025 123.209 259.188 128.427C267.464 138.792 267.922 149.194 267.922 149.194Z" fill="#1E3D70"/>
<path d="M352.223 214.214C352.223 214.214 358.595 199.66 371.652 203.047C384.711 206.435 381.841 218.396 377.715 226.152C373.587 233.91 368.283 243.313 356.279 241.842C344.272 240.371 352.223 214.214 352.223 214.214Z" fill="#FFB27D"/>
<path d="M434.047 136.335C431.984 136.63 429.444 139.029 425.838 140.759C424.041 141.62 422.109 142.062 419.577 142.499C418.485 142.928 417.261 143.347 415.91 143.76C415.817 143.787 415.721 143.816 415.622 143.845C417.578 140.945 420.465 137.318 424.239 134.314C428.722 130.748 434.454 128.062 441.368 128.518C441.368 128.518 444.993 128.808 445.371 132.945C445.747 137.078 438.713 135.663 434.047 136.335Z" fill="#82B378"/>
<path d="M262.554 148.56C261.216 142.075 259.801 136.002 258.375 130.386C258.082 129.243 257.791 128.118 257.501 127.009C257.458 126.847 257.416 126.681 257.373 126.521C255.206 118.313 253.058 111.191 251.15 105.354C248.468 97.1295 246.278 91.4313 245.212 88.7768C244.972 88.1744 244.788 87.732 244.671 87.4468C244.609 87.3029 244.567 87.2043 244.543 87.143C244.529 87.1137 244.521 87.095 244.519 87.0844L244.34 87.1616L244.071 87.2789L243.578 87.4895L243.445 87.5481L243.343 87.5908C243.351 87.6121 243.378 87.6681 243.421 87.7693C243.469 87.8839 243.54 88.0545 243.631 88.2784C243.722 88.4916 243.828 88.7554 243.954 89.0673C245.004 91.6738 247.314 97.6412 250.145 106.375C251.981 112.044 254.036 118.875 256.11 126.711C257.106 130.49 258.111 134.501 259.095 138.728C259.095 138.728 259.095 138.728 259.095 138.731C259.127 138.864 259.156 138.995 259.188 139.128C259.878 142.107 260.558 145.196 261.224 148.387L262.554 148.56Z" fill="#9DD592"/>
<path d="M229.748 80.9889C232.222 83.7874 243.791 88.2916 244.591 87.5853C245.39 86.8817 242.357 74.8403 239.887 72.0392C237.416 69.2407 233.144 68.9742 230.345 71.4448C227.544 73.9155 227.278 78.1878 229.748 80.9889Z" fill="#DB2777"/>
<path d="M247.482 71.2291C245.251 74.2221 243.223 86.474 244.079 87.111C244.931 87.748 256.093 82.303 258.324 79.31C260.555 76.3169 259.937 72.0793 256.944 69.8485C253.948 67.6177 249.713 68.236 247.482 71.2291Z" fill="#DB2777"/>
<path d="M260.792 84.2539C257.189 83.2731 245.046 85.8663 244.767 86.8951C244.487 87.9238 253.634 96.3192 257.237 97.3C260.84 98.2835 264.556 96.1567 265.536 92.556C266.52 88.9526 264.396 85.2373 260.792 84.2539Z" fill="#DB2777"/>
<path d="M252.589 100.496C252.229 96.7778 245.499 86.3435 244.438 86.4474C243.378 86.5487 238.77 98.0784 239.129 101.796C239.489 105.512 242.791 108.235 246.509 107.876C250.225 107.516 252.948 104.211 252.589 100.496Z" fill="#DB2777"/>
<path d="M234.17 99.6962C237.478 97.9612 244.599 87.7881 244.104 86.8446C243.608 85.9011 231.191 85.9891 227.886 87.7241C224.579 89.4591 223.306 93.5476 225.042 96.8524C226.777 100.157 230.865 101.431 234.17 99.6962Z" fill="#DB2777"/>
<path d="M241.904 86.4953C242.096 85.2799 243.24 84.4537 244.452 84.6456C245.668 84.8402 246.494 85.9809 246.302 87.1962C246.107 88.4089 244.967 89.2378 243.751 89.0432C242.539 88.8513 241.71 87.7079 241.904 86.4953Z" fill="white"/>
<path d="M263.532 103.808C259.86 108.329 255.894 127.281 257.184 128.331C258.474 129.378 276.221 121.633 279.894 117.113C283.569 112.596 282.884 105.954 278.367 102.281C273.849 98.6086 267.208 99.2909 263.532 103.808Z" fill="#9DD592"/>
<path d="M247.445 125.002C251.259 126.862 259.697 138.179 259.164 139.266C258.634 140.356 244.524 140.679 240.708 138.819C236.894 136.958 235.308 132.358 237.168 128.542C239.029 124.728 243.629 123.142 247.445 125.002Z" fill="#9DD592"/>
<path d="M239.812 144.402C237.395 143.749 235.3 143.07 233.549 142.358C233.522 142.347 233.49 142.331 233.458 142.321C233.309 142.257 233.16 142.195 233.005 142.134C232.989 142.126 232.971 142.116 232.955 142.11C231.225 141.404 229.239 140.77 226.972 140.293C215.475 137.867 201.579 157.456 195.044 150.727C188.508 143.992 199.41 135.095 216.815 133.152C221.3 132.654 225.197 133.467 228.512 134.957C233.698 137.284 237.462 141.26 239.812 144.402Z" fill="#9DD592"/>
<path d="M285.994 150.775C285.539 150.745 285.08 150.713 284.627 150.681C283.881 150.631 283.14 150.575 282.404 150.521C281.277 150.439 280.163 150.348 279.06 150.26C278.361 150.202 277.671 150.146 276.983 150.084C274.273 149.847 271.645 149.594 269.105 149.322C269.15 146.931 269.971 132.872 282.54 123.84C285.81 121.489 289.878 119.483 294.936 118.107C294.936 118.107 295.341 119.965 295.403 123.046C295.53 129.136 294.318 140.005 285.994 150.775Z" fill="#1E3D70"/>
<path d="M387.571 148.968C386.942 149.039 386.311 149.111 385.671 149.181C384.978 149.258 384.28 149.333 383.571 149.405C380.437 149.735 377.166 150.042 373.779 150.313C373.547 150.335 373.318 150.351 373.086 150.369C373.073 150.372 373.065 150.372 373.054 150.372C372.596 150.409 372.137 150.444 371.676 150.479C369.229 150.665 366.727 150.838 364.171 150.993C363.497 151.033 362.822 151.073 362.143 151.11C361.783 145.841 362.212 134.661 370.258 123.789C373.398 119.546 377.702 115.346 383.571 111.567C383.571 111.567 386.076 116.559 387.473 125.399C388.443 131.532 388.877 139.517 387.571 148.968Z" fill="#1E3D70"/>
<path d="M373.078 88.3105C373.07 88.3265 373.046 88.3851 373.006 88.481C372.96 88.5903 372.891 88.7502 372.806 88.9634C372.718 89.1687 372.616 89.4245 372.494 89.723C371.484 92.223 369.266 97.9532 366.548 106.341C364.997 111.135 363.278 116.801 361.532 123.227C361.012 125.144 360.484 127.132 359.962 129.181C359.626 130.509 359.285 131.86 358.949 133.24C357.571 138.893 356.215 144.991 354.944 151.478C354.525 151.497 354.107 151.513 353.686 151.532C355.039 144.584 356.495 138.08 357.971 132.086C358.198 131.164 358.43 130.247 358.656 129.352C359.2 127.217 359.741 125.152 360.282 123.158C362.132 116.335 363.952 110.362 365.58 105.36C368.158 97.4601 370.263 91.9884 371.284 89.4432C371.516 88.8648 371.694 88.4384 371.804 88.1665C371.865 88.0279 371.905 87.9347 371.932 87.876C371.94 87.8494 371.948 87.8334 371.95 87.8254L372.115 87.8974L372.385 88.012L372.859 88.2145L372.987 88.2705L373.078 88.3105Z" fill="#9DD592"/>
<path d="M386.132 81.9696C383.757 84.6561 372.648 88.9818 371.881 88.3048C371.113 87.6279 374.024 76.0662 376.396 73.377C378.77 70.6905 382.872 70.4346 385.559 72.8067C388.248 75.1787 388.504 79.2804 386.132 81.9696Z" fill="#F9A8D4"/>
<path d="M369.104 72.5987C371.247 75.4745 373.192 87.236 372.374 87.8464C371.553 88.4594 360.836 83.2329 358.693 80.3571C356.553 77.4814 357.145 73.4143 360.021 71.2741C362.897 69.1313 366.964 69.723 369.104 72.5987Z" fill="#F9A8D4"/>
<path d="M356.324 85.1043C359.784 84.1635 371.444 86.6528 371.713 87.6415C371.982 88.6277 363.198 96.6899 359.738 97.6308C356.279 98.5742 352.71 96.5353 351.77 93.0759C350.826 89.6165 352.865 86.0478 356.324 85.1043Z" fill="#F9A8D4"/>
<path d="M364.202 100.698C364.546 97.1295 371.009 87.111 372.027 87.2097C373.045 87.3083 377.47 98.3795 377.126 101.948C376.779 105.517 373.608 108.129 370.039 107.785C366.47 107.439 363.856 104.267 364.202 100.698Z" fill="#F9A8D4"/>
<path d="M381.886 99.9305C378.712 98.2647 371.875 88.4994 372.35 87.5932C372.824 86.6871 384.748 86.7697 387.922 88.4354C391.097 90.1012 392.317 94.027 390.652 97.2013C388.986 100.376 385.06 101.599 381.886 99.9305Z" fill="#F9A8D4"/>
<path d="M374.461 87.2549C374.274 86.0902 373.179 85.296 372.014 85.4825C370.847 85.6664 370.053 86.7619 370.239 87.9292C370.426 89.0939 371.521 89.8908 372.686 89.7042C373.853 89.5177 374.647 88.4223 374.461 87.2549Z" fill="white"/>
<path d="M357.609 111.084C359.541 113.459 361.626 123.424 360.949 123.976C360.269 124.528 350.938 120.455 349.006 118.078C347.076 115.703 347.436 112.212 349.811 110.28C352.185 108.35 355.677 108.71 357.609 111.084Z" fill="#9DD592"/>
<path d="M351.002 121.623C353.806 124.496 357.708 137.262 356.889 138.062C356.069 138.864 343.401 134.65 340.597 131.777C337.791 128.904 337.847 124.301 340.722 121.497C343.595 118.694 348.198 118.75 351.002 121.623Z" fill="#9DD592"/>
<path d="M369.123 114.04C366.439 115.349 360.501 123.315 360.874 124.08C361.247 124.848 371.177 125.074 373.864 123.766C376.548 122.454 377.665 119.216 376.356 116.532C375.045 113.849 371.809 112.732 369.123 114.04Z" fill="#9DD592"/>
<path d="M416.049 130.655C415.905 134.184 415.18 138.739 413.351 144.493C412.344 144.757 411.286 145.018 410.174 145.276C408.386 145.692 406.464 146.092 404.418 146.476C403.815 146.588 403.205 146.7 402.584 146.811C402.36 146.849 402.136 146.889 401.91 146.929C400.537 147.169 399.119 147.398 397.651 147.622C397.219 144.352 396.795 135.308 403.533 127.734C405.99 124.973 409.402 122.406 414.111 120.389C414.111 120.389 416.344 123.288 416.049 130.655Z" fill="#1E3D70"/>
<path d="M432.291 120.925C429.431 122.99 425.209 127.182 421.153 132.537C418.48 136.068 415.876 140.103 413.786 144.376C412.653 144.682 411.446 144.981 410.175 145.276C410.79 140.746 411.886 135.413 413.805 130.008C417.571 119.421 424.508 108.566 437.269 102.905C437.269 102.905 443.109 100.421 447.043 106.503C450.974 112.59 438.954 116.103 432.291 120.925Z" fill="#82B378"/>
<path d="M420.515 183.034C420.507 183.157 420.499 183.277 420.491 183.397C420.475 183.57 420.459 183.751 420.441 183.94C420.441 183.94 420.441 183.94 420.441 183.943C420.212 186.379 419.729 189.745 419.177 193.596C419.01 194.79 418.831 196.03 418.652 197.312C418.615 197.568 418.58 197.821 418.543 198.079C418.543 198.082 418.543 198.082 418.543 198.085C418.058 201.589 417.554 205.382 417.123 209.316C417.083 209.681 417.043 210.046 417.005 210.411V210.414C416.739 212.892 416.507 215.419 416.326 217.962C416.307 218.183 416.294 218.404 416.28 218.625C416.28 218.625 416.28 218.625 416.28 218.628C416.027 222.317 415.886 226.021 415.918 229.638C415.918 229.859 415.921 230.08 415.923 230.302C415.961 232.991 416.094 235.627 416.358 238.159C416.403 238.609 416.451 239.057 416.507 239.497C416.507 239.499 416.507 239.502 416.51 239.504C416.717 241.237 416.989 242.921 417.336 244.531C417.458 245.123 417.594 245.706 417.741 246.282L417.298 246.394C417.157 245.84 417.024 245.275 416.904 244.704C416.907 244.702 416.904 244.702 416.904 244.702C416.582 243.204 416.323 241.65 416.115 240.048C416.115 240.046 416.115 240.04 416.112 240.035C416.035 239.425 415.963 238.806 415.899 238.183V238.175C415.657 235.821 415.523 233.383 415.473 230.896C415.475 230.893 415.475 230.893 415.473 230.891C415.467 230.483 415.462 230.075 415.459 229.662C415.428 225.96 415.574 222.165 415.835 218.391C415.835 218.391 415.835 218.391 415.835 218.388C415.841 218.281 415.851 218.175 415.859 218.068C416.07 215.078 416.355 212.109 416.672 209.214C416.672 209.214 416.672 209.214 416.672 209.212C416.675 209.169 416.683 209.124 416.688 209.081C417.131 205.075 417.645 201.222 418.141 197.671C418.162 197.506 418.186 197.346 418.207 197.189C418.386 195.926 418.559 194.705 418.727 193.532C419.319 189.388 419.828 185.811 420.033 183.359C420.036 183.325 420.038 183.29 420.041 183.255C420.049 183.135 420.06 183.013 420.065 182.888C420.233 179.66 419.529 174.911 417.909 169.82C417.909 169.82 417.909 169.82 417.909 169.815C417.866 169.682 417.821 169.546 417.778 169.41C416.52 165.566 414.745 161.547 412.434 157.853C412.309 157.656 412.187 157.459 412.059 157.264C411.006 155.639 409.847 154.082 408.581 152.64C406.846 150.663 405.012 149.01 403.093 147.694C402.949 147.592 402.805 147.499 402.661 147.403C402.413 147.238 402.163 147.081 401.91 146.929C400.137 145.855 398.301 145.055 396.395 144.535C396.395 144.535 396.393 144.538 396.39 144.535C394.929 144.138 393.432 143.904 391.899 143.832C391.635 143.818 391.371 143.81 391.113 143.805C390.873 143.8 390.633 143.797 390.399 143.797C390.311 143.797 390.225 143.797 390.137 143.8H390.135C382.259 143.858 377.094 146.918 373.778 150.313C373.547 150.335 373.317 150.351 373.085 150.369C376.508 146.689 381.995 143.291 390.566 143.341C390.569 143.339 390.569 143.341 390.569 143.341C391.009 143.341 391.462 143.352 391.918 143.373C393.965 143.469 395.945 143.848 397.861 144.517C399.487 145.076 401.062 145.841 402.584 146.811C402.712 146.886 402.834 146.969 402.96 147.049C402.965 147.051 402.968 147.054 402.97 147.059C402.981 147.065 402.992 147.073 403.002 147.078C403.005 147.078 403.005 147.078 403.005 147.081C403.679 147.528 404.348 148.019 405.004 148.549C405.007 148.552 405.009 148.554 405.012 148.557C406.36 149.647 407.666 150.91 408.924 152.339C410.198 153.789 411.363 155.353 412.421 156.987C412.429 156.998 412.437 157.011 412.445 157.022C412.445 157.022 412.445 157.024 412.448 157.024C414.977 160.934 416.899 165.244 418.231 169.351C418.309 169.596 418.389 169.836 418.463 170.079C420.036 175.145 420.705 179.847 420.515 183.034Z" fill="#BAE2B1"/>
<path d="M416.755 209.074C416.755 209.074 408.98 209.836 405.667 216.619C405.667 216.619 411.803 217.458 416.755 209.074Z" fill="#BAE2B1"/>
<path d="M415.969 218.034C415.969 218.034 408.466 220.211 406.454 227.487C406.454 227.487 412.637 227.186 415.969 218.034Z" fill="#BAE2B1"/>
<path d="M415.657 229.534C415.657 229.534 410.01 232.861 409.884 239.196C409.884 239.196 414.85 237.666 415.657 229.534Z" fill="#BAE2B1"/>
<path d="M415.87 237.988C415.87 237.988 411.323 242.708 412.904 248.844C412.904 248.844 417.274 246.037 415.87 237.988Z" fill="#BAE2B1"/>
<path d="M417.021 244.134C417.021 244.134 415.366 250.475 419.748 255.053C419.748 255.053 422.184 250.464 417.021 244.134Z" fill="#BAE2B1"/>
<path d="M415.918 237.988C415.918 237.988 417.661 244.305 423.743 246.077C423.743 246.077 423.56 240.885 415.918 237.988Z" fill="#BAE2B1"/>
<path d="M415.657 229.534C415.657 229.534 417.4 235.853 423.482 237.623C423.482 237.623 423.296 232.431 415.657 229.534Z" fill="#BAE2B1"/>
<path d="M416.147 217.855C416.147 217.855 416.832 224.374 422.544 227.117C422.544 227.117 423.21 221.965 416.147 217.855Z" fill="#BAE2B1"/>
<path d="M416.754 209.097C416.754 209.097 417.551 216.667 424.182 219.849C424.182 219.849 424.958 213.866 416.754 209.097Z" fill="#BAE2B1"/>
<path d="M418.551 197.2C418.551 197.2 410.763 196.608 406.326 202.717C406.326 202.717 412.224 204.601 418.551 197.2Z" fill="#BAE2B1"/>
<path d="M418.549 197.224C418.549 197.224 418.024 204.817 424.004 209.097C424.004 209.097 425.801 203.338 418.549 197.224Z" fill="#BAE2B1"/>
<path d="M420.3 182.866C420.3 182.866 412.501 183.314 408.911 189.956C408.911 189.956 415.009 191.043 420.3 182.866Z" fill="#BAE2B1"/>
<path d="M420.297 182.89C420.297 182.89 420.785 190.486 427.282 193.935C427.282 193.935 428.298 187.989 420.297 182.89Z" fill="#BAE2B1"/>
<path d="M418.013 169.287C418.013 169.287 410.979 172.686 410.209 180.196C410.209 180.196 416.256 178.866 418.013 169.287Z" fill="#BAE2B1"/>
<path d="M418.021 169.309C418.021 169.309 421.382 176.137 428.703 176.835C428.703 176.835 427.365 170.953 418.021 169.309Z" fill="#BAE2B1"/>
<path d="M412.397 156.963C412.397 156.963 404.945 163.101 406.216 172.347C406.216 172.347 413.09 168.978 412.397 156.963Z" fill="#BAE2B1"/>
<path d="M412.413 156.99C412.413 156.99 418.444 164.205 427.439 162.904C427.439 162.904 424.113 156.23 412.413 156.99Z" fill="#BAE2B1"/>
<path d="M402.968 147.041C402.968 147.041 395.649 155.058 398.535 165.145C398.535 165.145 405.649 160.305 402.968 147.041Z" fill="#BAE2B1"/>
<path d="M402.989 147.068C402.989 147.068 410.849 154.141 420.657 151.263C420.657 151.263 415.892 144.365 402.989 147.068Z" fill="#BAE2B1"/>
<path d="M390.225 143.536C390.225 143.536 386.494 153.728 392.986 161.969C392.986 161.969 397.736 154.791 390.225 143.536Z" fill="#BAE2B1"/>
<path d="M390.254 143.55C390.254 143.55 400.209 147.116 408.191 140.732C408.191 140.732 401.168 136.156 390.254 143.55Z" fill="#BAE2B1"/>
<path d="M373.053 150.372C372.595 150.409 372.136 150.444 371.675 150.479C369.823 140.356 374.852 136.145 374.852 136.145C376.803 142.211 374.522 147.715 373.053 150.372Z" fill="#BAE2B1"/>
<path d="M415.327 112.534C415.327 112.534 411.809 121.569 406.702 128.344C404.325 131.497 401.606 134.157 398.736 135.197C389.701 138.461 387.265 139.389 386.918 140.055C386.713 140.444 386.124 145.276 385.671 149.181C384.978 149.258 384.28 149.333 383.571 149.405C384.314 143.6 386.156 133.291 390.415 125.754C391.5 123.824 392.744 122.081 394.17 120.639C403.786 110.909 415.327 112.534 415.327 112.534Z" fill="#82B378"/>
<path d="M318.899 152.038C318.118 152.027 317.343 152.017 316.57 152.006C316.144 152.001 315.717 151.995 315.293 151.985C314.619 151.974 313.945 151.963 313.276 151.947C310.701 144.33 312.953 140.33 312.953 140.33C318.894 144.168 318.91 151.366 318.899 152.038Z" fill="#82B378"/>
<path d="M364.325 150.985C364.274 150.988 364.221 150.991 364.17 150.993C363.496 151.033 362.822 151.073 362.142 151.111C359.783 151.247 357.382 151.369 354.943 151.478C354.525 151.497 354.107 151.513 353.685 151.532C352.771 151.572 351.852 151.606 350.924 151.641C351.719 148.168 354.656 141.769 365.412 138.16C365.412 138.16 366.908 143.872 364.325 150.985Z" fill="#82B378"/>
<path d="M348.723 146.183C348.723 146.183 340.49 144.053 341.436 140.759C342.382 137.462 348.723 146.183 348.723 146.183C348.723 146.183 348.875 145.687 348.723 146.183Z" fill="#BAE2B1"/>
<path d="M346.196 138.672C348.739 137.097 348.728 146.183 348.728 146.183C348.728 146.183 343.654 140.25 346.196 138.672Z" fill="#BAE2B1"/>
<path d="M345.13 151.83C344.69 151.844 344.248 151.857 343.808 151.865C341.417 151.929 338.997 151.98 336.553 152.014C333.326 152.06 330.056 152.086 326.745 152.086C324.722 152.086 322.716 152.078 320.725 152.057C320.114 152.052 319.504 152.046 318.899 152.038C318.118 152.028 317.343 152.017 316.57 152.006C316.143 152.001 315.717 151.996 315.293 151.985C314.619 151.974 313.944 151.964 313.275 151.948C308.747 151.857 304.318 151.721 300.005 151.54C300.533 147.606 303.598 135.517 321.295 137.188C336.289 138.606 342.686 147.06 345.13 151.83Z" fill="#1E3D70"/>
<path d="M341.119 48.0605C341.111 48.0818 341.084 48.1378 341.044 48.2364C340.994 48.351 340.922 48.5216 340.831 48.7455C340.746 48.9587 340.636 49.2226 340.508 49.5344C339.458 52.1356 337.148 58.103 334.32 66.8422C331.599 75.2429 328.392 86.2049 325.367 99.1978C325.367 99.1978 325.367 99.1978 325.367 99.2004C325.338 99.3337 325.306 99.4643 325.274 99.5976V99.6082C323.651 106.618 322.076 114.216 320.661 122.318C319.043 131.596 317.625 141.532 316.57 152.006C316.143 152.001 315.717 151.995 315.293 151.985C316.343 141.527 317.756 131.601 319.371 122.329C321.796 108.403 324.68 95.9542 327.513 85.3947C327.705 84.6804 327.897 83.9795 328.089 83.2865C329.909 76.6235 331.697 70.7654 333.312 65.8188C335.994 57.5939 338.187 51.8984 339.25 49.2439C339.493 48.6415 339.677 48.1964 339.794 47.9139C339.853 47.77 339.895 47.6687 339.919 47.6101C339.933 47.5808 339.941 47.5621 339.946 47.5541L340.114 47.6288L340.394 47.7487L340.892 47.9619L341.02 48.0179L341.119 48.0605Z" fill="#9DD592"/>
<path d="M354.714 41.4561C352.241 44.2572 340.671 48.7588 339.872 48.0552C339.072 47.3489 342.105 35.3075 344.576 32.509C347.047 29.7079 351.319 29.4413 354.117 31.9146C356.918 34.3853 357.185 38.6576 354.714 41.4561Z" fill="#FB7185"/>
<path d="M336.98 31.6987C339.213 34.6918 341.239 46.9411 340.383 47.578C339.53 48.215 328.371 42.7726 326.138 39.777C323.907 36.7839 324.525 32.5489 327.518 30.3155C330.514 28.0847 334.749 28.703 336.98 31.6987Z" fill="#FB7185"/>
<path d="M323.67 44.7234C327.274 43.74 339.416 46.3332 339.696 47.362C339.976 48.3908 330.829 56.7861 327.226 57.7696C323.625 58.7504 319.907 56.6262 318.926 53.0229C317.943 49.4222 320.07 45.7042 323.67 44.7234Z" fill="#FB7185"/>
<path d="M331.873 60.9627C332.233 57.2474 338.963 46.8132 340.023 46.9145C341.084 47.0157 345.692 58.5481 345.333 62.2634C344.975 65.9813 341.671 68.7025 337.953 68.3427C334.237 67.9829 331.516 64.6807 331.873 60.9627Z" fill="#FB7185"/>
<path d="M350.293 60.1631C346.988 58.428 339.864 48.2576 340.36 47.3141C340.855 46.3706 353.272 46.4559 356.577 48.191C359.885 49.9287 361.159 54.0144 359.421 57.322C357.686 60.6268 353.598 61.9008 350.293 60.1631Z" fill="#FB7185"/>
<path d="M342.558 46.9623C342.366 45.7496 341.225 44.9207 340.01 45.1153C338.795 45.3072 337.969 46.4479 338.16 47.6632C338.355 48.8785 339.496 49.7047 340.711 49.5129C341.924 49.3183 342.753 48.1776 342.558 46.9623Z" fill="#FACC15"/>
<path d="M319.083 65.9812C322.846 69.1181 329.182 84.1259 328.286 85.1999C327.391 86.274 311.487 82.7426 307.724 79.6083C303.961 76.4714 303.454 70.8771 306.591 67.1139C309.728 63.3506 315.32 62.8442 319.083 65.9812Z" fill="#9DD592"/>
<path d="M337.017 85.4691C333.203 87.3295 324.768 98.6459 325.298 99.736C325.829 100.823 339.938 101.146 343.755 99.2856C347.569 97.4253 349.155 92.8251 347.294 89.0112C345.434 85.1946 340.834 83.6088 337.017 85.4691Z" fill="#9DD592"/>
<path d="M336.581 131.329C336.581 131.329 331.583 134.613 318.633 133.952C305.688 133.296 302.154 126.343 301.211 127.284C300.987 127.51 300.475 129.224 299.825 131.697C299.025 134.751 298.02 138.96 297.085 142.966C296.595 145.058 296.128 147.097 295.726 148.882C295.091 148.725 294.462 148.509 293.852 148.24C294.063 147.137 294.3 145.956 294.558 144.719C295.568 139.807 296.856 134.133 298.172 129.866C299.164 126.652 300.169 124.235 301.091 123.539C304.686 120.804 313.209 115.671 321.583 118.595C329.963 121.513 336.581 131.329 336.581 131.329Z" fill="#9DD592"/>
<path d="M304.603 107.86C295.211 117.012 285.608 117.67 285.294 119.336C285.046 120.645 284.838 121.996 284.675 123.368C284.659 123.475 284.649 123.582 284.638 123.691C284.185 127.427 283.998 131.351 283.974 135.125C283.929 141.063 284.278 146.66 284.627 150.681C283.881 150.631 283.14 150.575 282.405 150.521C282.258 145.631 282.154 138.656 282.423 131.407C282.511 128.883 282.652 126.327 282.85 123.816C282.858 123.683 282.866 123.55 282.876 123.416C283.7 113.187 285.494 103.75 289.177 100.293C298.625 91.4286 316.826 87.7773 317.471 87.6493C318.113 87.5187 313.993 98.7126 304.603 107.86Z" fill="#9DD592"/>
<path d="M309.084 145.799C309.084 145.799 309.014 145.847 308.881 145.935C307.908 146.566 303.497 149.218 298.33 149.223C297.458 149.223 296.587 149.106 295.723 148.882C295.091 148.728 294.465 148.512 293.852 148.24C292.994 147.877 292.168 147.414 291.376 146.886C288.306 144.799 285.854 141.604 285.014 138.405C284.737 137.347 284.377 136.233 283.975 135.124C283.5 133.834 282.965 132.561 282.424 131.406C281.054 128.483 279.652 126.335 279.151 126.71C278.277 127.366 277.453 130.378 277.378 134.997C277.333 137.632 278.258 144.679 279.06 150.26C278.362 150.201 277.672 150.146 276.984 150.084C275.798 140.857 274.822 126.806 279.444 124.408C279.729 124.256 280.025 124.125 280.329 124.013C281.126 123.704 281.981 123.51 282.877 123.416C283.455 123.36 284.06 123.342 284.676 123.368C285.273 123.395 285.883 123.456 286.499 123.56C290.494 124.224 294.793 126.495 298.172 129.866C298.756 130.447 299.308 131.057 299.825 131.697C301.139 133.315 302.245 135.124 303.036 137.086C303.036 137.086 303.242 137.523 303.599 138.205C304.587 140.1 306.733 143.909 308.782 145.569C308.881 145.649 308.985 145.727 309.084 145.799Z" fill="#82B378"/>
<path d="M346.466 151.793C345.583 151.819 344.696 151.843 343.808 151.865C343.171 151.126 341.764 149.652 340.28 149.135C339.011 148.693 337.684 149.202 336.554 152.014C335.89 153.661 335.29 156.108 334.813 159.618C333.518 169.108 322.444 168.101 322.444 168.101C319.88 161.947 319.488 156.419 320.725 152.056C322.263 146.633 326.317 143.003 331.842 142.19C340.938 140.86 345.698 150.148 346.466 151.793Z" fill="#9DD592"/>
<path d="M266.93 129.951C267.255 128.486 268.711 127.561 270.176 127.889C271.645 128.214 272.567 129.669 272.242 131.135C271.914 132.603 268.215 136.689 268.215 136.689C268.215 136.689 266.602 131.417 266.93 129.951Z" fill="#9DD592"/>
<path d="M402.093 403.012C404.751 404.089 414.239 403.218 414.545 402.461C414.852 401.704 408.647 394.47 405.99 393.396C403.335 392.32 400.31 393.599 399.234 396.256C398.157 398.911 399.436 401.936 402.093 403.012Z" fill="#BAE6B0"/>
<path d="M426.033 407.543C424.54 409.99 423.869 419.494 424.567 419.92C425.265 420.347 433.402 415.389 434.895 412.943C436.384 410.493 435.611 407.303 433.162 405.811C430.715 404.321 427.523 405.096 426.033 407.543Z" fill="#BAE6B0"/>
<path d="M413.242 426.143C415.974 427.015 425.369 425.424 425.617 424.646C425.864 423.867 419.127 417.13 416.398 416.258C413.669 415.387 410.747 416.893 409.876 419.624C409.004 422.354 410.513 425.272 413.242 426.143Z" fill="#BAE6B0"/>
<path d="M427.064 435.344C427.054 435.128 426.004 413.614 414.226 402.506L414.477 402.242C426.363 413.452 427.419 435.109 427.429 435.328L427.064 435.344Z" fill="#BAE6B0"/>
<path d="M466.381 403.476C464.729 404.574 458.164 405.296 457.853 404.825C457.538 404.353 460.752 398.585 462.405 397.485C464.06 396.387 466.291 396.84 467.389 398.492C468.487 400.147 468.036 402.378 466.381 403.476Z" fill="#BAE6B0"/>
<path d="M450.757 409.865C452.109 411.32 453.881 417.682 453.465 418.065C453.05 418.452 446.837 416.213 445.486 414.758C444.134 413.303 444.22 411.027 445.675 409.675C447.13 408.324 449.406 408.409 450.757 409.865Z" fill="#BAE6B0"/>
<path d="M462.012 420.725C460.28 421.693 453.681 421.914 453.404 421.421C453.129 420.925 456.77 415.419 458.505 414.449C460.237 413.478 462.428 414.099 463.396 415.832C464.366 417.564 463.748 419.755 462.012 420.725Z" fill="#BAE6B0"/>
<path d="M453.903 428.883C453.881 428.734 451.616 413.982 458.076 404.811L457.869 404.667C451.35 413.921 453.631 428.774 453.655 428.923L453.903 428.883Z" fill="#BAE5B0"/>
<path d="M442.242 434.089L441.49 433.969C438.54 395.779 426.877 368.373 426.714 368.002L427.397 367.707C427.559 368.085 439.307 395.67 442.242 434.089Z" fill="#BAE6B0"/>
<path d="M418.802 364.159C420.241 365.787 426.976 368.407 427.44 367.997C427.906 367.586 426.139 360.579 424.703 358.951C423.264 357.32 420.777 357.165 419.149 358.605C417.52 360.041 417.366 362.528 418.802 364.159Z" fill="#FF8C9A"/>
<path d="M429.121 358.479C427.823 360.22 426.645 367.349 427.141 367.72C427.64 368.09 434.135 364.924 435.433 363.181C436.731 361.438 436.371 358.972 434.628 357.674C432.887 356.376 430.422 356.736 429.121 358.479Z" fill="#FF8C9A"/>
<path d="M436.869 366.059C434.771 365.486 427.706 366.997 427.541 367.594C427.378 368.194 432.703 373.079 434.798 373.652C436.896 374.223 439.06 372.986 439.63 370.888C440.203 368.794 438.966 366.629 436.869 366.059Z" fill="#FF8C9A"/>
<path d="M432.093 375.51C431.885 373.346 427.967 367.275 427.352 367.333C426.733 367.395 424.052 374.105 424.26 376.267C424.471 378.431 426.392 380.014 428.556 379.806C430.72 379.596 432.304 377.674 432.093 375.51Z" fill="#FF8C9A"/>
<path d="M421.376 375.046C423.298 374.036 427.445 368.117 427.155 367.565C426.867 367.016 419.641 367.066 417.717 368.077C415.793 369.087 415.052 371.467 416.062 373.391C417.072 375.315 419.452 376.056 421.376 375.046Z" fill="#FF8C9A"/>
<path d="M425.875 367.362C425.987 366.656 426.653 366.174 427.36 366.286C428.066 366.4 428.548 367.064 428.436 367.77C428.322 368.477 427.658 368.959 426.952 368.847C426.245 368.732 425.763 368.069 425.875 367.362Z" fill="white"/>
<path d="M442.027 395.043C439.889 397.671 437.581 408.703 438.333 409.313C439.082 409.923 449.412 405.416 451.549 402.786C453.687 400.158 453.29 396.291 450.659 394.153C448.031 392.016 444.167 392.413 442.027 395.043Z" fill="#BAE6B0"/>
<path d="M381.923 402.322C382.075 402.548 388.911 414.107 395.335 432.692C395.068 432.614 394.841 432.577 394.578 432.503C388.232 414.219 381.547 402.887 381.396 402.66L381.923 402.322Z" fill="#BAE6B0"/>
<path d="M374.05 400.214C375.49 401.466 381.654 402.972 382.011 402.559C382.368 402.149 380.026 396.253 378.586 395C377.147 393.748 374.964 393.897 373.712 395.336C372.459 396.778 372.611 398.958 374.05 400.214Z" fill="#FF8C9A"/>
<path d="M382.379 394.078C381.449 395.747 381.243 402.087 381.721 402.354C382.195 402.62 387.485 399.113 388.416 397.447C389.343 395.781 388.746 393.676 387.08 392.746C385.415 391.816 383.309 392.413 382.379 394.078Z" fill="#FF8C9A"/>
<path d="M389.996 399.787C388.107 399.531 382.126 401.658 382.054 402.199C381.982 402.738 387.179 406.378 389.069 406.634C390.961 406.89 392.701 405.565 392.957 403.673C393.213 401.783 391.889 400.043 389.996 399.787Z" fill="#FF8C9A"/>
<path d="M386.928 408.564C386.497 406.706 382.387 401.871 381.857 401.994C381.326 402.116 379.764 408.268 380.196 410.125C380.628 411.986 382.483 413.142 384.343 412.711C386.201 412.279 387.36 410.424 386.928 408.564Z" fill="#FF8C9A"/>
<path d="M377.545 409.396C379.101 408.292 382.027 402.663 381.713 402.218C381.401 401.773 375.114 402.65 373.557 403.751C371.998 404.851 371.628 407.007 372.729 408.567C373.829 410.123 375.985 410.496 377.545 409.396Z" fill="#FF8C9A"/>
<path d="M380.578 402.189C380.594 401.56 381.116 401.064 381.745 401.08C382.374 401.096 382.87 401.618 382.851 402.247C382.835 402.876 382.313 403.372 381.684 403.356C381.055 403.337 380.559 402.815 380.578 402.189Z" fill="white"/>
<path d="M393.37 414.776C392.171 416.727 391.6 424.323 392.157 424.667C392.715 425.008 399.236 421.071 400.436 419.12C401.635 417.169 401.027 414.616 399.074 413.417C397.123 412.218 394.57 412.825 393.37 414.776Z" fill="#BAE6B0"/>
<path d="M483.281 434.68L484.102 434.55C487.327 392.81 500.075 362.856 500.253 362.448L499.507 362.125C499.328 362.538 486.49 392.687 483.281 434.68Z" fill="#BAE6B0"/>
<path d="M508.899 358.248C507.329 360.028 499.968 362.893 499.459 362.445C498.95 361.995 500.879 354.338 502.452 352.555C504.021 350.774 506.74 350.606 508.52 352.176C510.301 353.749 510.471 356.467 508.899 358.248Z" fill="white"/>
<path d="M497.62 352.04C499.04 353.943 500.328 361.736 499.784 362.141C499.24 362.546 492.143 359.084 490.722 357.179C489.304 355.276 489.699 352.581 491.602 351.161C493.507 349.743 496.202 350.134 497.62 352.04Z" fill="white"/>
<path d="M489.152 360.327C491.445 359.7 499.168 361.35 499.347 362.006C499.525 362.659 493.707 368 491.415 368.623C489.123 369.247 486.759 367.896 486.135 365.606C485.512 363.314 486.863 360.95 489.152 360.327Z" fill="white"/>
<path d="M494.371 370.654C494.6 368.29 498.881 361.654 499.557 361.72C500.232 361.784 503.161 369.119 502.934 371.483C502.705 373.847 500.602 375.579 498.238 375.35C495.874 375.121 494.144 373.021 494.371 370.654Z" fill="white"/>
<path d="M506.087 370.147C503.984 369.044 499.454 362.573 499.771 361.973C500.085 361.374 507.982 361.427 510.085 362.53C512.188 363.636 512.998 366.235 511.895 368.338C510.791 370.441 508.19 371.251 506.087 370.147Z" fill="white"/>
<path d="M501.17 361.75C501.045 360.977 500.32 360.452 499.547 360.574C498.774 360.697 498.249 361.424 498.372 362.195C498.494 362.968 499.222 363.495 499.992 363.373C500.765 363.247 501.293 362.522 501.17 361.75Z" fill="#F77D48"/>
<path d="M481.381 403.18C483.718 406.053 486.24 418.11 485.419 418.777C484.6 419.446 473.311 414.518 470.973 411.642C468.636 408.769 469.07 404.545 471.946 402.207C474.819 399.87 479.044 400.307 481.381 403.18Z" fill="#BAE6B0"/>
<path d="M494.995 405.915C491.701 407.61 484.553 417.639 485.035 418.58C485.52 419.521 497.839 419.537 501.13 417.842C504.424 416.147 505.722 412.103 504.027 408.809C502.332 405.515 498.289 404.22 494.995 405.915Z" fill="#BAE6B0"/>
<path d="M372.827 440.623C372.827 440.623 376.598 430.706 390.298 430.083C403.997 429.459 413.429 437.556 424.745 433.819C436.064 430.083 454.795 421.647 472.516 427.265C490.237 432.884 493.225 440.623 493.225 440.623H372.827Z" fill="#B4E7A9"/>
<path d="M537.774 289.581C526.284 286.658 513.654 268.833 513.654 268.833L516.889 266.026C520.237 269.973 534.165 276.775 534.165 276.775C534.091 273.161 534.184 269.867 534.413 266.866C535.959 246.477 543.643 239.683 545.743 238.193C546.081 237.951 546.276 237.85 546.276 237.85C546.276 237.85 546.284 237.999 546.295 238.279C546.324 238.884 546.38 240.104 546.438 241.781C546.865 254.259 547.374 292.025 537.774 289.581Z" fill="#FFB27D"/>
<path d="M546.982 261.748C546.955 262.865 546.918 263.987 546.87 265.109C546.499 274.181 545.513 283.198 543.288 288.475C542.739 289.77 542.121 290.842 541.412 291.63C540.385 292.782 539.181 293.339 537.766 293.131C530.004 291.998 527.982 284.754 527.571 279.368C527.313 276.015 527.683 273.382 527.683 273.382C527.683 273.382 531.505 273.366 532.121 272.796C533.392 271.623 533.949 265.983 534.29 259.733C534.738 251.541 534.855 242.332 535.639 240.746C537.875 236.216 546.513 236.216 546.513 236.216C546.513 236.216 547.32 248.555 546.982 261.748Z" fill="#E7E5E4"/>
<path d="M556.135 215.467C556.135 215.467 549.735 219.236 553.661 226.541C553.661 226.541 548.059 225.515 546.849 223.841C546.849 223.841 546.99 224.54 547.198 224.891C547.198 224.891 542.049 223.724 540.362 221.573C538.678 219.425 546.942 193.679 560.33 200.348C560.33 200.348 572.571 202.618 567.776 216.211C562.981 229.801 567.512 231.003 567.512 231.003C567.512 231.003 566.089 231.291 565.481 231.128C565.481 231.128 564.682 230.555 564.637 230.017C564.637 230.017 564.607 230.835 564.77 231.141C564.77 231.141 559.757 230.31 557.803 227.815C555.849 225.323 554.679 218.148 556.135 215.467Z" fill="#233862"/>
<path d="M546.894 237.348C546.886 237.351 546.881 237.354 546.873 237.356C546.833 237.351 546.841 237.348 546.894 237.348Z" fill="#FFB27D"/>
<path d="M562.448 232.871C562.635 234.556 562.859 236.067 562.96 236.789C563.184 238.402 547.87 237.351 546.894 237.349C547.574 237.053 549.653 230.465 550.311 227.951C551.108 224.902 551.734 221.608 551.734 221.608L562.547 222.293L563.189 222.33C562.792 223.807 562.507 225.198 562.31 226.491C562.286 226.664 562.259 226.84 562.238 227.01C562.04 228.444 562.214 230.79 562.448 232.871Z" fill="#FFB27D"/>
<path d="M550.242 220.518C550.242 220.518 548.488 214.958 548.845 210.694C549.096 207.65 553.429 197.269 563.848 201.685C563.848 201.685 566.91 202.829 569.338 205.609C571.268 207.818 573.754 212.144 567.47 220.542L565.644 223.457L550.242 220.518Z" fill="#233862"/>
<path d="M548.272 262.622L547.699 280.978C547.699 280.978 545.671 284.453 543.288 288.475C542.678 289.509 542.043 290.578 541.412 291.63C540.385 292.782 539.181 293.339 537.766 293.131C530.004 291.998 527.982 284.754 527.571 279.368C527.313 276.015 527.683 273.382 527.683 273.382C527.683 273.382 531.505 273.366 532.121 272.796C533.392 271.623 533.949 265.983 534.29 259.733L539.589 256.74L546.982 261.748L548.272 262.622Z" fill="#E7E5E4"/>
<path d="M562.448 232.871C554.882 230.656 551.673 221.917 551.673 221.917C554.874 222.013 559.039 224.233 562.31 226.49C562.286 226.664 562.259 226.84 562.238 227.01C562.041 228.444 562.214 230.789 562.448 232.871Z" fill="#ED975D"/>
<path d="M562.981 229.801C562.981 229.801 549.317 226.424 551.55 217.946C553.787 209.468 553.525 203.322 562.347 205.121C571.166 206.92 572.001 210.598 571.945 213.609C571.886 216.621 566.595 230.462 562.981 229.801Z" fill="#FFB27D"/>
<path d="M572.786 208.791C568.719 202.354 563.869 201.686 563.847 201.686C560.375 199.359 555.78 205.073 555.78 205.073C553.261 210.912 547.952 213.237 547.952 213.237C547.952 213.237 550.028 215.425 556.134 215.467C558 215.481 559.887 214.652 561.611 213.498C558.269 216.763 554.381 218.724 554.381 218.724C561.707 217.434 566.835 209.361 567.744 207.837C568.73 209.423 569.711 211.267 569.761 212.41C569.868 214.748 568.997 219.273 570.332 219.465C570.332 219.465 575.526 213.125 572.786 208.791Z" fill="#233862"/>
<path d="M560.849 224.366C560.849 224.366 561.02 225.656 561.843 225.963C562.667 226.267 564.852 226.821 565.073 226.685C565.295 226.546 566.113 225.542 566.113 225.542C566.113 225.542 562.669 224.22 560.849 224.366Z" fill="white"/>
<path d="M555.748 354.052C555.572 354.777 555.399 355.494 555.228 356.206C554.2 360.486 553.24 364.457 552.635 367.778C551.852 372.104 551.665 375.318 552.696 376.672C556.939 382.237 552.696 426.394 552.696 426.394L547.864 431.37C547.864 431.37 539.469 387.772 537.19 380.942C536.156 377.837 534.648 364.572 533.315 351.033C533.246 350.353 533.182 349.676 533.115 348.999C532.886 346.63 532.662 344.271 532.449 341.968C531.255 329.157 530.359 318.187 530.359 318.187C530.359 318.187 539.267 311.926 547.358 311.228C552.126 310.812 556.609 312.329 558.824 318.187C562.049 326.71 558.781 341.425 555.748 354.052Z" fill="#FFB27D"/>
<path d="M554.388 356.984C548.155 350.185 544.047 340.455 536.441 326.827C535.793 319.895 541.26 313.309 547.358 311.228C552.126 310.812 556.609 312.329 558.823 318.187C562.048 326.71 557.421 344.356 554.388 356.984Z" fill="#ED975D"/>
<path d="M579.878 269.845L612.402 278.246V282.044C612.402 282.044 580.038 281.665 577.949 278.059C575.862 274.453 579.878 269.845 579.878 269.845Z" fill="#FFB27D"/>
<path d="M612.399 395.014L610.88 401.29C610.88 401.29 566.888 378.567 561.198 374.204C558.911 372.45 555.892 362.93 553.093 352.157C548.928 336.105 545.255 317.278 545.255 317.278C545.255 317.278 551.422 293.557 567.933 308.075C577.81 316.761 576.275 333.501 575.193 346.52C574.474 355.254 573.954 362.317 577.232 364.148C583.621 367.714 602.373 384.142 608.308 395.445L612.399 395.014Z" fill="#FFB27D"/>
<path d="M595.838 269.845C597.943 272.833 596.784 278.627 592.371 283.294C589.631 286.188 585.921 287.902 579.879 287.012C577.245 286.625 572.605 283.68 570.18 278.814C569.82 278.086 568.901 275.951 568.901 275.951C568.901 275.951 565.551 279.304 565.425 279.938C565.369 280.224 565.079 282.758 565.033 283.105C564.983 283.523 565.281 285.061 565.281 285.061C565.281 285.061 549.279 292.06 536.049 284.091C536.049 284.091 532.921 263.771 534.986 246.389C535.383 243.057 543.885 238.513 546.513 236.213C547.105 235.696 547.704 234.137 547.542 233.135C547.409 232.287 548.384 230.856 549.202 231.117C550.783 231.624 555.258 233.836 558.405 232.991C559.972 232.575 561.961 230.763 563.482 231.179C565.34 231.685 563.378 236.157 564.431 236.213C565.881 236.285 572.397 236.386 574.375 239.118C575.995 241.352 576.856 245.523 579.679 253.414C579.679 253.414 579.681 253.42 579.684 253.433C584.98 268.238 592.752 265.461 595.838 269.845Z" fill="white"/>
<path d="M568.901 275.951C568.901 275.951 567.288 272.191 566.113 265.904C565.782 264.131 552.142 277.758 555.559 283.294C558.975 288.827 568.901 275.951 568.901 275.951Z" fill="#E7E5E4"/>
<path d="M588.556 332.725C588.556 332.725 584.271 333.951 577.834 335.308C564.532 338.114 542.038 341.478 529.154 335.734C529.154 335.734 529.978 316.785 532.217 302.462C534.008 291.002 535.668 283.48 535.668 283.48C535.668 283.48 547.645 286.481 559.807 284.152C559.924 284.131 560.036 284.109 560.153 284.085C561.747 283.768 563.341 283.355 564.908 282.833C564.908 282.833 574.09 295.994 578.826 305.151C582.104 311.486 588.556 332.725 588.556 332.725Z" fill="#4F46E5"/>
<path d="M588.556 332.725C588.556 332.725 584.271 333.951 577.834 335.308C576.451 335.457 575.012 335.598 573.522 335.734C551.934 308.168 559.895 284.221 559.895 284.221C559.98 284.176 560.068 284.128 560.153 284.085C561.747 283.768 563.341 283.355 564.908 282.833C564.908 282.833 574.09 295.994 578.826 305.151C582.104 311.486 588.556 332.725 588.556 332.725Z" fill="#3730A3"/>
<path d="M612.402 278.246C612.402 278.246 618.367 275.306 620.739 275.024C623.111 274.739 627.098 274.643 627.098 275.024C627.098 275.402 622.829 278.054 621.688 278.246C620.55 278.438 618.367 280.05 619.033 280.242C619.697 280.432 623.207 279.624 623.255 280.242C623.303 280.858 621.12 281.236 620.739 281.711C620.361 282.185 619.033 282.756 616.899 282.47C614.764 282.185 612.402 282.044 612.402 282.044V278.246Z" fill="#FFB27D"/>
<path d="M621.778 397.983C621.658 397.759 621.458 397.588 621.221 397.5C621.136 397.468 621.066 397.442 621.058 397.439C620.861 397.391 619.955 397.093 619.355 395.653C618.961 394.705 618.841 393.929 618.479 392.991L616.994 390.427C615.44 388.38 614.894 388.86 614.894 388.86C614.894 388.86 614.489 389.38 613.889 390.067C612.898 391.2 611.378 392.783 610.302 393.188C609.537 393.473 609.06 393.95 608.766 394.39C608.391 394.944 608.308 395.446 608.308 395.446C608.308 395.446 611.498 396 611.218 397.572C610.677 400.616 610.805 401.168 610.861 401.269L610.88 401.288C610.88 401.288 616.32 404.137 618.06 404.696C621.157 405.688 622.772 407.791 623.777 408.753C624.182 409.142 624.744 409.321 625.299 409.233C625.773 409.158 626.33 409.038 626.759 408.851C627.162 408.676 627.324 408.188 627.114 407.801L621.778 397.983Z" fill="#2B478B"/>
<path d="M557.55 433.582L554.943 434.995C553.997 435.328 553.216 435.424 552.257 435.792C550.801 436.351 549.775 437.447 549.727 437.644C548.992 440.632 547.918 440.541 547.918 440.541H537.481C536.985 440.293 537.822 438.182 538.224 437.785C539.213 436.81 542.174 437.303 543.256 434.235C543.866 432.513 546.87 427.156 546.87 427.156L546.891 427.138C546.993 427.087 547.547 426.975 550.575 427.604C552.137 427.927 552.784 424.755 552.784 424.755C552.784 424.755 553.283 424.854 553.826 425.243C554.258 425.549 554.719 426.042 554.983 426.815C555.359 427.9 556.894 429.467 557.997 430.491C558.669 431.109 559.175 431.53 559.175 431.53C559.175 431.53 559.639 432.09 557.55 433.582Z" fill="#2B478B"/>
<path d="M516.889 266.026C516.889 266.026 517.371 262.721 516.518 260.544C515.618 258.244 515.418 255.749 514.695 256.74C513.976 257.732 514.583 260.53 513.952 260.44C513.675 260.4 512.822 259.917 512.486 258.571C512.06 256.863 513.096 254.619 511.673 254.838C510.316 255.048 508.496 261.354 509.4 263.065C510.301 264.779 513.653 268.833 513.653 268.833L516.889 266.026Z" fill="#FFB27D"/>
<path d="M548.387 287.012C539.514 287.012 535.858 283.96 535.586 283.752L535.013 279.573C535.098 279.637 547.001 286.785 565.425 279.939L565.034 283.105C557.949 285.735 552.995 287.012 548.387 287.012Z" fill="#A8A29E"/>
<path d="M103.202 441.487C103.263 441.503 103.333 441.511 103.398 441.511C104.006 441.514 104.611 440.938 104.803 440.131L111.537 411.701L112.134 409.177L122.229 366.555L122.826 364.031L131.28 328.328L131.877 325.801L140.313 290.192L140.91 287.665L151.724 241.991L152.321 239.47L161.246 201.792L161.842 199.273L166.274 180.558C166.486 179.666 166.112 178.818 165.438 178.674C164.769 178.525 164.049 179.133 163.837 180.031L159.278 199.273L158.681 201.792L149.761 239.47L149.164 241.991L138.345 287.665L137.749 290.192L129.317 325.801L128.716 328.328L120.261 364.031L119.665 366.555L109.57 409.177L108.973 411.701L102.366 439.603C102.151 440.498 102.524 441.341 103.202 441.487Z" fill="#2B478B"/>
<path d="M42.8401 441.487C42.9054 441.503 42.9712 441.511 43.0365 441.511C43.6487 441.514 44.2532 440.943 44.4419 440.131L51.1062 411.954L51.7069 409.427L61.7979 366.757L62.3987 364.231L70.8532 328.488L71.4502 325.961L79.8856 290.311L80.4823 287.782L91.3012 242.058L91.8979 239.534L100.823 201.816L101.419 199.295L105.916 180.279C106.128 179.383 105.754 178.538 105.081 178.392C104.411 178.24 103.691 178.853 103.479 179.751L98.8552 199.295L98.2582 201.816L89.3337 239.534L88.737 242.058L77.9221 287.782L77.3214 290.311L68.8898 325.961L68.293 328.488L59.8345 364.231L59.2377 366.757L49.1427 409.427L48.546 411.954L42.0045 439.6C41.7929 440.498 42.1663 441.341 42.8401 441.487Z" fill="#2B478B"/>
<path d="M101.727 190.329H163.09L163.671 187.795H102.308L101.727 190.329Z" fill="#2B478B"/>
<path d="M90.8506 235.867H151.744L152.321 233.335H91.4276L90.8506 235.867Z" fill="#2B478B"/>
<path d="M77.3213 290.749H139.721L140.313 288.211H77.9164L77.3213 290.749Z" fill="#2B478B"/>
<path d="M68.293 329.077H130.689L131.281 326.54H68.8841L68.293 329.077Z" fill="#2B478B"/>
<path d="M59.2373 367.498H121.637L122.229 364.961H59.8285L59.2373 367.498Z" fill="#2B478B"/>
<path d="M48.5459 412.871H110.946L111.537 410.333H49.137L48.5459 412.871Z" fill="#2B478B"/>
<path d="M195.008 98.4513C195.008 98.4513 192.384 99.8905 191.485 98.4513C190.586 97.0147 193.246 97.4811 193.246 97.4811L195.008 98.4513Z" fill="#EF9E67"/>
<path d="M190.059 105.08L189.338 104.904C189.024 104.827 188.705 104.816 188.404 104.861C187.448 105.003 186.623 105.706 186.38 106.7L181.175 105.424C179.761 105.077 178.329 105.845 177.8 107.159L177.032 106.97C178.076 104.102 179.759 101.687 181.793 99.9574C183.933 98.1317 186.457 97.0603 189.025 97.015C189.839 96.9963 190.661 97.0843 191.476 97.2842C197.283 98.7074 200.761 105.33 199.803 112.553L199.246 112.417C199.386 111.007 198.468 109.661 197.054 109.318L191.852 108.038C192.173 106.732 191.366 105.402 190.059 105.08ZM175.984 130.261L178.646 130.911L191.418 134.043C196.481 135.285 201.636 132.158 202.877 127.097L203.625 124.043C204.313 123.433 205.015 122.78 205.735 122.081C217.461 110.658 233.045 117.732 233.045 117.732C233.138 117.353 233.138 117.009 233.085 116.714C232.925 115.813 232.283 115.304 232.283 115.304C222.511 110.48 209.785 111.631 204.236 112.463C202.479 112.724 201.442 112.953 201.442 112.953L201.087 112.868C202.197 104.928 198.293 97.5987 191.79 96.0049C190.402 95.6638 188.995 95.6078 187.62 95.8103C185.015 96.1861 182.512 97.4734 180.406 99.4403C178.406 101.306 176.766 103.782 175.741 106.679C174.287 106.503 172.888 107.439 172.532 108.896L169.796 120.053C168.689 124.563 171.475 129.155 175.984 130.261Z" fill="#64748B"/>
<path d="M203.625 124.043C204.313 123.433 205.015 122.78 205.736 122.081C217.461 110.658 233.045 117.732 233.045 117.732C233.139 117.353 233.139 117.009 233.085 116.714C230.9 115.701 222.793 112.46 213.78 115.33C203.219 118.697 201.486 120.496 203.625 124.043Z" fill="#475569"/>
<path d="M175.984 130.261L178.646 130.911C174.579 129.421 177.937 120.053 179.803 113.92C181.669 107.788 186.18 109.787 186.18 109.787C186.837 107.726 188.874 107.529 188.874 107.529C188.704 105.664 190.059 105.08 190.059 105.08L189.338 104.904C189.024 104.827 188.705 104.816 188.404 104.861C187.448 105.003 186.623 105.706 186.38 106.7L181.175 105.424C179.761 105.077 178.329 105.845 177.8 107.159L177.032 106.969C178.076 104.102 179.759 101.687 181.793 99.9574C183.933 98.1317 186.457 97.0603 189.025 97.015C188.584 96.7564 188.093 96.3753 187.62 95.8103C185.015 96.1861 182.512 97.4734 180.406 99.4403C178.406 101.306 176.766 103.782 175.741 106.679C174.287 106.503 172.888 107.439 172.532 108.896L169.796 120.053C168.689 124.563 171.475 129.155 175.984 130.261Z" fill="#475569"/>
<path d="M187.386 95.6104C194.47 92.7106 195.904 98.0064 195.904 98.0064C195.165 97.8305 194.67 96.847 193.247 98.129C191.164 100.005 189.651 101.037 187.53 100.322L184.994 100.346L184.708 96.5539C184.708 96.5539 186.051 95.8342 187.386 95.6104Z" fill="#FFB27D"/>
<path d="M126.94 64.3659C126.94 64.3659 132.376 70.8157 139.298 68.1185C139.298 68.1185 140.787 64.5178 140.808 61.8606C140.81 61.5355 140.814 61.2183 140.819 60.9172C140.856 57.9268 140.957 56.2504 140.957 56.2504C140.957 56.2504 140.955 56.2504 140.95 56.2477C140.635 56.1171 130.369 51.9034 130.377 52.2526C130.554 60.3388 126.94 64.3659 126.94 64.3659Z" fill="#FFB27D"/>
<path d="M131.409 54.1797C132.399 56.016 135.795 59.6061 140.82 60.9174C140.857 57.927 140.957 56.2506 140.957 56.2506C140.957 56.2506 140.956 56.2506 140.951 56.2479C140.666 56.1733 131.114 53.6387 131.409 54.1797Z" fill="#ED975D"/>
<path d="M143.107 55.939C143.107 55.939 131.562 58.6549 129.982 51.4375C128.402 44.2228 125.848 39.7133 133.153 37.6744C140.458 35.6355 142.498 38.0769 143.611 40.3556C144.724 42.637 146.07 55.0489 143.107 55.939Z" fill="#FFB27D"/>
<path d="M130.377 53.404C130.22 53.5053 127.736 54.2676 123.031 44.8967C122.292 43.4255 121.789 40.2406 123.511 37.4288C125.232 34.617 129.888 32.722 135.022 32.1783C139.629 31.6879 142.124 33.4363 143.247 34.9768C145.134 37.5647 146.507 42.3461 143.418 41.4959C142.387 41.2134 139.192 40.6643 137.301 41.216C135.464 41.7544 134.831 44.6675 134.694 45.5897C134.557 46.5118 134.347 47.2767 132.052 46.4532C129.757 45.6296 131.014 49.7047 131.382 50.4856C131.382 50.4856 131.694 52.5618 130.377 53.404Z" fill="#A9453D"/>
<path d="M100.959 233.356H93.968C92.5026 233.356 90.8739 231.887 90.4664 229.201C90.0589 226.514 87.0464 225.048 86.394 222.85C85.7418 220.651 89.0824 217.554 89.0824 217.554L89.641 216.837L90.222 216.088L95.7598 217.391C95.7598 217.391 95.8962 218.711 95.9818 220.39C96.041 221.602 96.0735 223.004 96.0042 224.233C95.8413 227.167 96.8256 230.323 99.4306 230.893C102.037 231.464 100.959 233.356 100.959 233.356Z" fill="#202E51"/>
<path d="M149.628 233.356H131.096C130.919 233.321 130.785 233.284 130.703 233.241C129.466 232.623 129.853 227.887 130.002 226.421C130.03 226.152 130.051 225.992 130.051 225.992C130.051 225.992 136.567 220.781 137.464 224.771C137.492 224.896 137.525 225.016 137.56 225.139C138.691 228.873 143.748 230.571 146.668 231.042C148.9 231.405 149.479 232.706 149.628 233.356Z" fill="#202E51"/>
<path d="M145.893 126.492C145.893 126.492 144.903 138.84 143.74 153.68C142.159 173.842 140.258 198.607 140.07 203.298C139.745 211.445 138.44 224.478 138.44 224.478C138.44 224.478 135.347 227.573 129.155 226.269C129.155 226.269 123.637 207.666 122.061 187.984C122.037 187.661 122.012 187.336 121.988 187.011C120.522 166.974 118.242 124.781 118.242 124.781L145.893 126.492Z" fill="#D6D3D1"/>
<path d="M145.893 126.492C145.893 126.492 144.903 138.84 143.74 153.68L122.061 187.984C122.037 187.661 122.012 187.336 121.988 187.011C120.522 166.974 118.242 124.781 118.242 124.781L145.893 126.492Z" fill="#A8A29E"/>
<path d="M141.373 127.958C141.373 127.958 123.535 172.675 111.806 193.69C100.077 214.702 96.4122 220.568 96.4122 220.568C96.4122 220.568 89.6924 217.879 89.0815 216.048C89.0815 216.048 93.5668 175.479 101.421 165.588C105.86 159.999 111.073 143.23 111.318 137.366C111.562 131.5 112.906 119.893 112.906 119.893L141.373 127.958Z" fill="#D6D3D1"/>
<path d="M100.37 119.834L100.181 122.71C100.181 122.71 100.143 123.886 100.205 124.882C100.311 126.609 100.131 128.779 96.7637 130.439C96.7637 130.439 94.4887 131.356 94.3965 129.586C94.3043 127.814 95.1761 128.203 94.9914 125.709C94.8064 123.217 95.2059 121.138 96.8554 120.344L98.2088 118.782L100.37 119.834Z" fill="#FFB27D"/>
<path d="M98.2944 121.926C100.269 122.561 100.585 122.417 100.585 122.417C100.585 122.417 110.195 104.922 111.168 103.321C112.141 101.719 131.571 83.7021 131.571 83.7021L126.578 65.0803C126.578 65.0803 104.479 93.6993 102.093 97.8037C98.1488 104.592 95.8384 120.351 95.8384 120.351C95.8384 120.351 96.7435 121.428 98.2944 121.926Z" fill="#3730A3"/>
<path d="M149.335 91.0127C149.265 94.8346 149.043 99.1336 148.743 103.499C148.725 103.758 148.707 104.016 148.688 104.277C148.497 106.98 148.289 109.69 148.05 112.334C147.955 113.395 147.853 114.443 147.747 115.471L147.73 115.61C147.722 115.996 147.675 116.415 147.633 116.796C146.658 126.697 145.637 134.52 145.448 134.639C145.221 134.791 144.967 134.866 144.687 134.834C142.091 134.506 134.343 135.095 128 133.717C122.648 132.587 118.04 130.447 113.156 127.561C112.508 127.177 111.03 126.161 111.15 125.405C111.269 124.57 111.487 123.366 111.764 121.852C112.726 116.585 114.387 107.526 114.954 96.9215C115.064 94.9466 115.225 92.9956 115.433 91.0794C115.977 86.0821 116.849 81.3381 118.019 77.1244C120.194 69.2913 124.894 63.2653 128.904 60.9173C129.428 60.6241 130.742 62.4498 133.33 64.1102C135.721 65.6427 137.891 65.1523 140.339 64.9391L142.841 68.2359C145.45 71.2689 148.228 75.3067 148.986 81.0476C149.043 81.4713 149.092 81.9217 149.133 82.3988C149.343 84.7389 149.393 87.6972 149.335 91.0127Z" fill="#4F46E5"/>
<path d="M149.335 91.0129C149.265 94.8348 149.043 99.1337 148.744 103.499C148.725 103.758 148.707 104.016 148.689 104.278C133.856 94.992 131.572 78.004 131.572 78.004C138.869 78.3238 144.665 80.0003 149.133 82.399C149.343 84.739 149.394 87.6974 149.335 91.0129Z" fill="#312E81"/>
<path d="M186.81 98.3234C186.963 96.1246 185.824 95.7595 185.824 95.7595C185.824 95.7595 163.461 91.7057 161.56 91.1087C159.659 90.509 143.403 73.601 143.403 73.601C143.403 73.601 137.172 66.5728 132.07 68.124C127.637 69.4726 125.904 72.932 125.314 76.2262C124.611 80.152 126.42 84.1019 129.82 86.1887C137.452 90.8688 152.73 100.09 156.329 101.146C164.337 103.494 185.854 101.335 185.854 101.335C185.854 101.335 186.69 100.053 186.81 98.3234Z" fill="#4F46E5"/>
<path d="M100.17 123.696C100.17 123.696 100.708 126.212 101.032 127.041C101.355 127.867 100.025 127.398 99.7012 126.284C99.3776 125.17 100.17 123.696 100.17 123.696Z" fill="#FFB27D"/>
<path d="M176.646 441.94L137.911 289.765L140.141 289.198L178.876 441.373L176.646 441.94Z" fill="#2B478B"/>
<path d="M701.766 442.529H0.832609C0.374727 442.529 0 442.156 0 441.698V441.325C0 440.866 0.374727 440.49 0.832609 440.49H701.766C702.225 440.49 702.598 440.866 702.598 441.325V441.698C702.598 442.156 702.225 442.529 701.766 442.529Z" fill="#2E3552"/>
</svg>
