<svg width="27" height="27" viewBox="0 0 27 27" fill="none" xmlns="http://www.w3.org/2000/svg">
<path d="M6.75 7.73778V6.75C6.75 5.35203 7.88328 4.21875 9.28125 4.21875H17.7188C19.1167 4.21875 20.25 5.35203 20.25 6.75V7.73778M6.75 7.73778C7.01391 7.64451 7.2979 7.59375 7.59375 7.59375H19.4062C19.7021 7.59375 19.9861 7.64451 20.25 7.73778M6.75 7.73778C5.76687 8.08527 5.0625 9.02288 5.0625 10.125V11.1128M20.25 7.73778C21.2331 8.08527 21.9375 9.02288 21.9375 10.125V11.1128M21.9375 11.1128C21.6736 11.0195 21.3896 10.9688 21.0938 10.9688H5.90625C5.6104 10.9688 5.32641 11.0195 5.0625 11.1128M21.9375 11.1128C22.9206 11.4603 23.625 12.3979 23.625 13.5V20.25C23.625 21.648 22.4917 22.7812 21.0938 22.7812H5.90625C4.50828 22.7812 3.375 21.648 3.375 20.25V13.5C3.375 12.3979 4.07937 11.4603 5.0625 11.1128" stroke="#242423" stroke-width="1.5" stroke-linecap="round" stroke-linejoin="round"/>
</svg>
