<svg width="24" height="24" viewBox="0 0 24 24" fill="none" xmlns="http://www.w3.org/2000/svg">
<path d="M20.4697 21.5303C20.7626 21.8232 21.2374 21.8232 21.5303 21.5303C21.8232 21.2374 21.8232 20.7626 21.5303 20.4697L20.4697 21.5303ZM10.5 17.25C6.77208 17.25 3.75 14.2279 3.75 10.5H2.25C2.25 15.0563 5.94365 18.75 10.5 18.75V17.25ZM3.75 10.5C3.75 6.77208 6.77208 3.75 10.5 3.75V2.25C5.94365 2.25 2.25 5.94365 2.25 10.5H3.75ZM10.5 3.75C14.2279 3.75 17.25 6.77208 17.25 10.5H18.75C18.75 5.94365 15.0563 2.25 10.5 2.25V3.75ZM21.5303 20.4697L16.3336 15.273L15.273 16.3336L20.4697 21.5303L21.5303 20.4697ZM17.25 10.5C17.25 12.3642 16.4953 14.0506 15.273 15.273L16.3336 16.3336C17.8258 14.8415 18.75 12.778 18.75 10.5H17.25ZM15.273 15.273C14.0506 16.4953 12.3642 17.25 10.5 17.25V18.75C12.778 18.75 14.8415 17.8258 16.3336 16.3336L15.273 15.273Z" fill="#A3A3A3"/>
</svg>
