<svg width="8" height="8" viewBox="0 0 8 8" fill="none" xmlns="http://www.w3.org/2000/svg">
<path d="M6.85355 4.85355C7.04882 4.65829 7.04882 4.34171 6.85355 4.14645C6.65829 3.95118 6.34171 3.95118 6.14645 4.14645L6.85355 4.85355ZM4 7L3.64645 7.35355C3.84171 7.54882 4.15829 7.54882 4.35355 7.35355L4 7ZM1.85355 4.14645C1.65829 3.95118 1.34171 3.95118 1.14645 4.14645C0.951184 4.34171 0.951184 4.65829 1.14645 4.85355L1.85355 4.14645ZM4.5 1C4.5 0.723858 4.27614 0.5 4 0.5C3.72386 0.5 3.5 0.723858 3.5 1L4.5 1ZM6.14645 4.14645L3.64645 6.64645L4.35355 7.35355L6.85355 4.85355L6.14645 4.14645ZM4.35355 6.64645L1.85355 4.14645L1.14645 4.85355L3.64645 7.35355L4.35355 6.64645ZM3.5 1L3.5 7H4.5L4.5 1L3.5 1Z" fill="#6366F1"/>
</svg>
