<svg width="8" height="8" viewBox="0 0 8 8" fill="none" xmlns="http://www.w3.org/2000/svg">
<path d="M1.14645 3.14645C0.951184 3.34171 0.951184 3.65829 1.14645 3.85355C1.34171 4.04882 1.65829 4.04882 1.85355 3.85355L1.14645 3.14645ZM4 1L4.35355 0.646447C4.15829 0.451184 3.84171 0.451184 3.64645 0.646447L4 1ZM6.14645 3.85355C6.34171 4.04882 6.65829 4.04882 6.85355 3.85355C7.04882 3.65829 7.04882 3.34171 6.85355 3.14645L6.14645 3.85355ZM3.5 7C3.5 7.27614 3.72386 7.5 4 7.5C4.27614 7.5 4.5 7.27614 4.5 7H3.5ZM1.85355 3.85355L4.35355 1.35355L3.64645 0.646447L1.14645 3.14645L1.85355 3.85355ZM3.64645 1.35355L6.14645 3.85355L6.85355 3.14645L4.35355 0.646447L3.64645 1.35355ZM4.5 7V1H3.5V7H4.5Z" fill="#A3A3A3"/>
</svg>
