<svg fill="none" class="icon" viewBox="0 0 27 27"><path fill="currentColor" d="M23.53 8.482a.75.75 0 0 0-1.498-.089l1.498.089Zm-1.452 11.917-.75-.044.75.044Zm-17.156 0-.748.044.748-.044Zm.045-12.006a.75.75 0 0 0-1.497.089l1.497-.089Zm6.283 3.513a.75.75 0 0 0 0 1.5v-1.5Zm4.5 1.5a.75.75 0 1 0 0-1.5v1.5ZM3.797 4.97h19.406v-1.5H3.797v1.5Zm19.922.515v1.688h1.5V5.484h-1.5Zm-.516 2.204H3.797v1.5h19.406v-1.5ZM3.281 7.171V5.484h-1.5v1.688h1.5Zm.516.516a.516.516 0 0 1-.516-.516h-1.5c0 1.113.903 2.016 2.016 2.016v-1.5Zm19.922-.516a.516.516 0 0 1-.516.516v1.5a2.016 2.016 0 0 0 2.016-2.016h-1.5Zm-.516-2.203c.285 0 .516.23.516.515h1.5a2.016 2.016 0 0 0-2.016-2.015v1.5Zm-19.406-1.5A2.016 2.016 0 0 0 1.78 5.484h1.5c0-.284.231-.515.516-.515v-1.5Zm18.235 4.924-.703 11.962 1.497.088.704-11.961-1.498-.089ZM19.551 22.03H7.449v1.5h12.102v-1.5ZM5.67 20.355 4.967 8.393l-1.497.089.704 11.96 1.497-.087Zm1.78 1.675a1.781 1.781 0 0 1-1.778-1.676l-1.497.088A3.281 3.281 0 0 0 7.45 23.53v-1.5Zm13.88-1.676a1.781 1.781 0 0 1-1.778 1.676v1.5a3.281 3.281 0 0 0 3.275-3.088l-1.497-.088Zm-10.08-6.949h4.5v-1.5h-4.5v1.5Z"/></svg>