<svg fill="none" class="icon" viewBox="0 0 27 26"><path fill="currentColor" d="M23.53 8.17a.75.75 0 0 0-1.497-.09l1.497.09Zm-1.452 11.473-.749-.046.749.046Zm-17.156 0-.748.046.748-.046ZM4.967 8.08a.75.75 0 1 0-1.497.092l1.497-.092Zm9.283 3.296a.75.75 0 0 0-1.5 0h1.5Zm-.75 7.313-.52.54c.29.28.75.28 1.04 0l-.52-.54Zm-2.855-3.79a.75.75 0 1 0-1.04 1.08l1.04-1.08Zm6.75 1.08a.75.75 0 1 0-1.04-1.08l1.04 1.08ZM3.797 4.813h19.406v-1.5H3.797v1.5Zm19.922.468v1.625h1.5V5.281h-1.5Zm-.516 2.094H3.797v1.5h19.406v-1.5ZM3.281 6.906V5.281h-1.5v1.625h1.5Zm.516.469c-.312 0-.516-.236-.516-.469h-1.5c0 1.114.93 1.969 2.016 1.969v-1.5Zm19.922-.469c0 .233-.204.469-.516.469v1.5c1.086 0 2.016-.855 2.016-1.969h-1.5Zm-.516-2.093c.312 0 .516.236.516.468h1.5c0-1.113-.93-1.968-2.016-1.968v1.5Zm-19.406-1.5c-1.086 0-2.016.855-2.016 1.968h1.5c0-.232.204-.468.516-.468v-1.5Zm18.236 4.766-.704 11.518 1.497.092.704-11.518-1.497-.092ZM19.55 21.187H7.449v1.5h12.102v-1.5Zm-13.88-1.59L4.967 8.08l-1.497.092.704 11.518 1.497-.092Zm1.778 1.59c-.968 0-1.725-.72-1.778-1.59l-1.497.092c.104 1.708 1.563 2.998 3.275 2.998v-1.5Zm13.88-1.59c-.053.87-.81 1.59-1.778 1.59v1.5c1.712 0 3.17-1.29 3.275-2.998l-1.497-.092Zm-8.579-8.222v7.313h1.5v-7.313h-1.5Zm-3.145 4.603 3.375 3.25 1.04-1.08-3.375-3.25-1.04 1.08Zm4.415 3.25 3.375-3.25-1.04-1.08-3.375 3.25 1.04 1.08Z"/></svg>