<svg fill="none" class="icon" viewBox="0 0 27 27"><path fill="currentColor" d="M10.125 10.031a.75.75 0 1 0 0-1.5v1.5Zm6.75-1.5a.75.75 0 0 0 0 1.5v-1.5Zm-6.22 4.439a.75.75 0 1 0-1.06 1.06l1.06-1.06Zm2.845 3.905-.53.53a.75.75 0 0 0 1.06 0l-.53-.53Zm3.905-2.845a.75.75 0 1 0-1.06-1.06l1.06 1.06ZM14.25 2.531a.75.75 0 0 0-1.5 0h1.5Zm6.094 9.281v10.126h1.5V11.813h-1.5ZM18.562 23.72H8.438v1.5h10.126v-1.5ZM6.656 21.937V11.813h-1.5v10.126h1.5Zm1.782-11.906h1.687v-1.5H8.437v1.5Zm8.437 0h1.688v-1.5h-1.688v1.5ZM8.437 23.72a1.781 1.781 0 0 1-1.78-1.782h-1.5a3.281 3.281 0 0 0 3.28 3.282v-1.5Zm11.907-1.782c0 .984-.798 1.782-1.782 1.782v1.5a3.281 3.281 0 0 0 3.282-3.282h-1.5Zm1.5-10.125a3.281 3.281 0 0 0-3.282-3.28v1.5c.984 0 1.782.797 1.782 1.78h1.5Zm-15.188 0c0-.983.798-1.78 1.782-1.78v-1.5a3.281 3.281 0 0 0-3.282 3.28h1.5Zm2.939 2.218 3.375 3.375 1.06-1.06-3.375-3.375-1.06 1.06Zm4.435 3.375 3.375-3.375-1.06-1.06-3.375 3.375 1.06 1.06Zm.22-.53V2.531h-1.5v14.344h1.5Z"/></svg>