<svg fill="none" class="icon" viewBox="0 0 27 26"><path fill="currentColor" d="M4.125 17.875a.75.75 0 0 0-1.5 0h1.5Zm20.25 0a.75.75 0 0 0-1.5 0h1.5Zm-5.292-4.335a.75.75 0 1 0-1.04-1.08l1.04 1.08ZM13.5 17.875l-.52.54c.29.28.75.28 1.04 0l-.52-.54ZM8.958 12.46a.75.75 0 1 0-1.04 1.08l1.04-1.08Zm5.292-9.21a.75.75 0 0 0-1.5 0h1.5ZM21.094 22H5.906v1.5h15.188V22ZM4.125 20.312v-2.437h-1.5v2.438h1.5Zm18.75-2.437v2.438h1.5v-2.438h-1.5ZM5.906 22c-1.01 0-1.781-.782-1.781-1.688h-1.5c0 1.787 1.496 3.188 3.281 3.188V22Zm15.188 1.5c1.785 0 3.281-1.4 3.281-3.188h-1.5c0 .906-.77 1.688-1.781 1.688v1.5Zm-3.052-11.04-5.062 4.875 1.04 1.08 5.063-4.875-1.04-1.08Zm-4.022 4.875L8.958 12.46l-1.04 1.08 5.062 4.875 1.04-1.08ZM12.75 3.25v14.625h1.5V3.25h-1.5Z"/></svg>