<svg fill="none" class="icon" viewBox="0 0 27 27"><path fill="currentColor" d="M8.438 9.188a.75.75 0 0 0 0-1.5v1.5Zm6.75-1.5a.75.75 0 0 0 0 1.5v-1.5Zm-6.22 4.438a.75.75 0 1 0-1.06 1.06l1.06-1.06Zm2.845 3.905-.53.53a.75.75 0 0 0 1.06 0l-.53-.53Zm3.905-2.844a.75.75 0 0 0-1.06-1.061l1.06 1.06Zm-3.155-11.5a.75.75 0 0 0-1.5 0h1.5Zm6 9.376a.75.75 0 0 0 0 1.5v-1.5ZM9.188 21.937a.75.75 0 0 0-1.5 0h1.5Zm8.624-10.968v8.437h1.5V10.97h-1.5Zm-1.78 10.219H7.593v1.5h8.437v-1.5Zm-10.22-1.782V10.97h-1.5v8.437h1.5ZM7.595 9.188h.843v-1.5h-.843v1.5Zm7.593 0h.844v-1.5h-.843v1.5Zm-7.593 12a1.781 1.781 0 0 1-1.782-1.782h-1.5a3.281 3.281 0 0 0 3.282 3.282v-1.5Zm10.218-1.782c0 .984-.797 1.782-1.78 1.782v1.5a3.281 3.281 0 0 0 3.28-3.282h-1.5Zm1.5-8.437a3.281 3.281 0 0 0-3.28-3.281v1.5c.983 0 1.78.797 1.78 1.78h1.5Zm-13.5 0c0-.984.798-1.781 1.782-1.781v-1.5a3.281 3.281 0 0 0-3.282 3.28h1.5Zm2.095 2.218 3.375 3.375 1.06-1.061-3.374-3.375-1.06 1.06Zm4.436 3.375 3.375-3.375-1.06-1.061-3.376 3.375 1.06 1.06Zm.22-.53V1.686h-1.5V16.03h1.5Zm8.624-1.688v8.437h1.5v-8.437h-1.5Zm-1.78 10.219H10.97v1.5h8.437v-1.5Zm-.845-12h.844v-1.5h-.843v1.5ZM9.188 22.78v-.843h-1.5v.843h1.5Zm1.782 1.782a1.781 1.781 0 0 1-1.781-1.782h-1.5a3.281 3.281 0 0 0 3.28 3.282v-1.5Zm10.219-1.782c0 .984-.798 1.782-1.782 1.782v1.5a3.281 3.281 0 0 0 3.282-3.282h-1.5Zm1.5-8.437a3.281 3.281 0 0 0-3.282-3.281v1.5c.984 0 1.782.797 1.782 1.78h1.5Z"/></svg>