<svg fill="none" class="icon" viewBox="0 0 27 26"><path fill="currentColor" d="M10.125 9.688a.75.75 0 0 0 0-1.5v1.5Zm6.75-1.5a.75.75 0 0 0 0 1.5v-1.5Zm-.52-1.96a.75.75 0 1 0 1.04-1.08l-1.04 1.08ZM13.5 2.438l.52-.54a.75.75 0 0 0-1.04 0l.52.54Zm-3.895 2.71a.75.75 0 0 0 1.04 1.08l-1.04-1.08ZM12.75 16.25a.75.75 0 0 0 1.5 0h-1.5Zm7.594-4.875v9.75h1.5v-9.75h-1.5Zm-1.782 11.438H8.438v1.5h10.126v-1.5ZM6.656 21.125v-9.75h-1.5v9.75h1.5ZM8.438 9.687h1.687v-1.5H8.437v1.5Zm8.437 0h1.688v-1.5h-1.688v1.5ZM8.437 22.813c-1.01 0-1.78-.782-1.78-1.688h-1.5c0 1.787 1.495 3.188 3.28 3.188v-1.5Zm11.907-1.688c0 .906-.77 1.688-1.782 1.688v1.5c1.786 0 3.282-1.401 3.282-3.188h-1.5Zm1.5-9.75c0-1.787-1.496-3.188-3.282-3.188v1.5c1.011 0 1.782.782 1.782 1.688h1.5Zm-15.188 0c0-.906.77-1.688 1.782-1.688v-1.5c-1.786 0-3.282 1.401-3.282 3.188h1.5Zm10.74-6.228-3.376-3.25-1.04 1.08 3.375 3.25 1.04-1.08Zm-4.416-3.25-3.375 3.25 1.04 1.08 3.375-3.25-1.04-1.08Zm-.23.54V16.25h1.5V2.437h-1.5Z"/></svg>