<svg fill="none" class="icon" viewBox="0 0 27 27"><path fill="currentColor" d="M5.063 11.813v-.75a.75.75 0 0 0-.75.75h.75Zm15.187 0H21a.75.75 0 0 0-.75-.75v.75Zm0 5.062v.75a.75.75 0 0 0 .75-.75h-.75Zm-15.188 0h-.75c0 .414.336.75.75.75v-.75Zm18.563-5.813a.75.75 0 0 0 0 1.5v-1.5Zm0 5.063a.75.75 0 0 0 0 1.5v-1.5ZM5.062 12.562H20.25v-1.5H5.062v1.5Zm14.438-.75v5.063H21v-5.063h-1.5Zm.75 4.313H5.062v1.5H20.25v-1.5Zm-14.438.75v-5.063h-1.5v5.063h1.5ZM4.22 9.187h16.875v-1.5H4.219v1.5Zm18.656 1.782v6.75h1.5v-6.75h-1.5ZM21.094 19.5H4.219V21h16.875v-1.5ZM2.437 17.719v-6.75h-1.5v6.75h1.5ZM4.22 19.5a1.781 1.781 0 0 1-1.782-1.781h-1.5A3.281 3.281 0 0 0 4.22 21v-1.5Zm18.656-1.781c0 .983-.797 1.781-1.781 1.781V21a3.281 3.281 0 0 0 3.281-3.281h-1.5Zm-1.781-8.532c.983 0 1.781.798 1.781 1.782h1.5a3.281 3.281 0 0 0-3.281-3.281v1.5ZM4.22 7.687A3.281 3.281 0 0 0 .937 10.97h1.5c0-.984.798-1.781 1.782-1.781v-1.5Zm19.406 4.875h.422v-1.5h-.422v1.5Zm.938.516v2.531h1.5v-2.53h-1.5Zm-.516 3.047h-.422v1.5h.422v-1.5Zm.515-.516c0 .285-.23.516-.515.516v1.5a2.016 2.016 0 0 0 2.015-2.016h-1.5Zm-.515-3.046c.285 0 .515.23.515.515h1.5a2.016 2.016 0 0 0-2.015-2.015v1.5Z"/></svg>