<svg fill="none" class="icon" viewBox="0 0 27 27"><path fill="currentColor" fill-rule="evenodd" d="M6.818 1A3.82 3.82 0 0 0 3 4.823V22.03a3.82 3.82 0 0 0 3.818 3.823h10.023c3.954 0 7.159-3.21 7.159-7.169a7.17 7.17 0 0 0-4.858-6.79 7.143 7.143 0 0 0 1.04-3.724c0-3.96-3.205-7.169-7.16-7.169H6.819Zm6.205 10.514a3.343 3.343 0 0 0 3.34-3.345 3.343 3.343 0 0 0-3.34-3.346H6.818v6.691h6.205Zm-6.205 3.824v6.69h10.023a3.343 3.343 0 0 0 3.34-3.345 3.343 3.343 0 0 0-3.34-3.345H6.818Z" clip-rule="evenodd"/></svg>