<svg fill="none" class="icon" viewBox="0 0 27 27"><path stroke="currentColor" stroke-linecap="round" stroke-linejoin="round" d="M7.594 3.375v2.531m11.812-2.531v2.531M3.375 21.094V8.437a2.531 2.531 0 0 1 2.531-2.53h15.188a2.531 2.531 0 0 1 2.531 2.53v12.657m-20.25 0a2.531 2.531 0 0 0 2.531 2.531h15.188a2.531 2.531 0 0 0 2.531-2.531m-20.25 0v-8.438a2.531 2.531 0 0 1 2.531-2.531h15.188a2.531 2.531 0 0 1 2.531 2.531v8.438M13.5 14.344h.008v.008H13.5v-.008Zm0 2.531h.008v.008H13.5v-.008Zm0 2.531h.008v.009H13.5v-.009Zm-2.531-2.531h.008v.008h-.008v-.008Zm0 2.531h.008v.009h-.008v-.009Zm-2.531-2.531h.008v.008h-.008v-.008Zm0 2.531h.008v.009h-.008v-.009Zm7.593-5.062h.009v.008h-.009v-.008Zm0 2.531h.009v.008h-.009v-.008Zm0 2.531h.009v.009h-.009v-.009Zm2.532-5.062h.008v.008h-.009v-.008Zm0 2.531h.008v.008h-.009v-.008Z"/></svg>