<svg fill="none" class="icon" viewBox="0 0 27 26"><path stroke="currentColor" stroke-linecap="round" stroke-linejoin="round" d="M7.68 6.69c-.406.626-1.086 1.038-1.846 1.142-.427.059-.852.122-1.276.19a2.387 2.387 0 0 0-2.027 2.35V19.5c0 1.346 1.134 2.438 2.531 2.438h16.875c1.398 0 2.532-1.092 2.532-2.438v-9.128c0-1.156-.843-2.16-2.027-2.35a55.839 55.839 0 0 0-1.276-.19c-.76-.104-1.44-.516-1.846-1.143l-.924-1.425a2.483 2.483 0 0 0-1.954-1.126 56.978 56.978 0 0 0-5.884 0 2.483 2.483 0 0 0-1.954 1.126L7.68 6.689Z"/><path stroke="currentColor" stroke-linecap="round" stroke-linejoin="round" d="M18.563 13.813c0 2.692-2.267 4.874-5.063 4.874s-5.063-2.182-5.063-4.875c0-2.692 2.267-4.874 5.063-4.874s5.063 2.182 5.063 4.874Zm2.531-2.438h.008v.008h-.008v-.008Z"/></svg>