<svg fill="none" class="icon" viewBox="0 0 27 27"><path fill="currentColor" d="m6.75 7.738.25.707-.25-.707Zm15.188 3.375-.25.707.25-.707Zm-16.875 0 .25.707-.25-.707Zm.843.606h15.188v-1.5H5.906v1.5ZM22.875 13.5v6.75h1.5V13.5h-1.5Zm-1.781 8.531H5.906v1.5h15.188v-1.5ZM4.125 20.25V13.5h-1.5v6.75h1.5Zm1.781 1.781a1.781 1.781 0 0 1-1.781-1.781h-1.5a3.281 3.281 0 0 0 3.281 3.281v-1.5Zm16.969-1.781a1.78 1.78 0 0 1-1.781 1.781v1.5a3.281 3.281 0 0 0 3.281-3.281h-1.5ZM7.594 8.344h11.812v-1.5H7.594v1.5ZM9.28 4.969h8.438v-1.5H9.28v1.5Zm8.438 0c.983 0 1.781.797 1.781 1.781H21a3.281 3.281 0 0 0-3.281-3.281v1.5Zm-8.438-1.5A3.281 3.281 0 0 0 6 6.75h1.5a1.78 1.78 0 0 1 1.781-1.781v-1.5ZM6 6.75v.988h1.5V6.75H6Zm1.594.094c-.382 0-.75.065-1.094.187L7 8.445c.185-.065.384-.101.594-.101v-1.5ZM6.5 7.03a3.282 3.282 0 0 0-2.188 3.094h1.5c0-.774.495-1.435 1.188-1.68L6.5 7.03Zm13-.281v.988H21V6.75h-1.5Zm-.094 1.594c.21 0 .41.036.594.1l.5-1.413a3.277 3.277 0 0 0-1.094-.187v1.5Zm.594.1a1.782 1.782 0 0 1 1.188 1.681h1.5c0-1.43-.915-2.644-2.188-3.094L20 8.445Zm1.188 1.681v.988h1.5v-.988h-1.5Zm-.094 1.594c.21 0 .409.036.594.1l.5-1.413a3.276 3.276 0 0 0-1.094-.187v1.5Zm.594.1a1.782 1.782 0 0 1 1.187 1.681h1.5c0-1.43-.914-2.644-2.188-3.094l-.5 1.414ZM4.313 10.126v.988h1.5v-.988h-1.5Zm1.593.094c-.382 0-.75.065-1.093.187l.5 1.414c.184-.065.384-.101.593-.101v-1.5Zm-1.093.187A3.282 3.282 0 0 0 2.625 13.5h1.5c0-.774.495-1.435 1.187-1.68l-.5-1.414Z"/></svg>