<svg fill="none" class="icon" viewBox="0 0 27 26"><path stroke="currentColor" stroke-linecap="round" stroke-linejoin="round" d="M3.375 14.219c0-.673.567-1.219 1.266-1.219h2.53c.7 0 1.266.546 1.266 1.219v7.312c0 .673-.566 1.219-1.265 1.219H4.64c-.7 0-1.266-.546-1.266-1.219V14.22Zm7.594-4.875c0-.673.566-1.219 1.265-1.219h2.532c.699 0 1.265.546 1.265 1.219V21.53c0 .673-.566 1.219-1.265 1.219h-2.532c-.699 0-1.265-.546-1.265-1.219V9.344Zm7.594-4.875c0-.673.566-1.219 1.265-1.219h2.531c.7 0 1.266.546 1.266 1.219V21.53c0 .673-.567 1.219-1.266 1.219h-2.53c-.7 0-1.267-.546-1.267-1.219V4.47Z"/></svg>