<svg fill="none" class="icon" viewBox="0 0 27 26"><path fill="currentColor" d="M14.25 6.5a.75.75 0 0 0-1.5 0h1.5ZM13.5 13h-.75c0 .414.336.75.75.75V13Zm5.063.75a.75.75 0 0 0 0-1.5v1.5Zm4.312-.75c0 4.944-4.17 9-9.375 9v1.5c5.98 0 10.875-4.675 10.875-10.5h-1.5ZM13.5 22c-5.205 0-9.375-4.056-9.375-9h-1.5c0 5.825 4.896 10.5 10.875 10.5V22Zm-9.375-9c0-4.944 4.17-9 9.375-9V2.5C7.52 2.5 2.625 7.175 2.625 13h1.5ZM13.5 4c5.205 0 9.375 4.056 9.375 9h1.5c0-5.825-4.896-10.5-10.875-10.5V4Zm-.75 2.5V13h1.5V6.5h-1.5Zm5.813 5.75H13.5v1.5h5.063v-1.5Z"/></svg>