<svg fill="none" class="icon" viewBox="0 0 27 26"><path fill="currentColor" d="m21.748 13.264-.705-.257a.75.75 0 0 0 .447.96l.258-.703ZM17.52 9.095l-.723.2a.75.75 0 0 0 .947.516l-.224-.716ZM6.008 11.62l.227.715a.75.75 0 0 0 .51-.859l-.737.144Zm6.742 6.256a.75.75 0 0 0 1.5 0h-1.5Zm.75-7.313.52-.54a.75.75 0 0 0-1.04 0l.52.54Zm2.855 3.79a.75.75 0 1 0 1.04-1.08l-1.04 1.08Zm-6.75-1.08a.75.75 0 1 0 1.04 1.08l-1.04-1.08Zm-2.011 7.103c-2.409 0-4.313-1.873-4.313-4.125h-1.5c0 3.133 2.63 5.625 5.813 5.625v-1.5Zm12.656 0H7.594v1.5H20.25v-1.5Zm3.469-3.313c0 1.803-1.526 3.313-3.469 3.313v1.5c2.717 0 4.969-2.128 4.969-4.813h-1.5Zm-2.229-3.094c1.319.482 2.229 1.698 2.229 3.095h1.5c0-2.075-1.35-3.822-3.213-4.504l-.516 1.409Zm-.302-1.78c0 .287-.051.563-.145.819l1.41.513c.152-.417.235-.866.235-1.332h-1.5Zm-2.625-2.5c1.476 0 2.625 1.145 2.625 2.5h1.5c0-2.236-1.874-4-4.125-4v1.5Zm-.819.123a2.74 2.74 0 0 1 .819-.123v-1.5c-.44 0-.866.067-1.266.191l.447 1.432Zm-5.931-4.186c2.406 0 4.405 1.573 4.984 3.67l1.446-.4c-.764-2.763-3.367-4.77-6.43-4.77v1.5Zm-5.157 4.938c0-2.701 2.282-4.938 5.157-4.938v-1.5c-3.65 0-6.657 2.856-6.657 6.438h1.5Zm.088.912a4.763 4.763 0 0 1-.088-.912h-1.5c0 .409.04.81.116 1.2l1.472-.288ZM3.281 16.25c0-1.807 1.222-3.367 2.954-3.916l-.454-1.43c-2.306.732-4 2.835-4 5.346h1.5Zm10.969 1.625v-7.313h-1.5v7.313h1.5Zm3.145-4.603-3.375-3.25-1.04 1.08 3.375 3.25 1.04-1.08Zm-4.415-3.25-3.375 3.25 1.04 1.08 3.375-3.25-1.04-1.08Z"/></svg>