<svg fill="none" class="icon" viewBox="0 0 27 27"><path fill="currentColor" d="m21.748 13.774-.708-.248a.75.75 0 0 0 .442.949l.266-.701ZM17.52 9.445l-.724.193a.75.75 0 0 0 .956.52l-.232-.713Zm-11.512 2.62.235.713a.75.75 0 0 0 .502-.85l-.737.138Zm8.242-1.096a.75.75 0 1 0-1.5 0h1.5Zm-.75 7.594-.53.53a.75.75 0 0 0 1.06 0l-.53-.53Zm-2.845-3.906a.75.75 0 1 0-1.06 1.06l1.06-1.06Zm6.75 1.06a.75.75 0 1 0-1.06-1.06l1.06 1.06Zm-9.811 5.47a4.313 4.313 0 0 1-4.313-4.312h-1.5a5.812 5.812 0 0 0 5.813 5.813v-1.5Zm12.656 0H7.594v1.5H20.25v-1.5Zm3.469-3.468a3.469 3.469 0 0 1-3.469 3.468v1.5a4.969 4.969 0 0 0 4.969-4.968h-1.5Zm-2.237-3.244a3.47 3.47 0 0 1 2.237 3.244h1.5a4.97 4.97 0 0 0-3.204-4.646l-.533 1.402Zm-.294-1.819c0 .306-.052.598-.148.87l1.416.496a4.12 4.12 0 0 0 .232-1.366h-1.5Zm-2.625-2.625a2.625 2.625 0 0 1 2.625 2.625h1.5a4.125 4.125 0 0 0-4.125-4.125v1.5Zm-.811.128c.254-.083.526-.128.81-.128v-1.5c-.443 0-.871.07-1.273.2l.463 1.428Zm-5.94-4.347a5.159 5.159 0 0 1 4.984 3.826l1.45-.386a6.659 6.659 0 0 0-6.433-4.94v1.5ZM6.657 10.97a5.156 5.156 0 0 1 5.157-5.156v-1.5a6.656 6.656 0 0 0-6.657 6.656h1.5Zm.09.958a5.19 5.19 0 0 1-.09-.958h-1.5c0 .421.04.834.115 1.235l1.474-.277ZM3.28 16.875c0-1.909 1.24-3.53 2.962-4.097l-.47-1.425a5.815 5.815 0 0 0-3.992 5.522h1.5Zm9.469-5.906v7.594h1.5v-7.594h-1.5Zm-3.155 4.749 3.375 3.375 1.06-1.06-3.375-3.376-1.06 1.06Zm4.435 3.375 3.375-3.375-1.06-1.06-3.375 3.374 1.06 1.06Z"/></svg>