<svg fill="none" class="icon" viewBox="0 0 27 26"><path fill="currentColor" d="M19.927 6.772a.75.75 0 0 0-1.041 1.08l1.04-1.08ZM25.313 13l.52.54a.75.75 0 0 0 0-1.08l-.52.54Zm-6.427 5.147a.75.75 0 0 0 1.04 1.08l-1.04-1.08Zm-11.812 1.08a.75.75 0 1 0 1.04-1.08l-1.04 1.08ZM1.688 13l-.52-.54a.75.75 0 0 0 0 1.08l.52-.54Zm6.426-5.147a.75.75 0 1 0-1.04-1.08l1.04 1.08Zm8.639-3.586a.75.75 0 0 0-1.443-.409l1.443.409Zm-6.506 17.466a.75.75 0 0 0 1.443.409l-1.443-.409Zm8.639-13.88 5.906 5.687 1.04-1.08-5.905-5.688-1.041 1.08Zm5.906 4.607-5.906 5.687 1.04 1.08 5.907-5.687-1.04-1.08ZM8.114 18.147 2.208 12.46l-1.04 1.08 5.906 5.688 1.04-1.08ZM2.208 13.54l5.906-5.687-1.04-1.08-5.907 5.687 1.04 1.08ZM15.31 3.858l-5.063 17.875 1.443.409 5.063-17.875-1.443-.409Z"/></svg>