<svg fill="none" class="icon" viewBox="0 0 26 26"><path stroke="currentColor" stroke-linecap="round" stroke-linejoin="round" d="M10.392 4.268a1.219 1.219 0 0 1 1.202-1.018h2.81c.596 0 1.105.43 1.203 1.018l.23 1.388c.068.405.34.743.699.942.08.044.16.09.238.138.352.212.78.278 1.165.134l1.319-.494a1.219 1.219 0 0 1 1.483.532l1.405 2.434a1.218 1.218 0 0 1-.281 1.55l-1.088.896c-.317.26-.474.663-.466 1.074a7.05 7.05 0 0 1 0 .276c-.008.41.149.813.466 1.074l1.088.896c.46.378.579 1.034.28 1.55l-1.404 2.434a1.22 1.22 0 0 1-1.483.532l-1.319-.494c-.385-.144-.813-.078-1.165.134a7.404 7.404 0 0 1-.238.138c-.36.2-.63.537-.698.942l-.231 1.388a1.219 1.219 0 0 1-1.203 1.018h-2.81c-.595 0-1.104-.43-1.202-1.018l-.231-1.388c-.068-.405-.339-.743-.698-.942-.08-.044-.16-.09-.238-.138-.352-.212-.78-.278-1.166-.134l-1.318.494a1.219 1.219 0 0 1-1.483-.532l-1.405-2.434a1.219 1.219 0 0 1 .28-1.55l1.089-.896c.317-.26.474-.663.466-1.074a7.464 7.464 0 0 1 0-.276c.008-.41-.15-.813-.466-1.074l-1.088-.896a1.219 1.219 0 0 1-.281-1.55l1.405-2.434a1.22 1.22 0 0 1 1.483-.532l1.318.494c.385.144.814.078 1.166-.134.078-.048.158-.094.238-.138.36-.2.63-.537.698-.942l.231-1.388Z"/><path stroke="currentColor" stroke-linecap="round" stroke-linejoin="round" d="M16.25 13a3.25 3.25 0 1 1-6.501 0 3.25 3.25 0 0 1 6.5 0Z"/></svg>