<svg fill="none" class="icon" viewBox="0 0 26 26"><path fill="currentColor" d="M6.125 4.188a.75.75 0 0 0 0-1.5v1.5ZM20 22.235a.75.75 0 0 0-1.5 0H20Zm-1.969 1.576H4.22v1.5h13.81v-1.5ZM3.75 23.345V4.656h-1.5v18.688h1.5Zm.469-19.157h1.906v-1.5H4.219v1.5Zm0 19.625a.469.469 0 0 1-.469-.468h-1.5c0 1.087.881 1.968 1.969 1.968v-1.5Zm13.812 1.5A1.969 1.969 0 0 0 20 23.345h-1.5c0 .259-.21.468-.469.468v1.5ZM3.75 4.657c0-.259.21-.468.469-.468v-1.5A1.969 1.969 0 0 0 2.25 4.655h1.5ZM20 23.344v-1.108h-1.5v1.108H20Z"/><path fill="currentColor" d="M21.625 14a.75.75 0 0 0 1.5 0h-1.5ZM10.187.25a.75.75 0 0 0 0 1.5V.25Zm10.97 21.125H7.343v1.5h13.812v-1.5Zm-14.282-.469V2.22h-1.5v18.687h1.5ZM7.344 1.75h5.281V.25H7.344v1.5Zm14.281 9v10.156h1.5V10.75h-1.5Zm-9-9a9 9 0 0 1 9 9h1.5c0-5.799-4.701-10.5-10.5-10.5v1.5ZM7.344 21.375a.469.469 0 0 1-.469-.469h-1.5c0 1.088.881 1.969 1.969 1.969v-1.5Zm13.812 1.5a1.969 1.969 0 0 0 1.969-1.969h-1.5c0 .26-.21.469-.469.469v1.5ZM6.875 2.219c0-.26.21-.469.469-.469V.25a1.969 1.969 0 0 0-1.969 1.969h1.5ZM23.125 14v-2.844h-1.5V14h1.5Zm-4.406-7.25h-1.625v1.5h1.625v-1.5Zm-2.094-.469V4.656h-1.5v1.625h1.5ZM12.219.25h-2.031v1.5h2.03V.25Zm4.406 4.406A4.406 4.406 0 0 0 12.219.25v1.5a2.906 2.906 0 0 1 2.906 2.906h1.5Zm6.5 6.5a4.406 4.406 0 0 0-4.406-4.406v1.5a2.906 2.906 0 0 1 2.906 2.906h1.5ZM17.094 6.75a.469.469 0 0 1-.469-.469h-1.5c0 1.088.881 1.969 1.969 1.969v-1.5Z"/></svg>