<svg fill="none" class="icon" viewBox="0 0 26 27"><path fill="currentColor" d="M20.375 16.031a.75.75 0 1 0 1.5 0h-1.5ZM8.937 1.781a.75.75 0 0 0 0 1.5v-1.5Zm4.813 10.875a.75.75 0 0 0-1.5 0h1.5Zm-1.5 6.75a.75.75 0 1 0 1.5 0h-1.5Zm4-2.625a.75.75 0 1 0 0-1.5v1.5Zm-6.5-1.5a.75.75 0 0 0 0 1.5v-1.5Zm10.156 8.438H6.094v1.5h13.812v-1.5Zm-14.281-.516V3.797h-1.5v19.406h1.5Zm.469-19.922h5.281v-1.5H6.094v1.5Zm14.281 9.375v10.547h1.5V12.656h-1.5Zm-9-9.375c4.944 0 9 4.17 9 9.375h1.5c0-5.979-4.675-10.875-10.5-10.875v1.5ZM6.094 23.72c-.233 0-.469-.204-.469-.516h-1.5c0 1.086.855 2.016 1.969 2.016v-1.5Zm13.812 1.5c1.114 0 1.969-.93 1.969-2.016h-1.5c0 .312-.236.516-.469.516v1.5ZM5.625 3.797c0-.312.236-.516.469-.516v-1.5c-1.114 0-1.969.93-1.969 2.016h1.5Zm16.25 12.234v-2.953h-1.5v2.953h1.5Zm-4.406-7.5h-1.625v1.5h1.625v-1.5Zm-2.094-.515V6.328h-1.5v1.688h1.5ZM10.969 1.78H8.938v1.5h2.03v-1.5Zm4.406 4.547c0-2.484-1.946-4.547-4.406-4.547v1.5c1.578 0 2.906 1.337 2.906 3.047h1.5Zm6.5 6.75c0-2.484-1.946-4.547-4.406-4.547v1.5c1.578 0 2.906 1.337 2.906 3.047h1.5ZM15.844 8.53c-.233 0-.469-.204-.469-.515h-1.5c0 1.086.855 2.015 1.969 2.015v-1.5Zm-3.594 4.125v6.75h1.5v-6.75h-1.5Zm4 2.625h-6.5v1.5h6.5v-1.5Z"/></svg>