<svg fill="none" class="icon" viewBox="0 0 26 26"><path fill="currentColor" d="M6.563 13a.063.063 0 0 1-.063.063v1.5c.863 0 1.563-.7 1.563-1.563h-1.5Zm-.063.063A.063.063 0 0 1 6.437 13h-1.5c0 .863.7 1.563 1.563 1.563v-1.5ZM6.437 13c0-.034.028-.063.063-.063v-1.5c-.863 0-1.563.7-1.563 1.563h1.5Zm.063-.063c.035 0 .063.029.063.063h1.5c0-.863-.7-1.563-1.563-1.563v1.5Zm6.563.063a.063.063 0 0 1-.063.063v1.5c.863 0 1.563-.7 1.563-1.563h-1.5Zm-.063.063a.063.063 0 0 1-.063-.063h-1.5c0 .863.7 1.563 1.563 1.563v-1.5ZM12.937 13c0-.034.029-.063.063-.063v-1.5c-.863 0-1.563.7-1.563 1.563h1.5Zm.063-.063c.034 0 .063.029.063.063h1.5c0-.863-.7-1.563-1.563-1.563v1.5Zm6.563.063a.063.063 0 0 1-.063.063v1.5c.863 0 1.563-.7 1.563-1.563h-1.5Zm-.063.063a.063.063 0 0 1-.063-.063h-1.5c0 .863.7 1.563 1.563 1.563v-1.5ZM19.437 13c0-.034.028-.063.063-.063v-1.5c-.863 0-1.563.7-1.563 1.563h1.5Zm.063-.063c.035 0 .063.029.063.063h1.5c0-.863-.7-1.563-1.563-1.563v1.5Z"/></svg>