<svg fill="none" class="icon" viewBox="0 0 26 27"><path fill="currentColor" d="M13 6.844c-.008 0-.02-.002-.034-.018a.108.108 0 0 1-.028-.076h-1.5c0 .853.673 1.594 1.562 1.594v-1.5Zm-.063-.094c0-.035.014-.06.029-.076.014-.016.026-.018.034-.018v-1.5c-.89 0-1.563.74-1.563 1.594h1.5ZM13 6.656c.008 0 .02.002.034.018a.108.108 0 0 1 .028.076h1.5c0-.853-.673-1.594-1.562-1.594v1.5Zm.063.094c0 .035-.014.06-.029.076-.014.016-.026.018-.034.018v1.5c.89 0 1.563-.74 1.563-1.594h-1.5ZM13 13.594c-.008 0-.02-.002-.034-.018a.108.108 0 0 1-.028-.076h-1.5c0 .853.673 1.594 1.562 1.594v-1.5Zm-.063-.094c0-.035.014-.06.029-.076.014-.016.026-.018.034-.018v-1.5c-.89 0-1.563.74-1.563 1.594h1.5Zm.063-.094c.008 0 .02.002.034.018a.108.108 0 0 1 .028.076h1.5c0-.853-.673-1.594-1.562-1.594v1.5Zm.063.094c0 .035-.014.06-.029.076-.014.016-.026.018-.034.018v1.5c.89 0 1.563-.74 1.563-1.594h-1.5ZM13 20.344c-.008 0-.02-.002-.034-.018a.108.108 0 0 1-.028-.076h-1.5c0 .853.673 1.594 1.562 1.594v-1.5Zm-.063-.094c0-.035.014-.06.029-.076.014-.016.026-.018.034-.018v-1.5c-.89 0-1.563.74-1.563 1.594h1.5Zm.063-.094c.008 0 .02.002.034.018a.108.108 0 0 1 .028.076h1.5c0-.853-.673-1.594-1.562-1.594v1.5Zm.063.094c0 .035-.014.06-.029.076-.014.016-.026.018-.034.018v1.5c.89 0 1.563-.74 1.563-1.594h-1.5Z"/></svg>