<svg fill="none" class="icon" viewBox="0 0 26 27"><path fill="currentColor" d="m2.922 18.141-.656-.364.656.364Zm20.157 0 .655-.364-.655.364Zm-12.19-14.34.655.364-.655-.364Zm4.222 0 .656-.365-.656.365Zm-1.36 6.324a.75.75 0 0 0-1.5 0h1.5Zm-1.5 4.219a.75.75 0 0 0 1.5 0h-1.5Zm.75 3.375v-.75a.75.75 0 0 0-.75.75H13Zm.007 0h.75a.75.75 0 0 0-.75-.75v.75Zm0 .008v.75a.75.75 0 0 0 .75-.75h-.75Zm-.008 0h-.75c0 .415.336.75.75.75v-.75Zm-10.734.05c-1.192 2.145.272 4.91 2.767 4.91v-1.5c-1.257 0-2.139-1.452-1.456-2.681l-1.311-.729Zm20.157.729c.683 1.23-.199 2.682-1.456 2.682v1.5c2.496 0 3.96-2.765 2.767-4.91l-1.311.728ZM11.544 4.165a1.644 1.644 0 0 1 2.912 0l1.311-.729a3.143 3.143 0 0 0-5.534 0l1.311.729Zm.706 5.96v4.219h1.5v-4.219h-1.5ZM13 18.47h.008v-1.5H13v1.5Zm-.742-.75v.008h1.5v-.008h-1.5Zm.75-.742H13v1.5h.008v-1.5Zm.742.75v-.008h-1.5v.008h1.5Zm-10.173.779 7.967-14.341-1.31-.729-7.968 14.341 1.311.729ZM14.456 4.165l7.967 14.34 1.311-.728-7.967-14.34-1.311.728Zm6.511 17.023H5.033v1.5h15.934v-1.5Z"/></svg>