<svg fill="none" class="icon" viewBox="0 0 27 26"><path stroke="currentColor" stroke-linecap="round" stroke-linejoin="round" d="M11.813 6.5H22.78m-10.968 0c0 .897-.756 1.625-1.688 1.625-.932 0-1.688-.728-1.688-1.625m3.376 0c0-.897-.756-1.625-1.688-1.625-.932 0-1.688.728-1.688 1.625m-4.218 0h4.218m3.376 13H22.78m-10.968 0c0 .898-.756 1.625-1.688 1.625-.932 0-1.688-.727-1.688-1.625m3.376 0c0-.898-.756-1.625-1.688-1.625-.932 0-1.688.727-1.688 1.625m-4.218 0h4.218M18.563 13h4.218m-4.218 0c0 .898-.756 1.625-1.688 1.625-.932 0-1.688-.727-1.688-1.625m3.376 0c0-.898-.756-1.625-1.688-1.625-.932 0-1.688.727-1.688 1.625M4.22 13h10.968"/></svg>