<svg fill="none" class="icon" viewBox="0 0 26 25"><path fill="currentColor" d="M10.674 19.879c0-.594.245-1.163.68-1.582A2.376 2.376 0 0 1 13 17.642l-.057-5.172H9.93s-1.907-.168-2.839-.83c-1.11-.79-1.765-1.62-1.765-2.948V7.359a2.374 2.374 0 0 1-1.644-.655A2.193 2.193 0 0 1 3 5.122c0-.593.245-1.162.682-1.582a2.374 2.374 0 0 1 1.644-.655c.618 0 1.21.235 1.646.655.436.42.68.989.68 1.582 0 .593-.244 1.162-.68 1.582a2.375 2.375 0 0 1-1.646.655v1.333c0 1.328.654 2.158 1.765 2.948.932.662 2.84.83 2.84.83h6.139s2.003-.126 2.957-.83c1.064-.785 1.646-1.609 1.646-2.897V7.359a2.375 2.375 0 0 1-1.646-.655 2.195 2.195 0 0 1-.68-1.582c0-.593.244-1.162.68-1.581a2.374 2.374 0 0 1 1.646-.656 2.37 2.37 0 0 1 1.644.656c.437.419.682.988.682 1.581a2.19 2.19 0 0 1-.682 1.582 2.374 2.374 0 0 1-1.644.655v1.384c0 1.288-.582 2.112-1.646 2.897-.954.704-2.957.83-2.957.83h-3.128L13 17.642c.617 0 1.209.235 1.645.655.436.42.681.988.681 1.582 0 .593-.245 1.162-.68 1.581a2.375 2.375 0 0 1-1.646.655 2.375 2.375 0 0 1-1.645-.655 2.194 2.194 0 0 1-.681-1.581Z"/><path stroke="currentColor" stroke-linecap="round" stroke-linejoin="round" d="m11.355 18.297.017.016m-.017-.016c-.436.42-.681.988-.681 1.582 0 .593.245 1.162.68 1.581.437.42 1.03.655 1.646.655.617 0 1.209-.235 1.645-.655.436-.42.681-.988.681-1.581 0-.594-.245-1.163-.68-1.582m-3.291 0A2.376 2.376 0 0 1 13 17.642m1.645.655-.015.015m.015-.015A2.375 2.375 0 0 0 13 17.642m0 0-.057-5.172m7.73-5.111a2.375 2.375 0 0 1-1.645-.655 2.195 2.195 0 0 1-.68-1.582c0-.593.244-1.162.68-1.581a2.374 2.374 0 0 1 1.646-.656 2.37 2.37 0 0 1 1.644.656c.437.419.682.988.682 1.581a2.19 2.19 0 0 1-.682 1.582 2.374 2.374 0 0 1-1.644.655Zm0 0v1.384c0 1.288-.58 2.112-1.645 2.897-.954.704-2.957.83-2.957.83h-3.128M5.326 7.359a2.374 2.374 0 0 1-1.644-.655A2.193 2.193 0 0 1 3 5.122c0-.593.245-1.162.682-1.582a2.374 2.374 0 0 1 1.644-.655c.618 0 1.21.235 1.646.655.436.42.68.989.68 1.582 0 .593-.244 1.162-.68 1.582a2.375 2.375 0 0 1-1.646.655Zm0 0v1.333c0 1.328.654 2.158 1.765 2.948.932.662 2.84.83 2.84.83h3.012"/></svg>