<svg fill="none" class="icon" viewBox="0 0 26 26"><path stroke="currentColor" stroke-linecap="round" stroke-linejoin="round" d="m11.355 19.029.017.017m-.017-.017a2.326 2.326 0 1 0 3.29 0m-3.29 0A2.328 2.328 0 0 1 13 18.347m1.645.681-.015.016m.015-.015A2.327 2.327 0 0 0 13 18.347m0 0-.057-5.378m7.73-5.316a2.327 2.327 0 1 1 0-4.653 2.327 2.327 0 0 1 0 4.653Zm0 0v1.44c0 1.34-.58 2.196-1.645 3.012-.954.733-2.957.864-2.957.864h-3.128M5.326 7.653a2.326 2.326 0 1 1 0-4.653 2.326 2.326 0 0 1 0 4.653Zm0 0v1.386c0 1.382.654 2.245 1.765 3.066.932.69 2.84.864 2.84.864h3.012"/></svg>