<svg fill="none" class="icon" viewBox="0 0 26 27"><path fill="currentColor" d="M10.563 23.625h-.75a.75.75 0 0 0 1.095.666l-.345-.666ZM4.242 4.137l.13.739-.13-.739Zm9.847 17.656.346.666-.346-.666Zm2.061-7.347.54.52-.54-.52Zm5.885-6.11-.54-.521.54.52Zm-.28-4.199-.13.739.13-.739Zm.13-.738A51.205 51.205 0 0 0 13 2.625v1.5c2.94 0 5.823.257 8.627.751l.26-1.477ZM23.5 6.545V5.371H22v1.174h1.5Zm-6.808 8.421 5.884-6.11-1.08-1.041-5.885 6.11 1.08 1.041Zm-.505 4.563v-3.293h-1.5v3.293h1.5Zm-5.279 4.762 3.528-1.832-.691-1.331-3.528 1.831.691 1.332Zm-1.095-8.055v7.389h1.5v-7.389h-1.5Zm-6.39-7.38 5.885 6.11 1.08-1.04-5.884-6.111-1.08 1.04ZM2.5 5.37v1.174H4V5.371H2.5ZM13 2.625c-3.028 0-5.997.265-8.887.774l.26 1.477A49.705 49.705 0 0 1 13 4.125v-1.5ZM4 5.371c0-.274.183-.461.373-.495l-.26-1.477C3.15 3.569 2.5 4.429 2.5 5.37H4Zm.504 2.444A1.832 1.832 0 0 1 4 6.545H2.5c0 .862.33 1.693.924 2.31l1.08-1.04Zm6.809 8.421c0-.861-.33-1.693-.924-2.31l-1.08 1.04c.32.332.504.789.504 1.27h1.5Zm3.374 3.293c0 .69-.375 1.304-.942 1.599l.69 1.331c1.084-.563 1.752-1.702 1.752-2.93h-1.5Zm.924-5.603a3.331 3.331 0 0 0-.924 2.31h1.5c0-.481.185-.938.505-1.27l-1.08-1.04ZM22 6.546c0 .48-.184.937-.504 1.269l1.08 1.04a3.331 3.331 0 0 0 .924-2.31H22Zm-.373-1.67c.19.034.373.221.373.495h1.5c0-.943-.65-1.803-1.613-1.972l-.26 1.477Z"/></svg>