<svg fill="none" class="icon" viewBox="0 0 26 27"><path stroke="currentColor" stroke-linecap="round" stroke-linejoin="round" d="M13 23.625c4.542 0 8.358-3.225 9.442-7.59M13 23.625c-4.542 0-8.359-3.225-9.442-7.59M13 23.625c2.692 0 4.875-4.533 4.875-10.125S15.692 3.375 13 3.375m0 20.25c-2.692 0-4.875-4.533-4.875-10.125S10.308 3.375 13 3.375m0 0c3.646 0 6.824 2.078 8.497 5.155M13 3.375c-3.646 0-6.824 2.078-8.497 5.155m16.994 0c-2.279 2.045-5.249 3.283-8.497 3.283S6.782 10.575 4.503 8.53m16.994 0a10.383 10.383 0 0 1 1.253 4.97c0 .875-.107 1.725-.308 2.535m0 0A18.853 18.853 0 0 1 13 18.562c-3.425 0-6.644-.917-9.442-2.527m0 0A10.52 10.52 0 0 1 3.25 13.5c0-1.806.455-3.502 1.253-4.97"/></svg>