<svg fill="none" class="icon" viewBox="0 0 27 27"><path fill="currentColor" d="M24.531 11.297h-.906v-.047H13.5v4.5h6.358A6.747 6.747 0 0 1 6.75 13.5a6.75 6.75 0 0 1 6.75-6.75c1.72 0 3.286.65 4.478 1.71l3.182-3.183A11.198 11.198 0 0 0 13.5 2.25C7.287 2.25 2.25 7.287 2.25 13.5S7.287 24.75 13.5 24.75s11.25-5.037 11.25-11.25c0-.754-.078-1.49-.219-2.203Z"/><path fill="currentColor" d="m3.547 8.264 3.696 2.71A6.747 6.747 0 0 1 13.5 6.75c1.72 0 3.286.65 4.478 1.71l3.182-3.183A11.198 11.198 0 0 0 13.5 2.25c-4.321 0-8.069 2.44-9.953 6.014ZM13.5 24.75c2.906 0 5.546-1.112 7.543-2.92l-3.482-2.947A6.7 6.7 0 0 1 13.5 20.25a6.747 6.747 0 0 1-6.347-4.47l-3.668 2.827C5.347 22.25 9.128 24.75 13.5 24.75Z"/><path fill="currentColor" d="m24.531 11.297-.009-.047H13.5v4.5h6.358a6.773 6.773 0 0 1-2.299 3.134h.002l3.482 2.945c-.247.224 3.707-2.704 3.707-8.329 0-.754-.078-1.49-.219-2.203Z"/></svg>