<svg fill="none" class="icon" viewBox="0 0 27 27"><path stroke="currentColor" stroke-linecap="round" d="M11.153 8.058c.325.489.52.845.792 1.362.05.095-.167.285-.145.39m5.852 6.004c.81.294 1.127.372 1.938.663m-11.21 2.94c.967-.846 1.414-1.514 2.23-2.489.122-.145.244-.292.319-.451m7.471-3c0 2.313-1.97 4.19-4.4 4.19-2.43 0-4.4-1.877-4.4-4.19 0-2.315 1.97-4.191 4.4-4.191 2.43 0 4.4 1.876 4.4 4.19Zm-5.5-7.858c0 1.447-1.231 2.62-2.75 2.62S7.4 7.065 7.4 5.618C7.4 4.173 8.631 3 10.15 3s2.75 1.173 2.75 2.619ZM25 17.143c0 1.446-1.231 2.619-2.75 2.619s-2.75-1.173-2.75-2.62c0-1.446 1.231-2.618 2.75-2.618S25 15.696 25 17.143ZM9.6 21.857C9.6 23.593 8.123 25 6.3 25 4.477 25 3 23.593 3 21.857c0-1.736 1.477-3.143 3.3-3.143 1.823 0 3.3 1.407 3.3 3.143Z"/></svg>