<svg fill="none" class="icon" viewBox="0 0 27 27"><path fill="currentColor" d="M23.64 23.513c.1 0 .182.037.248.112a.318.318 0 0 1 .112.248.332.332 0 0 1-.112.261.337.337 0 0 1-.248.1h-4.657a.485.485 0 0 1-.285-.088c-.075-.066-.112-.16-.112-.285 0-.091.033-.178.1-.26l2.868-3.167c.455-.497.795-.952 1.018-1.366.232-.422.348-.799.348-1.13 0-.546-.166-.985-.497-1.316-.331-.331-.778-.497-1.341-.497-.257 0-.513.054-.77.161a2.55 2.55 0 0 0-.67.423c-.19.174-.34.372-.447.596a.473.473 0 0 1-.162.174.306.306 0 0 1-.174.05.412.412 0 0 1-.26-.088.306.306 0 0 1-.112-.236c0-.058.012-.116.037-.173.033-.058.079-.125.137-.2a2.6 2.6 0 0 1 .62-.707 3.27 3.27 0 0 1 .882-.51c.331-.132.654-.198.969-.198.53 0 .985.104 1.365.31.39.2.688.485.895.857.215.365.322.8.322 1.304 0 .43-.136.903-.41 1.416-.264.505-.662 1.051-1.191 1.639l-2.422 2.72-.124-.15h4.073ZM4.76 3c.19 0 .357.074.5.222a.713.713 0 0 1 .238.542v15.718a.798.798 0 0 1-.262.542.673.673 0 0 1-.499.222.727.727 0 0 1-.547-.222.804.804 0 0 1-.19-.542V3.764a.75.75 0 0 1 .214-.542A.727.727 0 0 1 4.761 3Zm11.15 0c.222 0 .396.074.523.222a.751.751 0 0 1 .214.542v15.718a.846.846 0 0 1-.238.542.653.653 0 0 1-.523.222.7.7 0 0 1-.523-.222.751.751 0 0 1-.213-.542V3.764c0-.214.07-.394.213-.542A.778.778 0 0 1 15.91 3ZM4.642 10.711h11.292l-.024 1.43H4.547l.095-1.43Z"/></svg>