<svg fill="none" class="icon" viewBox="0 0 27 27"><path fill="currentColor" d="M23.635 26a.33.33 0 0 1-.262-.12.417.417 0 0 1-.102-.28v-8.02l.125.133-1.516 1.185a.29.29 0 0 1-.193.08c-.092 0-.175-.044-.251-.133a.47.47 0 0 1-.103-.293c0-.142.061-.253.183-.333l1.903-1.48a.326.326 0 0 1 .273-.066.291.291 0 0 1 .228.134c.053.07.08.16.08.266V25.6c0 .107-.034.2-.103.28a.33.33 0 0 1-.262.12ZM4.882 2a.78.78 0 0 1 .58.257.827.827 0 0 1 .275.629v18.228a.926.926 0 0 1-.303.629.78.78 0 0 1-.58.257.843.843 0 0 1-.633-.257.933.933 0 0 1-.221-.629V2.886c0-.248.083-.457.248-.629A.843.843 0 0 1 4.882 2Zm12.93 0c.257 0 .46.086.607.257a.87.87 0 0 1 .248.629v18.228a.982.982 0 0 1-.276.629c-.147.171-.35.257-.606.257a.81.81 0 0 1-.607-.257.871.871 0 0 1-.248-.629V2.886a.87.87 0 0 1 .248-.629.903.903 0 0 1 .634-.257ZM4.744 10.943H17.84l-.028 1.657H4.634l.11-1.657Z"/></svg>