<svg fill="none" class="icon" viewBox="0 0 27 27"><path fill="currentColor" d="M4.772 3a.68.68 0 0 1 .506.225c.161.15.241.333.241.55V19.72a.81.81 0 0 1-.265.55.683.683 0 0 1-.506.225.737.737 0 0 1-.555-.225.815.815 0 0 1-.193-.55V3.775c0-.217.072-.4.217-.55A.737.737 0 0 1 4.772 3Zm11.31 0c.226 0 .403.075.531.225a.76.76 0 0 1 .217.55V19.72a.858.858 0 0 1-.24.55.662.662 0 0 1-.531.225.71.71 0 0 1-.531-.225.762.762 0 0 1-.217-.55V3.775c0-.217.072-.4.217-.55A.79.79 0 0 1 16.083 3Zm-11.43 7.823h11.455l-.024 1.45H4.555l.096-1.45Zm14.561 12.232c.042 0 .084.008.126.025.05.017.11.054.176.113.177.185.387.328.63.428.244.093.521.139.832.139a2.28 2.28 0 0 0 1.12-.277 2.12 2.12 0 0 0 .82-.768c.201-.337.302-.719.302-1.147 0-.487-.11-.878-.328-1.171a1.868 1.868 0 0 0-.818-.668 2.38 2.38 0 0 0-1.008-.227c-.093 0-.185.009-.277.025a2.04 2.04 0 0 0-.24.038.873.873 0 0 1-.176.025c-.11 0-.193-.033-.252-.1a.438.438 0 0 1-.088-.277c0-.06.012-.11.038-.152a1.18 1.18 0 0 1 .1-.163l2.558-2.784.15.201h-3.816a.386.386 0 0 1-.265-.1.386.386 0 0 1-.1-.265c0-.101.033-.185.1-.252a.386.386 0 0 1 .265-.1h4.233c.142 0 .243.045.302.138a.437.437 0 0 1 .088.252c0 .05-.012.1-.038.15a1.12 1.12 0 0 1-.1.14l-2.558 2.783-.277-.163c.025-.026.11-.05.252-.076.151-.034.269-.05.353-.05.462 0 .894.109 1.297.327.412.218.744.533.995.945.26.403.391.903.391 1.499 0 .588-.139 1.104-.416 1.55-.277.436-.65.776-1.12 1.02a3.358 3.358 0 0 1-1.563.365 3.07 3.07 0 0 1-1.02-.176 2.473 2.473 0 0 1-.882-.53.503.503 0 0 1-.126-.15.335.335 0 0 1-.038-.152c0-.1.034-.193.101-.277a.346.346 0 0 1 .277-.138Z"/></svg>