<svg fill="none" class="icon" viewBox="0 0 27 26"><path fill="currentColor" d="M2.011 12.46a.75.75 0 0 0 1.04 1.08l-1.04-1.08ZM12.605 3.3l.52.54-.52-.54Zm1.79 0 .52-.54-.52.54Zm9.553 10.24a.75.75 0 1 0 1.041-1.08l-1.04 1.08ZM5.813 10.563a.75.75 0 1 0-1.5 0h1.5Zm16.875 0a.75.75 0 1 0-1.5 0h1.5ZM10.97 22.75v.75a.75.75 0 0 0 .75-.75h-.75Zm5.062 0h-.75c0 .414.336.75.75.75v-.75ZM9.281 22a.75.75 0 1 0 0 1.5V22Zm9.281 1.5a.75.75 0 0 0 0-1.5v1.5Zm-15.51-9.96 10.073-9.7-1.04-1.08-10.074 9.7 1.04 1.08Zm10.823-9.7 10.073 9.7 1.041-1.08-10.074-9.7-1.04 1.08Zm-.75 0a.55.55 0 0 1 .75 0l1.04-1.08a2.05 2.05 0 0 0-2.83 0l1.04 1.08Zm-8.813 6.723V21.53h1.5V10.563h-1.5ZM22.688 21.53V10.563h-1.5V21.53h1.5ZM6.329 23.5h4.64V22h-4.64v1.5Zm9.703 0h4.64V22h-4.64v1.5Zm-4.312-.75v-5.282h-1.5v5.281h1.5Zm.515-5.75h2.532v-1.5h-2.532V17Zm3.047.468v5.281h1.5V17.47h-1.5ZM14.766 17c.311 0 .515.236.515.469h1.5c0-1.114-.93-1.969-2.015-1.969V17Zm6.421 4.531c0 .233-.203.47-.515.47v1.5c1.086 0 2.015-.856 2.015-1.97h-1.5ZM11.72 17.47c0-.233.204-.469.515-.469v-1.5c-1.086 0-2.015.855-2.015 1.969h1.5Zm-7.407 4.06c0 1.114.929 1.97 2.015 1.97V22c-.312 0-.516-.237-.516-.47h-1.5Zm4.968 1.97h9.281V22h-9.28v1.5Z"/></svg>