<svg fill="none" class="icon" viewBox="0 0 27 27"><path stroke="currentColor" stroke-linecap="round" stroke-linejoin="round" d="m8.86 16.031 1.365 2.186a2.531 2.531 0 0 0 2.147 1.19h2.256c.873 0 1.684-.45 2.147-1.19l1.366-2.186M2.71 10.125h5.216c.846 0 1.636.423 2.106 1.127l.184.277a2.531 2.531 0 0 0 2.106 1.127h2.354c.846 0 1.636-.423 2.106-1.127l.184-.277a2.531 2.531 0 0 1 2.106-1.127h5.216m-21.578 0c-.118.296-.18.613-.18.936V13.5a2.531 2.531 0 0 0 2.531 2.531h16.875A2.531 2.531 0 0 0 24.47 13.5v-2.439c0-.323-.062-.64-.18-.936m-21.578 0a2.53 2.53 0 0 1 .43-.711l3.695-4.311a2.531 2.531 0 0 1 1.922-.884h9.484c.739 0 1.441.323 1.922.884l3.695 4.311c.183.213.328.454.43.711M5.062 22.781h16.875a2.531 2.531 0 0 0 2.532-2.531v-2.953c0-.7-.567-1.266-1.266-1.266H3.797c-.7 0-1.266.567-1.266 1.266v2.953a2.531 2.531 0 0 0 2.531 2.531Z"/></svg>