<svg fill="none" class="icon" viewBox="0 0 27 27"><path fill="currentColor" d="M13.5 9.281v-.75a.75.75 0 0 0-.75.75h.75Zm.008 0h.75a.75.75 0 0 0-.75-.75v.75Zm0 .009v.75a.75.75 0 0 0 .75-.75h-.75Zm-.008 0h-.75c0 .414.336.75.75.75v-.75Zm-1.18 2.695a.75.75 0 0 0 .672 1.342l-.671-1.342Zm.383.648.335.67-.335-.67Zm1.196.96.727.181-.727-.182Zm-.798 3.19-.727-.182.727.182Zm1.196.96.335.67-.335-.67Zm.382.647a.75.75 0 0 0-.67-1.342l.67 1.342Zm8.196-4.89a9.375 9.375 0 0 1-9.375 9.375v1.5c6.006 0 10.875-4.869 10.875-10.875h-1.5ZM13.5 22.875A9.375 9.375 0 0 1 4.125 13.5h-1.5c0 6.006 4.869 10.875 10.875 10.875v-1.5ZM4.125 13.5A9.375 9.375 0 0 1 13.5 4.125v-1.5C7.494 2.625 2.625 7.494 2.625 13.5h1.5ZM13.5 4.125a9.375 9.375 0 0 1 9.375 9.375h1.5c0-6.006-4.869-10.875-10.875-10.875v1.5Zm0 5.906h.008v-1.5H13.5v1.5Zm-.742-.75v.009h1.5v-.01h-1.5Zm.75-.741H13.5v1.5h.008v-1.5Zm.742.75v-.01h-1.5v.009h1.5Zm-1.258 4.037.046-.023-.67-1.342-.047.023.67 1.342Zm.18.083-.798 3.19 1.455.365.797-3.19-1.455-.365Zm1.46 5.003.047-.023-.67-1.342-.047.023.67 1.342ZM12.375 16.6c-.33 1.32 1.04 2.42 2.258 1.812l-.67-1.342a.09.09 0 0 1-.052.012.1.1 0 0 1-.049-.022.1.1 0 0 1-.032-.043.085.085 0 0 1 0-.053l-1.455-.364Zm.664-3.297a.09.09 0 0 1 .052-.012.1.1 0 0 1 .049.023.1.1 0 0 1 .032.042.085.085 0 0 1 0 .053l1.455.364c.33-1.32-1.04-2.42-2.258-1.812l.67 1.342Z"/></svg>