<svg fill="none" class="icon" viewBox="0 0 27 27"><path fill="currentColor" d="M15.25 8a.75.75 0 1 0-1.5 0h1.5Zm2.68 14.747a.75.75 0 1 0 .14-1.494l-.14 1.494Zm-6.541-1.489a.75.75 0 1 0 .222 1.484l-.222-1.484ZM14.5 13.5h-.75.75Zm0 0h-.75.75Zm-.75 0V19h1.5v-5.5h-1.5Zm.034 5.724c.406 1.295.891 2.185 1.63 2.744.736.557 1.609.695 2.517.779l.138-1.494c-.892-.083-1.38-.201-1.75-.48-.365-.278-.73-.805-1.103-1.997l-1.432.448ZM13.75 8v5.5h1.5V8h-1.5Zm.016 10.846c-.215 1.024-.456 1.518-.75 1.807-.284.28-.725.47-1.627.605l.222 1.484c.99-.148 1.825-.399 2.457-1.02.623-.61.937-1.475 1.166-2.568l-1.468-.308ZM15.25 13.5h-1.5 1.5Zm-.725-10.478a1 1 0 1 0 0-2v2Zm-.025-2a1 1 0 1 0 0 2v-2Zm.025 0H14.5v2h.025v-2Z"/><path fill="currentColor" d="M15.25 8a.75.75 0 1 0-1.5 0h1.5Zm2.68 14.747a.75.75 0 1 0 .14-1.494l-.14 1.494Zm-6.541-1.489a.75.75 0 1 0 .222 1.484l-.222-1.484ZM14.5 13.5h-.75.75Zm0 0h-.75.75Zm-.75 0V19h1.5v-5.5h-1.5Zm.034 5.724c.406 1.295.891 2.185 1.63 2.744.736.557 1.609.695 2.517.779l.138-1.494c-.892-.083-1.38-.201-1.75-.48-.365-.278-.73-.805-1.103-1.997l-1.432.448ZM13.75 8v5.5h1.5V8h-1.5Zm.016 10.846c-.215 1.024-.456 1.518-.75 1.807-.284.28-.725.47-1.627.605l.222 1.484c.99-.148 1.825-.399 2.457-1.02.623-.61.937-1.475 1.166-2.568l-1.468-.308ZM15.25 13.5h-1.5 1.5Zm-.725-10.478a1 1 0 1 0 0-2v2Zm-.025-2a1 1 0 1 0 0 2v-2Zm.025 0H14.5v2h.025v-2Z"/></svg>