<svg fill="none" class="icon" viewBox="0 0 27 27"><path fill="currentColor" d="M9.281 6.844a.75.75 0 0 0 0 1.5v-1.5Zm13.5 1.5a.75.75 0 1 0 0-1.5v1.5Zm-13.5 4.406a.75.75 0 0 0 0 1.5v-1.5Zm13.5 1.5a.75.75 0 1 0 0-1.5v1.5Zm-13.5 4.406a.75.75 0 0 0 0 1.5v-1.5Zm13.5 1.5a.75.75 0 1 0 0-1.5v1.5ZM4.22 7.594v-.75a.75.75 0 0 0-.75.75h.75Zm.008 0h.75a.75.75 0 0 0-.75-.75v.75Zm0 .008v.75a.75.75 0 0 0 .75-.75h-.75Zm-.008 0h-.75c0 .414.336.75.75.75v-.75Zm0 5.898v-.75a.75.75 0 0 0-.75.75h.75Zm.008 0h.75a.75.75 0 0 0-.75-.75v.75Zm0 .008v.75a.75.75 0 0 0 .75-.75h-.75Zm-.008 0h-.75c0 .415.336.75.75.75v-.75Zm0 5.898v-.75a.75.75 0 0 0-.75.75h.75Zm.008 0h.75a.75.75 0 0 0-.75-.75v.75Zm0 .009v.75a.75.75 0 0 0 .75-.75h-.75Zm-.008 0h-.75c0 .414.336.75.75.75v-.75ZM9.28 8.344h13.5v-1.5H9.28v1.5Zm0 5.906h13.5v-1.5H9.28v1.5Zm0 5.906h13.5v-1.5H9.28v1.5ZM4.22 8.344h.008v-1.5H4.22v1.5Zm-.742-.75v.008h1.5v-.008h-1.5Zm.75-.742H4.22v1.5h.008v-1.5Zm.742.75v-.008h-1.5v.008h1.5Zm-1.08-.008c0-.181.147-.328.328-.328v1.5c.647 0 1.172-.525 1.172-1.172h-1.5Zm.328-.328c.181 0 .328.147.328.328h-1.5c0 .647.525 1.172 1.172 1.172v-1.5Zm.328.328a.328.328 0 0 1-.328.328v-1.5c-.647 0-1.172.525-1.172 1.172h1.5Zm-.328.328a.328.328 0 0 1-.328-.328h1.5c0-.647-.525-1.172-1.172-1.172v1.5Zm0 6.328h.008v-1.5H4.22v1.5Zm-.742-.75v.008h1.5V13.5h-1.5Zm.75-.742H4.22v1.5h.008v-1.5Zm.742.75V13.5h-1.5v.008h1.5ZM3.89 13.5c0-.181.147-.328.328-.328v1.5c.647 0 1.172-.525 1.172-1.172h-1.5Zm.328-.328c.181 0 .328.147.328.328h-1.5c0 .647.525 1.172 1.172 1.172v-1.5Zm.328.328a.328.328 0 0 1-.328.328v-1.5c-.647 0-1.172.525-1.172 1.172h1.5Zm-.328.328a.328.328 0 0 1-.328-.328h1.5c0-.647-.525-1.172-1.172-1.172v1.5Zm0 6.328h.008v-1.5H4.22v1.5Zm-.742-.75v.009h1.5v-.009h-1.5Zm.75-.741H4.22v1.5h.008v-1.5Zm.742.75v-.009h-1.5v.009h1.5Zm-1.078-.009c0-.181.147-.328.328-.328v1.5c.647 0 1.172-.524 1.172-1.172h-1.5Zm.328-.328c.181 0 .328.147.328.328h-1.5c0 .648.525 1.172 1.172 1.172v-1.5Zm.328.328a.328.328 0 0 1-.328.328v-1.5c-.647 0-1.172.525-1.172 1.172h1.5Zm-.328.328a.328.328 0 0 1-.328-.328h1.5c0-.647-.525-1.172-1.172-1.172v1.5Z"/></svg>