<svg fill="none" class="icon" viewBox="0 0 27 27"><path fill="currentColor" d="M23.095 24.155a.75.75 0 1 0 1.06-1.06l-1.06 1.06ZM11.813 19.5a7.687 7.687 0 0 1-7.688-7.688h-1.5A9.188 9.188 0 0 0 11.813 21v-1.5Zm-7.688-7.688a7.687 7.687 0 0 1 7.688-7.687v-1.5a9.187 9.187 0 0 0-9.188 9.188h1.5Zm7.688-7.687a7.687 7.687 0 0 1 7.687 7.688H21a9.188 9.188 0 0 0-9.188-9.188v1.5Zm12.342 18.97-5.846-5.847-1.06 1.061 5.846 5.846 1.06-1.06ZM19.5 11.813a7.66 7.66 0 0 1-2.252 5.435l1.061 1.061A9.16 9.16 0 0 0 21 11.812h-1.5Zm-2.252 5.435a7.661 7.661 0 0 1-5.436 2.252V21a9.16 9.16 0 0 0 6.497-2.691l-1.06-1.06Z"/></svg>