<svg fill="none" class="icon" viewBox="0 0 26 27"><path fill="currentColor" d="M5.685 15.281a.75.75 0 1 0 .005 1.5l-.005-1.5Zm10.317 1.469a.75.75 0 0 0-.004-1.5l.004 1.5ZM5.688 17.813a.75.75 0 0 0 0 1.5v-1.5Zm3.25 1.5a.75.75 0 0 0 0-1.5v1.5ZM5.688 8.75a.75.75 0 0 0 0 1.5v-1.5Zm6.5 1.5a.75.75 0 0 0 0-1.5v1.5ZM4.875 5.812h16.25v-1.5H4.875v1.5Zm17.938 1.782v11.812h1.5V7.594h-1.5Zm-1.688 13.593H4.875v1.5h16.25v-1.5Zm-17.938-1.78V7.593h-1.5v11.812h1.5Zm1.688 1.78c-.906 0-1.688-.77-1.688-1.78h-1.5c0 1.785 1.401 3.28 3.188 3.28v-1.5Zm17.938-1.78c0 1.01-.782 1.78-1.688 1.78v1.5c1.787 0 3.188-1.495 3.188-3.28h-1.5ZM21.125 5.811c.906 0 1.688.771 1.688 1.782h1.5c0-1.785-1.401-3.282-3.188-3.282v1.5Zm-16.25-1.5c-1.787 0-3.188 1.497-3.188 3.282h1.5c0-1.01.782-1.782 1.688-1.782v-1.5Zm.815 12.47 10.312-.032-.004-1.5-10.313.031.005 1.5Zm-.003 2.53h3.25v-1.5h-3.25v1.5Zm0-9.062h6.5v-1.5h-6.5v1.5Z"/></svg>