<svg fill="none" class="icon" viewBox="0 0 27 27"><path stroke="currentColor" stroke-linecap="round" stroke-linejoin="round" d="M12.916 3.936a.633.633 0 0 1 1.168 0l2.392 5.75a.63.63 0 0 0 .534.388l6.208.498a.633.633 0 0 1 .361 1.111l-4.73 4.052a.633.633 0 0 0-.204.628l1.445 6.058a.633.633 0 0 1-.945.686l-5.315-3.246a.633.633 0 0 0-.66 0l-5.315 3.246a.633.633 0 0 1-.945-.686l1.445-6.058a.633.633 0 0 0-.204-.628l-4.73-4.052a.633.633 0 0 1 .361-1.111l6.208-.498a.633.633 0 0 0 .534-.387l2.392-5.75Z"/></svg>