<svg fill="none" class="icon" viewBox="0 0 27 26"><path fill="currentColor" d="M17.332 9.78a.75.75 0 1 0-1.498-.06l1.498.06Zm-1.888 9.69a.75.75 0 1 0 1.499.06l-1.499-.06Zm-5.387.06a.75.75 0 1 0 1.499-.06l-1.499.06Zm1.11-9.81a.75.75 0 0 0-1.5.06l1.5-.06ZM21.63 6.273l.108-.742-.108.742Zm1.027.92a.75.75 0 0 0 .247-1.48l-.247 1.48ZM20.43 21.311l-.748-.06.748.06ZM4.095 5.712a.75.75 0 1 0 .247 1.48l-.247-1.48Zm2.475 15.6-.747.06.747-.06Zm8.798-18.846.023-.75-.023.75Zm-3.736 0 .023.75-.023-.75Zm6.087 3.378-.056.748.056-.748Zm-8.438 0 .056.748-.056-.748Zm6.553 3.876-.39 9.75 1.499.06.39-9.75-1.5-.06Zm-4.278 9.75-.39-9.75-1.498.06.39 9.75 1.498-.06Zm6.35 3.343H9.094v1.5h8.812v-1.5Zm3.617-15.798c.38.056.758.115 1.135.177l.247-1.48a56.57 56.57 0 0 0-1.166-.181l-.216 1.484Zm-.64-.802-1.2 15.04 1.494.119 1.202-15.04-1.495-.119Zm-16.54.98c.376-.063.754-.122 1.134-.178L5.26 5.531c-.39.057-.778.117-1.166.182l.247 1.48Zm2.975 14.06L6.117 6.212l-1.496.12 1.202 15.039 1.495-.12Zm1.776 1.56c-.955 0-1.708-.704-1.776-1.56l-1.495.119c.134 1.683 1.581 2.94 3.271 2.94v-1.5Zm8.812 1.5c1.69 0 3.137-1.258 3.271-2.941l-1.495-.12c-.068.857-.82 1.56-1.776 1.56v1.5ZM13.5 3.188c.617 0 1.232.009 1.845.028l.046-1.5a62.515 62.515 0 0 0-1.891-.028v1.5Zm-1.845.028a59.928 59.928 0 0 1 1.845-.029v-1.5c-.633 0-1.263.01-1.891.03l.046 1.499Zm-.046-1.5C9.883 1.77 8.53 3.164 8.53 4.852h1.5c0-.866.697-1.607 1.624-1.635l-.046-1.5Zm3.736 1.5c.927.028 1.624.769 1.624 1.635h1.5c0-1.688-1.352-3.081-3.078-3.134l-.046 1.499ZM16.97 4.85v.993h1.5V4.85h-1.5ZM13.5 6.438a56.2 56.2 0 0 1 4.163.154l.111-1.496a57.593 57.593 0 0 0-4.274-.159v1.5Zm4.163.154c1.3.097 2.588.238 3.86.423l.216-1.484a56.863 56.863 0 0 0-3.965-.435l-.11 1.496Zm-9.132-1.74v.992h1.5V4.85h-1.5ZM5.477 7.014a55.374 55.374 0 0 1 3.86-.423l-.111-1.496a56.87 56.87 0 0 0-3.965.435l.216 1.484Zm3.86-.423a56.097 56.097 0 0 1 4.163-.154v-1.5c-1.438 0-2.864.053-4.274.158l.11 1.496Z"/></svg>