<svg fill="none" class="icon" viewBox="0 0 27 26"><path fill="currentColor" d="M6.656 7a.75.75 0 1 0-1.5 0h1.5Zm15.188 0a.75.75 0 0 0-1.5 0h1.5Zm-5.49-.772a.75.75 0 0 0 1.041-1.08l-1.04 1.08ZM13.5 2.438l.52-.54a.75.75 0 0 0-1.04 0l.52.54Zm-3.895 2.71a.75.75 0 0 0 1.04 1.08l-1.04-1.08ZM12.75 16.25a.75.75 0 0 0 1.5 0h-1.5Zm-2.625 3a.75.75 0 1 0 0 1.5v-1.5Zm6.75 1.5a.75.75 0 0 0 0-1.5v1.5Zm3.469-9.375v9.75h1.5v-9.75h-1.5Zm-1.781 11.438H8.438v1.5h10.125v-1.5ZM6.656 21.125v-9.75h-1.5v9.75h1.5Zm1.782 1.688c-1.011 0-1.782-.782-1.782-1.688h-1.5c0 1.787 1.496 3.188 3.282 3.188v-1.5Zm11.906-1.688c0 .906-.77 1.688-1.781 1.688v1.5c1.785 0 3.28-1.401 3.28-3.188h-1.5Zm1.5-9.75V7h-1.5v4.376h1.5Zm-15.188 0a73977.272 73977.272 0 0 0 0-3.88V7h-1.5v.494a38724.958 38724.958 0 0 0 0 3.881h1.5Zm10.74-6.228-3.376-3.25-1.04 1.08 3.375 3.25 1.04-1.08Zm-4.416-3.25-3.375 3.25 1.04 1.08 3.375-3.25-1.04-1.08Zm-.23.54V16.25h1.5V2.437h-1.5ZM10.125 20.75h6.75v-1.5h-6.75v1.5Z"/></svg>