<svg fill="none" class="icon" viewBox="0 0 27 27"><path stroke="currentColor" stroke-linecap="round" stroke-linejoin="round" d="M16.875 21.518a10.55 10.55 0 0 0 2.953.42c1.664 0 3.237-.386 4.637-1.072a4.64 4.64 0 0 0-8.474-2.804m.884 3.456v-.002a7.14 7.14 0 0 0-.885-3.454m.885 3.456-.001.12a13.857 13.857 0 0 1-7.17 1.987 13.86 13.86 0 0 1-7.172-1.986v-.123a7.172 7.172 0 0 1 13.458-3.454M13.5 7.172a3.797 3.797 0 1 1-7.594 0 3.797 3.797 0 0 1 7.594 0Zm9.281 2.531a2.953 2.953 0 1 1-5.906 0 2.953 2.953 0 0 1 5.906 0Z"/></svg>