<svg fill="none" class="icon" viewBox="0 0 27 27"><path fill="currentColor" d="M8.793 16.387a.75.75 0 1 0 1.06 1.06l-1.06-1.06Zm8.353 1.06a.75.75 0 1 0 1.06-1.06l-1.06 1.06Zm-11.933-4.64a.75.75 0 0 0 1.061 1.061l-1.06-1.06Zm15.513 1.061a.75.75 0 0 0 1.06-1.06l-1.06 1.06ZM1.634 9.228a.75.75 0 0 0 1.06 1.06l-1.06-1.06Zm22.671 1.06a.75.75 0 0 0 1.061-1.06l-1.06 1.06Zm-10.208 10.21.53.53a.75.75 0 0 0 0-1.061l-.53.53Zm-.597.596-.53.53a.75.75 0 0 0 1.06 0l-.53-.53Zm-.597-.597-.53-.53a.75.75 0 0 0 0 1.06l.53-.53Zm-3.05-3.05a5.156 5.156 0 0 1 7.293 0l1.06-1.06a6.656 6.656 0 0 0-9.413 0l1.06 1.06Zm-3.579-3.579c3.99-3.99 10.46-3.99 14.452 0l1.06-1.06C17.21 8.23 9.79 8.23 5.213 12.807l1.061 1.06Zm-3.58-3.58c5.968-5.967 15.644-5.967 21.611 0l1.061-1.06c-6.553-6.554-17.179-6.554-23.732 0l1.06 1.06Zm10.872 9.679-.597.597 1.061 1.06.597-.596-1.06-1.061Zm-.132 1.06a.094.094 0 0 1 .132 0l1.06-1.06a1.594 1.594 0 0 0-2.253 0l1.06 1.06Zm.596-.463-.596-.597-1.061 1.06.597.597 1.06-1.06Z"/></svg>