<svg fill="none" class="icon" viewBox="0 0 27 27"><path fill="currentColor" d="M12.096 19.111 9.6 21.608V2.843a.843.843 0 1 0-1.686 0v18.765L5.418 19.11a.843.843 0 0 0-1.192 1.192l3.935 3.935a.843.843 0 0 0 1.192 0l3.935-3.935a.843.843 0 0 0-1.192-1.192Zm10.153-9.803h-2.53l3.26-6.06A.843.843 0 0 0 22.25 2h-3.935a.843.843 0 0 0 0 1.686h2.53l-3.261 6.06a.842.842 0 0 0 .73 1.248h3.936a.843.843 0 1 0 0-1.686Zm-1.967 6.182a2.81 2.81 0 0 0-2.811 2.81v5.341a.843.843 0 1 0 1.686 0v-2.248h2.249v2.248a.843.843 0 1 0 1.686 0v-5.34a2.81 2.81 0 0 0-2.81-2.81Zm-1.125 4.216v-1.405a1.124 1.124 0 0 1 2.249 0v1.405h-2.249Z"/></svg>